%TF.GenerationSoftware,KiCad,Pcbnew,(6.0.6-0)*%
%TF.CreationDate,2023-01-17T18:34:31+00:00*%
%TF.ProjectId,max2871-evalboard,6d617832-3837-4312-9d65-76616c626f61,1.0*%
%TF.SameCoordinates,Original*%
%TF.FileFunction,Soldermask,Bot*%
%TF.FilePolarity,Negative*%
%FSLAX46Y46*%
G04 Gerber Fmt 4.6, Leading zero omitted, Abs format (unit mm)*
G04 Created by KiCad (PCBNEW (6.0.6-0)) date 2023-01-17 18:34:31*
%MOMM*%
%LPD*%
G01*
G04 APERTURE LIST*
G04 Aperture macros list*
%AMRoundRect*
0 Rectangle with rounded corners*
0 $1 Rounding radius*
0 $2 $3 $4 $5 $6 $7 $8 $9 X,Y pos of 4 corners*
0 Add a 4 corners polygon primitive as box body*
4,1,4,$2,$3,$4,$5,$6,$7,$8,$9,$2,$3,0*
0 Add four circle primitives for the rounded corners*
1,1,$1+$1,$2,$3*
1,1,$1+$1,$4,$5*
1,1,$1+$1,$6,$7*
1,1,$1+$1,$8,$9*
0 Add four rect primitives between the rounded corners*
20,1,$1+$1,$2,$3,$4,$5,0*
20,1,$1+$1,$4,$5,$6,$7,0*
20,1,$1+$1,$6,$7,$8,$9,0*
20,1,$1+$1,$8,$9,$2,$3,0*%
G04 Aperture macros list end*
%ADD10C,0.100000*%
%ADD11R,1.800000X1.800000*%
%ADD12C,1.800000*%
%ADD13C,2.700000*%
%ADD14R,1.000000X1.000000*%
%ADD15O,1.000000X1.000000*%
%ADD16C,2.000000*%
%ADD17C,2.200000*%
%ADD18C,0.650000*%
%ADD19O,1.000000X2.000000*%
%ADD20O,1.050000X2.100000*%
%ADD21R,1.700000X1.700000*%
%ADD22O,1.700000X1.700000*%
%ADD23C,2.100000*%
%ADD24C,2.250000*%
%ADD25RoundRect,0.140000X-0.170000X0.140000X-0.170000X-0.140000X0.170000X-0.140000X0.170000X0.140000X0*%
%ADD26RoundRect,0.140000X0.170000X-0.140000X0.170000X0.140000X-0.170000X0.140000X-0.170000X-0.140000X0*%
%ADD27RoundRect,0.140000X0.140000X0.170000X-0.140000X0.170000X-0.140000X-0.170000X0.140000X-0.170000X0*%
%ADD28RoundRect,0.135000X0.135000X0.185000X-0.135000X0.185000X-0.135000X-0.185000X0.135000X-0.185000X0*%
%ADD29RoundRect,0.140000X-0.140000X-0.170000X0.140000X-0.170000X0.140000X0.170000X-0.140000X0.170000X0*%
%ADD30RoundRect,0.135000X-0.185000X0.135000X-0.185000X-0.135000X0.185000X-0.135000X0.185000X0.135000X0*%
%ADD31RoundRect,0.135000X-0.135000X-0.185000X0.135000X-0.185000X0.135000X0.185000X-0.135000X0.185000X0*%
%ADD32RoundRect,0.150000X0.150000X-0.587500X0.150000X0.587500X-0.150000X0.587500X-0.150000X-0.587500X0*%
%ADD33RoundRect,0.218750X-0.218750X-0.256250X0.218750X-0.256250X0.218750X0.256250X-0.218750X0.256250X0*%
%ADD34RoundRect,0.135000X0.185000X-0.135000X0.185000X0.135000X-0.185000X0.135000X-0.185000X-0.135000X0*%
G04 APERTURE END LIST*
D10*
X50000000Y-50000000D02*
X100000000Y-50000000D01*
X100000000Y-50000000D02*
X100000000Y-52000000D01*
X100000000Y-52000000D02*
X50000000Y-52000000D01*
X50000000Y-52000000D02*
X50000000Y-50000000D01*
G36*
X50000000Y-50000000D02*
G01*
X100000000Y-50000000D01*
X100000000Y-52000000D01*
X50000000Y-52000000D01*
X50000000Y-50000000D01*
G37*
X50000000Y-50000000D02*
X52000000Y-50000000D01*
X52000000Y-50000000D02*
X52000000Y-130000000D01*
X52000000Y-130000000D02*
X50000000Y-130000000D01*
X50000000Y-130000000D02*
X50000000Y-50000000D01*
G36*
X50000000Y-50000000D02*
G01*
X52000000Y-50000000D01*
X52000000Y-130000000D01*
X50000000Y-130000000D01*
X50000000Y-50000000D01*
G37*
X98000000Y-50000000D02*
X100000000Y-50000000D01*
X100000000Y-50000000D02*
X100000000Y-130000000D01*
X100000000Y-130000000D02*
X98000000Y-130000000D01*
X98000000Y-130000000D02*
X98000000Y-50000000D01*
G36*
X98000000Y-50000000D02*
G01*
X100000000Y-50000000D01*
X100000000Y-130000000D01*
X98000000Y-130000000D01*
X98000000Y-50000000D01*
G37*
X50000000Y-130000000D02*
X100000000Y-130000000D01*
X100000000Y-130000000D02*
X100000000Y-128000000D01*
X100000000Y-128000000D02*
X50000000Y-128000000D01*
X50000000Y-128000000D02*
X50000000Y-130000000D01*
G36*
X50000000Y-130000000D02*
G01*
X100000000Y-130000000D01*
X100000000Y-128000000D01*
X50000000Y-128000000D01*
X50000000Y-130000000D01*
G37*
D11*
X71500000Y-53800000D03*
D12*
X68960000Y-53800000D03*
D13*
X96000000Y-65000000D03*
D14*
X56925000Y-85300000D03*
D15*
X58195000Y-85300000D03*
X56925000Y-86570000D03*
X58195000Y-86570000D03*
X56925000Y-87840000D03*
X58195000Y-87840000D03*
X56925000Y-89110000D03*
X58195000Y-89110000D03*
X56925000Y-90380000D03*
X58195000Y-90380000D03*
D16*
X59500000Y-117850400D03*
X59500000Y-121050400D03*
X59500000Y-124250400D03*
X56500000Y-117850400D03*
X56500000Y-121050400D03*
X56500000Y-124250400D03*
D17*
X61300000Y-126900400D03*
X54700000Y-115200400D03*
D13*
X54000000Y-110000000D03*
X96000000Y-110000000D03*
X54000000Y-65000000D03*
D18*
X74990000Y-123485000D03*
X69210000Y-123485000D03*
D19*
X76420000Y-127165000D03*
D20*
X76420000Y-122985000D03*
D19*
X67780000Y-127165000D03*
D20*
X67780000Y-122985000D03*
D21*
X95000000Y-117175000D03*
D22*
X95000000Y-119715000D03*
X92460000Y-117175000D03*
X92460000Y-119715000D03*
X89920000Y-117175000D03*
X89920000Y-119715000D03*
X87380000Y-117175000D03*
X87380000Y-119715000D03*
X84840000Y-117175000D03*
X84840000Y-119715000D03*
X82300000Y-117175000D03*
X82300000Y-119715000D03*
D23*
X60000000Y-56000000D03*
D24*
X57450000Y-53450000D03*
X62550000Y-58550000D03*
X62550000Y-53450000D03*
X57450000Y-58550000D03*
D11*
X81500000Y-53700000D03*
D12*
X78960000Y-53700000D03*
D23*
X90000000Y-56000000D03*
D24*
X92550000Y-53450000D03*
X87450000Y-53450000D03*
X87450000Y-58550000D03*
X92550000Y-58550000D03*
D25*
X68224400Y-100307200D03*
X68224400Y-101267200D03*
D26*
X65836800Y-99692400D03*
X65836800Y-98732400D03*
D27*
X70634800Y-98755200D03*
X69674800Y-98755200D03*
X69517200Y-66700400D03*
X68557200Y-66700400D03*
D28*
X71325200Y-71628000D03*
X70305200Y-71628000D03*
D29*
X71808400Y-98755200D03*
X72768400Y-98755200D03*
D30*
X75184000Y-73861200D03*
X75184000Y-74881200D03*
D29*
X75262800Y-64922400D03*
X76222800Y-64922400D03*
D28*
X76252800Y-66090800D03*
X75232800Y-66090800D03*
D31*
X70762400Y-66700400D03*
X71782400Y-66700400D03*
D25*
X72948800Y-73891200D03*
X72948800Y-74851200D03*
D26*
X66954400Y-99692400D03*
X66954400Y-98732400D03*
D31*
X79144400Y-69646800D03*
X80164400Y-69646800D03*
D32*
X72679600Y-78458300D03*
X70779600Y-78458300D03*
X71729600Y-76583300D03*
D33*
X67944900Y-68224400D03*
X69519900Y-68224400D03*
D31*
X79144400Y-68580000D03*
X80164400Y-68580000D03*
D34*
X71678800Y-74881200D03*
X71678800Y-73861200D03*
D26*
X76301600Y-74851200D03*
X76301600Y-73891200D03*
D29*
X68252400Y-70002400D03*
X69212400Y-70002400D03*
D27*
X71295200Y-72694800D03*
X70335200Y-72694800D03*
D26*
X71018400Y-69110800D03*
X71018400Y-68150800D03*
D30*
X74066400Y-73861200D03*
X74066400Y-74881200D03*
D25*
X77419200Y-73891200D03*
X77419200Y-74851200D03*
D29*
X68252400Y-71526400D03*
X69212400Y-71526400D03*
D25*
X79146400Y-71427400D03*
X79146400Y-72387400D03*
M02*
