%TF.GenerationSoftware,KiCad,Pcbnew,(6.0.6-0)*%
%TF.CreationDate,2023-01-17T18:34:31+00:00*%
%TF.ProjectId,max2871-evalboard,6d617832-3837-4312-9d65-76616c626f61,1.0*%
%TF.SameCoordinates,Original*%
%TF.FileFunction,Soldermask,Top*%
%TF.FilePolarity,Negative*%
%FSLAX46Y46*%
G04 Gerber Fmt 4.6, Leading zero omitted, Abs format (unit mm)*
G04 Created by KiCad (PCBNEW (6.0.6-0)) date 2023-01-17 18:34:31*
%MOMM*%
%LPD*%
G01*
G04 APERTURE LIST*
G04 Aperture macros list*
%AMRoundRect*
0 Rectangle with rounded corners*
0 $1 Rounding radius*
0 $2 $3 $4 $5 $6 $7 $8 $9 X,Y pos of 4 corners*
0 Add a 4 corners polygon primitive as box body*
4,1,4,$2,$3,$4,$5,$6,$7,$8,$9,$2,$3,0*
0 Add four circle primitives for the rounded corners*
1,1,$1+$1,$2,$3*
1,1,$1+$1,$4,$5*
1,1,$1+$1,$6,$7*
1,1,$1+$1,$8,$9*
0 Add four rect primitives between the rounded corners*
20,1,$1+$1,$2,$3,$4,$5,0*
20,1,$1+$1,$4,$5,$6,$7,0*
20,1,$1+$1,$6,$7,$8,$9,0*
20,1,$1+$1,$8,$9,$2,$3,0*%
G04 Aperture macros list end*
%ADD10C,0.100000*%
%ADD11C,1.000000*%
%ADD12RoundRect,0.150000X-0.587500X-0.150000X0.587500X-0.150000X0.587500X0.150000X-0.587500X0.150000X0*%
%ADD13R,1.800000X1.800000*%
%ADD14C,1.800000*%
%ADD15RoundRect,0.135000X-0.185000X0.135000X-0.185000X-0.135000X0.185000X-0.135000X0.185000X0.135000X0*%
%ADD16RoundRect,0.135000X-0.135000X-0.185000X0.135000X-0.185000X0.135000X0.185000X-0.135000X0.185000X0*%
%ADD17RoundRect,0.218750X-0.218750X-0.256250X0.218750X-0.256250X0.218750X0.256250X-0.218750X0.256250X0*%
%ADD18RoundRect,0.140000X0.140000X0.170000X-0.140000X0.170000X-0.140000X-0.170000X0.140000X-0.170000X0*%
%ADD19RoundRect,0.140000X-0.140000X-0.170000X0.140000X-0.170000X0.140000X0.170000X-0.140000X0.170000X0*%
%ADD20RoundRect,0.140000X-0.170000X0.140000X-0.170000X-0.140000X0.170000X-0.140000X0.170000X0.140000X0*%
%ADD21C,2.700000*%
%ADD22R,1.200000X1.400000*%
%ADD23C,1.500000*%
%ADD24RoundRect,0.135000X0.135000X0.185000X-0.135000X0.185000X-0.135000X-0.185000X0.135000X-0.185000X0*%
%ADD25RoundRect,0.200000X0.200000X0.275000X-0.200000X0.275000X-0.200000X-0.275000X0.200000X-0.275000X0*%
%ADD26R,2.500000X1.800000*%
%ADD27RoundRect,0.135000X0.185000X-0.135000X0.185000X0.135000X-0.185000X0.135000X-0.185000X-0.135000X0*%
%ADD28R,1.000000X1.000000*%
%ADD29O,1.000000X1.000000*%
%ADD30RoundRect,0.140000X0.170000X-0.140000X0.170000X0.140000X-0.170000X0.140000X-0.170000X-0.140000X0*%
%ADD31RoundRect,0.150000X0.150000X-0.512500X0.150000X0.512500X-0.150000X0.512500X-0.150000X-0.512500X0*%
%ADD32C,2.000000*%
%ADD33C,2.200000*%
%ADD34RoundRect,0.250000X0.475000X-0.250000X0.475000X0.250000X-0.475000X0.250000X-0.475000X-0.250000X0*%
%ADD35R,0.950000X1.250000*%
%ADD36C,0.650000*%
%ADD37R,0.600000X1.150000*%
%ADD38R,0.300000X1.150000*%
%ADD39O,1.000000X2.000000*%
%ADD40O,1.050000X2.100000*%
%ADD41RoundRect,0.050000X0.387500X0.050000X-0.387500X0.050000X-0.387500X-0.050000X0.387500X-0.050000X0*%
%ADD42RoundRect,0.050000X0.050000X0.387500X-0.050000X0.387500X-0.050000X-0.387500X0.050000X-0.387500X0*%
%ADD43R,3.200000X3.200000*%
%ADD44RoundRect,0.225000X0.250000X-0.225000X0.250000X0.225000X-0.250000X0.225000X-0.250000X-0.225000X0*%
%ADD45R,1.700000X1.700000*%
%ADD46O,1.700000X1.700000*%
%ADD47R,1.400000X1.200000*%
%ADD48RoundRect,0.225000X0.225000X0.250000X-0.225000X0.250000X-0.225000X-0.250000X0.225000X-0.250000X0*%
%ADD49RoundRect,0.150000X0.650000X0.150000X-0.650000X0.150000X-0.650000X-0.150000X0.650000X-0.150000X0*%
%ADD50R,2.000000X1.500000*%
%ADD51R,2.000000X3.800000*%
%ADD52RoundRect,0.008100X0.126900X-0.411900X0.126900X0.411900X-0.126900X0.411900X-0.126900X-0.411900X0*%
%ADD53RoundRect,0.008100X0.411900X0.126900X-0.411900X0.126900X-0.411900X-0.126900X0.411900X-0.126900X0*%
%ADD54R,3.100000X3.100000*%
%ADD55C,2.100000*%
%ADD56C,2.250000*%
%ADD57RoundRect,0.218750X0.256250X-0.218750X0.256250X0.218750X-0.256250X0.218750X-0.256250X-0.218750X0*%
G04 APERTURE END LIST*
D10*
X50000000Y-50000000D02*
X52000000Y-50000000D01*
X52000000Y-50000000D02*
X52000000Y-130000000D01*
X52000000Y-130000000D02*
X50000000Y-130000000D01*
X50000000Y-130000000D02*
X50000000Y-50000000D01*
G36*
X50000000Y-50000000D02*
G01*
X52000000Y-50000000D01*
X52000000Y-130000000D01*
X50000000Y-130000000D01*
X50000000Y-50000000D01*
G37*
X98000000Y-50000000D02*
X100000000Y-50000000D01*
X100000000Y-50000000D02*
X100000000Y-130000000D01*
X100000000Y-130000000D02*
X98000000Y-130000000D01*
X98000000Y-130000000D02*
X98000000Y-50000000D01*
G36*
X98000000Y-50000000D02*
G01*
X100000000Y-50000000D01*
X100000000Y-130000000D01*
X98000000Y-130000000D01*
X98000000Y-50000000D01*
G37*
X50000000Y-130000000D02*
X100000000Y-130000000D01*
X100000000Y-130000000D02*
X100000000Y-128000000D01*
X100000000Y-128000000D02*
X50000000Y-128000000D01*
X50000000Y-128000000D02*
X50000000Y-130000000D01*
G36*
X50000000Y-130000000D02*
G01*
X100000000Y-130000000D01*
X100000000Y-128000000D01*
X50000000Y-128000000D01*
X50000000Y-130000000D01*
G37*
X50000000Y-50000000D02*
X100000000Y-50000000D01*
X100000000Y-50000000D02*
X100000000Y-52000000D01*
X100000000Y-52000000D02*
X50000000Y-52000000D01*
X50000000Y-52000000D02*
X50000000Y-50000000D01*
G36*
X50000000Y-50000000D02*
G01*
X100000000Y-50000000D01*
X100000000Y-52000000D01*
X50000000Y-52000000D01*
X50000000Y-50000000D01*
G37*
D11*
X92379800Y-112000000D03*
D12*
X79362500Y-57250000D03*
X79362500Y-59150000D03*
X81237500Y-58200000D03*
D13*
X71500000Y-53800000D03*
D14*
X68960000Y-53800000D03*
D15*
X79146400Y-70508400D03*
X79146400Y-71528400D03*
D16*
X72515000Y-88900000D03*
X73535000Y-88900000D03*
D17*
X75837500Y-61450000D03*
X77412500Y-61450000D03*
D18*
X75680000Y-74050000D03*
X74720000Y-74050000D03*
X77670600Y-65850000D03*
X76710600Y-65850000D03*
D19*
X66320000Y-70300000D03*
X67280000Y-70300000D03*
X76837600Y-95199200D03*
X77797600Y-95199200D03*
D20*
X65735200Y-74297600D03*
X65735200Y-75257600D03*
D16*
X59110000Y-102210000D03*
X60130000Y-102210000D03*
D21*
X96000000Y-65000000D03*
D22*
X68972800Y-74709200D03*
X68972800Y-72509200D03*
X67272800Y-72509200D03*
X67272800Y-74709200D03*
D16*
X69865000Y-55775000D03*
X70885000Y-55775000D03*
D18*
X77680000Y-64700000D03*
X76720000Y-64700000D03*
D23*
X66167000Y-106324400D03*
D24*
X65737200Y-77470000D03*
X64717200Y-77470000D03*
D23*
X79248000Y-91338400D03*
D24*
X82510000Y-108300000D03*
X81490000Y-108300000D03*
D25*
X68897000Y-77444600D03*
X67247000Y-77444600D03*
D26*
X65800000Y-111664600D03*
X69800000Y-111664600D03*
D18*
X71092000Y-70256400D03*
X70132000Y-70256400D03*
D27*
X74120000Y-120140000D03*
X74120000Y-119120000D03*
D28*
X56925000Y-85300000D03*
D29*
X58195000Y-85300000D03*
X56925000Y-86570000D03*
X58195000Y-86570000D03*
X56925000Y-87840000D03*
X58195000Y-87840000D03*
X56925000Y-89110000D03*
X58195000Y-89110000D03*
X56925000Y-90380000D03*
X58195000Y-90380000D03*
D23*
X56286400Y-70916800D03*
D12*
X86462500Y-87315000D03*
X86462500Y-89215000D03*
X88337500Y-88265000D03*
D23*
X80086200Y-111099600D03*
D27*
X79146400Y-69445600D03*
X79146400Y-68425600D03*
D24*
X92889800Y-85039200D03*
X91869800Y-85039200D03*
D17*
X91033500Y-83591400D03*
X92608500Y-83591400D03*
D30*
X78180000Y-75130000D03*
X78180000Y-74170000D03*
D23*
X54660800Y-78486000D03*
D31*
X76966600Y-79874300D03*
X77916600Y-79874300D03*
X78866600Y-79874300D03*
X78866600Y-77599300D03*
X76966600Y-77599300D03*
D32*
X59500000Y-117850400D03*
X59500000Y-121050400D03*
X59500000Y-124250400D03*
X56500000Y-117850400D03*
X56500000Y-121050400D03*
X56500000Y-124250400D03*
D33*
X61300000Y-126900400D03*
X54700000Y-115200400D03*
D18*
X65859600Y-95199200D03*
X64899600Y-95199200D03*
D27*
X81483200Y-72544400D03*
X81483200Y-71524400D03*
D23*
X62370000Y-111680000D03*
D24*
X92966000Y-89662000D03*
X91946000Y-89662000D03*
D23*
X73675000Y-57875000D03*
D21*
X54000000Y-110000000D03*
D11*
X87274400Y-112000000D03*
D23*
X58000000Y-112000000D03*
D27*
X67130000Y-120910000D03*
X67130000Y-119890000D03*
D19*
X74094400Y-108300000D03*
X75054400Y-108300000D03*
D34*
X84800000Y-95250000D03*
X84800000Y-93350000D03*
D35*
X92575000Y-108175000D03*
X92575000Y-103825000D03*
X90425000Y-108175000D03*
X90425000Y-103825000D03*
D20*
X72034400Y-100993000D03*
X72034400Y-101953000D03*
D30*
X71323200Y-65681800D03*
X71323200Y-64721800D03*
X75579800Y-80334400D03*
X75579800Y-79374400D03*
D21*
X96000000Y-110000000D03*
D30*
X73431400Y-65707200D03*
X73431400Y-64747200D03*
D19*
X80342800Y-69443600D03*
X81302800Y-69443600D03*
D30*
X76733400Y-86230400D03*
X76733400Y-85270400D03*
D19*
X76837600Y-98806000D03*
X77797600Y-98806000D03*
D27*
X69900800Y-101983000D03*
X69900800Y-100963000D03*
D21*
X54000000Y-65000000D03*
D30*
X72900000Y-107080000D03*
X72900000Y-106120000D03*
X70256400Y-65681800D03*
X70256400Y-64721800D03*
D11*
X93700000Y-114150000D03*
D27*
X72390000Y-65737200D03*
X72390000Y-64717200D03*
D36*
X74990000Y-123485000D03*
X69210000Y-123485000D03*
D37*
X68900000Y-122410000D03*
X69700000Y-122410000D03*
D38*
X70850000Y-122410000D03*
X71850000Y-122410000D03*
X72350000Y-122410000D03*
X73350000Y-122410000D03*
D37*
X75300000Y-122410000D03*
X74500000Y-122410000D03*
D38*
X73850000Y-122410000D03*
X72850000Y-122410000D03*
X71350000Y-122410000D03*
X70350000Y-122410000D03*
D39*
X76420000Y-127165000D03*
D40*
X76420000Y-122985000D03*
D39*
X67780000Y-127165000D03*
D40*
X67780000Y-122985000D03*
D41*
X75061500Y-98805200D03*
X75061500Y-98405200D03*
X75061500Y-98005200D03*
X75061500Y-97605200D03*
X75061500Y-97205200D03*
X75061500Y-96805200D03*
X75061500Y-96405200D03*
X75061500Y-96005200D03*
X75061500Y-95605200D03*
X75061500Y-95205200D03*
X75061500Y-94805200D03*
X75061500Y-94405200D03*
X75061500Y-94005200D03*
X75061500Y-93605200D03*
D42*
X74224000Y-92767700D03*
X73824000Y-92767700D03*
X73424000Y-92767700D03*
X73024000Y-92767700D03*
X72624000Y-92767700D03*
X72224000Y-92767700D03*
X71824000Y-92767700D03*
X71424000Y-92767700D03*
X71024000Y-92767700D03*
X70624000Y-92767700D03*
X70224000Y-92767700D03*
X69824000Y-92767700D03*
X69424000Y-92767700D03*
X69024000Y-92767700D03*
D41*
X68186500Y-93605200D03*
X68186500Y-94005200D03*
X68186500Y-94405200D03*
X68186500Y-94805200D03*
X68186500Y-95205200D03*
X68186500Y-95605200D03*
X68186500Y-96005200D03*
X68186500Y-96405200D03*
X68186500Y-96805200D03*
X68186500Y-97205200D03*
X68186500Y-97605200D03*
X68186500Y-98005200D03*
X68186500Y-98405200D03*
X68186500Y-98805200D03*
D42*
X69024000Y-99642700D03*
X69424000Y-99642700D03*
X69824000Y-99642700D03*
X70224000Y-99642700D03*
X70624000Y-99642700D03*
X71024000Y-99642700D03*
X71424000Y-99642700D03*
X71824000Y-99642700D03*
X72224000Y-99642700D03*
X72624000Y-99642700D03*
X73024000Y-99642700D03*
X73424000Y-99642700D03*
X73824000Y-99642700D03*
X74224000Y-99642700D03*
D43*
X71624000Y-96205200D03*
D44*
X85000000Y-98675000D03*
X85000000Y-97125000D03*
D45*
X95000000Y-117175000D03*
D46*
X95000000Y-119715000D03*
X92460000Y-117175000D03*
X92460000Y-119715000D03*
X89920000Y-117175000D03*
X89920000Y-119715000D03*
X87380000Y-117175000D03*
X87380000Y-119715000D03*
X84840000Y-117175000D03*
X84840000Y-119715000D03*
X82300000Y-117175000D03*
X82300000Y-119715000D03*
D47*
X72890200Y-87413200D03*
X75090200Y-87413200D03*
X75090200Y-85713200D03*
X72890200Y-85713200D03*
D16*
X73531000Y-89966800D03*
X74551000Y-89966800D03*
D30*
X78850000Y-66780000D03*
X78850000Y-65820000D03*
D48*
X69975000Y-118500000D03*
X68425000Y-118500000D03*
D27*
X75320000Y-120140000D03*
X75320000Y-119120000D03*
D49*
X81908200Y-106527600D03*
X81908200Y-105257600D03*
X81908200Y-103987600D03*
X81908200Y-102717600D03*
X74708200Y-102717600D03*
X74708200Y-103987600D03*
X74708200Y-105257600D03*
X74708200Y-106527600D03*
D26*
X65800000Y-115500000D03*
X69800000Y-115500000D03*
D50*
X87223200Y-93483400D03*
X87223200Y-95783400D03*
D51*
X93523200Y-95783400D03*
D50*
X87223200Y-98083400D03*
D52*
X73250000Y-72435000D03*
X73750000Y-72435000D03*
X74250000Y-72435000D03*
X74750000Y-72435000D03*
X75250000Y-72435000D03*
X75750000Y-72435000D03*
X76250000Y-72435000D03*
X76750000Y-72435000D03*
D53*
X77435000Y-71750000D03*
X77435000Y-71250000D03*
X77435000Y-70750000D03*
X77435000Y-70250000D03*
X77435000Y-69750000D03*
X77435000Y-69250000D03*
X77435000Y-68750000D03*
X77435000Y-68250000D03*
D52*
X76750000Y-67565000D03*
X76250000Y-67565000D03*
X75750000Y-67565000D03*
X75250000Y-67565000D03*
X74750000Y-67565000D03*
X74250000Y-67565000D03*
X73750000Y-67565000D03*
X73250000Y-67565000D03*
D53*
X72565000Y-68250000D03*
X72565000Y-68750000D03*
X72565000Y-69250000D03*
X72565000Y-69750000D03*
X72565000Y-70250000D03*
X72565000Y-70750000D03*
X72565000Y-71250000D03*
X72565000Y-71750000D03*
D54*
X75000000Y-70000000D03*
D20*
X71247000Y-86845200D03*
X71247000Y-87805200D03*
D27*
X70967600Y-101983000D03*
X70967600Y-100963000D03*
D24*
X78767400Y-108300000D03*
X77747400Y-108300000D03*
D55*
X60000000Y-56000000D03*
D56*
X57450000Y-53450000D03*
X62550000Y-58550000D03*
X62550000Y-53450000D03*
X57450000Y-58550000D03*
D19*
X80342800Y-70510400D03*
X81302800Y-70510400D03*
D20*
X68808600Y-100993000D03*
X68808600Y-101953000D03*
D13*
X81500000Y-53700000D03*
D14*
X78960000Y-53700000D03*
D20*
X80365600Y-71554400D03*
X80365600Y-72514400D03*
D35*
X60075000Y-103825000D03*
X60075000Y-108175000D03*
X57925000Y-103825000D03*
X57925000Y-108175000D03*
D18*
X77680000Y-63050000D03*
X76720000Y-63050000D03*
D57*
X81490000Y-76707500D03*
X81490000Y-75132500D03*
D15*
X64566800Y-74267600D03*
X64566800Y-75287600D03*
D16*
X78790000Y-55650000D03*
X79810000Y-55650000D03*
D18*
X75680000Y-75125000D03*
X74720000Y-75125000D03*
D27*
X61600000Y-109210000D03*
X61600000Y-108190000D03*
D11*
X89814400Y-113750000D03*
D23*
X84500000Y-75350000D03*
D12*
X86462500Y-82641400D03*
X86462500Y-84541400D03*
X88337500Y-83591400D03*
D30*
X71653400Y-91081800D03*
X71653400Y-90121800D03*
D20*
X75579800Y-77113800D03*
X75579800Y-78073800D03*
D30*
X70459600Y-91081800D03*
X70459600Y-90121800D03*
D27*
X68230000Y-120920000D03*
X68230000Y-119900000D03*
D55*
X90000000Y-56000000D03*
D56*
X92550000Y-53450000D03*
X87450000Y-53450000D03*
X87450000Y-58550000D03*
X92550000Y-58550000D03*
D17*
X91109700Y-88265000D03*
X92684700Y-88265000D03*
D30*
X80365600Y-68399600D03*
X80365600Y-67439600D03*
D24*
X81320000Y-80310000D03*
X80300000Y-80310000D03*
M02*
