%TF.GenerationSoftware,KiCad,Pcbnew,(6.0.6-0)*%
%TF.CreationDate,2023-01-17T18:34:31+00:00*%
%TF.ProjectId,max2871-evalboard,6d617832-3837-4312-9d65-76616c626f61,1.0*%
%TF.SameCoordinates,Original*%
%TF.FileFunction,Legend,Top*%
%TF.FilePolarity,Positive*%
%FSLAX46Y46*%
G04 Gerber Fmt 4.6, Leading zero omitted, Abs format (unit mm)*
G04 Created by KiCad (PCBNEW (6.0.6-0)) date 2023-01-17 18:34:31*
%MOMM*%
%LPD*%
G01*
G04 APERTURE LIST*
G04 Aperture macros list*
%AMRoundRect*
0 Rectangle with rounded corners*
0 $1 Rounding radius*
0 $2 $3 $4 $5 $6 $7 $8 $9 X,Y pos of 4 corners*
0 Add a 4 corners polygon primitive as box body*
4,1,4,$2,$3,$4,$5,$6,$7,$8,$9,$2,$3,0*
0 Add four circle primitives for the rounded corners*
1,1,$1+$1,$2,$3*
1,1,$1+$1,$4,$5*
1,1,$1+$1,$6,$7*
1,1,$1+$1,$8,$9*
0 Add four rect primitives between the rounded corners*
20,1,$1+$1,$2,$3,$4,$5,0*
20,1,$1+$1,$4,$5,$6,$7,0*
20,1,$1+$1,$6,$7,$8,$9,0*
20,1,$1+$1,$8,$9,$2,$3,0*%
G04 Aperture macros list end*
%ADD10C,0.120000*%
%ADD11C,0.150000*%
%ADD12C,0.130000*%
%ADD13C,0.127000*%
%ADD14C,0.200000*%
%ADD15C,0.100000*%
%ADD16C,1.000000*%
%ADD17RoundRect,0.150000X-0.587500X-0.150000X0.587500X-0.150000X0.587500X0.150000X-0.587500X0.150000X0*%
%ADD18R,1.800000X1.800000*%
%ADD19C,1.800000*%
%ADD20RoundRect,0.135000X-0.185000X0.135000X-0.185000X-0.135000X0.185000X-0.135000X0.185000X0.135000X0*%
%ADD21RoundRect,0.135000X-0.135000X-0.185000X0.135000X-0.185000X0.135000X0.185000X-0.135000X0.185000X0*%
%ADD22RoundRect,0.218750X-0.218750X-0.256250X0.218750X-0.256250X0.218750X0.256250X-0.218750X0.256250X0*%
%ADD23RoundRect,0.140000X0.140000X0.170000X-0.140000X0.170000X-0.140000X-0.170000X0.140000X-0.170000X0*%
%ADD24RoundRect,0.140000X-0.140000X-0.170000X0.140000X-0.170000X0.140000X0.170000X-0.140000X0.170000X0*%
%ADD25RoundRect,0.140000X-0.170000X0.140000X-0.170000X-0.140000X0.170000X-0.140000X0.170000X0.140000X0*%
%ADD26C,2.700000*%
%ADD27R,1.200000X1.400000*%
%ADD28C,1.500000*%
%ADD29RoundRect,0.135000X0.135000X0.185000X-0.135000X0.185000X-0.135000X-0.185000X0.135000X-0.185000X0*%
%ADD30RoundRect,0.200000X0.200000X0.275000X-0.200000X0.275000X-0.200000X-0.275000X0.200000X-0.275000X0*%
%ADD31R,2.500000X1.800000*%
%ADD32RoundRect,0.135000X0.185000X-0.135000X0.185000X0.135000X-0.185000X0.135000X-0.185000X-0.135000X0*%
%ADD33R,1.000000X1.000000*%
%ADD34O,1.000000X1.000000*%
%ADD35RoundRect,0.140000X0.170000X-0.140000X0.170000X0.140000X-0.170000X0.140000X-0.170000X-0.140000X0*%
%ADD36RoundRect,0.150000X0.150000X-0.512500X0.150000X0.512500X-0.150000X0.512500X-0.150000X-0.512500X0*%
%ADD37C,2.000000*%
%ADD38C,2.200000*%
%ADD39RoundRect,0.250000X0.475000X-0.250000X0.475000X0.250000X-0.475000X0.250000X-0.475000X-0.250000X0*%
%ADD40R,0.950000X1.250000*%
%ADD41C,0.650000*%
%ADD42R,0.600000X1.150000*%
%ADD43R,0.300000X1.150000*%
%ADD44O,1.000000X2.000000*%
%ADD45O,1.050000X2.100000*%
%ADD46RoundRect,0.050000X0.387500X0.050000X-0.387500X0.050000X-0.387500X-0.050000X0.387500X-0.050000X0*%
%ADD47RoundRect,0.050000X0.050000X0.387500X-0.050000X0.387500X-0.050000X-0.387500X0.050000X-0.387500X0*%
%ADD48R,3.200000X3.200000*%
%ADD49RoundRect,0.225000X0.250000X-0.225000X0.250000X0.225000X-0.250000X0.225000X-0.250000X-0.225000X0*%
%ADD50R,1.700000X1.700000*%
%ADD51O,1.700000X1.700000*%
%ADD52R,1.400000X1.200000*%
%ADD53RoundRect,0.225000X0.225000X0.250000X-0.225000X0.250000X-0.225000X-0.250000X0.225000X-0.250000X0*%
%ADD54RoundRect,0.150000X0.650000X0.150000X-0.650000X0.150000X-0.650000X-0.150000X0.650000X-0.150000X0*%
%ADD55R,2.000000X1.500000*%
%ADD56R,2.000000X3.800000*%
%ADD57RoundRect,0.008100X0.126900X-0.411900X0.126900X0.411900X-0.126900X0.411900X-0.126900X-0.411900X0*%
%ADD58RoundRect,0.008100X0.411900X0.126900X-0.411900X0.126900X-0.411900X-0.126900X0.411900X-0.126900X0*%
%ADD59R,3.100000X3.100000*%
%ADD60C,2.100000*%
%ADD61C,2.250000*%
%ADD62RoundRect,0.218750X0.256250X-0.218750X0.256250X0.218750X-0.256250X0.218750X-0.256250X-0.218750X0*%
G04 APERTURE END LIST*
D10*
X91051228Y-110223428D02*
X91394085Y-110223428D01*
X91222657Y-110823428D02*
X91222657Y-110223428D01*
X91594085Y-110823428D02*
X91594085Y-110223428D01*
X91822657Y-110223428D01*
X91879800Y-110252000D01*
X91908371Y-110280571D01*
X91936942Y-110337714D01*
X91936942Y-110423428D01*
X91908371Y-110480571D01*
X91879800Y-110509142D01*
X91822657Y-110537714D01*
X91594085Y-110537714D01*
X92508371Y-110823428D02*
X92165514Y-110823428D01*
X92336942Y-110823428D02*
X92336942Y-110223428D01*
X92279800Y-110309142D01*
X92222657Y-110366285D01*
X92165514Y-110394857D01*
X92879800Y-110223428D02*
X92936942Y-110223428D01*
X92994085Y-110252000D01*
X93022657Y-110280571D01*
X93051228Y-110337714D01*
X93079800Y-110452000D01*
X93079800Y-110594857D01*
X93051228Y-110709142D01*
X93022657Y-110766285D01*
X92994085Y-110794857D01*
X92936942Y-110823428D01*
X92879800Y-110823428D01*
X92822657Y-110794857D01*
X92794085Y-110766285D01*
X92765514Y-110709142D01*
X92736942Y-110594857D01*
X92736942Y-110452000D01*
X92765514Y-110337714D01*
X92794085Y-110280571D01*
X92822657Y-110252000D01*
X92879800Y-110223428D01*
X93308371Y-110280571D02*
X93336942Y-110252000D01*
X93394085Y-110223428D01*
X93536942Y-110223428D01*
X93594085Y-110252000D01*
X93622657Y-110280571D01*
X93651228Y-110337714D01*
X93651228Y-110394857D01*
X93622657Y-110480571D01*
X93279800Y-110823428D01*
X93651228Y-110823428D01*
X83328571Y-58628571D02*
X83300000Y-58685714D01*
X83242857Y-58742857D01*
X83157142Y-58828571D01*
X83128571Y-58885714D01*
X83128571Y-58942857D01*
X83271428Y-58914285D02*
X83242857Y-58971428D01*
X83185714Y-59028571D01*
X83071428Y-59057142D01*
X82871428Y-59057142D01*
X82757142Y-59028571D01*
X82700000Y-58971428D01*
X82671428Y-58914285D01*
X82671428Y-58800000D01*
X82700000Y-58742857D01*
X82757142Y-58685714D01*
X82871428Y-58657142D01*
X83071428Y-58657142D01*
X83185714Y-58685714D01*
X83242857Y-58742857D01*
X83271428Y-58800000D01*
X83271428Y-58914285D01*
X82728571Y-58428571D02*
X82700000Y-58400000D01*
X82671428Y-58342857D01*
X82671428Y-58200000D01*
X82700000Y-58142857D01*
X82728571Y-58114285D01*
X82785714Y-58085714D01*
X82842857Y-58085714D01*
X82928571Y-58114285D01*
X83271428Y-58457142D01*
X83271428Y-58085714D01*
X82671428Y-57714285D02*
X82671428Y-57657142D01*
X82700000Y-57600000D01*
X82728571Y-57571428D01*
X82785714Y-57542857D01*
X82900000Y-57514285D01*
X83042857Y-57514285D01*
X83157142Y-57542857D01*
X83214285Y-57571428D01*
X83242857Y-57600000D01*
X83271428Y-57657142D01*
X83271428Y-57714285D01*
X83242857Y-57771428D01*
X83214285Y-57800000D01*
X83157142Y-57828571D01*
X83042857Y-57857142D01*
X82900000Y-57857142D01*
X82785714Y-57828571D01*
X82728571Y-57800000D01*
X82700000Y-57771428D01*
X82671428Y-57714285D01*
X83271428Y-56942857D02*
X83271428Y-57285714D01*
X83271428Y-57114285D02*
X82671428Y-57114285D01*
X82757142Y-57171428D01*
X82814285Y-57228571D01*
X82842857Y-57285714D01*
X72960714Y-52971428D02*
X72960714Y-52371428D01*
X73103571Y-52371428D01*
X73189285Y-52400000D01*
X73246428Y-52457142D01*
X73275000Y-52514285D01*
X73303571Y-52628571D01*
X73303571Y-52714285D01*
X73275000Y-52828571D01*
X73246428Y-52885714D01*
X73189285Y-52942857D01*
X73103571Y-52971428D01*
X72960714Y-52971428D01*
X73875000Y-52971428D02*
X73532142Y-52971428D01*
X73703571Y-52971428D02*
X73703571Y-52371428D01*
X73646428Y-52457142D01*
X73589285Y-52514285D01*
X73532142Y-52542857D01*
X74246428Y-52371428D02*
X74303571Y-52371428D01*
X74360714Y-52400000D01*
X74389285Y-52428571D01*
X74417857Y-52485714D01*
X74446428Y-52600000D01*
X74446428Y-52742857D01*
X74417857Y-52857142D01*
X74389285Y-52914285D01*
X74360714Y-52942857D01*
X74303571Y-52971428D01*
X74246428Y-52971428D01*
X74189285Y-52942857D01*
X74160714Y-52914285D01*
X74132142Y-52857142D01*
X74103571Y-52742857D01*
X74103571Y-52600000D01*
X74132142Y-52485714D01*
X74160714Y-52428571D01*
X74189285Y-52400000D01*
X74246428Y-52371428D01*
X74646428Y-52371428D02*
X75017857Y-52371428D01*
X74817857Y-52600000D01*
X74903571Y-52600000D01*
X74960714Y-52628571D01*
X74989285Y-52657142D01*
X75017857Y-52714285D01*
X75017857Y-52857142D01*
X74989285Y-52914285D01*
X74960714Y-52942857D01*
X74903571Y-52971428D01*
X74732142Y-52971428D01*
X74675000Y-52942857D01*
X74646428Y-52914285D01*
X79417828Y-73889828D02*
X79132114Y-74089828D01*
X79417828Y-74232685D02*
X78817828Y-74232685D01*
X78817828Y-74004114D01*
X78846400Y-73946971D01*
X78874971Y-73918400D01*
X78932114Y-73889828D01*
X79017828Y-73889828D01*
X79074971Y-73918400D01*
X79103542Y-73946971D01*
X79132114Y-74004114D01*
X79132114Y-74232685D01*
X78817828Y-73689828D02*
X78817828Y-73318400D01*
X79046400Y-73518400D01*
X79046400Y-73432685D01*
X79074971Y-73375542D01*
X79103542Y-73346971D01*
X79160685Y-73318400D01*
X79303542Y-73318400D01*
X79360685Y-73346971D01*
X79389257Y-73375542D01*
X79417828Y-73432685D01*
X79417828Y-73604114D01*
X79389257Y-73661257D01*
X79360685Y-73689828D01*
X79417828Y-72746971D02*
X79417828Y-73089828D01*
X79417828Y-72918400D02*
X78817828Y-72918400D01*
X78903542Y-72975542D01*
X78960685Y-73032685D01*
X78989257Y-73089828D01*
X78817828Y-72204114D02*
X78817828Y-72489828D01*
X79103542Y-72518400D01*
X79074971Y-72489828D01*
X79046400Y-72432685D01*
X79046400Y-72289828D01*
X79074971Y-72232685D01*
X79103542Y-72204114D01*
X79160685Y-72175542D01*
X79303542Y-72175542D01*
X79360685Y-72204114D01*
X79389257Y-72232685D01*
X79417828Y-72289828D01*
X79417828Y-72432685D01*
X79389257Y-72489828D01*
X79360685Y-72518400D01*
X74588771Y-89171428D02*
X74388771Y-88885714D01*
X74245914Y-89171428D02*
X74245914Y-88571428D01*
X74474485Y-88571428D01*
X74531628Y-88600000D01*
X74560200Y-88628571D01*
X74588771Y-88685714D01*
X74588771Y-88771428D01*
X74560200Y-88828571D01*
X74531628Y-88857142D01*
X74474485Y-88885714D01*
X74245914Y-88885714D01*
X74817342Y-88628571D02*
X74845914Y-88600000D01*
X74903057Y-88571428D01*
X75045914Y-88571428D01*
X75103057Y-88600000D01*
X75131628Y-88628571D01*
X75160200Y-88685714D01*
X75160200Y-88742857D01*
X75131628Y-88828571D01*
X74788771Y-89171428D01*
X75160200Y-89171428D01*
X75531628Y-88571428D02*
X75588771Y-88571428D01*
X75645914Y-88600000D01*
X75674485Y-88628571D01*
X75703057Y-88685714D01*
X75731628Y-88800000D01*
X75731628Y-88942857D01*
X75703057Y-89057142D01*
X75674485Y-89114285D01*
X75645914Y-89142857D01*
X75588771Y-89171428D01*
X75531628Y-89171428D01*
X75474485Y-89142857D01*
X75445914Y-89114285D01*
X75417342Y-89057142D01*
X75388771Y-88942857D01*
X75388771Y-88800000D01*
X75417342Y-88685714D01*
X75445914Y-88628571D01*
X75474485Y-88600000D01*
X75531628Y-88571428D01*
X76274485Y-88571428D02*
X75988771Y-88571428D01*
X75960200Y-88857142D01*
X75988771Y-88828571D01*
X76045914Y-88800000D01*
X76188771Y-88800000D01*
X76245914Y-88828571D01*
X76274485Y-88857142D01*
X76303057Y-88914285D01*
X76303057Y-89057142D01*
X76274485Y-89114285D01*
X76245914Y-89142857D01*
X76188771Y-89171428D01*
X76045914Y-89171428D01*
X75988771Y-89142857D01*
X75960200Y-89114285D01*
X75953571Y-60291428D02*
X75667857Y-60291428D01*
X75667857Y-59691428D01*
X76096428Y-59691428D02*
X76467857Y-59691428D01*
X76267857Y-59920000D01*
X76353571Y-59920000D01*
X76410714Y-59948571D01*
X76439285Y-59977142D01*
X76467857Y-60034285D01*
X76467857Y-60177142D01*
X76439285Y-60234285D01*
X76410714Y-60262857D01*
X76353571Y-60291428D01*
X76182142Y-60291428D01*
X76125000Y-60262857D01*
X76096428Y-60234285D01*
X76839285Y-59691428D02*
X76896428Y-59691428D01*
X76953571Y-59720000D01*
X76982142Y-59748571D01*
X77010714Y-59805714D01*
X77039285Y-59920000D01*
X77039285Y-60062857D01*
X77010714Y-60177142D01*
X76982142Y-60234285D01*
X76953571Y-60262857D01*
X76896428Y-60291428D01*
X76839285Y-60291428D01*
X76782142Y-60262857D01*
X76753571Y-60234285D01*
X76725000Y-60177142D01*
X76696428Y-60062857D01*
X76696428Y-59920000D01*
X76725000Y-59805714D01*
X76753571Y-59748571D01*
X76782142Y-59720000D01*
X76839285Y-59691428D01*
X77610714Y-60291428D02*
X77267857Y-60291428D01*
X77439285Y-60291428D02*
X77439285Y-59691428D01*
X77382142Y-59777142D01*
X77325000Y-59834285D01*
X77267857Y-59862857D01*
X72403571Y-74264285D02*
X72375000Y-74292857D01*
X72289285Y-74321428D01*
X72232142Y-74321428D01*
X72146428Y-74292857D01*
X72089285Y-74235714D01*
X72060714Y-74178571D01*
X72032142Y-74064285D01*
X72032142Y-73978571D01*
X72060714Y-73864285D01*
X72089285Y-73807142D01*
X72146428Y-73750000D01*
X72232142Y-73721428D01*
X72289285Y-73721428D01*
X72375000Y-73750000D01*
X72403571Y-73778571D01*
X72603571Y-73721428D02*
X72975000Y-73721428D01*
X72775000Y-73950000D01*
X72860714Y-73950000D01*
X72917857Y-73978571D01*
X72946428Y-74007142D01*
X72975000Y-74064285D01*
X72975000Y-74207142D01*
X72946428Y-74264285D01*
X72917857Y-74292857D01*
X72860714Y-74321428D01*
X72689285Y-74321428D01*
X72632142Y-74292857D01*
X72603571Y-74264285D01*
X73546428Y-74321428D02*
X73203571Y-74321428D01*
X73375000Y-74321428D02*
X73375000Y-73721428D01*
X73317857Y-73807142D01*
X73260714Y-73864285D01*
X73203571Y-73892857D01*
X74060714Y-73721428D02*
X73946428Y-73721428D01*
X73889285Y-73750000D01*
X73860714Y-73778571D01*
X73803571Y-73864285D01*
X73775000Y-73978571D01*
X73775000Y-74207142D01*
X73803571Y-74264285D01*
X73832142Y-74292857D01*
X73889285Y-74321428D01*
X74003571Y-74321428D01*
X74060714Y-74292857D01*
X74089285Y-74264285D01*
X74117857Y-74207142D01*
X74117857Y-74064285D01*
X74089285Y-74007142D01*
X74060714Y-73978571D01*
X74003571Y-73950000D01*
X73889285Y-73950000D01*
X73832142Y-73978571D01*
X73803571Y-74007142D01*
X73775000Y-74064285D01*
X74410971Y-66089685D02*
X74382400Y-66118257D01*
X74296685Y-66146828D01*
X74239542Y-66146828D01*
X74153828Y-66118257D01*
X74096685Y-66061114D01*
X74068114Y-66003971D01*
X74039542Y-65889685D01*
X74039542Y-65803971D01*
X74068114Y-65689685D01*
X74096685Y-65632542D01*
X74153828Y-65575400D01*
X74239542Y-65546828D01*
X74296685Y-65546828D01*
X74382400Y-65575400D01*
X74410971Y-65603971D01*
X74610971Y-65546828D02*
X74982400Y-65546828D01*
X74782400Y-65775400D01*
X74868114Y-65775400D01*
X74925257Y-65803971D01*
X74953828Y-65832542D01*
X74982400Y-65889685D01*
X74982400Y-66032542D01*
X74953828Y-66089685D01*
X74925257Y-66118257D01*
X74868114Y-66146828D01*
X74696685Y-66146828D01*
X74639542Y-66118257D01*
X74610971Y-66089685D01*
X75553828Y-66146828D02*
X75210971Y-66146828D01*
X75382400Y-66146828D02*
X75382400Y-65546828D01*
X75325257Y-65632542D01*
X75268114Y-65689685D01*
X75210971Y-65718257D01*
X75782400Y-65603971D02*
X75810971Y-65575400D01*
X75868114Y-65546828D01*
X76010971Y-65546828D01*
X76068114Y-65575400D01*
X76096685Y-65603971D01*
X76125257Y-65661114D01*
X76125257Y-65718257D01*
X76096685Y-65803971D01*
X75753828Y-66146828D01*
X76125257Y-66146828D01*
X66128571Y-69354285D02*
X66100000Y-69382857D01*
X66014285Y-69411428D01*
X65957142Y-69411428D01*
X65871428Y-69382857D01*
X65814285Y-69325714D01*
X65785714Y-69268571D01*
X65757142Y-69154285D01*
X65757142Y-69068571D01*
X65785714Y-68954285D01*
X65814285Y-68897142D01*
X65871428Y-68840000D01*
X65957142Y-68811428D01*
X66014285Y-68811428D01*
X66100000Y-68840000D01*
X66128571Y-68868571D01*
X66700000Y-69411428D02*
X66357142Y-69411428D01*
X66528571Y-69411428D02*
X66528571Y-68811428D01*
X66471428Y-68897142D01*
X66414285Y-68954285D01*
X66357142Y-68982857D01*
X67071428Y-68811428D02*
X67128571Y-68811428D01*
X67185714Y-68840000D01*
X67214285Y-68868571D01*
X67242857Y-68925714D01*
X67271428Y-69040000D01*
X67271428Y-69182857D01*
X67242857Y-69297142D01*
X67214285Y-69354285D01*
X67185714Y-69382857D01*
X67128571Y-69411428D01*
X67071428Y-69411428D01*
X67014285Y-69382857D01*
X66985714Y-69354285D01*
X66957142Y-69297142D01*
X66928571Y-69182857D01*
X66928571Y-69040000D01*
X66957142Y-68925714D01*
X66985714Y-68868571D01*
X67014285Y-68840000D01*
X67071428Y-68811428D01*
X67785714Y-69011428D02*
X67785714Y-69411428D01*
X67642857Y-68782857D02*
X67500000Y-69211428D01*
X67871428Y-69211428D01*
X78779771Y-95413485D02*
X78751200Y-95442057D01*
X78665485Y-95470628D01*
X78608342Y-95470628D01*
X78522628Y-95442057D01*
X78465485Y-95384914D01*
X78436914Y-95327771D01*
X78408342Y-95213485D01*
X78408342Y-95127771D01*
X78436914Y-95013485D01*
X78465485Y-94956342D01*
X78522628Y-94899200D01*
X78608342Y-94870628D01*
X78665485Y-94870628D01*
X78751200Y-94899200D01*
X78779771Y-94927771D01*
X79008342Y-94927771D02*
X79036914Y-94899200D01*
X79094057Y-94870628D01*
X79236914Y-94870628D01*
X79294057Y-94899200D01*
X79322628Y-94927771D01*
X79351200Y-94984914D01*
X79351200Y-95042057D01*
X79322628Y-95127771D01*
X78979771Y-95470628D01*
X79351200Y-95470628D01*
X79922628Y-95470628D02*
X79579771Y-95470628D01*
X79751200Y-95470628D02*
X79751200Y-94870628D01*
X79694057Y-94956342D01*
X79636914Y-95013485D01*
X79579771Y-95042057D01*
X80151200Y-94927771D02*
X80179771Y-94899200D01*
X80236914Y-94870628D01*
X80379771Y-94870628D01*
X80436914Y-94899200D01*
X80465485Y-94927771D01*
X80494057Y-94984914D01*
X80494057Y-95042057D01*
X80465485Y-95127771D01*
X80122628Y-95470628D01*
X80494057Y-95470628D01*
X65924085Y-73264628D02*
X65952657Y-73293200D01*
X65981228Y-73378914D01*
X65981228Y-73436057D01*
X65952657Y-73521771D01*
X65895514Y-73578914D01*
X65838371Y-73607485D01*
X65724085Y-73636057D01*
X65638371Y-73636057D01*
X65524085Y-73607485D01*
X65466942Y-73578914D01*
X65409800Y-73521771D01*
X65381228Y-73436057D01*
X65381228Y-73378914D01*
X65409800Y-73293200D01*
X65438371Y-73264628D01*
X65381228Y-73064628D02*
X65381228Y-72693200D01*
X65609800Y-72893200D01*
X65609800Y-72807485D01*
X65638371Y-72750342D01*
X65666942Y-72721771D01*
X65724085Y-72693200D01*
X65866942Y-72693200D01*
X65924085Y-72721771D01*
X65952657Y-72750342D01*
X65981228Y-72807485D01*
X65981228Y-72978914D01*
X65952657Y-73036057D01*
X65924085Y-73064628D01*
X65438371Y-72464628D02*
X65409800Y-72436057D01*
X65381228Y-72378914D01*
X65381228Y-72236057D01*
X65409800Y-72178914D01*
X65438371Y-72150342D01*
X65495514Y-72121771D01*
X65552657Y-72121771D01*
X65638371Y-72150342D01*
X65981228Y-72493200D01*
X65981228Y-72121771D01*
X65438371Y-71893200D02*
X65409800Y-71864628D01*
X65381228Y-71807485D01*
X65381228Y-71664628D01*
X65409800Y-71607485D01*
X65438371Y-71578914D01*
X65495514Y-71550342D01*
X65552657Y-71550342D01*
X65638371Y-71578914D01*
X65981228Y-71921771D01*
X65981228Y-71550342D01*
X58938571Y-101551428D02*
X58738571Y-101265714D01*
X58595714Y-101551428D02*
X58595714Y-100951428D01*
X58824285Y-100951428D01*
X58881428Y-100980000D01*
X58910000Y-101008571D01*
X58938571Y-101065714D01*
X58938571Y-101151428D01*
X58910000Y-101208571D01*
X58881428Y-101237142D01*
X58824285Y-101265714D01*
X58595714Y-101265714D01*
X59167142Y-101008571D02*
X59195714Y-100980000D01*
X59252857Y-100951428D01*
X59395714Y-100951428D01*
X59452857Y-100980000D01*
X59481428Y-101008571D01*
X59510000Y-101065714D01*
X59510000Y-101122857D01*
X59481428Y-101208571D01*
X59138571Y-101551428D01*
X59510000Y-101551428D01*
X59881428Y-100951428D02*
X59938571Y-100951428D01*
X59995714Y-100980000D01*
X60024285Y-101008571D01*
X60052857Y-101065714D01*
X60081428Y-101180000D01*
X60081428Y-101322857D01*
X60052857Y-101437142D01*
X60024285Y-101494285D01*
X59995714Y-101522857D01*
X59938571Y-101551428D01*
X59881428Y-101551428D01*
X59824285Y-101522857D01*
X59795714Y-101494285D01*
X59767142Y-101437142D01*
X59738571Y-101322857D01*
X59738571Y-101180000D01*
X59767142Y-101065714D01*
X59795714Y-101008571D01*
X59824285Y-100980000D01*
X59881428Y-100951428D01*
X60281428Y-100951428D02*
X60652857Y-100951428D01*
X60452857Y-101180000D01*
X60538571Y-101180000D01*
X60595714Y-101208571D01*
X60624285Y-101237142D01*
X60652857Y-101294285D01*
X60652857Y-101437142D01*
X60624285Y-101494285D01*
X60595714Y-101522857D01*
X60538571Y-101551428D01*
X60367142Y-101551428D01*
X60310000Y-101522857D01*
X60281428Y-101494285D01*
X67043428Y-75896828D02*
X67043428Y-76382542D01*
X67072000Y-76439685D01*
X67100571Y-76468257D01*
X67157714Y-76496828D01*
X67272000Y-76496828D01*
X67329142Y-76468257D01*
X67357714Y-76439685D01*
X67386285Y-76382542D01*
X67386285Y-75896828D01*
X67614857Y-75896828D02*
X67986285Y-75896828D01*
X67786285Y-76125400D01*
X67872000Y-76125400D01*
X67929142Y-76153971D01*
X67957714Y-76182542D01*
X67986285Y-76239685D01*
X67986285Y-76382542D01*
X67957714Y-76439685D01*
X67929142Y-76468257D01*
X67872000Y-76496828D01*
X67700571Y-76496828D01*
X67643428Y-76468257D01*
X67614857Y-76439685D01*
X68357714Y-75896828D02*
X68414857Y-75896828D01*
X68472000Y-75925400D01*
X68500571Y-75953971D01*
X68529142Y-76011114D01*
X68557714Y-76125400D01*
X68557714Y-76268257D01*
X68529142Y-76382542D01*
X68500571Y-76439685D01*
X68472000Y-76468257D01*
X68414857Y-76496828D01*
X68357714Y-76496828D01*
X68300571Y-76468257D01*
X68272000Y-76439685D01*
X68243428Y-76382542D01*
X68214857Y-76268257D01*
X68214857Y-76125400D01*
X68243428Y-76011114D01*
X68272000Y-75953971D01*
X68300571Y-75925400D01*
X68357714Y-75896828D01*
X68786285Y-75953971D02*
X68814857Y-75925400D01*
X68872000Y-75896828D01*
X69014857Y-75896828D01*
X69072000Y-75925400D01*
X69100571Y-75953971D01*
X69129142Y-76011114D01*
X69129142Y-76068257D01*
X69100571Y-76153971D01*
X68757714Y-76496828D01*
X69129142Y-76496828D01*
X69720571Y-57024428D02*
X69520571Y-56738714D01*
X69377714Y-57024428D02*
X69377714Y-56424428D01*
X69606285Y-56424428D01*
X69663428Y-56453000D01*
X69692000Y-56481571D01*
X69720571Y-56538714D01*
X69720571Y-56624428D01*
X69692000Y-56681571D01*
X69663428Y-56710142D01*
X69606285Y-56738714D01*
X69377714Y-56738714D01*
X70292000Y-57024428D02*
X69949142Y-57024428D01*
X70120571Y-57024428D02*
X70120571Y-56424428D01*
X70063428Y-56510142D01*
X70006285Y-56567285D01*
X69949142Y-56595857D01*
X70663428Y-56424428D02*
X70720571Y-56424428D01*
X70777714Y-56453000D01*
X70806285Y-56481571D01*
X70834857Y-56538714D01*
X70863428Y-56653000D01*
X70863428Y-56795857D01*
X70834857Y-56910142D01*
X70806285Y-56967285D01*
X70777714Y-56995857D01*
X70720571Y-57024428D01*
X70663428Y-57024428D01*
X70606285Y-56995857D01*
X70577714Y-56967285D01*
X70549142Y-56910142D01*
X70520571Y-56795857D01*
X70520571Y-56653000D01*
X70549142Y-56538714D01*
X70577714Y-56481571D01*
X70606285Y-56453000D01*
X70663428Y-56424428D01*
X71406285Y-56424428D02*
X71120571Y-56424428D01*
X71092000Y-56710142D01*
X71120571Y-56681571D01*
X71177714Y-56653000D01*
X71320571Y-56653000D01*
X71377714Y-56681571D01*
X71406285Y-56710142D01*
X71434857Y-56767285D01*
X71434857Y-56910142D01*
X71406285Y-56967285D01*
X71377714Y-56995857D01*
X71320571Y-57024428D01*
X71177714Y-57024428D01*
X71120571Y-56995857D01*
X71092000Y-56967285D01*
X74369571Y-64939685D02*
X74341000Y-64968257D01*
X74255285Y-64996828D01*
X74198142Y-64996828D01*
X74112428Y-64968257D01*
X74055285Y-64911114D01*
X74026714Y-64853971D01*
X73998142Y-64739685D01*
X73998142Y-64653971D01*
X74026714Y-64539685D01*
X74055285Y-64482542D01*
X74112428Y-64425400D01*
X74198142Y-64396828D01*
X74255285Y-64396828D01*
X74341000Y-64425400D01*
X74369571Y-64453971D01*
X74569571Y-64396828D02*
X74941000Y-64396828D01*
X74741000Y-64625400D01*
X74826714Y-64625400D01*
X74883857Y-64653971D01*
X74912428Y-64682542D01*
X74941000Y-64739685D01*
X74941000Y-64882542D01*
X74912428Y-64939685D01*
X74883857Y-64968257D01*
X74826714Y-64996828D01*
X74655285Y-64996828D01*
X74598142Y-64968257D01*
X74569571Y-64939685D01*
X75312428Y-64396828D02*
X75369571Y-64396828D01*
X75426714Y-64425400D01*
X75455285Y-64453971D01*
X75483857Y-64511114D01*
X75512428Y-64625400D01*
X75512428Y-64768257D01*
X75483857Y-64882542D01*
X75455285Y-64939685D01*
X75426714Y-64968257D01*
X75369571Y-64996828D01*
X75312428Y-64996828D01*
X75255285Y-64968257D01*
X75226714Y-64939685D01*
X75198142Y-64882542D01*
X75169571Y-64768257D01*
X75169571Y-64625400D01*
X75198142Y-64511114D01*
X75226714Y-64453971D01*
X75255285Y-64425400D01*
X75312428Y-64396828D01*
X76026714Y-64396828D02*
X75912428Y-64396828D01*
X75855285Y-64425400D01*
X75826714Y-64453971D01*
X75769571Y-64539685D01*
X75741000Y-64653971D01*
X75741000Y-64882542D01*
X75769571Y-64939685D01*
X75798142Y-64968257D01*
X75855285Y-64996828D01*
X75969571Y-64996828D01*
X76026714Y-64968257D01*
X76055285Y-64939685D01*
X76083857Y-64882542D01*
X76083857Y-64739685D01*
X76055285Y-64682542D01*
X76026714Y-64653971D01*
X75969571Y-64625400D01*
X75855285Y-64625400D01*
X75798142Y-64653971D01*
X75769571Y-64682542D01*
X75741000Y-64739685D01*
X64838428Y-104347828D02*
X65181285Y-104347828D01*
X65009857Y-104947828D02*
X65009857Y-104347828D01*
X65381285Y-104947828D02*
X65381285Y-104347828D01*
X65609857Y-104347828D01*
X65667000Y-104376400D01*
X65695571Y-104404971D01*
X65724142Y-104462114D01*
X65724142Y-104547828D01*
X65695571Y-104604971D01*
X65667000Y-104633542D01*
X65609857Y-104662114D01*
X65381285Y-104662114D01*
X65952714Y-104404971D02*
X65981285Y-104376400D01*
X66038428Y-104347828D01*
X66181285Y-104347828D01*
X66238428Y-104376400D01*
X66267000Y-104404971D01*
X66295571Y-104462114D01*
X66295571Y-104519257D01*
X66267000Y-104604971D01*
X65924142Y-104947828D01*
X66295571Y-104947828D01*
X66667000Y-104347828D02*
X66724142Y-104347828D01*
X66781285Y-104376400D01*
X66809857Y-104404971D01*
X66838428Y-104462114D01*
X66867000Y-104576400D01*
X66867000Y-104719257D01*
X66838428Y-104833542D01*
X66809857Y-104890685D01*
X66781285Y-104919257D01*
X66724142Y-104947828D01*
X66667000Y-104947828D01*
X66609857Y-104919257D01*
X66581285Y-104890685D01*
X66552714Y-104833542D01*
X66524142Y-104719257D01*
X66524142Y-104576400D01*
X66552714Y-104462114D01*
X66581285Y-104404971D01*
X66609857Y-104376400D01*
X66667000Y-104347828D01*
X67067000Y-104347828D02*
X67438428Y-104347828D01*
X67238428Y-104576400D01*
X67324142Y-104576400D01*
X67381285Y-104604971D01*
X67409857Y-104633542D01*
X67438428Y-104690685D01*
X67438428Y-104833542D01*
X67409857Y-104890685D01*
X67381285Y-104919257D01*
X67324142Y-104947828D01*
X67152714Y-104947828D01*
X67095571Y-104919257D01*
X67067000Y-104890685D01*
X64555771Y-78808228D02*
X64355771Y-78522514D01*
X64212914Y-78808228D02*
X64212914Y-78208228D01*
X64441485Y-78208228D01*
X64498628Y-78236800D01*
X64527200Y-78265371D01*
X64555771Y-78322514D01*
X64555771Y-78408228D01*
X64527200Y-78465371D01*
X64498628Y-78493942D01*
X64441485Y-78522514D01*
X64212914Y-78522514D01*
X64755771Y-78208228D02*
X65127200Y-78208228D01*
X64927200Y-78436800D01*
X65012914Y-78436800D01*
X65070057Y-78465371D01*
X65098628Y-78493942D01*
X65127200Y-78551085D01*
X65127200Y-78693942D01*
X65098628Y-78751085D01*
X65070057Y-78779657D01*
X65012914Y-78808228D01*
X64841485Y-78808228D01*
X64784342Y-78779657D01*
X64755771Y-78751085D01*
X65498628Y-78208228D02*
X65555771Y-78208228D01*
X65612914Y-78236800D01*
X65641485Y-78265371D01*
X65670057Y-78322514D01*
X65698628Y-78436800D01*
X65698628Y-78579657D01*
X65670057Y-78693942D01*
X65641485Y-78751085D01*
X65612914Y-78779657D01*
X65555771Y-78808228D01*
X65498628Y-78808228D01*
X65441485Y-78779657D01*
X65412914Y-78751085D01*
X65384342Y-78693942D01*
X65355771Y-78579657D01*
X65355771Y-78436800D01*
X65384342Y-78322514D01*
X65412914Y-78265371D01*
X65441485Y-78236800D01*
X65498628Y-78208228D01*
X66041485Y-78465371D02*
X65984342Y-78436800D01*
X65955771Y-78408228D01*
X65927200Y-78351085D01*
X65927200Y-78322514D01*
X65955771Y-78265371D01*
X65984342Y-78236800D01*
X66041485Y-78208228D01*
X66155771Y-78208228D01*
X66212914Y-78236800D01*
X66241485Y-78265371D01*
X66270057Y-78322514D01*
X66270057Y-78351085D01*
X66241485Y-78408228D01*
X66212914Y-78436800D01*
X66155771Y-78465371D01*
X66041485Y-78465371D01*
X65984342Y-78493942D01*
X65955771Y-78522514D01*
X65927200Y-78579657D01*
X65927200Y-78693942D01*
X65955771Y-78751085D01*
X65984342Y-78779657D01*
X66041485Y-78808228D01*
X66155771Y-78808228D01*
X66212914Y-78779657D01*
X66241485Y-78751085D01*
X66270057Y-78693942D01*
X66270057Y-78579657D01*
X66241485Y-78522514D01*
X66212914Y-78493942D01*
X66155771Y-78465371D01*
X77919428Y-89361828D02*
X78262285Y-89361828D01*
X78090857Y-89961828D02*
X78090857Y-89361828D01*
X78462285Y-89961828D02*
X78462285Y-89361828D01*
X78690857Y-89361828D01*
X78748000Y-89390400D01*
X78776571Y-89418971D01*
X78805142Y-89476114D01*
X78805142Y-89561828D01*
X78776571Y-89618971D01*
X78748000Y-89647542D01*
X78690857Y-89676114D01*
X78462285Y-89676114D01*
X79033714Y-89418971D02*
X79062285Y-89390400D01*
X79119428Y-89361828D01*
X79262285Y-89361828D01*
X79319428Y-89390400D01*
X79348000Y-89418971D01*
X79376571Y-89476114D01*
X79376571Y-89533257D01*
X79348000Y-89618971D01*
X79005142Y-89961828D01*
X79376571Y-89961828D01*
X79748000Y-89361828D02*
X79805142Y-89361828D01*
X79862285Y-89390400D01*
X79890857Y-89418971D01*
X79919428Y-89476114D01*
X79948000Y-89590400D01*
X79948000Y-89733257D01*
X79919428Y-89847542D01*
X79890857Y-89904685D01*
X79862285Y-89933257D01*
X79805142Y-89961828D01*
X79748000Y-89961828D01*
X79690857Y-89933257D01*
X79662285Y-89904685D01*
X79633714Y-89847542D01*
X79605142Y-89733257D01*
X79605142Y-89590400D01*
X79633714Y-89476114D01*
X79662285Y-89418971D01*
X79690857Y-89390400D01*
X79748000Y-89361828D01*
X80462285Y-89561828D02*
X80462285Y-89961828D01*
X80319428Y-89333257D02*
X80176571Y-89761828D01*
X80548000Y-89761828D01*
X81328571Y-109638228D02*
X81128571Y-109352514D01*
X80985714Y-109638228D02*
X80985714Y-109038228D01*
X81214285Y-109038228D01*
X81271428Y-109066800D01*
X81300000Y-109095371D01*
X81328571Y-109152514D01*
X81328571Y-109238228D01*
X81300000Y-109295371D01*
X81271428Y-109323942D01*
X81214285Y-109352514D01*
X80985714Y-109352514D01*
X81557142Y-109095371D02*
X81585714Y-109066800D01*
X81642857Y-109038228D01*
X81785714Y-109038228D01*
X81842857Y-109066800D01*
X81871428Y-109095371D01*
X81900000Y-109152514D01*
X81900000Y-109209657D01*
X81871428Y-109295371D01*
X81528571Y-109638228D01*
X81900000Y-109638228D01*
X82271428Y-109038228D02*
X82328571Y-109038228D01*
X82385714Y-109066800D01*
X82414285Y-109095371D01*
X82442857Y-109152514D01*
X82471428Y-109266800D01*
X82471428Y-109409657D01*
X82442857Y-109523942D01*
X82414285Y-109581085D01*
X82385714Y-109609657D01*
X82328571Y-109638228D01*
X82271428Y-109638228D01*
X82214285Y-109609657D01*
X82185714Y-109581085D01*
X82157142Y-109523942D01*
X82128571Y-109409657D01*
X82128571Y-109266800D01*
X82157142Y-109152514D01*
X82185714Y-109095371D01*
X82214285Y-109066800D01*
X82271428Y-109038228D01*
X82700000Y-109095371D02*
X82728571Y-109066800D01*
X82785714Y-109038228D01*
X82928571Y-109038228D01*
X82985714Y-109066800D01*
X83014285Y-109095371D01*
X83042857Y-109152514D01*
X83042857Y-109209657D01*
X83014285Y-109295371D01*
X82671428Y-109638228D01*
X83042857Y-109638228D01*
X67400571Y-78960628D02*
X67200571Y-78674914D01*
X67057714Y-78960628D02*
X67057714Y-78360628D01*
X67286285Y-78360628D01*
X67343428Y-78389200D01*
X67372000Y-78417771D01*
X67400571Y-78474914D01*
X67400571Y-78560628D01*
X67372000Y-78617771D01*
X67343428Y-78646342D01*
X67286285Y-78674914D01*
X67057714Y-78674914D01*
X67600571Y-78360628D02*
X67972000Y-78360628D01*
X67772000Y-78589200D01*
X67857714Y-78589200D01*
X67914857Y-78617771D01*
X67943428Y-78646342D01*
X67972000Y-78703485D01*
X67972000Y-78846342D01*
X67943428Y-78903485D01*
X67914857Y-78932057D01*
X67857714Y-78960628D01*
X67686285Y-78960628D01*
X67629142Y-78932057D01*
X67600571Y-78903485D01*
X68343428Y-78360628D02*
X68400571Y-78360628D01*
X68457714Y-78389200D01*
X68486285Y-78417771D01*
X68514857Y-78474914D01*
X68543428Y-78589200D01*
X68543428Y-78732057D01*
X68514857Y-78846342D01*
X68486285Y-78903485D01*
X68457714Y-78932057D01*
X68400571Y-78960628D01*
X68343428Y-78960628D01*
X68286285Y-78932057D01*
X68257714Y-78903485D01*
X68229142Y-78846342D01*
X68200571Y-78732057D01*
X68200571Y-78589200D01*
X68229142Y-78474914D01*
X68257714Y-78417771D01*
X68286285Y-78389200D01*
X68343428Y-78360628D01*
X69057714Y-78360628D02*
X68943428Y-78360628D01*
X68886285Y-78389200D01*
X68857714Y-78417771D01*
X68800571Y-78503485D01*
X68772000Y-78617771D01*
X68772000Y-78846342D01*
X68800571Y-78903485D01*
X68829142Y-78932057D01*
X68886285Y-78960628D01*
X69000571Y-78960628D01*
X69057714Y-78932057D01*
X69086285Y-78903485D01*
X69114857Y-78846342D01*
X69114857Y-78703485D01*
X69086285Y-78646342D01*
X69057714Y-78617771D01*
X69000571Y-78589200D01*
X68886285Y-78589200D01*
X68829142Y-78617771D01*
X68800571Y-78646342D01*
X68772000Y-78703485D01*
D11*
X71722923Y-112116980D02*
X71722923Y-111116980D01*
X71961019Y-111116980D01*
X72103876Y-111164600D01*
X72199114Y-111259838D01*
X72246733Y-111355076D01*
X72294352Y-111545552D01*
X72294352Y-111688409D01*
X72246733Y-111878885D01*
X72199114Y-111974123D01*
X72103876Y-112069361D01*
X71961019Y-112116980D01*
X71722923Y-112116980D01*
X73246733Y-112116980D02*
X72675304Y-112116980D01*
X72961019Y-112116980D02*
X72961019Y-111116980D01*
X72865780Y-111259838D01*
X72770542Y-111355076D01*
X72675304Y-111402695D01*
X73865780Y-111116980D02*
X73961019Y-111116980D01*
X74056257Y-111164600D01*
X74103876Y-111212219D01*
X74151495Y-111307457D01*
X74199114Y-111497933D01*
X74199114Y-111736028D01*
X74151495Y-111926504D01*
X74103876Y-112021742D01*
X74056257Y-112069361D01*
X73961019Y-112116980D01*
X73865780Y-112116980D01*
X73770542Y-112069361D01*
X73722923Y-112021742D01*
X73675304Y-111926504D01*
X73627685Y-111736028D01*
X73627685Y-111497933D01*
X73675304Y-111307457D01*
X73722923Y-111212219D01*
X73770542Y-111164600D01*
X73865780Y-111116980D01*
X75151495Y-112116980D02*
X74580066Y-112116980D01*
X74865780Y-112116980D02*
X74865780Y-111116980D01*
X74770542Y-111259838D01*
X74675304Y-111355076D01*
X74580066Y-111402695D01*
D10*
X69940571Y-71364285D02*
X69912000Y-71392857D01*
X69826285Y-71421428D01*
X69769142Y-71421428D01*
X69683428Y-71392857D01*
X69626285Y-71335714D01*
X69597714Y-71278571D01*
X69569142Y-71164285D01*
X69569142Y-71078571D01*
X69597714Y-70964285D01*
X69626285Y-70907142D01*
X69683428Y-70850000D01*
X69769142Y-70821428D01*
X69826285Y-70821428D01*
X69912000Y-70850000D01*
X69940571Y-70878571D01*
X70140571Y-70821428D02*
X70512000Y-70821428D01*
X70312000Y-71050000D01*
X70397714Y-71050000D01*
X70454857Y-71078571D01*
X70483428Y-71107142D01*
X70512000Y-71164285D01*
X70512000Y-71307142D01*
X70483428Y-71364285D01*
X70454857Y-71392857D01*
X70397714Y-71421428D01*
X70226285Y-71421428D01*
X70169142Y-71392857D01*
X70140571Y-71364285D01*
X70740571Y-70878571D02*
X70769142Y-70850000D01*
X70826285Y-70821428D01*
X70969142Y-70821428D01*
X71026285Y-70850000D01*
X71054857Y-70878571D01*
X71083428Y-70935714D01*
X71083428Y-70992857D01*
X71054857Y-71078571D01*
X70712000Y-71421428D01*
X71083428Y-71421428D01*
X71283428Y-70821428D02*
X71654857Y-70821428D01*
X71454857Y-71050000D01*
X71540571Y-71050000D01*
X71597714Y-71078571D01*
X71626285Y-71107142D01*
X71654857Y-71164285D01*
X71654857Y-71307142D01*
X71626285Y-71364285D01*
X71597714Y-71392857D01*
X71540571Y-71421428D01*
X71369142Y-71421428D01*
X71312000Y-71392857D01*
X71283428Y-71364285D01*
X74391428Y-118201428D02*
X74105714Y-118401428D01*
X74391428Y-118544285D02*
X73791428Y-118544285D01*
X73791428Y-118315714D01*
X73820000Y-118258571D01*
X73848571Y-118230000D01*
X73905714Y-118201428D01*
X73991428Y-118201428D01*
X74048571Y-118230000D01*
X74077142Y-118258571D01*
X74105714Y-118315714D01*
X74105714Y-118544285D01*
X74391428Y-117630000D02*
X74391428Y-117972857D01*
X74391428Y-117801428D02*
X73791428Y-117801428D01*
X73877142Y-117858571D01*
X73934285Y-117915714D01*
X73962857Y-117972857D01*
X73791428Y-117258571D02*
X73791428Y-117201428D01*
X73820000Y-117144285D01*
X73848571Y-117115714D01*
X73905714Y-117087142D01*
X74020000Y-117058571D01*
X74162857Y-117058571D01*
X74277142Y-117087142D01*
X74334285Y-117115714D01*
X74362857Y-117144285D01*
X74391428Y-117201428D01*
X74391428Y-117258571D01*
X74362857Y-117315714D01*
X74334285Y-117344285D01*
X74277142Y-117372857D01*
X74162857Y-117401428D01*
X74020000Y-117401428D01*
X73905714Y-117372857D01*
X73848571Y-117344285D01*
X73820000Y-117315714D01*
X73791428Y-117258571D01*
X73991428Y-116544285D02*
X74391428Y-116544285D01*
X73762857Y-116687142D02*
X74191428Y-116830000D01*
X74191428Y-116458571D01*
D11*
X56274285Y-83057380D02*
X56274285Y-83771666D01*
X56226666Y-83914523D01*
X56131428Y-84009761D01*
X55988571Y-84057380D01*
X55893333Y-84057380D01*
X57274285Y-84057380D02*
X56702857Y-84057380D01*
X56988571Y-84057380D02*
X56988571Y-83057380D01*
X56893333Y-83200238D01*
X56798095Y-83295476D01*
X56702857Y-83343095D01*
X57893333Y-83057380D02*
X57988571Y-83057380D01*
X58083809Y-83105000D01*
X58131428Y-83152619D01*
X58179047Y-83247857D01*
X58226666Y-83438333D01*
X58226666Y-83676428D01*
X58179047Y-83866904D01*
X58131428Y-83962142D01*
X58083809Y-84009761D01*
X57988571Y-84057380D01*
X57893333Y-84057380D01*
X57798095Y-84009761D01*
X57750476Y-83962142D01*
X57702857Y-83866904D01*
X57655238Y-83676428D01*
X57655238Y-83438333D01*
X57702857Y-83247857D01*
X57750476Y-83152619D01*
X57798095Y-83105000D01*
X57893333Y-83057380D01*
X58560000Y-83057380D02*
X59179047Y-83057380D01*
X58845714Y-83438333D01*
X58988571Y-83438333D01*
X59083809Y-83485952D01*
X59131428Y-83533571D01*
X59179047Y-83628809D01*
X59179047Y-83866904D01*
X59131428Y-83962142D01*
X59083809Y-84009761D01*
X58988571Y-84057380D01*
X58702857Y-84057380D01*
X58607619Y-84009761D01*
X58560000Y-83962142D01*
D10*
X54957828Y-68940228D02*
X55300685Y-68940228D01*
X55129257Y-69540228D02*
X55129257Y-68940228D01*
X55500685Y-69540228D02*
X55500685Y-68940228D01*
X55729257Y-68940228D01*
X55786400Y-68968800D01*
X55814971Y-68997371D01*
X55843542Y-69054514D01*
X55843542Y-69140228D01*
X55814971Y-69197371D01*
X55786400Y-69225942D01*
X55729257Y-69254514D01*
X55500685Y-69254514D01*
X56043542Y-68940228D02*
X56414971Y-68940228D01*
X56214971Y-69168800D01*
X56300685Y-69168800D01*
X56357828Y-69197371D01*
X56386400Y-69225942D01*
X56414971Y-69283085D01*
X56414971Y-69425942D01*
X56386400Y-69483085D01*
X56357828Y-69511657D01*
X56300685Y-69540228D01*
X56129257Y-69540228D01*
X56072114Y-69511657D01*
X56043542Y-69483085D01*
X56786400Y-68940228D02*
X56843542Y-68940228D01*
X56900685Y-68968800D01*
X56929257Y-68997371D01*
X56957828Y-69054514D01*
X56986400Y-69168800D01*
X56986400Y-69311657D01*
X56957828Y-69425942D01*
X56929257Y-69483085D01*
X56900685Y-69511657D01*
X56843542Y-69540228D01*
X56786400Y-69540228D01*
X56729257Y-69511657D01*
X56700685Y-69483085D01*
X56672114Y-69425942D01*
X56643542Y-69311657D01*
X56643542Y-69168800D01*
X56672114Y-69054514D01*
X56700685Y-68997371D01*
X56729257Y-68968800D01*
X56786400Y-68940228D01*
X57186400Y-68940228D02*
X57557828Y-68940228D01*
X57357828Y-69168800D01*
X57443542Y-69168800D01*
X57500685Y-69197371D01*
X57529257Y-69225942D01*
X57557828Y-69283085D01*
X57557828Y-69425942D01*
X57529257Y-69483085D01*
X57500685Y-69511657D01*
X57443542Y-69540228D01*
X57272114Y-69540228D01*
X57214971Y-69511657D01*
X57186400Y-69483085D01*
X86771428Y-86193571D02*
X86714285Y-86165000D01*
X86657142Y-86107857D01*
X86571428Y-86022142D01*
X86514285Y-85993571D01*
X86457142Y-85993571D01*
X86485714Y-86136428D02*
X86428571Y-86107857D01*
X86371428Y-86050714D01*
X86342857Y-85936428D01*
X86342857Y-85736428D01*
X86371428Y-85622142D01*
X86428571Y-85565000D01*
X86485714Y-85536428D01*
X86600000Y-85536428D01*
X86657142Y-85565000D01*
X86714285Y-85622142D01*
X86742857Y-85736428D01*
X86742857Y-85936428D01*
X86714285Y-86050714D01*
X86657142Y-86107857D01*
X86600000Y-86136428D01*
X86485714Y-86136428D01*
X86971428Y-85593571D02*
X87000000Y-85565000D01*
X87057142Y-85536428D01*
X87200000Y-85536428D01*
X87257142Y-85565000D01*
X87285714Y-85593571D01*
X87314285Y-85650714D01*
X87314285Y-85707857D01*
X87285714Y-85793571D01*
X86942857Y-86136428D01*
X87314285Y-86136428D01*
X87685714Y-85536428D02*
X87742857Y-85536428D01*
X87800000Y-85565000D01*
X87828571Y-85593571D01*
X87857142Y-85650714D01*
X87885714Y-85765000D01*
X87885714Y-85907857D01*
X87857142Y-86022142D01*
X87828571Y-86079285D01*
X87800000Y-86107857D01*
X87742857Y-86136428D01*
X87685714Y-86136428D01*
X87628571Y-86107857D01*
X87600000Y-86079285D01*
X87571428Y-86022142D01*
X87542857Y-85907857D01*
X87542857Y-85765000D01*
X87571428Y-85650714D01*
X87600000Y-85593571D01*
X87628571Y-85565000D01*
X87685714Y-85536428D01*
X88114285Y-85593571D02*
X88142857Y-85565000D01*
X88200000Y-85536428D01*
X88342857Y-85536428D01*
X88400000Y-85565000D01*
X88428571Y-85593571D01*
X88457142Y-85650714D01*
X88457142Y-85707857D01*
X88428571Y-85793571D01*
X88085714Y-86136428D01*
X88457142Y-86136428D01*
X78656028Y-112549028D02*
X78998885Y-112549028D01*
X78827457Y-113149028D02*
X78827457Y-112549028D01*
X79198885Y-113149028D02*
X79198885Y-112549028D01*
X79427457Y-112549028D01*
X79484600Y-112577600D01*
X79513171Y-112606171D01*
X79541742Y-112663314D01*
X79541742Y-112749028D01*
X79513171Y-112806171D01*
X79484600Y-112834742D01*
X79427457Y-112863314D01*
X79198885Y-112863314D01*
X79770314Y-112606171D02*
X79798885Y-112577600D01*
X79856028Y-112549028D01*
X79998885Y-112549028D01*
X80056028Y-112577600D01*
X80084600Y-112606171D01*
X80113171Y-112663314D01*
X80113171Y-112720457D01*
X80084600Y-112806171D01*
X79741742Y-113149028D01*
X80113171Y-113149028D01*
X80484600Y-112549028D02*
X80541742Y-112549028D01*
X80598885Y-112577600D01*
X80627457Y-112606171D01*
X80656028Y-112663314D01*
X80684600Y-112777600D01*
X80684600Y-112920457D01*
X80656028Y-113034742D01*
X80627457Y-113091885D01*
X80598885Y-113120457D01*
X80541742Y-113149028D01*
X80484600Y-113149028D01*
X80427457Y-113120457D01*
X80398885Y-113091885D01*
X80370314Y-113034742D01*
X80341742Y-112920457D01*
X80341742Y-112777600D01*
X80370314Y-112663314D01*
X80398885Y-112606171D01*
X80427457Y-112577600D01*
X80484600Y-112549028D01*
X81256028Y-113149028D02*
X80913171Y-113149028D01*
X81084600Y-113149028D02*
X81084600Y-112549028D01*
X81027457Y-112634742D01*
X80970314Y-112691885D01*
X80913171Y-112720457D01*
X79821428Y-67521428D02*
X79535714Y-67721428D01*
X79821428Y-67864285D02*
X79221428Y-67864285D01*
X79221428Y-67635714D01*
X79250000Y-67578571D01*
X79278571Y-67550000D01*
X79335714Y-67521428D01*
X79421428Y-67521428D01*
X79478571Y-67550000D01*
X79507142Y-67578571D01*
X79535714Y-67635714D01*
X79535714Y-67864285D01*
X79221428Y-67321428D02*
X79221428Y-66950000D01*
X79450000Y-67150000D01*
X79450000Y-67064285D01*
X79478571Y-67007142D01*
X79507142Y-66978571D01*
X79564285Y-66950000D01*
X79707142Y-66950000D01*
X79764285Y-66978571D01*
X79792857Y-67007142D01*
X79821428Y-67064285D01*
X79821428Y-67235714D01*
X79792857Y-67292857D01*
X79764285Y-67321428D01*
X79821428Y-66378571D02*
X79821428Y-66721428D01*
X79821428Y-66550000D02*
X79221428Y-66550000D01*
X79307142Y-66607142D01*
X79364285Y-66664285D01*
X79392857Y-66721428D01*
X79421428Y-65864285D02*
X79821428Y-65864285D01*
X79192857Y-66007142D02*
X79621428Y-66150000D01*
X79621428Y-65778571D01*
X93943571Y-85336028D02*
X93743571Y-85050314D01*
X93600714Y-85336028D02*
X93600714Y-84736028D01*
X93829285Y-84736028D01*
X93886428Y-84764600D01*
X93915000Y-84793171D01*
X93943571Y-84850314D01*
X93943571Y-84936028D01*
X93915000Y-84993171D01*
X93886428Y-85021742D01*
X93829285Y-85050314D01*
X93600714Y-85050314D01*
X94172142Y-84793171D02*
X94200714Y-84764600D01*
X94257857Y-84736028D01*
X94400714Y-84736028D01*
X94457857Y-84764600D01*
X94486428Y-84793171D01*
X94515000Y-84850314D01*
X94515000Y-84907457D01*
X94486428Y-84993171D01*
X94143571Y-85336028D01*
X94515000Y-85336028D01*
X95086428Y-85336028D02*
X94743571Y-85336028D01*
X94915000Y-85336028D02*
X94915000Y-84736028D01*
X94857857Y-84821742D01*
X94800714Y-84878885D01*
X94743571Y-84907457D01*
X95657857Y-85336028D02*
X95315000Y-85336028D01*
X95486428Y-85336028D02*
X95486428Y-84736028D01*
X95429285Y-84821742D01*
X95372142Y-84878885D01*
X95315000Y-84907457D01*
D11*
X90130523Y-82613780D02*
X90130523Y-81613780D01*
X90368619Y-81613780D01*
X90511476Y-81661400D01*
X90606714Y-81756638D01*
X90654333Y-81851876D01*
X90701952Y-82042352D01*
X90701952Y-82185209D01*
X90654333Y-82375685D01*
X90606714Y-82470923D01*
X90511476Y-82566161D01*
X90368619Y-82613780D01*
X90130523Y-82613780D01*
X91082904Y-81709019D02*
X91130523Y-81661400D01*
X91225761Y-81613780D01*
X91463857Y-81613780D01*
X91559095Y-81661400D01*
X91606714Y-81709019D01*
X91654333Y-81804257D01*
X91654333Y-81899495D01*
X91606714Y-82042352D01*
X91035285Y-82613780D01*
X91654333Y-82613780D01*
X92273380Y-81613780D02*
X92368619Y-81613780D01*
X92463857Y-81661400D01*
X92511476Y-81709019D01*
X92559095Y-81804257D01*
X92606714Y-81994733D01*
X92606714Y-82232828D01*
X92559095Y-82423304D01*
X92511476Y-82518542D01*
X92463857Y-82566161D01*
X92368619Y-82613780D01*
X92273380Y-82613780D01*
X92178142Y-82566161D01*
X92130523Y-82518542D01*
X92082904Y-82423304D01*
X92035285Y-82232828D01*
X92035285Y-81994733D01*
X92082904Y-81804257D01*
X92130523Y-81709019D01*
X92178142Y-81661400D01*
X92273380Y-81613780D01*
X92940047Y-81613780D02*
X93559095Y-81613780D01*
X93225761Y-81994733D01*
X93368619Y-81994733D01*
X93463857Y-82042352D01*
X93511476Y-82089971D01*
X93559095Y-82185209D01*
X93559095Y-82423304D01*
X93511476Y-82518542D01*
X93463857Y-82566161D01*
X93368619Y-82613780D01*
X93082904Y-82613780D01*
X92987666Y-82566161D01*
X92940047Y-82518542D01*
D10*
X79414285Y-76341428D02*
X79442857Y-76370000D01*
X79471428Y-76455714D01*
X79471428Y-76512857D01*
X79442857Y-76598571D01*
X79385714Y-76655714D01*
X79328571Y-76684285D01*
X79214285Y-76712857D01*
X79128571Y-76712857D01*
X79014285Y-76684285D01*
X78957142Y-76655714D01*
X78900000Y-76598571D01*
X78871428Y-76512857D01*
X78871428Y-76455714D01*
X78900000Y-76370000D01*
X78928571Y-76341428D01*
X78871428Y-76141428D02*
X78871428Y-75770000D01*
X79100000Y-75970000D01*
X79100000Y-75884285D01*
X79128571Y-75827142D01*
X79157142Y-75798571D01*
X79214285Y-75770000D01*
X79357142Y-75770000D01*
X79414285Y-75798571D01*
X79442857Y-75827142D01*
X79471428Y-75884285D01*
X79471428Y-76055714D01*
X79442857Y-76112857D01*
X79414285Y-76141428D01*
X78871428Y-75398571D02*
X78871428Y-75341428D01*
X78900000Y-75284285D01*
X78928571Y-75255714D01*
X78985714Y-75227142D01*
X79100000Y-75198571D01*
X79242857Y-75198571D01*
X79357142Y-75227142D01*
X79414285Y-75255714D01*
X79442857Y-75284285D01*
X79471428Y-75341428D01*
X79471428Y-75398571D01*
X79442857Y-75455714D01*
X79414285Y-75484285D01*
X79357142Y-75512857D01*
X79242857Y-75541428D01*
X79100000Y-75541428D01*
X78985714Y-75512857D01*
X78928571Y-75484285D01*
X78900000Y-75455714D01*
X78871428Y-75398571D01*
X78871428Y-74655714D02*
X78871428Y-74941428D01*
X79157142Y-74970000D01*
X79128571Y-74941428D01*
X79100000Y-74884285D01*
X79100000Y-74741428D01*
X79128571Y-74684285D01*
X79157142Y-74655714D01*
X79214285Y-74627142D01*
X79357142Y-74627142D01*
X79414285Y-74655714D01*
X79442857Y-74684285D01*
X79471428Y-74741428D01*
X79471428Y-74884285D01*
X79442857Y-74941428D01*
X79414285Y-74970000D01*
X53332228Y-76509428D02*
X53675085Y-76509428D01*
X53503657Y-77109428D02*
X53503657Y-76509428D01*
X53875085Y-77109428D02*
X53875085Y-76509428D01*
X54103657Y-76509428D01*
X54160800Y-76538000D01*
X54189371Y-76566571D01*
X54217942Y-76623714D01*
X54217942Y-76709428D01*
X54189371Y-76766571D01*
X54160800Y-76795142D01*
X54103657Y-76823714D01*
X53875085Y-76823714D01*
X54446514Y-76566571D02*
X54475085Y-76538000D01*
X54532228Y-76509428D01*
X54675085Y-76509428D01*
X54732228Y-76538000D01*
X54760800Y-76566571D01*
X54789371Y-76623714D01*
X54789371Y-76680857D01*
X54760800Y-76766571D01*
X54417942Y-77109428D01*
X54789371Y-77109428D01*
X55160800Y-76509428D02*
X55217942Y-76509428D01*
X55275085Y-76538000D01*
X55303657Y-76566571D01*
X55332228Y-76623714D01*
X55360800Y-76738000D01*
X55360800Y-76880857D01*
X55332228Y-76995142D01*
X55303657Y-77052285D01*
X55275085Y-77080857D01*
X55217942Y-77109428D01*
X55160800Y-77109428D01*
X55103657Y-77080857D01*
X55075085Y-77052285D01*
X55046514Y-76995142D01*
X55017942Y-76880857D01*
X55017942Y-76738000D01*
X55046514Y-76623714D01*
X55075085Y-76566571D01*
X55103657Y-76538000D01*
X55160800Y-76509428D01*
X55589371Y-76566571D02*
X55617942Y-76538000D01*
X55675085Y-76509428D01*
X55817942Y-76509428D01*
X55875085Y-76538000D01*
X55903657Y-76566571D01*
X55932228Y-76623714D01*
X55932228Y-76680857D01*
X55903657Y-76766571D01*
X55560800Y-77109428D01*
X55932228Y-77109428D01*
D12*
X77018571Y-81061904D02*
X77018571Y-81709523D01*
X77056666Y-81785714D01*
X77094761Y-81823809D01*
X77170952Y-81861904D01*
X77323333Y-81861904D01*
X77399523Y-81823809D01*
X77437619Y-81785714D01*
X77475714Y-81709523D01*
X77475714Y-81061904D01*
X77780476Y-81061904D02*
X78275714Y-81061904D01*
X78009047Y-81366666D01*
X78123333Y-81366666D01*
X78199523Y-81404761D01*
X78237619Y-81442857D01*
X78275714Y-81519047D01*
X78275714Y-81709523D01*
X78237619Y-81785714D01*
X78199523Y-81823809D01*
X78123333Y-81861904D01*
X77894761Y-81861904D01*
X77818571Y-81823809D01*
X77780476Y-81785714D01*
X78770952Y-81061904D02*
X78847142Y-81061904D01*
X78923333Y-81100000D01*
X78961428Y-81138095D01*
X78999523Y-81214285D01*
X79037619Y-81366666D01*
X79037619Y-81557142D01*
X78999523Y-81709523D01*
X78961428Y-81785714D01*
X78923333Y-81823809D01*
X78847142Y-81861904D01*
X78770952Y-81861904D01*
X78694761Y-81823809D01*
X78656666Y-81785714D01*
X78618571Y-81709523D01*
X78580476Y-81557142D01*
X78580476Y-81366666D01*
X78618571Y-81214285D01*
X78656666Y-81138095D01*
X78694761Y-81100000D01*
X78770952Y-81061904D01*
X79799523Y-81861904D02*
X79342380Y-81861904D01*
X79570952Y-81861904D02*
X79570952Y-81061904D01*
X79494761Y-81176190D01*
X79418571Y-81252380D01*
X79342380Y-81290476D01*
D11*
X62495238Y-118739685D02*
X62447619Y-118882542D01*
X62447619Y-119120638D01*
X62495238Y-119215876D01*
X62542857Y-119263495D01*
X62638095Y-119311114D01*
X62733333Y-119311114D01*
X62828571Y-119263495D01*
X62876190Y-119215876D01*
X62923809Y-119120638D01*
X62971428Y-118930161D01*
X63019047Y-118834923D01*
X63066666Y-118787304D01*
X63161904Y-118739685D01*
X63257142Y-118739685D01*
X63352380Y-118787304D01*
X63400000Y-118834923D01*
X63447619Y-118930161D01*
X63447619Y-119168257D01*
X63400000Y-119311114D01*
X63447619Y-119644447D02*
X62447619Y-119882542D01*
X63161904Y-120073019D01*
X62447619Y-120263495D01*
X63447619Y-120501590D01*
X62447619Y-121406352D02*
X62447619Y-120834923D01*
X62447619Y-121120638D02*
X63447619Y-121120638D01*
X63304761Y-121025400D01*
X63209523Y-120930161D01*
X63161904Y-120834923D01*
X63447619Y-122025400D02*
X63447619Y-122120638D01*
X63400000Y-122215876D01*
X63352380Y-122263495D01*
X63257142Y-122311114D01*
X63066666Y-122358733D01*
X62828571Y-122358733D01*
X62638095Y-122311114D01*
X62542857Y-122263495D01*
X62495238Y-122215876D01*
X62447619Y-122120638D01*
X62447619Y-122025400D01*
X62495238Y-121930161D01*
X62542857Y-121882542D01*
X62638095Y-121834923D01*
X62828571Y-121787304D01*
X63066666Y-121787304D01*
X63257142Y-121834923D01*
X63352380Y-121882542D01*
X63400000Y-121930161D01*
X63447619Y-122025400D01*
X62447619Y-123311114D02*
X62447619Y-122739685D01*
X62447619Y-123025400D02*
X63447619Y-123025400D01*
X63304761Y-122930161D01*
X63209523Y-122834923D01*
X63161904Y-122739685D01*
D10*
X62523771Y-95413485D02*
X62495200Y-95442057D01*
X62409485Y-95470628D01*
X62352342Y-95470628D01*
X62266628Y-95442057D01*
X62209485Y-95384914D01*
X62180914Y-95327771D01*
X62152342Y-95213485D01*
X62152342Y-95127771D01*
X62180914Y-95013485D01*
X62209485Y-94956342D01*
X62266628Y-94899200D01*
X62352342Y-94870628D01*
X62409485Y-94870628D01*
X62495200Y-94899200D01*
X62523771Y-94927771D01*
X62752342Y-94927771D02*
X62780914Y-94899200D01*
X62838057Y-94870628D01*
X62980914Y-94870628D01*
X63038057Y-94899200D01*
X63066628Y-94927771D01*
X63095200Y-94984914D01*
X63095200Y-95042057D01*
X63066628Y-95127771D01*
X62723771Y-95470628D01*
X63095200Y-95470628D01*
X63666628Y-95470628D02*
X63323771Y-95470628D01*
X63495200Y-95470628D02*
X63495200Y-94870628D01*
X63438057Y-94956342D01*
X63380914Y-95013485D01*
X63323771Y-95042057D01*
X63866628Y-94870628D02*
X64266628Y-94870628D01*
X64009485Y-95470628D01*
X82771428Y-72721428D02*
X82485714Y-72921428D01*
X82771428Y-73064285D02*
X82171428Y-73064285D01*
X82171428Y-72835714D01*
X82200000Y-72778571D01*
X82228571Y-72750000D01*
X82285714Y-72721428D01*
X82371428Y-72721428D01*
X82428571Y-72750000D01*
X82457142Y-72778571D01*
X82485714Y-72835714D01*
X82485714Y-73064285D01*
X82771428Y-72150000D02*
X82771428Y-72492857D01*
X82771428Y-72321428D02*
X82171428Y-72321428D01*
X82257142Y-72378571D01*
X82314285Y-72435714D01*
X82342857Y-72492857D01*
X82171428Y-71778571D02*
X82171428Y-71721428D01*
X82200000Y-71664285D01*
X82228571Y-71635714D01*
X82285714Y-71607142D01*
X82400000Y-71578571D01*
X82542857Y-71578571D01*
X82657142Y-71607142D01*
X82714285Y-71635714D01*
X82742857Y-71664285D01*
X82771428Y-71721428D01*
X82771428Y-71778571D01*
X82742857Y-71835714D01*
X82714285Y-71864285D01*
X82657142Y-71892857D01*
X82542857Y-71921428D01*
X82400000Y-71921428D01*
X82285714Y-71892857D01*
X82228571Y-71864285D01*
X82200000Y-71835714D01*
X82171428Y-71778571D01*
X82171428Y-71064285D02*
X82171428Y-71178571D01*
X82200000Y-71235714D01*
X82228571Y-71264285D01*
X82314285Y-71321428D01*
X82428571Y-71350000D01*
X82657142Y-71350000D01*
X82714285Y-71321428D01*
X82742857Y-71292857D01*
X82771428Y-71235714D01*
X82771428Y-71121428D01*
X82742857Y-71064285D01*
X82714285Y-71035714D01*
X82657142Y-71007142D01*
X82514285Y-71007142D01*
X82457142Y-71035714D01*
X82428571Y-71064285D01*
X82400000Y-71121428D01*
X82400000Y-71235714D01*
X82428571Y-71292857D01*
X82457142Y-71321428D01*
X82514285Y-71350000D01*
X61061428Y-113201428D02*
X61404285Y-113201428D01*
X61232857Y-113801428D02*
X61232857Y-113201428D01*
X61604285Y-113801428D02*
X61604285Y-113201428D01*
X61832857Y-113201428D01*
X61890000Y-113230000D01*
X61918571Y-113258571D01*
X61947142Y-113315714D01*
X61947142Y-113401428D01*
X61918571Y-113458571D01*
X61890000Y-113487142D01*
X61832857Y-113515714D01*
X61604285Y-113515714D01*
X62518571Y-113801428D02*
X62175714Y-113801428D01*
X62347142Y-113801428D02*
X62347142Y-113201428D01*
X62290000Y-113287142D01*
X62232857Y-113344285D01*
X62175714Y-113372857D01*
X62890000Y-113201428D02*
X62947142Y-113201428D01*
X63004285Y-113230000D01*
X63032857Y-113258571D01*
X63061428Y-113315714D01*
X63090000Y-113430000D01*
X63090000Y-113572857D01*
X63061428Y-113687142D01*
X63032857Y-113744285D01*
X63004285Y-113772857D01*
X62947142Y-113801428D01*
X62890000Y-113801428D01*
X62832857Y-113772857D01*
X62804285Y-113744285D01*
X62775714Y-113687142D01*
X62747142Y-113572857D01*
X62747142Y-113430000D01*
X62775714Y-113315714D01*
X62804285Y-113258571D01*
X62832857Y-113230000D01*
X62890000Y-113201428D01*
X63632857Y-113201428D02*
X63347142Y-113201428D01*
X63318571Y-113487142D01*
X63347142Y-113458571D01*
X63404285Y-113430000D01*
X63547142Y-113430000D01*
X63604285Y-113458571D01*
X63632857Y-113487142D01*
X63661428Y-113544285D01*
X63661428Y-113687142D01*
X63632857Y-113744285D01*
X63604285Y-113772857D01*
X63547142Y-113801428D01*
X63404285Y-113801428D01*
X63347142Y-113772857D01*
X63318571Y-113744285D01*
X94019771Y-89933428D02*
X93819771Y-89647714D01*
X93676914Y-89933428D02*
X93676914Y-89333428D01*
X93905485Y-89333428D01*
X93962628Y-89362000D01*
X93991200Y-89390571D01*
X94019771Y-89447714D01*
X94019771Y-89533428D01*
X93991200Y-89590571D01*
X93962628Y-89619142D01*
X93905485Y-89647714D01*
X93676914Y-89647714D01*
X94248342Y-89390571D02*
X94276914Y-89362000D01*
X94334057Y-89333428D01*
X94476914Y-89333428D01*
X94534057Y-89362000D01*
X94562628Y-89390571D01*
X94591200Y-89447714D01*
X94591200Y-89504857D01*
X94562628Y-89590571D01*
X94219771Y-89933428D01*
X94591200Y-89933428D01*
X95162628Y-89933428D02*
X94819771Y-89933428D01*
X94991200Y-89933428D02*
X94991200Y-89333428D01*
X94934057Y-89419142D01*
X94876914Y-89476285D01*
X94819771Y-89504857D01*
X95534057Y-89333428D02*
X95591200Y-89333428D01*
X95648342Y-89362000D01*
X95676914Y-89390571D01*
X95705485Y-89447714D01*
X95734057Y-89562000D01*
X95734057Y-89704857D01*
X95705485Y-89819142D01*
X95676914Y-89876285D01*
X95648342Y-89904857D01*
X95591200Y-89933428D01*
X95534057Y-89933428D01*
X95476914Y-89904857D01*
X95448342Y-89876285D01*
X95419771Y-89819142D01*
X95391200Y-89704857D01*
X95391200Y-89562000D01*
X95419771Y-89447714D01*
X95448342Y-89390571D01*
X95476914Y-89362000D01*
X95534057Y-89333428D01*
X73210028Y-55870028D02*
X73552885Y-55870028D01*
X73381457Y-56470028D02*
X73381457Y-55870028D01*
X73752885Y-56470028D02*
X73752885Y-55870028D01*
X73981457Y-55870028D01*
X74038600Y-55898600D01*
X74067171Y-55927171D01*
X74095742Y-55984314D01*
X74095742Y-56070028D01*
X74067171Y-56127171D01*
X74038600Y-56155742D01*
X73981457Y-56184314D01*
X73752885Y-56184314D01*
X74295742Y-55870028D02*
X74667171Y-55870028D01*
X74467171Y-56098600D01*
X74552885Y-56098600D01*
X74610028Y-56127171D01*
X74638600Y-56155742D01*
X74667171Y-56212885D01*
X74667171Y-56355742D01*
X74638600Y-56412885D01*
X74610028Y-56441457D01*
X74552885Y-56470028D01*
X74381457Y-56470028D01*
X74324314Y-56441457D01*
X74295742Y-56412885D01*
X75038600Y-55870028D02*
X75095742Y-55870028D01*
X75152885Y-55898600D01*
X75181457Y-55927171D01*
X75210028Y-55984314D01*
X75238600Y-56098600D01*
X75238600Y-56241457D01*
X75210028Y-56355742D01*
X75181457Y-56412885D01*
X75152885Y-56441457D01*
X75095742Y-56470028D01*
X75038600Y-56470028D01*
X74981457Y-56441457D01*
X74952885Y-56412885D01*
X74924314Y-56355742D01*
X74895742Y-56241457D01*
X74895742Y-56098600D01*
X74924314Y-55984314D01*
X74952885Y-55927171D01*
X74981457Y-55898600D01*
X75038600Y-55870028D01*
X75810028Y-56470028D02*
X75467171Y-56470028D01*
X75638600Y-56470028D02*
X75638600Y-55870028D01*
X75581457Y-55955742D01*
X75524314Y-56012885D01*
X75467171Y-56041457D01*
X85945828Y-110223428D02*
X86288685Y-110223428D01*
X86117257Y-110823428D02*
X86117257Y-110223428D01*
X86488685Y-110823428D02*
X86488685Y-110223428D01*
X86717257Y-110223428D01*
X86774400Y-110252000D01*
X86802971Y-110280571D01*
X86831542Y-110337714D01*
X86831542Y-110423428D01*
X86802971Y-110480571D01*
X86774400Y-110509142D01*
X86717257Y-110537714D01*
X86488685Y-110537714D01*
X87402971Y-110823428D02*
X87060114Y-110823428D01*
X87231542Y-110823428D02*
X87231542Y-110223428D01*
X87174400Y-110309142D01*
X87117257Y-110366285D01*
X87060114Y-110394857D01*
X87774400Y-110223428D02*
X87831542Y-110223428D01*
X87888685Y-110252000D01*
X87917257Y-110280571D01*
X87945828Y-110337714D01*
X87974400Y-110452000D01*
X87974400Y-110594857D01*
X87945828Y-110709142D01*
X87917257Y-110766285D01*
X87888685Y-110794857D01*
X87831542Y-110823428D01*
X87774400Y-110823428D01*
X87717257Y-110794857D01*
X87688685Y-110766285D01*
X87660114Y-110709142D01*
X87631542Y-110594857D01*
X87631542Y-110452000D01*
X87660114Y-110337714D01*
X87688685Y-110280571D01*
X87717257Y-110252000D01*
X87774400Y-110223428D01*
X88488685Y-110423428D02*
X88488685Y-110823428D01*
X88345828Y-110194857D02*
X88202971Y-110623428D01*
X88574400Y-110623428D01*
X56696828Y-109944228D02*
X57039685Y-109944228D01*
X56868257Y-110544228D02*
X56868257Y-109944228D01*
X57239685Y-110544228D02*
X57239685Y-109944228D01*
X57468257Y-109944228D01*
X57525400Y-109972800D01*
X57553971Y-110001371D01*
X57582542Y-110058514D01*
X57582542Y-110144228D01*
X57553971Y-110201371D01*
X57525400Y-110229942D01*
X57468257Y-110258514D01*
X57239685Y-110258514D01*
X58153971Y-110544228D02*
X57811114Y-110544228D01*
X57982542Y-110544228D02*
X57982542Y-109944228D01*
X57925400Y-110029942D01*
X57868257Y-110087085D01*
X57811114Y-110115657D01*
X58525400Y-109944228D02*
X58582542Y-109944228D01*
X58639685Y-109972800D01*
X58668257Y-110001371D01*
X58696828Y-110058514D01*
X58725400Y-110172800D01*
X58725400Y-110315657D01*
X58696828Y-110429942D01*
X58668257Y-110487085D01*
X58639685Y-110515657D01*
X58582542Y-110544228D01*
X58525400Y-110544228D01*
X58468257Y-110515657D01*
X58439685Y-110487085D01*
X58411114Y-110429942D01*
X58382542Y-110315657D01*
X58382542Y-110172800D01*
X58411114Y-110058514D01*
X58439685Y-110001371D01*
X58468257Y-109972800D01*
X58525400Y-109944228D01*
X59239685Y-109944228D02*
X59125400Y-109944228D01*
X59068257Y-109972800D01*
X59039685Y-110001371D01*
X58982542Y-110087085D01*
X58953971Y-110201371D01*
X58953971Y-110429942D01*
X58982542Y-110487085D01*
X59011114Y-110515657D01*
X59068257Y-110544228D01*
X59182542Y-110544228D01*
X59239685Y-110515657D01*
X59268257Y-110487085D01*
X59296828Y-110429942D01*
X59296828Y-110287085D01*
X59268257Y-110229942D01*
X59239685Y-110201371D01*
X59182542Y-110172800D01*
X59068257Y-110172800D01*
X59011114Y-110201371D01*
X58982542Y-110229942D01*
X58953971Y-110287085D01*
X66431428Y-121031428D02*
X66145714Y-121231428D01*
X66431428Y-121374285D02*
X65831428Y-121374285D01*
X65831428Y-121145714D01*
X65860000Y-121088571D01*
X65888571Y-121060000D01*
X65945714Y-121031428D01*
X66031428Y-121031428D01*
X66088571Y-121060000D01*
X66117142Y-121088571D01*
X66145714Y-121145714D01*
X66145714Y-121374285D01*
X66431428Y-120460000D02*
X66431428Y-120802857D01*
X66431428Y-120631428D02*
X65831428Y-120631428D01*
X65917142Y-120688571D01*
X65974285Y-120745714D01*
X66002857Y-120802857D01*
X65831428Y-120088571D02*
X65831428Y-120031428D01*
X65860000Y-119974285D01*
X65888571Y-119945714D01*
X65945714Y-119917142D01*
X66060000Y-119888571D01*
X66202857Y-119888571D01*
X66317142Y-119917142D01*
X66374285Y-119945714D01*
X66402857Y-119974285D01*
X66431428Y-120031428D01*
X66431428Y-120088571D01*
X66402857Y-120145714D01*
X66374285Y-120174285D01*
X66317142Y-120202857D01*
X66202857Y-120231428D01*
X66060000Y-120231428D01*
X65945714Y-120202857D01*
X65888571Y-120174285D01*
X65860000Y-120145714D01*
X65831428Y-120088571D01*
X65831428Y-119688571D02*
X65831428Y-119317142D01*
X66060000Y-119517142D01*
X66060000Y-119431428D01*
X66088571Y-119374285D01*
X66117142Y-119345714D01*
X66174285Y-119317142D01*
X66317142Y-119317142D01*
X66374285Y-119345714D01*
X66402857Y-119374285D01*
X66431428Y-119431428D01*
X66431428Y-119602857D01*
X66402857Y-119660000D01*
X66374285Y-119688571D01*
X71728571Y-108514285D02*
X71700000Y-108542857D01*
X71614285Y-108571428D01*
X71557142Y-108571428D01*
X71471428Y-108542857D01*
X71414285Y-108485714D01*
X71385714Y-108428571D01*
X71357142Y-108314285D01*
X71357142Y-108228571D01*
X71385714Y-108114285D01*
X71414285Y-108057142D01*
X71471428Y-108000000D01*
X71557142Y-107971428D01*
X71614285Y-107971428D01*
X71700000Y-108000000D01*
X71728571Y-108028571D01*
X71957142Y-108028571D02*
X71985714Y-108000000D01*
X72042857Y-107971428D01*
X72185714Y-107971428D01*
X72242857Y-108000000D01*
X72271428Y-108028571D01*
X72300000Y-108085714D01*
X72300000Y-108142857D01*
X72271428Y-108228571D01*
X71928571Y-108571428D01*
X72300000Y-108571428D01*
X72671428Y-107971428D02*
X72728571Y-107971428D01*
X72785714Y-108000000D01*
X72814285Y-108028571D01*
X72842857Y-108085714D01*
X72871428Y-108200000D01*
X72871428Y-108342857D01*
X72842857Y-108457142D01*
X72814285Y-108514285D01*
X72785714Y-108542857D01*
X72728571Y-108571428D01*
X72671428Y-108571428D01*
X72614285Y-108542857D01*
X72585714Y-108514285D01*
X72557142Y-108457142D01*
X72528571Y-108342857D01*
X72528571Y-108200000D01*
X72557142Y-108085714D01*
X72585714Y-108028571D01*
X72614285Y-108000000D01*
X72671428Y-107971428D01*
X73071428Y-107971428D02*
X73442857Y-107971428D01*
X73242857Y-108200000D01*
X73328571Y-108200000D01*
X73385714Y-108228571D01*
X73414285Y-108257142D01*
X73442857Y-108314285D01*
X73442857Y-108457142D01*
X73414285Y-108514285D01*
X73385714Y-108542857D01*
X73328571Y-108571428D01*
X73157142Y-108571428D01*
X73100000Y-108542857D01*
X73071428Y-108514285D01*
X83514285Y-94971428D02*
X83542857Y-95000000D01*
X83571428Y-95085714D01*
X83571428Y-95142857D01*
X83542857Y-95228571D01*
X83485714Y-95285714D01*
X83428571Y-95314285D01*
X83314285Y-95342857D01*
X83228571Y-95342857D01*
X83114285Y-95314285D01*
X83057142Y-95285714D01*
X83000000Y-95228571D01*
X82971428Y-95142857D01*
X82971428Y-95085714D01*
X83000000Y-95000000D01*
X83028571Y-94971428D01*
X83028571Y-94742857D02*
X83000000Y-94714285D01*
X82971428Y-94657142D01*
X82971428Y-94514285D01*
X83000000Y-94457142D01*
X83028571Y-94428571D01*
X83085714Y-94400000D01*
X83142857Y-94400000D01*
X83228571Y-94428571D01*
X83571428Y-94771428D01*
X83571428Y-94400000D01*
X82971428Y-94028571D02*
X82971428Y-93971428D01*
X83000000Y-93914285D01*
X83028571Y-93885714D01*
X83085714Y-93857142D01*
X83200000Y-93828571D01*
X83342857Y-93828571D01*
X83457142Y-93857142D01*
X83514285Y-93885714D01*
X83542857Y-93914285D01*
X83571428Y-93971428D01*
X83571428Y-94028571D01*
X83542857Y-94085714D01*
X83514285Y-94114285D01*
X83457142Y-94142857D01*
X83342857Y-94171428D01*
X83200000Y-94171428D01*
X83085714Y-94142857D01*
X83028571Y-94114285D01*
X83000000Y-94085714D01*
X82971428Y-94028571D01*
X83028571Y-93600000D02*
X83000000Y-93571428D01*
X82971428Y-93514285D01*
X82971428Y-93371428D01*
X83000000Y-93314285D01*
X83028571Y-93285714D01*
X83085714Y-93257142D01*
X83142857Y-93257142D01*
X83228571Y-93285714D01*
X83571428Y-93628571D01*
X83571428Y-93257142D01*
D11*
X94178571Y-107357142D02*
X94226190Y-107214285D01*
X94273809Y-107166666D01*
X94369047Y-107119047D01*
X94511904Y-107119047D01*
X94607142Y-107166666D01*
X94654761Y-107214285D01*
X94702380Y-107309523D01*
X94702380Y-107690476D01*
X93702380Y-107690476D01*
X93702380Y-107357142D01*
X93750000Y-107261904D01*
X93797619Y-107214285D01*
X93892857Y-107166666D01*
X93988095Y-107166666D01*
X94083333Y-107214285D01*
X94130952Y-107261904D01*
X94178571Y-107357142D01*
X94178571Y-107690476D01*
X93702380Y-106500000D02*
X93702380Y-106309523D01*
X93750000Y-106214285D01*
X93845238Y-106119047D01*
X94035714Y-106071428D01*
X94369047Y-106071428D01*
X94559523Y-106119047D01*
X94654761Y-106214285D01*
X94702380Y-106309523D01*
X94702380Y-106500000D01*
X94654761Y-106595238D01*
X94559523Y-106690476D01*
X94369047Y-106738095D01*
X94035714Y-106738095D01*
X93845238Y-106690476D01*
X93750000Y-106595238D01*
X93702380Y-106500000D01*
X93702380Y-105452380D02*
X93702380Y-105261904D01*
X93750000Y-105166666D01*
X93845238Y-105071428D01*
X94035714Y-105023809D01*
X94369047Y-105023809D01*
X94559523Y-105071428D01*
X94654761Y-105166666D01*
X94702380Y-105261904D01*
X94702380Y-105452380D01*
X94654761Y-105547619D01*
X94559523Y-105642857D01*
X94369047Y-105690476D01*
X94035714Y-105690476D01*
X93845238Y-105642857D01*
X93750000Y-105547619D01*
X93702380Y-105452380D01*
X93702380Y-104738095D02*
X93702380Y-104166666D01*
X94702380Y-104452380D02*
X93702380Y-104452380D01*
D10*
X72248685Y-104328828D02*
X72277257Y-104357400D01*
X72305828Y-104443114D01*
X72305828Y-104500257D01*
X72277257Y-104585971D01*
X72220114Y-104643114D01*
X72162971Y-104671685D01*
X72048685Y-104700257D01*
X71962971Y-104700257D01*
X71848685Y-104671685D01*
X71791542Y-104643114D01*
X71734400Y-104585971D01*
X71705828Y-104500257D01*
X71705828Y-104443114D01*
X71734400Y-104357400D01*
X71762971Y-104328828D01*
X71762971Y-104100257D02*
X71734400Y-104071685D01*
X71705828Y-104014542D01*
X71705828Y-103871685D01*
X71734400Y-103814542D01*
X71762971Y-103785971D01*
X71820114Y-103757400D01*
X71877257Y-103757400D01*
X71962971Y-103785971D01*
X72305828Y-104128828D01*
X72305828Y-103757400D01*
X71705828Y-103385971D02*
X71705828Y-103328828D01*
X71734400Y-103271685D01*
X71762971Y-103243114D01*
X71820114Y-103214542D01*
X71934400Y-103185971D01*
X72077257Y-103185971D01*
X72191542Y-103214542D01*
X72248685Y-103243114D01*
X72277257Y-103271685D01*
X72305828Y-103328828D01*
X72305828Y-103385971D01*
X72277257Y-103443114D01*
X72248685Y-103471685D01*
X72191542Y-103500257D01*
X72077257Y-103528828D01*
X71934400Y-103528828D01*
X71820114Y-103500257D01*
X71762971Y-103471685D01*
X71734400Y-103443114D01*
X71705828Y-103385971D01*
X71962971Y-102843114D02*
X71934400Y-102900257D01*
X71905828Y-102928828D01*
X71848685Y-102957400D01*
X71820114Y-102957400D01*
X71762971Y-102928828D01*
X71734400Y-102900257D01*
X71705828Y-102843114D01*
X71705828Y-102728828D01*
X71734400Y-102671685D01*
X71762971Y-102643114D01*
X71820114Y-102614542D01*
X71848685Y-102614542D01*
X71905828Y-102643114D01*
X71934400Y-102671685D01*
X71962971Y-102728828D01*
X71962971Y-102843114D01*
X71991542Y-102900257D01*
X72020114Y-102928828D01*
X72077257Y-102957400D01*
X72191542Y-102957400D01*
X72248685Y-102928828D01*
X72277257Y-102900257D01*
X72305828Y-102843114D01*
X72305828Y-102728828D01*
X72277257Y-102671685D01*
X72248685Y-102643114D01*
X72191542Y-102614542D01*
X72077257Y-102614542D01*
X72020114Y-102643114D01*
X71991542Y-102671685D01*
X71962971Y-102728828D01*
X71562885Y-63688828D02*
X71591457Y-63717400D01*
X71620028Y-63803114D01*
X71620028Y-63860257D01*
X71591457Y-63945971D01*
X71534314Y-64003114D01*
X71477171Y-64031685D01*
X71362885Y-64060257D01*
X71277171Y-64060257D01*
X71162885Y-64031685D01*
X71105742Y-64003114D01*
X71048600Y-63945971D01*
X71020028Y-63860257D01*
X71020028Y-63803114D01*
X71048600Y-63717400D01*
X71077171Y-63688828D01*
X71020028Y-63488828D02*
X71020028Y-63117400D01*
X71248600Y-63317400D01*
X71248600Y-63231685D01*
X71277171Y-63174542D01*
X71305742Y-63145971D01*
X71362885Y-63117400D01*
X71505742Y-63117400D01*
X71562885Y-63145971D01*
X71591457Y-63174542D01*
X71620028Y-63231685D01*
X71620028Y-63403114D01*
X71591457Y-63460257D01*
X71562885Y-63488828D01*
X71077171Y-62888828D02*
X71048600Y-62860257D01*
X71020028Y-62803114D01*
X71020028Y-62660257D01*
X71048600Y-62603114D01*
X71077171Y-62574542D01*
X71134314Y-62545971D01*
X71191457Y-62545971D01*
X71277171Y-62574542D01*
X71620028Y-62917400D01*
X71620028Y-62545971D01*
X71620028Y-61974542D02*
X71620028Y-62317400D01*
X71620028Y-62145971D02*
X71020028Y-62145971D01*
X71105742Y-62203114D01*
X71162885Y-62260257D01*
X71191457Y-62317400D01*
X74803485Y-80525828D02*
X74832057Y-80554400D01*
X74860628Y-80640114D01*
X74860628Y-80697257D01*
X74832057Y-80782971D01*
X74774914Y-80840114D01*
X74717771Y-80868685D01*
X74603485Y-80897257D01*
X74517771Y-80897257D01*
X74403485Y-80868685D01*
X74346342Y-80840114D01*
X74289200Y-80782971D01*
X74260628Y-80697257D01*
X74260628Y-80640114D01*
X74289200Y-80554400D01*
X74317771Y-80525828D01*
X74260628Y-80325828D02*
X74260628Y-79954400D01*
X74489200Y-80154400D01*
X74489200Y-80068685D01*
X74517771Y-80011542D01*
X74546342Y-79982971D01*
X74603485Y-79954400D01*
X74746342Y-79954400D01*
X74803485Y-79982971D01*
X74832057Y-80011542D01*
X74860628Y-80068685D01*
X74860628Y-80240114D01*
X74832057Y-80297257D01*
X74803485Y-80325828D01*
X74260628Y-79582971D02*
X74260628Y-79525828D01*
X74289200Y-79468685D01*
X74317771Y-79440114D01*
X74374914Y-79411542D01*
X74489200Y-79382971D01*
X74632057Y-79382971D01*
X74746342Y-79411542D01*
X74803485Y-79440114D01*
X74832057Y-79468685D01*
X74860628Y-79525828D01*
X74860628Y-79582971D01*
X74832057Y-79640114D01*
X74803485Y-79668685D01*
X74746342Y-79697257D01*
X74632057Y-79725828D01*
X74489200Y-79725828D01*
X74374914Y-79697257D01*
X74317771Y-79668685D01*
X74289200Y-79640114D01*
X74260628Y-79582971D01*
X74860628Y-78811542D02*
X74860628Y-79154400D01*
X74860628Y-78982971D02*
X74260628Y-78982971D01*
X74346342Y-79040114D01*
X74403485Y-79097257D01*
X74432057Y-79154400D01*
X73620285Y-63663428D02*
X73648857Y-63692000D01*
X73677428Y-63777714D01*
X73677428Y-63834857D01*
X73648857Y-63920571D01*
X73591714Y-63977714D01*
X73534571Y-64006285D01*
X73420285Y-64034857D01*
X73334571Y-64034857D01*
X73220285Y-64006285D01*
X73163142Y-63977714D01*
X73106000Y-63920571D01*
X73077428Y-63834857D01*
X73077428Y-63777714D01*
X73106000Y-63692000D01*
X73134571Y-63663428D01*
X73077428Y-63463428D02*
X73077428Y-63092000D01*
X73306000Y-63292000D01*
X73306000Y-63206285D01*
X73334571Y-63149142D01*
X73363142Y-63120571D01*
X73420285Y-63092000D01*
X73563142Y-63092000D01*
X73620285Y-63120571D01*
X73648857Y-63149142D01*
X73677428Y-63206285D01*
X73677428Y-63377714D01*
X73648857Y-63434857D01*
X73620285Y-63463428D01*
X73134571Y-62863428D02*
X73106000Y-62834857D01*
X73077428Y-62777714D01*
X73077428Y-62634857D01*
X73106000Y-62577714D01*
X73134571Y-62549142D01*
X73191714Y-62520571D01*
X73248857Y-62520571D01*
X73334571Y-62549142D01*
X73677428Y-62892000D01*
X73677428Y-62520571D01*
X73077428Y-62149142D02*
X73077428Y-62092000D01*
X73106000Y-62034857D01*
X73134571Y-62006285D01*
X73191714Y-61977714D01*
X73306000Y-61949142D01*
X73448857Y-61949142D01*
X73563142Y-61977714D01*
X73620285Y-62006285D01*
X73648857Y-62034857D01*
X73677428Y-62092000D01*
X73677428Y-62149142D01*
X73648857Y-62206285D01*
X73620285Y-62234857D01*
X73563142Y-62263428D01*
X73448857Y-62292000D01*
X73306000Y-62292000D01*
X73191714Y-62263428D01*
X73134571Y-62234857D01*
X73106000Y-62206285D01*
X73077428Y-62149142D01*
X81451371Y-68657885D02*
X81422800Y-68686457D01*
X81337085Y-68715028D01*
X81279942Y-68715028D01*
X81194228Y-68686457D01*
X81137085Y-68629314D01*
X81108514Y-68572171D01*
X81079942Y-68457885D01*
X81079942Y-68372171D01*
X81108514Y-68257885D01*
X81137085Y-68200742D01*
X81194228Y-68143600D01*
X81279942Y-68115028D01*
X81337085Y-68115028D01*
X81422800Y-68143600D01*
X81451371Y-68172171D01*
X82022800Y-68715028D02*
X81679942Y-68715028D01*
X81851371Y-68715028D02*
X81851371Y-68115028D01*
X81794228Y-68200742D01*
X81737085Y-68257885D01*
X81679942Y-68286457D01*
X82394228Y-68115028D02*
X82451371Y-68115028D01*
X82508514Y-68143600D01*
X82537085Y-68172171D01*
X82565657Y-68229314D01*
X82594228Y-68343600D01*
X82594228Y-68486457D01*
X82565657Y-68600742D01*
X82537085Y-68657885D01*
X82508514Y-68686457D01*
X82451371Y-68715028D01*
X82394228Y-68715028D01*
X82337085Y-68686457D01*
X82308514Y-68657885D01*
X82279942Y-68600742D01*
X82251371Y-68486457D01*
X82251371Y-68343600D01*
X82279942Y-68229314D01*
X82308514Y-68172171D01*
X82337085Y-68143600D01*
X82394228Y-68115028D01*
X82822800Y-68172171D02*
X82851371Y-68143600D01*
X82908514Y-68115028D01*
X83051371Y-68115028D01*
X83108514Y-68143600D01*
X83137085Y-68172171D01*
X83165657Y-68229314D01*
X83165657Y-68286457D01*
X83137085Y-68372171D01*
X82794228Y-68715028D01*
X83165657Y-68715028D01*
X77912885Y-86421828D02*
X77941457Y-86450400D01*
X77970028Y-86536114D01*
X77970028Y-86593257D01*
X77941457Y-86678971D01*
X77884314Y-86736114D01*
X77827171Y-86764685D01*
X77712885Y-86793257D01*
X77627171Y-86793257D01*
X77512885Y-86764685D01*
X77455742Y-86736114D01*
X77398600Y-86678971D01*
X77370028Y-86593257D01*
X77370028Y-86536114D01*
X77398600Y-86450400D01*
X77427171Y-86421828D01*
X77427171Y-86193257D02*
X77398600Y-86164685D01*
X77370028Y-86107542D01*
X77370028Y-85964685D01*
X77398600Y-85907542D01*
X77427171Y-85878971D01*
X77484314Y-85850400D01*
X77541457Y-85850400D01*
X77627171Y-85878971D01*
X77970028Y-86221828D01*
X77970028Y-85850400D01*
X77370028Y-85478971D02*
X77370028Y-85421828D01*
X77398600Y-85364685D01*
X77427171Y-85336114D01*
X77484314Y-85307542D01*
X77598600Y-85278971D01*
X77741457Y-85278971D01*
X77855742Y-85307542D01*
X77912885Y-85336114D01*
X77941457Y-85364685D01*
X77970028Y-85421828D01*
X77970028Y-85478971D01*
X77941457Y-85536114D01*
X77912885Y-85564685D01*
X77855742Y-85593257D01*
X77741457Y-85621828D01*
X77598600Y-85621828D01*
X77484314Y-85593257D01*
X77427171Y-85564685D01*
X77398600Y-85536114D01*
X77370028Y-85478971D01*
X77370028Y-84736114D02*
X77370028Y-85021828D01*
X77655742Y-85050400D01*
X77627171Y-85021828D01*
X77598600Y-84964685D01*
X77598600Y-84821828D01*
X77627171Y-84764685D01*
X77655742Y-84736114D01*
X77712885Y-84707542D01*
X77855742Y-84707542D01*
X77912885Y-84736114D01*
X77941457Y-84764685D01*
X77970028Y-84821828D01*
X77970028Y-84964685D01*
X77941457Y-85021828D01*
X77912885Y-85050400D01*
X78830571Y-99020285D02*
X78802000Y-99048857D01*
X78716285Y-99077428D01*
X78659142Y-99077428D01*
X78573428Y-99048857D01*
X78516285Y-98991714D01*
X78487714Y-98934571D01*
X78459142Y-98820285D01*
X78459142Y-98734571D01*
X78487714Y-98620285D01*
X78516285Y-98563142D01*
X78573428Y-98506000D01*
X78659142Y-98477428D01*
X78716285Y-98477428D01*
X78802000Y-98506000D01*
X78830571Y-98534571D01*
X79059142Y-98534571D02*
X79087714Y-98506000D01*
X79144857Y-98477428D01*
X79287714Y-98477428D01*
X79344857Y-98506000D01*
X79373428Y-98534571D01*
X79402000Y-98591714D01*
X79402000Y-98648857D01*
X79373428Y-98734571D01*
X79030571Y-99077428D01*
X79402000Y-99077428D01*
X79973428Y-99077428D02*
X79630571Y-99077428D01*
X79802000Y-99077428D02*
X79802000Y-98477428D01*
X79744857Y-98563142D01*
X79687714Y-98620285D01*
X79630571Y-98648857D01*
X80344857Y-98477428D02*
X80402000Y-98477428D01*
X80459142Y-98506000D01*
X80487714Y-98534571D01*
X80516285Y-98591714D01*
X80544857Y-98706000D01*
X80544857Y-98848857D01*
X80516285Y-98963142D01*
X80487714Y-99020285D01*
X80459142Y-99048857D01*
X80402000Y-99077428D01*
X80344857Y-99077428D01*
X80287714Y-99048857D01*
X80259142Y-99020285D01*
X80230571Y-98963142D01*
X80202000Y-98848857D01*
X80202000Y-98706000D01*
X80230571Y-98591714D01*
X80259142Y-98534571D01*
X80287714Y-98506000D01*
X80344857Y-98477428D01*
X70223028Y-104354228D02*
X69937314Y-104554228D01*
X70223028Y-104697085D02*
X69623028Y-104697085D01*
X69623028Y-104468514D01*
X69651600Y-104411371D01*
X69680171Y-104382800D01*
X69737314Y-104354228D01*
X69823028Y-104354228D01*
X69880171Y-104382800D01*
X69908742Y-104411371D01*
X69937314Y-104468514D01*
X69937314Y-104697085D01*
X69680171Y-104125657D02*
X69651600Y-104097085D01*
X69623028Y-104039942D01*
X69623028Y-103897085D01*
X69651600Y-103839942D01*
X69680171Y-103811371D01*
X69737314Y-103782800D01*
X69794457Y-103782800D01*
X69880171Y-103811371D01*
X70223028Y-104154228D01*
X70223028Y-103782800D01*
X69623028Y-103411371D02*
X69623028Y-103354228D01*
X69651600Y-103297085D01*
X69680171Y-103268514D01*
X69737314Y-103239942D01*
X69851600Y-103211371D01*
X69994457Y-103211371D01*
X70108742Y-103239942D01*
X70165885Y-103268514D01*
X70194457Y-103297085D01*
X70223028Y-103354228D01*
X70223028Y-103411371D01*
X70194457Y-103468514D01*
X70165885Y-103497085D01*
X70108742Y-103525657D01*
X69994457Y-103554228D01*
X69851600Y-103554228D01*
X69737314Y-103525657D01*
X69680171Y-103497085D01*
X69651600Y-103468514D01*
X69623028Y-103411371D01*
X69623028Y-103011371D02*
X69623028Y-102611371D01*
X70223028Y-102868514D01*
X72114285Y-107271428D02*
X72142857Y-107300000D01*
X72171428Y-107385714D01*
X72171428Y-107442857D01*
X72142857Y-107528571D01*
X72085714Y-107585714D01*
X72028571Y-107614285D01*
X71914285Y-107642857D01*
X71828571Y-107642857D01*
X71714285Y-107614285D01*
X71657142Y-107585714D01*
X71600000Y-107528571D01*
X71571428Y-107442857D01*
X71571428Y-107385714D01*
X71600000Y-107300000D01*
X71628571Y-107271428D01*
X71628571Y-107042857D02*
X71600000Y-107014285D01*
X71571428Y-106957142D01*
X71571428Y-106814285D01*
X71600000Y-106757142D01*
X71628571Y-106728571D01*
X71685714Y-106700000D01*
X71742857Y-106700000D01*
X71828571Y-106728571D01*
X72171428Y-107071428D01*
X72171428Y-106700000D01*
X71571428Y-106328571D02*
X71571428Y-106271428D01*
X71600000Y-106214285D01*
X71628571Y-106185714D01*
X71685714Y-106157142D01*
X71800000Y-106128571D01*
X71942857Y-106128571D01*
X72057142Y-106157142D01*
X72114285Y-106185714D01*
X72142857Y-106214285D01*
X72171428Y-106271428D01*
X72171428Y-106328571D01*
X72142857Y-106385714D01*
X72114285Y-106414285D01*
X72057142Y-106442857D01*
X71942857Y-106471428D01*
X71800000Y-106471428D01*
X71685714Y-106442857D01*
X71628571Y-106414285D01*
X71600000Y-106385714D01*
X71571428Y-106328571D01*
X71771428Y-105614285D02*
X72171428Y-105614285D01*
X71542857Y-105757142D02*
X71971428Y-105900000D01*
X71971428Y-105528571D01*
X70470685Y-63688828D02*
X70499257Y-63717400D01*
X70527828Y-63803114D01*
X70527828Y-63860257D01*
X70499257Y-63945971D01*
X70442114Y-64003114D01*
X70384971Y-64031685D01*
X70270685Y-64060257D01*
X70184971Y-64060257D01*
X70070685Y-64031685D01*
X70013542Y-64003114D01*
X69956400Y-63945971D01*
X69927828Y-63860257D01*
X69927828Y-63803114D01*
X69956400Y-63717400D01*
X69984971Y-63688828D01*
X69927828Y-63488828D02*
X69927828Y-63117400D01*
X70156400Y-63317400D01*
X70156400Y-63231685D01*
X70184971Y-63174542D01*
X70213542Y-63145971D01*
X70270685Y-63117400D01*
X70413542Y-63117400D01*
X70470685Y-63145971D01*
X70499257Y-63174542D01*
X70527828Y-63231685D01*
X70527828Y-63403114D01*
X70499257Y-63460257D01*
X70470685Y-63488828D01*
X69984971Y-62888828D02*
X69956400Y-62860257D01*
X69927828Y-62803114D01*
X69927828Y-62660257D01*
X69956400Y-62603114D01*
X69984971Y-62574542D01*
X70042114Y-62545971D01*
X70099257Y-62545971D01*
X70184971Y-62574542D01*
X70527828Y-62917400D01*
X70527828Y-62545971D01*
X70127828Y-62031685D02*
X70527828Y-62031685D01*
X69899257Y-62174542D02*
X70327828Y-62317400D01*
X70327828Y-61945971D01*
X93521428Y-112396428D02*
X93864285Y-112396428D01*
X93692857Y-112996428D02*
X93692857Y-112396428D01*
X94064285Y-112996428D02*
X94064285Y-112396428D01*
X94292857Y-112396428D01*
X94350000Y-112425000D01*
X94378571Y-112453571D01*
X94407142Y-112510714D01*
X94407142Y-112596428D01*
X94378571Y-112653571D01*
X94350000Y-112682142D01*
X94292857Y-112710714D01*
X94064285Y-112710714D01*
X94978571Y-112996428D02*
X94635714Y-112996428D01*
X94807142Y-112996428D02*
X94807142Y-112396428D01*
X94750000Y-112482142D01*
X94692857Y-112539285D01*
X94635714Y-112567857D01*
X95350000Y-112396428D02*
X95407142Y-112396428D01*
X95464285Y-112425000D01*
X95492857Y-112453571D01*
X95521428Y-112510714D01*
X95550000Y-112625000D01*
X95550000Y-112767857D01*
X95521428Y-112882142D01*
X95492857Y-112939285D01*
X95464285Y-112967857D01*
X95407142Y-112996428D01*
X95350000Y-112996428D01*
X95292857Y-112967857D01*
X95264285Y-112939285D01*
X95235714Y-112882142D01*
X95207142Y-112767857D01*
X95207142Y-112625000D01*
X95235714Y-112510714D01*
X95264285Y-112453571D01*
X95292857Y-112425000D01*
X95350000Y-112396428D01*
X96121428Y-112996428D02*
X95778571Y-112996428D01*
X95950000Y-112996428D02*
X95950000Y-112396428D01*
X95892857Y-112482142D01*
X95835714Y-112539285D01*
X95778571Y-112567857D01*
X72661428Y-63663428D02*
X72375714Y-63863428D01*
X72661428Y-64006285D02*
X72061428Y-64006285D01*
X72061428Y-63777714D01*
X72090000Y-63720571D01*
X72118571Y-63692000D01*
X72175714Y-63663428D01*
X72261428Y-63663428D01*
X72318571Y-63692000D01*
X72347142Y-63720571D01*
X72375714Y-63777714D01*
X72375714Y-64006285D01*
X72061428Y-63463428D02*
X72061428Y-63092000D01*
X72290000Y-63292000D01*
X72290000Y-63206285D01*
X72318571Y-63149142D01*
X72347142Y-63120571D01*
X72404285Y-63092000D01*
X72547142Y-63092000D01*
X72604285Y-63120571D01*
X72632857Y-63149142D01*
X72661428Y-63206285D01*
X72661428Y-63377714D01*
X72632857Y-63434857D01*
X72604285Y-63463428D01*
X72061428Y-62720571D02*
X72061428Y-62663428D01*
X72090000Y-62606285D01*
X72118571Y-62577714D01*
X72175714Y-62549142D01*
X72290000Y-62520571D01*
X72432857Y-62520571D01*
X72547142Y-62549142D01*
X72604285Y-62577714D01*
X72632857Y-62606285D01*
X72661428Y-62663428D01*
X72661428Y-62720571D01*
X72632857Y-62777714D01*
X72604285Y-62806285D01*
X72547142Y-62834857D01*
X72432857Y-62863428D01*
X72290000Y-62863428D01*
X72175714Y-62834857D01*
X72118571Y-62806285D01*
X72090000Y-62777714D01*
X72061428Y-62720571D01*
X72661428Y-62234857D02*
X72661428Y-62120571D01*
X72632857Y-62063428D01*
X72604285Y-62034857D01*
X72518571Y-61977714D01*
X72404285Y-61949142D01*
X72175714Y-61949142D01*
X72118571Y-61977714D01*
X72090000Y-62006285D01*
X72061428Y-62063428D01*
X72061428Y-62177714D01*
X72090000Y-62234857D01*
X72118571Y-62263428D01*
X72175714Y-62292000D01*
X72318571Y-62292000D01*
X72375714Y-62263428D01*
X72404285Y-62234857D01*
X72432857Y-62177714D01*
X72432857Y-62063428D01*
X72404285Y-62006285D01*
X72375714Y-61977714D01*
X72318571Y-61949142D01*
D11*
X65652380Y-127285714D02*
X66366666Y-127285714D01*
X66509523Y-127333333D01*
X66604761Y-127428571D01*
X66652380Y-127571428D01*
X66652380Y-127666666D01*
X66652380Y-126285714D02*
X66652380Y-126857142D01*
X66652380Y-126571428D02*
X65652380Y-126571428D01*
X65795238Y-126666666D01*
X65890476Y-126761904D01*
X65938095Y-126857142D01*
X65652380Y-125666666D02*
X65652380Y-125571428D01*
X65700000Y-125476190D01*
X65747619Y-125428571D01*
X65842857Y-125380952D01*
X66033333Y-125333333D01*
X66271428Y-125333333D01*
X66461904Y-125380952D01*
X66557142Y-125428571D01*
X66604761Y-125476190D01*
X66652380Y-125571428D01*
X66652380Y-125666666D01*
X66604761Y-125761904D01*
X66557142Y-125809523D01*
X66461904Y-125857142D01*
X66271428Y-125904761D01*
X66033333Y-125904761D01*
X65842857Y-125857142D01*
X65747619Y-125809523D01*
X65700000Y-125761904D01*
X65652380Y-125666666D01*
X66652380Y-124380952D02*
X66652380Y-124952380D01*
X66652380Y-124666666D02*
X65652380Y-124666666D01*
X65795238Y-124761904D01*
X65890476Y-124857142D01*
X65938095Y-124952380D01*
D12*
X75946171Y-99790304D02*
X75946171Y-100437923D01*
X75984266Y-100514114D01*
X76022361Y-100552209D01*
X76098552Y-100590304D01*
X76250933Y-100590304D01*
X76327123Y-100552209D01*
X76365219Y-100514114D01*
X76403314Y-100437923D01*
X76403314Y-99790304D01*
X76746171Y-99866495D02*
X76784266Y-99828400D01*
X76860457Y-99790304D01*
X77050933Y-99790304D01*
X77127123Y-99828400D01*
X77165219Y-99866495D01*
X77203314Y-99942685D01*
X77203314Y-100018876D01*
X77165219Y-100133161D01*
X76708076Y-100590304D01*
X77203314Y-100590304D01*
X77698552Y-99790304D02*
X77774742Y-99790304D01*
X77850933Y-99828400D01*
X77889028Y-99866495D01*
X77927123Y-99942685D01*
X77965219Y-100095066D01*
X77965219Y-100285542D01*
X77927123Y-100437923D01*
X77889028Y-100514114D01*
X77850933Y-100552209D01*
X77774742Y-100590304D01*
X77698552Y-100590304D01*
X77622361Y-100552209D01*
X77584266Y-100514114D01*
X77546171Y-100437923D01*
X77508076Y-100285542D01*
X77508076Y-100095066D01*
X77546171Y-99942685D01*
X77584266Y-99866495D01*
X77622361Y-99828400D01*
X77698552Y-99790304D01*
X78231885Y-99790304D02*
X78727123Y-99790304D01*
X78460457Y-100095066D01*
X78574742Y-100095066D01*
X78650933Y-100133161D01*
X78689028Y-100171257D01*
X78727123Y-100247447D01*
X78727123Y-100437923D01*
X78689028Y-100514114D01*
X78650933Y-100552209D01*
X78574742Y-100590304D01*
X78346171Y-100590304D01*
X78269980Y-100552209D01*
X78231885Y-100514114D01*
D10*
X83784285Y-98571428D02*
X83812857Y-98600000D01*
X83841428Y-98685714D01*
X83841428Y-98742857D01*
X83812857Y-98828571D01*
X83755714Y-98885714D01*
X83698571Y-98914285D01*
X83584285Y-98942857D01*
X83498571Y-98942857D01*
X83384285Y-98914285D01*
X83327142Y-98885714D01*
X83270000Y-98828571D01*
X83241428Y-98742857D01*
X83241428Y-98685714D01*
X83270000Y-98600000D01*
X83298571Y-98571428D01*
X83298571Y-98342857D02*
X83270000Y-98314285D01*
X83241428Y-98257142D01*
X83241428Y-98114285D01*
X83270000Y-98057142D01*
X83298571Y-98028571D01*
X83355714Y-98000000D01*
X83412857Y-98000000D01*
X83498571Y-98028571D01*
X83841428Y-98371428D01*
X83841428Y-98000000D01*
X83241428Y-97628571D02*
X83241428Y-97571428D01*
X83270000Y-97514285D01*
X83298571Y-97485714D01*
X83355714Y-97457142D01*
X83470000Y-97428571D01*
X83612857Y-97428571D01*
X83727142Y-97457142D01*
X83784285Y-97485714D01*
X83812857Y-97514285D01*
X83841428Y-97571428D01*
X83841428Y-97628571D01*
X83812857Y-97685714D01*
X83784285Y-97714285D01*
X83727142Y-97742857D01*
X83612857Y-97771428D01*
X83470000Y-97771428D01*
X83355714Y-97742857D01*
X83298571Y-97714285D01*
X83270000Y-97685714D01*
X83241428Y-97628571D01*
X83841428Y-96857142D02*
X83841428Y-97200000D01*
X83841428Y-97028571D02*
X83241428Y-97028571D01*
X83327142Y-97085714D01*
X83384285Y-97142857D01*
X83412857Y-97200000D01*
D11*
X79102380Y-118310714D02*
X79816666Y-118310714D01*
X79959523Y-118358333D01*
X80054761Y-118453571D01*
X80102380Y-118596428D01*
X80102380Y-118691666D01*
X80102380Y-117310714D02*
X80102380Y-117882142D01*
X80102380Y-117596428D02*
X79102380Y-117596428D01*
X79245238Y-117691666D01*
X79340476Y-117786904D01*
X79388095Y-117882142D01*
X79102380Y-116691666D02*
X79102380Y-116596428D01*
X79150000Y-116501190D01*
X79197619Y-116453571D01*
X79292857Y-116405952D01*
X79483333Y-116358333D01*
X79721428Y-116358333D01*
X79911904Y-116405952D01*
X80007142Y-116453571D01*
X80054761Y-116501190D01*
X80102380Y-116596428D01*
X80102380Y-116691666D01*
X80054761Y-116786904D01*
X80007142Y-116834523D01*
X79911904Y-116882142D01*
X79721428Y-116929761D01*
X79483333Y-116929761D01*
X79292857Y-116882142D01*
X79197619Y-116834523D01*
X79150000Y-116786904D01*
X79102380Y-116691666D01*
X79197619Y-115977380D02*
X79150000Y-115929761D01*
X79102380Y-115834523D01*
X79102380Y-115596428D01*
X79150000Y-115501190D01*
X79197619Y-115453571D01*
X79292857Y-115405952D01*
X79388095Y-115405952D01*
X79530952Y-115453571D01*
X80102380Y-116025000D01*
X80102380Y-115405952D01*
D10*
X73133057Y-84098914D02*
X73133057Y-84384628D01*
X72933057Y-83784628D02*
X73133057Y-84098914D01*
X73333057Y-83784628D01*
X73504485Y-83841771D02*
X73533057Y-83813200D01*
X73590200Y-83784628D01*
X73733057Y-83784628D01*
X73790200Y-83813200D01*
X73818771Y-83841771D01*
X73847342Y-83898914D01*
X73847342Y-83956057D01*
X73818771Y-84041771D01*
X73475914Y-84384628D01*
X73847342Y-84384628D01*
X74218771Y-83784628D02*
X74275914Y-83784628D01*
X74333057Y-83813200D01*
X74361628Y-83841771D01*
X74390200Y-83898914D01*
X74418771Y-84013200D01*
X74418771Y-84156057D01*
X74390200Y-84270342D01*
X74361628Y-84327485D01*
X74333057Y-84356057D01*
X74275914Y-84384628D01*
X74218771Y-84384628D01*
X74161628Y-84356057D01*
X74133057Y-84327485D01*
X74104485Y-84270342D01*
X74075914Y-84156057D01*
X74075914Y-84013200D01*
X74104485Y-83898914D01*
X74133057Y-83841771D01*
X74161628Y-83813200D01*
X74218771Y-83784628D01*
X74990200Y-84384628D02*
X74647342Y-84384628D01*
X74818771Y-84384628D02*
X74818771Y-83784628D01*
X74761628Y-83870342D01*
X74704485Y-83927485D01*
X74647342Y-83956057D01*
X75553971Y-90238228D02*
X75353971Y-89952514D01*
X75211114Y-90238228D02*
X75211114Y-89638228D01*
X75439685Y-89638228D01*
X75496828Y-89666800D01*
X75525400Y-89695371D01*
X75553971Y-89752514D01*
X75553971Y-89838228D01*
X75525400Y-89895371D01*
X75496828Y-89923942D01*
X75439685Y-89952514D01*
X75211114Y-89952514D01*
X75782542Y-89695371D02*
X75811114Y-89666800D01*
X75868257Y-89638228D01*
X76011114Y-89638228D01*
X76068257Y-89666800D01*
X76096828Y-89695371D01*
X76125400Y-89752514D01*
X76125400Y-89809657D01*
X76096828Y-89895371D01*
X75753971Y-90238228D01*
X76125400Y-90238228D01*
X76496828Y-89638228D02*
X76553971Y-89638228D01*
X76611114Y-89666800D01*
X76639685Y-89695371D01*
X76668257Y-89752514D01*
X76696828Y-89866800D01*
X76696828Y-90009657D01*
X76668257Y-90123942D01*
X76639685Y-90181085D01*
X76611114Y-90209657D01*
X76553971Y-90238228D01*
X76496828Y-90238228D01*
X76439685Y-90209657D01*
X76411114Y-90181085D01*
X76382542Y-90123942D01*
X76353971Y-90009657D01*
X76353971Y-89866800D01*
X76382542Y-89752514D01*
X76411114Y-89695371D01*
X76439685Y-89666800D01*
X76496828Y-89638228D01*
X77039685Y-89895371D02*
X76982542Y-89866800D01*
X76953971Y-89838228D01*
X76925400Y-89781085D01*
X76925400Y-89752514D01*
X76953971Y-89695371D01*
X76982542Y-89666800D01*
X77039685Y-89638228D01*
X77153971Y-89638228D01*
X77211114Y-89666800D01*
X77239685Y-89695371D01*
X77268257Y-89752514D01*
X77268257Y-89781085D01*
X77239685Y-89838228D01*
X77211114Y-89866800D01*
X77153971Y-89895371D01*
X77039685Y-89895371D01*
X76982542Y-89923942D01*
X76953971Y-89952514D01*
X76925400Y-90009657D01*
X76925400Y-90123942D01*
X76953971Y-90181085D01*
X76982542Y-90209657D01*
X77039685Y-90238228D01*
X77153971Y-90238228D01*
X77211114Y-90209657D01*
X77239685Y-90181085D01*
X77268257Y-90123942D01*
X77268257Y-90009657D01*
X77239685Y-89952514D01*
X77211114Y-89923942D01*
X77153971Y-89895371D01*
X79064285Y-64821428D02*
X79092857Y-64850000D01*
X79121428Y-64935714D01*
X79121428Y-64992857D01*
X79092857Y-65078571D01*
X79035714Y-65135714D01*
X78978571Y-65164285D01*
X78864285Y-65192857D01*
X78778571Y-65192857D01*
X78664285Y-65164285D01*
X78607142Y-65135714D01*
X78550000Y-65078571D01*
X78521428Y-64992857D01*
X78521428Y-64935714D01*
X78550000Y-64850000D01*
X78578571Y-64821428D01*
X78521428Y-64621428D02*
X78521428Y-64250000D01*
X78750000Y-64450000D01*
X78750000Y-64364285D01*
X78778571Y-64307142D01*
X78807142Y-64278571D01*
X78864285Y-64250000D01*
X79007142Y-64250000D01*
X79064285Y-64278571D01*
X79092857Y-64307142D01*
X79121428Y-64364285D01*
X79121428Y-64535714D01*
X79092857Y-64592857D01*
X79064285Y-64621428D01*
X79121428Y-63678571D02*
X79121428Y-64021428D01*
X79121428Y-63850000D02*
X78521428Y-63850000D01*
X78607142Y-63907142D01*
X78664285Y-63964285D01*
X78692857Y-64021428D01*
X78521428Y-63135714D02*
X78521428Y-63421428D01*
X78807142Y-63450000D01*
X78778571Y-63421428D01*
X78750000Y-63364285D01*
X78750000Y-63221428D01*
X78778571Y-63164285D01*
X78807142Y-63135714D01*
X78864285Y-63107142D01*
X79007142Y-63107142D01*
X79064285Y-63135714D01*
X79092857Y-63164285D01*
X79121428Y-63221428D01*
X79121428Y-63364285D01*
X79092857Y-63421428D01*
X79064285Y-63450000D01*
X65828571Y-118714285D02*
X65800000Y-118742857D01*
X65714285Y-118771428D01*
X65657142Y-118771428D01*
X65571428Y-118742857D01*
X65514285Y-118685714D01*
X65485714Y-118628571D01*
X65457142Y-118514285D01*
X65457142Y-118428571D01*
X65485714Y-118314285D01*
X65514285Y-118257142D01*
X65571428Y-118200000D01*
X65657142Y-118171428D01*
X65714285Y-118171428D01*
X65800000Y-118200000D01*
X65828571Y-118228571D01*
X66400000Y-118771428D02*
X66057142Y-118771428D01*
X66228571Y-118771428D02*
X66228571Y-118171428D01*
X66171428Y-118257142D01*
X66114285Y-118314285D01*
X66057142Y-118342857D01*
X66771428Y-118171428D02*
X66828571Y-118171428D01*
X66885714Y-118200000D01*
X66914285Y-118228571D01*
X66942857Y-118285714D01*
X66971428Y-118400000D01*
X66971428Y-118542857D01*
X66942857Y-118657142D01*
X66914285Y-118714285D01*
X66885714Y-118742857D01*
X66828571Y-118771428D01*
X66771428Y-118771428D01*
X66714285Y-118742857D01*
X66685714Y-118714285D01*
X66657142Y-118657142D01*
X66628571Y-118542857D01*
X66628571Y-118400000D01*
X66657142Y-118285714D01*
X66685714Y-118228571D01*
X66714285Y-118200000D01*
X66771428Y-118171428D01*
X67542857Y-118771428D02*
X67200000Y-118771428D01*
X67371428Y-118771428D02*
X67371428Y-118171428D01*
X67314285Y-118257142D01*
X67257142Y-118314285D01*
X67200000Y-118342857D01*
X75591428Y-118201428D02*
X75305714Y-118401428D01*
X75591428Y-118544285D02*
X74991428Y-118544285D01*
X74991428Y-118315714D01*
X75020000Y-118258571D01*
X75048571Y-118230000D01*
X75105714Y-118201428D01*
X75191428Y-118201428D01*
X75248571Y-118230000D01*
X75277142Y-118258571D01*
X75305714Y-118315714D01*
X75305714Y-118544285D01*
X75591428Y-117630000D02*
X75591428Y-117972857D01*
X75591428Y-117801428D02*
X74991428Y-117801428D01*
X75077142Y-117858571D01*
X75134285Y-117915714D01*
X75162857Y-117972857D01*
X74991428Y-117258571D02*
X74991428Y-117201428D01*
X75020000Y-117144285D01*
X75048571Y-117115714D01*
X75105714Y-117087142D01*
X75220000Y-117058571D01*
X75362857Y-117058571D01*
X75477142Y-117087142D01*
X75534285Y-117115714D01*
X75562857Y-117144285D01*
X75591428Y-117201428D01*
X75591428Y-117258571D01*
X75562857Y-117315714D01*
X75534285Y-117344285D01*
X75477142Y-117372857D01*
X75362857Y-117401428D01*
X75220000Y-117401428D01*
X75105714Y-117372857D01*
X75048571Y-117344285D01*
X75020000Y-117315714D01*
X74991428Y-117258571D01*
X75048571Y-116830000D02*
X75020000Y-116801428D01*
X74991428Y-116744285D01*
X74991428Y-116601428D01*
X75020000Y-116544285D01*
X75048571Y-116515714D01*
X75105714Y-116487142D01*
X75162857Y-116487142D01*
X75248571Y-116515714D01*
X75591428Y-116858571D01*
X75591428Y-116487142D01*
D12*
X80086371Y-100704704D02*
X80086371Y-101352323D01*
X80124466Y-101428514D01*
X80162561Y-101466609D01*
X80238752Y-101504704D01*
X80391133Y-101504704D01*
X80467323Y-101466609D01*
X80505419Y-101428514D01*
X80543514Y-101352323D01*
X80543514Y-100704704D01*
X80886371Y-100780895D02*
X80924466Y-100742800D01*
X81000657Y-100704704D01*
X81191133Y-100704704D01*
X81267323Y-100742800D01*
X81305419Y-100780895D01*
X81343514Y-100857085D01*
X81343514Y-100933276D01*
X81305419Y-101047561D01*
X80848276Y-101504704D01*
X81343514Y-101504704D01*
X81838752Y-100704704D02*
X81914942Y-100704704D01*
X81991133Y-100742800D01*
X82029228Y-100780895D01*
X82067323Y-100857085D01*
X82105419Y-101009466D01*
X82105419Y-101199942D01*
X82067323Y-101352323D01*
X82029228Y-101428514D01*
X81991133Y-101466609D01*
X81914942Y-101504704D01*
X81838752Y-101504704D01*
X81762561Y-101466609D01*
X81724466Y-101428514D01*
X81686371Y-101352323D01*
X81648276Y-101199942D01*
X81648276Y-101009466D01*
X81686371Y-100857085D01*
X81724466Y-100780895D01*
X81762561Y-100742800D01*
X81838752Y-100704704D01*
X82410180Y-100780895D02*
X82448276Y-100742800D01*
X82524466Y-100704704D01*
X82714942Y-100704704D01*
X82791133Y-100742800D01*
X82829228Y-100780895D01*
X82867323Y-100857085D01*
X82867323Y-100933276D01*
X82829228Y-101047561D01*
X82372085Y-101504704D01*
X82867323Y-101504704D01*
D11*
X71595923Y-115926980D02*
X71595923Y-114926980D01*
X71834019Y-114926980D01*
X71976876Y-114974600D01*
X72072114Y-115069838D01*
X72119733Y-115165076D01*
X72167352Y-115355552D01*
X72167352Y-115498409D01*
X72119733Y-115688885D01*
X72072114Y-115784123D01*
X71976876Y-115879361D01*
X71834019Y-115926980D01*
X71595923Y-115926980D01*
X73119733Y-115926980D02*
X72548304Y-115926980D01*
X72834019Y-115926980D02*
X72834019Y-114926980D01*
X72738780Y-115069838D01*
X72643542Y-115165076D01*
X72548304Y-115212695D01*
X73738780Y-114926980D02*
X73834019Y-114926980D01*
X73929257Y-114974600D01*
X73976876Y-115022219D01*
X74024495Y-115117457D01*
X74072114Y-115307933D01*
X74072114Y-115546028D01*
X74024495Y-115736504D01*
X73976876Y-115831742D01*
X73929257Y-115879361D01*
X73834019Y-115926980D01*
X73738780Y-115926980D01*
X73643542Y-115879361D01*
X73595923Y-115831742D01*
X73548304Y-115736504D01*
X73500685Y-115546028D01*
X73500685Y-115307933D01*
X73548304Y-115117457D01*
X73595923Y-115022219D01*
X73643542Y-114974600D01*
X73738780Y-114926980D01*
X74453066Y-115022219D02*
X74500685Y-114974600D01*
X74595923Y-114926980D01*
X74834019Y-114926980D01*
X74929257Y-114974600D01*
X74976876Y-115022219D01*
X75024495Y-115117457D01*
X75024495Y-115212695D01*
X74976876Y-115355552D01*
X74405447Y-115926980D01*
X75024495Y-115926980D01*
D12*
X89001771Y-90845304D02*
X89001771Y-91492923D01*
X89039866Y-91569114D01*
X89077961Y-91607209D01*
X89154152Y-91645304D01*
X89306533Y-91645304D01*
X89382723Y-91607209D01*
X89420819Y-91569114D01*
X89458914Y-91492923D01*
X89458914Y-90845304D01*
X89801771Y-90921495D02*
X89839866Y-90883400D01*
X89916057Y-90845304D01*
X90106533Y-90845304D01*
X90182723Y-90883400D01*
X90220819Y-90921495D01*
X90258914Y-90997685D01*
X90258914Y-91073876D01*
X90220819Y-91188161D01*
X89763676Y-91645304D01*
X90258914Y-91645304D01*
X90754152Y-90845304D02*
X90830342Y-90845304D01*
X90906533Y-90883400D01*
X90944628Y-90921495D01*
X90982723Y-90997685D01*
X91020819Y-91150066D01*
X91020819Y-91340542D01*
X90982723Y-91492923D01*
X90944628Y-91569114D01*
X90906533Y-91607209D01*
X90830342Y-91645304D01*
X90754152Y-91645304D01*
X90677961Y-91607209D01*
X90639866Y-91569114D01*
X90601771Y-91492923D01*
X90563676Y-91340542D01*
X90563676Y-91150066D01*
X90601771Y-90997685D01*
X90639866Y-90921495D01*
X90677961Y-90883400D01*
X90754152Y-90845304D01*
X91782723Y-91645304D02*
X91325580Y-91645304D01*
X91554152Y-91645304D02*
X91554152Y-90845304D01*
X91477961Y-90959590D01*
X91401771Y-91035780D01*
X91325580Y-91073876D01*
X68808771Y-66998904D02*
X68808771Y-67646523D01*
X68846866Y-67722714D01*
X68884961Y-67760809D01*
X68961152Y-67798904D01*
X69113533Y-67798904D01*
X69189723Y-67760809D01*
X69227819Y-67722714D01*
X69265914Y-67646523D01*
X69265914Y-66998904D01*
X69570676Y-66998904D02*
X70065914Y-66998904D01*
X69799247Y-67303666D01*
X69913533Y-67303666D01*
X69989723Y-67341761D01*
X70027819Y-67379857D01*
X70065914Y-67456047D01*
X70065914Y-67646523D01*
X70027819Y-67722714D01*
X69989723Y-67760809D01*
X69913533Y-67798904D01*
X69684961Y-67798904D01*
X69608771Y-67760809D01*
X69570676Y-67722714D01*
X70561152Y-66998904D02*
X70637342Y-66998904D01*
X70713533Y-67037000D01*
X70751628Y-67075095D01*
X70789723Y-67151285D01*
X70827819Y-67303666D01*
X70827819Y-67494142D01*
X70789723Y-67646523D01*
X70751628Y-67722714D01*
X70713533Y-67760809D01*
X70637342Y-67798904D01*
X70561152Y-67798904D01*
X70484961Y-67760809D01*
X70446866Y-67722714D01*
X70408771Y-67646523D01*
X70370676Y-67494142D01*
X70370676Y-67303666D01*
X70408771Y-67151285D01*
X70446866Y-67075095D01*
X70484961Y-67037000D01*
X70561152Y-66998904D01*
X71094485Y-66998904D02*
X71589723Y-66998904D01*
X71323057Y-67303666D01*
X71437342Y-67303666D01*
X71513533Y-67341761D01*
X71551628Y-67379857D01*
X71589723Y-67456047D01*
X71589723Y-67646523D01*
X71551628Y-67722714D01*
X71513533Y-67760809D01*
X71437342Y-67798904D01*
X71208771Y-67798904D01*
X71132580Y-67760809D01*
X71094485Y-67722714D01*
D10*
X70496085Y-87996628D02*
X70524657Y-88025200D01*
X70553228Y-88110914D01*
X70553228Y-88168057D01*
X70524657Y-88253771D01*
X70467514Y-88310914D01*
X70410371Y-88339485D01*
X70296085Y-88368057D01*
X70210371Y-88368057D01*
X70096085Y-88339485D01*
X70038942Y-88310914D01*
X69981800Y-88253771D01*
X69953228Y-88168057D01*
X69953228Y-88110914D01*
X69981800Y-88025200D01*
X70010371Y-87996628D01*
X70010371Y-87768057D02*
X69981800Y-87739485D01*
X69953228Y-87682342D01*
X69953228Y-87539485D01*
X69981800Y-87482342D01*
X70010371Y-87453771D01*
X70067514Y-87425200D01*
X70124657Y-87425200D01*
X70210371Y-87453771D01*
X70553228Y-87796628D01*
X70553228Y-87425200D01*
X69953228Y-87053771D02*
X69953228Y-86996628D01*
X69981800Y-86939485D01*
X70010371Y-86910914D01*
X70067514Y-86882342D01*
X70181800Y-86853771D01*
X70324657Y-86853771D01*
X70438942Y-86882342D01*
X70496085Y-86910914D01*
X70524657Y-86939485D01*
X70553228Y-86996628D01*
X70553228Y-87053771D01*
X70524657Y-87110914D01*
X70496085Y-87139485D01*
X70438942Y-87168057D01*
X70324657Y-87196628D01*
X70181800Y-87196628D01*
X70067514Y-87168057D01*
X70010371Y-87139485D01*
X69981800Y-87110914D01*
X69953228Y-87053771D01*
X69953228Y-86339485D02*
X69953228Y-86453771D01*
X69981800Y-86510914D01*
X70010371Y-86539485D01*
X70096085Y-86596628D01*
X70210371Y-86625200D01*
X70438942Y-86625200D01*
X70496085Y-86596628D01*
X70524657Y-86568057D01*
X70553228Y-86510914D01*
X70553228Y-86396628D01*
X70524657Y-86339485D01*
X70496085Y-86310914D01*
X70438942Y-86282342D01*
X70296085Y-86282342D01*
X70238942Y-86310914D01*
X70210371Y-86339485D01*
X70181800Y-86396628D01*
X70181800Y-86510914D01*
X70210371Y-86568057D01*
X70238942Y-86596628D01*
X70296085Y-86625200D01*
X71213628Y-104405028D02*
X70927914Y-104605028D01*
X71213628Y-104747885D02*
X70613628Y-104747885D01*
X70613628Y-104519314D01*
X70642200Y-104462171D01*
X70670771Y-104433600D01*
X70727914Y-104405028D01*
X70813628Y-104405028D01*
X70870771Y-104433600D01*
X70899342Y-104462171D01*
X70927914Y-104519314D01*
X70927914Y-104747885D01*
X70670771Y-104176457D02*
X70642200Y-104147885D01*
X70613628Y-104090742D01*
X70613628Y-103947885D01*
X70642200Y-103890742D01*
X70670771Y-103862171D01*
X70727914Y-103833600D01*
X70785057Y-103833600D01*
X70870771Y-103862171D01*
X71213628Y-104205028D01*
X71213628Y-103833600D01*
X70613628Y-103462171D02*
X70613628Y-103405028D01*
X70642200Y-103347885D01*
X70670771Y-103319314D01*
X70727914Y-103290742D01*
X70842200Y-103262171D01*
X70985057Y-103262171D01*
X71099342Y-103290742D01*
X71156485Y-103319314D01*
X71185057Y-103347885D01*
X71213628Y-103405028D01*
X71213628Y-103462171D01*
X71185057Y-103519314D01*
X71156485Y-103547885D01*
X71099342Y-103576457D01*
X70985057Y-103605028D01*
X70842200Y-103605028D01*
X70727914Y-103576457D01*
X70670771Y-103547885D01*
X70642200Y-103519314D01*
X70613628Y-103462171D01*
X70613628Y-102747885D02*
X70613628Y-102862171D01*
X70642200Y-102919314D01*
X70670771Y-102947885D01*
X70756485Y-103005028D01*
X70870771Y-103033600D01*
X71099342Y-103033600D01*
X71156485Y-103005028D01*
X71185057Y-102976457D01*
X71213628Y-102919314D01*
X71213628Y-102805028D01*
X71185057Y-102747885D01*
X71156485Y-102719314D01*
X71099342Y-102690742D01*
X70956485Y-102690742D01*
X70899342Y-102719314D01*
X70870771Y-102747885D01*
X70842200Y-102805028D01*
X70842200Y-102919314D01*
X70870771Y-102976457D01*
X70899342Y-103005028D01*
X70956485Y-103033600D01*
X77585971Y-109618428D02*
X77385971Y-109332714D01*
X77243114Y-109618428D02*
X77243114Y-109018428D01*
X77471685Y-109018428D01*
X77528828Y-109047000D01*
X77557400Y-109075571D01*
X77585971Y-109132714D01*
X77585971Y-109218428D01*
X77557400Y-109275571D01*
X77528828Y-109304142D01*
X77471685Y-109332714D01*
X77243114Y-109332714D01*
X77814542Y-109075571D02*
X77843114Y-109047000D01*
X77900257Y-109018428D01*
X78043114Y-109018428D01*
X78100257Y-109047000D01*
X78128828Y-109075571D01*
X78157400Y-109132714D01*
X78157400Y-109189857D01*
X78128828Y-109275571D01*
X77785971Y-109618428D01*
X78157400Y-109618428D01*
X78528828Y-109018428D02*
X78585971Y-109018428D01*
X78643114Y-109047000D01*
X78671685Y-109075571D01*
X78700257Y-109132714D01*
X78728828Y-109247000D01*
X78728828Y-109389857D01*
X78700257Y-109504142D01*
X78671685Y-109561285D01*
X78643114Y-109589857D01*
X78585971Y-109618428D01*
X78528828Y-109618428D01*
X78471685Y-109589857D01*
X78443114Y-109561285D01*
X78414542Y-109504142D01*
X78385971Y-109389857D01*
X78385971Y-109247000D01*
X78414542Y-109132714D01*
X78443114Y-109075571D01*
X78471685Y-109047000D01*
X78528828Y-109018428D01*
X79243114Y-109218428D02*
X79243114Y-109618428D01*
X79100257Y-108989857D02*
X78957400Y-109418428D01*
X79328828Y-109418428D01*
D11*
X64327323Y-59680857D02*
X64784466Y-59680857D01*
X64875895Y-59711333D01*
X64936847Y-59772285D01*
X64967323Y-59863714D01*
X64967323Y-59924666D01*
X64967323Y-59040857D02*
X64967323Y-59406571D01*
X64967323Y-59223714D02*
X64327323Y-59223714D01*
X64418752Y-59284666D01*
X64479704Y-59345619D01*
X64510180Y-59406571D01*
X64327323Y-58644666D02*
X64327323Y-58583714D01*
X64357800Y-58522761D01*
X64388276Y-58492285D01*
X64449228Y-58461809D01*
X64571133Y-58431333D01*
X64723514Y-58431333D01*
X64845419Y-58461809D01*
X64906371Y-58492285D01*
X64936847Y-58522761D01*
X64967323Y-58583714D01*
X64967323Y-58644666D01*
X64936847Y-58705619D01*
X64906371Y-58736095D01*
X64845419Y-58766571D01*
X64723514Y-58797047D01*
X64571133Y-58797047D01*
X64449228Y-58766571D01*
X64388276Y-58736095D01*
X64357800Y-58705619D01*
X64327323Y-58644666D01*
X64540657Y-57882761D02*
X64967323Y-57882761D01*
X64296847Y-58035142D02*
X64753990Y-58187523D01*
X64753990Y-57791333D01*
D10*
X82328571Y-70714285D02*
X82300000Y-70742857D01*
X82214285Y-70771428D01*
X82157142Y-70771428D01*
X82071428Y-70742857D01*
X82014285Y-70685714D01*
X81985714Y-70628571D01*
X81957142Y-70514285D01*
X81957142Y-70428571D01*
X81985714Y-70314285D01*
X82014285Y-70257142D01*
X82071428Y-70200000D01*
X82157142Y-70171428D01*
X82214285Y-70171428D01*
X82300000Y-70200000D01*
X82328571Y-70228571D01*
X82900000Y-70771428D02*
X82557142Y-70771428D01*
X82728571Y-70771428D02*
X82728571Y-70171428D01*
X82671428Y-70257142D01*
X82614285Y-70314285D01*
X82557142Y-70342857D01*
X83271428Y-70171428D02*
X83328571Y-70171428D01*
X83385714Y-70200000D01*
X83414285Y-70228571D01*
X83442857Y-70285714D01*
X83471428Y-70400000D01*
X83471428Y-70542857D01*
X83442857Y-70657142D01*
X83414285Y-70714285D01*
X83385714Y-70742857D01*
X83328571Y-70771428D01*
X83271428Y-70771428D01*
X83214285Y-70742857D01*
X83185714Y-70714285D01*
X83157142Y-70657142D01*
X83128571Y-70542857D01*
X83128571Y-70400000D01*
X83157142Y-70285714D01*
X83185714Y-70228571D01*
X83214285Y-70200000D01*
X83271428Y-70171428D01*
X83671428Y-70171428D02*
X84042857Y-70171428D01*
X83842857Y-70400000D01*
X83928571Y-70400000D01*
X83985714Y-70428571D01*
X84014285Y-70457142D01*
X84042857Y-70514285D01*
X84042857Y-70657142D01*
X84014285Y-70714285D01*
X83985714Y-70742857D01*
X83928571Y-70771428D01*
X83757142Y-70771428D01*
X83700000Y-70742857D01*
X83671428Y-70714285D01*
X69022885Y-104328828D02*
X69051457Y-104357400D01*
X69080028Y-104443114D01*
X69080028Y-104500257D01*
X69051457Y-104585971D01*
X68994314Y-104643114D01*
X68937171Y-104671685D01*
X68822885Y-104700257D01*
X68737171Y-104700257D01*
X68622885Y-104671685D01*
X68565742Y-104643114D01*
X68508600Y-104585971D01*
X68480028Y-104500257D01*
X68480028Y-104443114D01*
X68508600Y-104357400D01*
X68537171Y-104328828D01*
X68537171Y-104100257D02*
X68508600Y-104071685D01*
X68480028Y-104014542D01*
X68480028Y-103871685D01*
X68508600Y-103814542D01*
X68537171Y-103785971D01*
X68594314Y-103757400D01*
X68651457Y-103757400D01*
X68737171Y-103785971D01*
X69080028Y-104128828D01*
X69080028Y-103757400D01*
X68480028Y-103385971D02*
X68480028Y-103328828D01*
X68508600Y-103271685D01*
X68537171Y-103243114D01*
X68594314Y-103214542D01*
X68708600Y-103185971D01*
X68851457Y-103185971D01*
X68965742Y-103214542D01*
X69022885Y-103243114D01*
X69051457Y-103271685D01*
X69080028Y-103328828D01*
X69080028Y-103385971D01*
X69051457Y-103443114D01*
X69022885Y-103471685D01*
X68965742Y-103500257D01*
X68851457Y-103528828D01*
X68708600Y-103528828D01*
X68594314Y-103500257D01*
X68537171Y-103471685D01*
X68508600Y-103443114D01*
X68480028Y-103385971D01*
X68480028Y-102985971D02*
X68480028Y-102585971D01*
X69080028Y-102843114D01*
X82985714Y-52946428D02*
X82985714Y-52346428D01*
X83128571Y-52346428D01*
X83214285Y-52375000D01*
X83271428Y-52432142D01*
X83300000Y-52489285D01*
X83328571Y-52603571D01*
X83328571Y-52689285D01*
X83300000Y-52803571D01*
X83271428Y-52860714D01*
X83214285Y-52917857D01*
X83128571Y-52946428D01*
X82985714Y-52946428D01*
X83557142Y-52403571D02*
X83585714Y-52375000D01*
X83642857Y-52346428D01*
X83785714Y-52346428D01*
X83842857Y-52375000D01*
X83871428Y-52403571D01*
X83900000Y-52460714D01*
X83900000Y-52517857D01*
X83871428Y-52603571D01*
X83528571Y-52946428D01*
X83900000Y-52946428D01*
X84271428Y-52346428D02*
X84328571Y-52346428D01*
X84385714Y-52375000D01*
X84414285Y-52403571D01*
X84442857Y-52460714D01*
X84471428Y-52575000D01*
X84471428Y-52717857D01*
X84442857Y-52832142D01*
X84414285Y-52889285D01*
X84385714Y-52917857D01*
X84328571Y-52946428D01*
X84271428Y-52946428D01*
X84214285Y-52917857D01*
X84185714Y-52889285D01*
X84157142Y-52832142D01*
X84128571Y-52717857D01*
X84128571Y-52575000D01*
X84157142Y-52460714D01*
X84185714Y-52403571D01*
X84214285Y-52375000D01*
X84271428Y-52346428D01*
X85042857Y-52946428D02*
X84700000Y-52946428D01*
X84871428Y-52946428D02*
X84871428Y-52346428D01*
X84814285Y-52432142D01*
X84757142Y-52489285D01*
X84700000Y-52517857D01*
X80589285Y-74821428D02*
X80617857Y-74850000D01*
X80646428Y-74935714D01*
X80646428Y-74992857D01*
X80617857Y-75078571D01*
X80560714Y-75135714D01*
X80503571Y-75164285D01*
X80389285Y-75192857D01*
X80303571Y-75192857D01*
X80189285Y-75164285D01*
X80132142Y-75135714D01*
X80075000Y-75078571D01*
X80046428Y-74992857D01*
X80046428Y-74935714D01*
X80075000Y-74850000D01*
X80103571Y-74821428D01*
X80046428Y-74621428D02*
X80046428Y-74250000D01*
X80275000Y-74450000D01*
X80275000Y-74364285D01*
X80303571Y-74307142D01*
X80332142Y-74278571D01*
X80389285Y-74250000D01*
X80532142Y-74250000D01*
X80589285Y-74278571D01*
X80617857Y-74307142D01*
X80646428Y-74364285D01*
X80646428Y-74535714D01*
X80617857Y-74592857D01*
X80589285Y-74621428D01*
X80103571Y-74021428D02*
X80075000Y-73992857D01*
X80046428Y-73935714D01*
X80046428Y-73792857D01*
X80075000Y-73735714D01*
X80103571Y-73707142D01*
X80160714Y-73678571D01*
X80217857Y-73678571D01*
X80303571Y-73707142D01*
X80646428Y-74050000D01*
X80646428Y-73678571D01*
X80046428Y-73135714D02*
X80046428Y-73421428D01*
X80332142Y-73450000D01*
X80303571Y-73421428D01*
X80275000Y-73364285D01*
X80275000Y-73221428D01*
X80303571Y-73164285D01*
X80332142Y-73135714D01*
X80389285Y-73107142D01*
X80532142Y-73107142D01*
X80589285Y-73135714D01*
X80617857Y-73164285D01*
X80646428Y-73221428D01*
X80646428Y-73364285D01*
X80617857Y-73421428D01*
X80589285Y-73450000D01*
D11*
X56727380Y-107252380D02*
X56251190Y-107585714D01*
X56727380Y-107823809D02*
X55727380Y-107823809D01*
X55727380Y-107442857D01*
X55775000Y-107347619D01*
X55822619Y-107300000D01*
X55917857Y-107252380D01*
X56060714Y-107252380D01*
X56155952Y-107300000D01*
X56203571Y-107347619D01*
X56251190Y-107442857D01*
X56251190Y-107823809D01*
X56203571Y-106823809D02*
X56203571Y-106490476D01*
X56727380Y-106347619D02*
X56727380Y-106823809D01*
X55727380Y-106823809D01*
X55727380Y-106347619D01*
X56679761Y-105966666D02*
X56727380Y-105823809D01*
X56727380Y-105585714D01*
X56679761Y-105490476D01*
X56632142Y-105442857D01*
X56536904Y-105395238D01*
X56441666Y-105395238D01*
X56346428Y-105442857D01*
X56298809Y-105490476D01*
X56251190Y-105585714D01*
X56203571Y-105776190D01*
X56155952Y-105871428D01*
X56108333Y-105919047D01*
X56013095Y-105966666D01*
X55917857Y-105966666D01*
X55822619Y-105919047D01*
X55775000Y-105871428D01*
X55727380Y-105776190D01*
X55727380Y-105538095D01*
X55775000Y-105395238D01*
X56203571Y-104966666D02*
X56203571Y-104633333D01*
X56727380Y-104490476D02*
X56727380Y-104966666D01*
X55727380Y-104966666D01*
X55727380Y-104490476D01*
X55727380Y-104204761D02*
X55727380Y-103633333D01*
X56727380Y-103919047D02*
X55727380Y-103919047D01*
D10*
X74403571Y-63239285D02*
X74375000Y-63267857D01*
X74289285Y-63296428D01*
X74232142Y-63296428D01*
X74146428Y-63267857D01*
X74089285Y-63210714D01*
X74060714Y-63153571D01*
X74032142Y-63039285D01*
X74032142Y-62953571D01*
X74060714Y-62839285D01*
X74089285Y-62782142D01*
X74146428Y-62725000D01*
X74232142Y-62696428D01*
X74289285Y-62696428D01*
X74375000Y-62725000D01*
X74403571Y-62753571D01*
X74603571Y-62696428D02*
X74975000Y-62696428D01*
X74775000Y-62925000D01*
X74860714Y-62925000D01*
X74917857Y-62953571D01*
X74946428Y-62982142D01*
X74975000Y-63039285D01*
X74975000Y-63182142D01*
X74946428Y-63239285D01*
X74917857Y-63267857D01*
X74860714Y-63296428D01*
X74689285Y-63296428D01*
X74632142Y-63267857D01*
X74603571Y-63239285D01*
X75346428Y-62696428D02*
X75403571Y-62696428D01*
X75460714Y-62725000D01*
X75489285Y-62753571D01*
X75517857Y-62810714D01*
X75546428Y-62925000D01*
X75546428Y-63067857D01*
X75517857Y-63182142D01*
X75489285Y-63239285D01*
X75460714Y-63267857D01*
X75403571Y-63296428D01*
X75346428Y-63296428D01*
X75289285Y-63267857D01*
X75260714Y-63239285D01*
X75232142Y-63182142D01*
X75203571Y-63067857D01*
X75203571Y-62925000D01*
X75232142Y-62810714D01*
X75260714Y-62753571D01*
X75289285Y-62725000D01*
X75346428Y-62696428D01*
X76060714Y-62896428D02*
X76060714Y-63296428D01*
X75917857Y-62667857D02*
X75775000Y-63096428D01*
X76146428Y-63096428D01*
X83001428Y-76591428D02*
X83001428Y-76877142D01*
X82401428Y-76877142D01*
X82401428Y-76448571D02*
X82401428Y-76077142D01*
X82630000Y-76277142D01*
X82630000Y-76191428D01*
X82658571Y-76134285D01*
X82687142Y-76105714D01*
X82744285Y-76077142D01*
X82887142Y-76077142D01*
X82944285Y-76105714D01*
X82972857Y-76134285D01*
X83001428Y-76191428D01*
X83001428Y-76362857D01*
X82972857Y-76420000D01*
X82944285Y-76448571D01*
X82401428Y-75705714D02*
X82401428Y-75648571D01*
X82430000Y-75591428D01*
X82458571Y-75562857D01*
X82515714Y-75534285D01*
X82630000Y-75505714D01*
X82772857Y-75505714D01*
X82887142Y-75534285D01*
X82944285Y-75562857D01*
X82972857Y-75591428D01*
X83001428Y-75648571D01*
X83001428Y-75705714D01*
X82972857Y-75762857D01*
X82944285Y-75791428D01*
X82887142Y-75820000D01*
X82772857Y-75848571D01*
X82630000Y-75848571D01*
X82515714Y-75820000D01*
X82458571Y-75791428D01*
X82430000Y-75762857D01*
X82401428Y-75705714D01*
X82458571Y-75277142D02*
X82430000Y-75248571D01*
X82401428Y-75191428D01*
X82401428Y-75048571D01*
X82430000Y-74991428D01*
X82458571Y-74962857D01*
X82515714Y-74934285D01*
X82572857Y-74934285D01*
X82658571Y-74962857D01*
X83001428Y-75305714D01*
X83001428Y-74934285D01*
X64838228Y-73264628D02*
X64552514Y-73464628D01*
X64838228Y-73607485D02*
X64238228Y-73607485D01*
X64238228Y-73378914D01*
X64266800Y-73321771D01*
X64295371Y-73293200D01*
X64352514Y-73264628D01*
X64438228Y-73264628D01*
X64495371Y-73293200D01*
X64523942Y-73321771D01*
X64552514Y-73378914D01*
X64552514Y-73607485D01*
X64238228Y-73064628D02*
X64238228Y-72693200D01*
X64466800Y-72893200D01*
X64466800Y-72807485D01*
X64495371Y-72750342D01*
X64523942Y-72721771D01*
X64581085Y-72693200D01*
X64723942Y-72693200D01*
X64781085Y-72721771D01*
X64809657Y-72750342D01*
X64838228Y-72807485D01*
X64838228Y-72978914D01*
X64809657Y-73036057D01*
X64781085Y-73064628D01*
X64238228Y-72321771D02*
X64238228Y-72264628D01*
X64266800Y-72207485D01*
X64295371Y-72178914D01*
X64352514Y-72150342D01*
X64466800Y-72121771D01*
X64609657Y-72121771D01*
X64723942Y-72150342D01*
X64781085Y-72178914D01*
X64809657Y-72207485D01*
X64838228Y-72264628D01*
X64838228Y-72321771D01*
X64809657Y-72378914D01*
X64781085Y-72407485D01*
X64723942Y-72436057D01*
X64609657Y-72464628D01*
X64466800Y-72464628D01*
X64352514Y-72436057D01*
X64295371Y-72407485D01*
X64266800Y-72378914D01*
X64238228Y-72321771D01*
X64238228Y-71921771D02*
X64238228Y-71550342D01*
X64466800Y-71750342D01*
X64466800Y-71664628D01*
X64495371Y-71607485D01*
X64523942Y-71578914D01*
X64581085Y-71550342D01*
X64723942Y-71550342D01*
X64781085Y-71578914D01*
X64809657Y-71607485D01*
X64838228Y-71664628D01*
X64838228Y-71836057D01*
X64809657Y-71893200D01*
X64781085Y-71921771D01*
X80778571Y-55921428D02*
X80578571Y-55635714D01*
X80435714Y-55921428D02*
X80435714Y-55321428D01*
X80664285Y-55321428D01*
X80721428Y-55350000D01*
X80750000Y-55378571D01*
X80778571Y-55435714D01*
X80778571Y-55521428D01*
X80750000Y-55578571D01*
X80721428Y-55607142D01*
X80664285Y-55635714D01*
X80435714Y-55635714D01*
X81007142Y-55378571D02*
X81035714Y-55350000D01*
X81092857Y-55321428D01*
X81235714Y-55321428D01*
X81292857Y-55350000D01*
X81321428Y-55378571D01*
X81350000Y-55435714D01*
X81350000Y-55492857D01*
X81321428Y-55578571D01*
X80978571Y-55921428D01*
X81350000Y-55921428D01*
X81721428Y-55321428D02*
X81778571Y-55321428D01*
X81835714Y-55350000D01*
X81864285Y-55378571D01*
X81892857Y-55435714D01*
X81921428Y-55550000D01*
X81921428Y-55692857D01*
X81892857Y-55807142D01*
X81864285Y-55864285D01*
X81835714Y-55892857D01*
X81778571Y-55921428D01*
X81721428Y-55921428D01*
X81664285Y-55892857D01*
X81635714Y-55864285D01*
X81607142Y-55807142D01*
X81578571Y-55692857D01*
X81578571Y-55550000D01*
X81607142Y-55435714D01*
X81635714Y-55378571D01*
X81664285Y-55350000D01*
X81721428Y-55321428D01*
X82207142Y-55921428D02*
X82321428Y-55921428D01*
X82378571Y-55892857D01*
X82407142Y-55864285D01*
X82464285Y-55778571D01*
X82492857Y-55664285D01*
X82492857Y-55435714D01*
X82464285Y-55378571D01*
X82435714Y-55350000D01*
X82378571Y-55321428D01*
X82264285Y-55321428D01*
X82207142Y-55350000D01*
X82178571Y-55378571D01*
X82150000Y-55435714D01*
X82150000Y-55578571D01*
X82178571Y-55635714D01*
X82207142Y-55664285D01*
X82264285Y-55692857D01*
X82378571Y-55692857D01*
X82435714Y-55664285D01*
X82464285Y-55635714D01*
X82492857Y-55578571D01*
X72420371Y-75466285D02*
X72391800Y-75494857D01*
X72306085Y-75523428D01*
X72248942Y-75523428D01*
X72163228Y-75494857D01*
X72106085Y-75437714D01*
X72077514Y-75380571D01*
X72048942Y-75266285D01*
X72048942Y-75180571D01*
X72077514Y-75066285D01*
X72106085Y-75009142D01*
X72163228Y-74952000D01*
X72248942Y-74923428D01*
X72306085Y-74923428D01*
X72391800Y-74952000D01*
X72420371Y-74980571D01*
X72620371Y-74923428D02*
X72991800Y-74923428D01*
X72791800Y-75152000D01*
X72877514Y-75152000D01*
X72934657Y-75180571D01*
X72963228Y-75209142D01*
X72991800Y-75266285D01*
X72991800Y-75409142D01*
X72963228Y-75466285D01*
X72934657Y-75494857D01*
X72877514Y-75523428D01*
X72706085Y-75523428D01*
X72648942Y-75494857D01*
X72620371Y-75466285D01*
X73363228Y-74923428D02*
X73420371Y-74923428D01*
X73477514Y-74952000D01*
X73506085Y-74980571D01*
X73534657Y-75037714D01*
X73563228Y-75152000D01*
X73563228Y-75294857D01*
X73534657Y-75409142D01*
X73506085Y-75466285D01*
X73477514Y-75494857D01*
X73420371Y-75523428D01*
X73363228Y-75523428D01*
X73306085Y-75494857D01*
X73277514Y-75466285D01*
X73248942Y-75409142D01*
X73220371Y-75294857D01*
X73220371Y-75152000D01*
X73248942Y-75037714D01*
X73277514Y-74980571D01*
X73306085Y-74952000D01*
X73363228Y-74923428D01*
X73763228Y-74923428D02*
X74163228Y-74923428D01*
X73906085Y-75523428D01*
X62821428Y-109071428D02*
X62535714Y-109271428D01*
X62821428Y-109414285D02*
X62221428Y-109414285D01*
X62221428Y-109185714D01*
X62250000Y-109128571D01*
X62278571Y-109100000D01*
X62335714Y-109071428D01*
X62421428Y-109071428D01*
X62478571Y-109100000D01*
X62507142Y-109128571D01*
X62535714Y-109185714D01*
X62535714Y-109414285D01*
X62278571Y-108842857D02*
X62250000Y-108814285D01*
X62221428Y-108757142D01*
X62221428Y-108614285D01*
X62250000Y-108557142D01*
X62278571Y-108528571D01*
X62335714Y-108500000D01*
X62392857Y-108500000D01*
X62478571Y-108528571D01*
X62821428Y-108871428D01*
X62821428Y-108500000D01*
X62221428Y-108128571D02*
X62221428Y-108071428D01*
X62250000Y-108014285D01*
X62278571Y-107985714D01*
X62335714Y-107957142D01*
X62450000Y-107928571D01*
X62592857Y-107928571D01*
X62707142Y-107957142D01*
X62764285Y-107985714D01*
X62792857Y-108014285D01*
X62821428Y-108071428D01*
X62821428Y-108128571D01*
X62792857Y-108185714D01*
X62764285Y-108214285D01*
X62707142Y-108242857D01*
X62592857Y-108271428D01*
X62450000Y-108271428D01*
X62335714Y-108242857D01*
X62278571Y-108214285D01*
X62250000Y-108185714D01*
X62221428Y-108128571D01*
X62821428Y-107357142D02*
X62821428Y-107700000D01*
X62821428Y-107528571D02*
X62221428Y-107528571D01*
X62307142Y-107585714D01*
X62364285Y-107642857D01*
X62392857Y-107700000D01*
X88485828Y-111973428D02*
X88828685Y-111973428D01*
X88657257Y-112573428D02*
X88657257Y-111973428D01*
X89028685Y-112573428D02*
X89028685Y-111973428D01*
X89257257Y-111973428D01*
X89314400Y-112002000D01*
X89342971Y-112030571D01*
X89371542Y-112087714D01*
X89371542Y-112173428D01*
X89342971Y-112230571D01*
X89314400Y-112259142D01*
X89257257Y-112287714D01*
X89028685Y-112287714D01*
X89942971Y-112573428D02*
X89600114Y-112573428D01*
X89771542Y-112573428D02*
X89771542Y-111973428D01*
X89714400Y-112059142D01*
X89657257Y-112116285D01*
X89600114Y-112144857D01*
X90314400Y-111973428D02*
X90371542Y-111973428D01*
X90428685Y-112002000D01*
X90457257Y-112030571D01*
X90485828Y-112087714D01*
X90514400Y-112202000D01*
X90514400Y-112344857D01*
X90485828Y-112459142D01*
X90457257Y-112516285D01*
X90428685Y-112544857D01*
X90371542Y-112573428D01*
X90314400Y-112573428D01*
X90257257Y-112544857D01*
X90228685Y-112516285D01*
X90200114Y-112459142D01*
X90171542Y-112344857D01*
X90171542Y-112202000D01*
X90200114Y-112087714D01*
X90228685Y-112030571D01*
X90257257Y-112002000D01*
X90314400Y-111973428D01*
X90714400Y-111973428D02*
X91085828Y-111973428D01*
X90885828Y-112202000D01*
X90971542Y-112202000D01*
X91028685Y-112230571D01*
X91057257Y-112259142D01*
X91085828Y-112316285D01*
X91085828Y-112459142D01*
X91057257Y-112516285D01*
X91028685Y-112544857D01*
X90971542Y-112573428D01*
X90800114Y-112573428D01*
X90742971Y-112544857D01*
X90714400Y-112516285D01*
X83171428Y-73373428D02*
X83514285Y-73373428D01*
X83342857Y-73973428D02*
X83342857Y-73373428D01*
X83714285Y-73973428D02*
X83714285Y-73373428D01*
X83942857Y-73373428D01*
X84000000Y-73402000D01*
X84028571Y-73430571D01*
X84057142Y-73487714D01*
X84057142Y-73573428D01*
X84028571Y-73630571D01*
X84000000Y-73659142D01*
X83942857Y-73687714D01*
X83714285Y-73687714D01*
X84257142Y-73373428D02*
X84628571Y-73373428D01*
X84428571Y-73602000D01*
X84514285Y-73602000D01*
X84571428Y-73630571D01*
X84600000Y-73659142D01*
X84628571Y-73716285D01*
X84628571Y-73859142D01*
X84600000Y-73916285D01*
X84571428Y-73944857D01*
X84514285Y-73973428D01*
X84342857Y-73973428D01*
X84285714Y-73944857D01*
X84257142Y-73916285D01*
X85000000Y-73373428D02*
X85057142Y-73373428D01*
X85114285Y-73402000D01*
X85142857Y-73430571D01*
X85171428Y-73487714D01*
X85200000Y-73602000D01*
X85200000Y-73744857D01*
X85171428Y-73859142D01*
X85142857Y-73916285D01*
X85114285Y-73944857D01*
X85057142Y-73973428D01*
X85000000Y-73973428D01*
X84942857Y-73944857D01*
X84914285Y-73916285D01*
X84885714Y-73859142D01*
X84857142Y-73744857D01*
X84857142Y-73602000D01*
X84885714Y-73487714D01*
X84914285Y-73430571D01*
X84942857Y-73402000D01*
X85000000Y-73373428D01*
X85428571Y-73430571D02*
X85457142Y-73402000D01*
X85514285Y-73373428D01*
X85657142Y-73373428D01*
X85714285Y-73402000D01*
X85742857Y-73430571D01*
X85771428Y-73487714D01*
X85771428Y-73544857D01*
X85742857Y-73630571D01*
X85400000Y-73973428D01*
X85771428Y-73973428D01*
X86771428Y-81519971D02*
X86714285Y-81491400D01*
X86657142Y-81434257D01*
X86571428Y-81348542D01*
X86514285Y-81319971D01*
X86457142Y-81319971D01*
X86485714Y-81462828D02*
X86428571Y-81434257D01*
X86371428Y-81377114D01*
X86342857Y-81262828D01*
X86342857Y-81062828D01*
X86371428Y-80948542D01*
X86428571Y-80891400D01*
X86485714Y-80862828D01*
X86600000Y-80862828D01*
X86657142Y-80891400D01*
X86714285Y-80948542D01*
X86742857Y-81062828D01*
X86742857Y-81262828D01*
X86714285Y-81377114D01*
X86657142Y-81434257D01*
X86600000Y-81462828D01*
X86485714Y-81462828D01*
X86971428Y-80919971D02*
X87000000Y-80891400D01*
X87057142Y-80862828D01*
X87200000Y-80862828D01*
X87257142Y-80891400D01*
X87285714Y-80919971D01*
X87314285Y-80977114D01*
X87314285Y-81034257D01*
X87285714Y-81119971D01*
X86942857Y-81462828D01*
X87314285Y-81462828D01*
X87685714Y-80862828D02*
X87742857Y-80862828D01*
X87800000Y-80891400D01*
X87828571Y-80919971D01*
X87857142Y-80977114D01*
X87885714Y-81091400D01*
X87885714Y-81234257D01*
X87857142Y-81348542D01*
X87828571Y-81405685D01*
X87800000Y-81434257D01*
X87742857Y-81462828D01*
X87685714Y-81462828D01*
X87628571Y-81434257D01*
X87600000Y-81405685D01*
X87571428Y-81348542D01*
X87542857Y-81234257D01*
X87542857Y-81091400D01*
X87571428Y-80977114D01*
X87600000Y-80919971D01*
X87628571Y-80891400D01*
X87685714Y-80862828D01*
X88085714Y-80862828D02*
X88457142Y-80862828D01*
X88257142Y-81091400D01*
X88342857Y-81091400D01*
X88400000Y-81119971D01*
X88428571Y-81148542D01*
X88457142Y-81205685D01*
X88457142Y-81348542D01*
X88428571Y-81405685D01*
X88400000Y-81434257D01*
X88342857Y-81462828D01*
X88171428Y-81462828D01*
X88114285Y-81434257D01*
X88085714Y-81405685D01*
X72782085Y-91222428D02*
X72810657Y-91251000D01*
X72839228Y-91336714D01*
X72839228Y-91393857D01*
X72810657Y-91479571D01*
X72753514Y-91536714D01*
X72696371Y-91565285D01*
X72582085Y-91593857D01*
X72496371Y-91593857D01*
X72382085Y-91565285D01*
X72324942Y-91536714D01*
X72267800Y-91479571D01*
X72239228Y-91393857D01*
X72239228Y-91336714D01*
X72267800Y-91251000D01*
X72296371Y-91222428D01*
X72296371Y-90993857D02*
X72267800Y-90965285D01*
X72239228Y-90908142D01*
X72239228Y-90765285D01*
X72267800Y-90708142D01*
X72296371Y-90679571D01*
X72353514Y-90651000D01*
X72410657Y-90651000D01*
X72496371Y-90679571D01*
X72839228Y-91022428D01*
X72839228Y-90651000D01*
X72839228Y-90079571D02*
X72839228Y-90422428D01*
X72839228Y-90251000D02*
X72239228Y-90251000D01*
X72324942Y-90308142D01*
X72382085Y-90365285D01*
X72410657Y-90422428D01*
X72239228Y-89879571D02*
X72239228Y-89508142D01*
X72467800Y-89708142D01*
X72467800Y-89622428D01*
X72496371Y-89565285D01*
X72524942Y-89536714D01*
X72582085Y-89508142D01*
X72724942Y-89508142D01*
X72782085Y-89536714D01*
X72810657Y-89565285D01*
X72839228Y-89622428D01*
X72839228Y-89793857D01*
X72810657Y-89851000D01*
X72782085Y-89879571D01*
X74828885Y-78265228D02*
X74857457Y-78293800D01*
X74886028Y-78379514D01*
X74886028Y-78436657D01*
X74857457Y-78522371D01*
X74800314Y-78579514D01*
X74743171Y-78608085D01*
X74628885Y-78636657D01*
X74543171Y-78636657D01*
X74428885Y-78608085D01*
X74371742Y-78579514D01*
X74314600Y-78522371D01*
X74286028Y-78436657D01*
X74286028Y-78379514D01*
X74314600Y-78293800D01*
X74343171Y-78265228D01*
X74286028Y-78065228D02*
X74286028Y-77693800D01*
X74514600Y-77893800D01*
X74514600Y-77808085D01*
X74543171Y-77750942D01*
X74571742Y-77722371D01*
X74628885Y-77693800D01*
X74771742Y-77693800D01*
X74828885Y-77722371D01*
X74857457Y-77750942D01*
X74886028Y-77808085D01*
X74886028Y-77979514D01*
X74857457Y-78036657D01*
X74828885Y-78065228D01*
X74886028Y-77122371D02*
X74886028Y-77465228D01*
X74886028Y-77293800D02*
X74286028Y-77293800D01*
X74371742Y-77350942D01*
X74428885Y-77408085D01*
X74457457Y-77465228D01*
X74286028Y-76922371D02*
X74286028Y-76522371D01*
X74886028Y-76779514D01*
X69708685Y-91222428D02*
X69737257Y-91251000D01*
X69765828Y-91336714D01*
X69765828Y-91393857D01*
X69737257Y-91479571D01*
X69680114Y-91536714D01*
X69622971Y-91565285D01*
X69508685Y-91593857D01*
X69422971Y-91593857D01*
X69308685Y-91565285D01*
X69251542Y-91536714D01*
X69194400Y-91479571D01*
X69165828Y-91393857D01*
X69165828Y-91336714D01*
X69194400Y-91251000D01*
X69222971Y-91222428D01*
X69222971Y-90993857D02*
X69194400Y-90965285D01*
X69165828Y-90908142D01*
X69165828Y-90765285D01*
X69194400Y-90708142D01*
X69222971Y-90679571D01*
X69280114Y-90651000D01*
X69337257Y-90651000D01*
X69422971Y-90679571D01*
X69765828Y-91022428D01*
X69765828Y-90651000D01*
X69165828Y-90279571D02*
X69165828Y-90222428D01*
X69194400Y-90165285D01*
X69222971Y-90136714D01*
X69280114Y-90108142D01*
X69394400Y-90079571D01*
X69537257Y-90079571D01*
X69651542Y-90108142D01*
X69708685Y-90136714D01*
X69737257Y-90165285D01*
X69765828Y-90222428D01*
X69765828Y-90279571D01*
X69737257Y-90336714D01*
X69708685Y-90365285D01*
X69651542Y-90393857D01*
X69537257Y-90422428D01*
X69394400Y-90422428D01*
X69280114Y-90393857D01*
X69222971Y-90365285D01*
X69194400Y-90336714D01*
X69165828Y-90279571D01*
X69765828Y-89793857D02*
X69765828Y-89679571D01*
X69737257Y-89622428D01*
X69708685Y-89593857D01*
X69622971Y-89536714D01*
X69508685Y-89508142D01*
X69280114Y-89508142D01*
X69222971Y-89536714D01*
X69194400Y-89565285D01*
X69165828Y-89622428D01*
X69165828Y-89736714D01*
X69194400Y-89793857D01*
X69222971Y-89822428D01*
X69280114Y-89851000D01*
X69422971Y-89851000D01*
X69480114Y-89822428D01*
X69508685Y-89793857D01*
X69537257Y-89736714D01*
X69537257Y-89622428D01*
X69508685Y-89565285D01*
X69480114Y-89536714D01*
X69422971Y-89508142D01*
X69461428Y-121081428D02*
X69175714Y-121281428D01*
X69461428Y-121424285D02*
X68861428Y-121424285D01*
X68861428Y-121195714D01*
X68890000Y-121138571D01*
X68918571Y-121110000D01*
X68975714Y-121081428D01*
X69061428Y-121081428D01*
X69118571Y-121110000D01*
X69147142Y-121138571D01*
X69175714Y-121195714D01*
X69175714Y-121424285D01*
X69461428Y-120510000D02*
X69461428Y-120852857D01*
X69461428Y-120681428D02*
X68861428Y-120681428D01*
X68947142Y-120738571D01*
X69004285Y-120795714D01*
X69032857Y-120852857D01*
X68861428Y-120138571D02*
X68861428Y-120081428D01*
X68890000Y-120024285D01*
X68918571Y-119995714D01*
X68975714Y-119967142D01*
X69090000Y-119938571D01*
X69232857Y-119938571D01*
X69347142Y-119967142D01*
X69404285Y-119995714D01*
X69432857Y-120024285D01*
X69461428Y-120081428D01*
X69461428Y-120138571D01*
X69432857Y-120195714D01*
X69404285Y-120224285D01*
X69347142Y-120252857D01*
X69232857Y-120281428D01*
X69090000Y-120281428D01*
X68975714Y-120252857D01*
X68918571Y-120224285D01*
X68890000Y-120195714D01*
X68861428Y-120138571D01*
X69461428Y-119367142D02*
X69461428Y-119710000D01*
X69461428Y-119538571D02*
X68861428Y-119538571D01*
X68947142Y-119595714D01*
X69004285Y-119652857D01*
X69032857Y-119710000D01*
D11*
X94254923Y-59496857D02*
X94712066Y-59496857D01*
X94803495Y-59527333D01*
X94864447Y-59588285D01*
X94894923Y-59679714D01*
X94894923Y-59740666D01*
X94894923Y-58856857D02*
X94894923Y-59222571D01*
X94894923Y-59039714D02*
X94254923Y-59039714D01*
X94346352Y-59100666D01*
X94407304Y-59161619D01*
X94437780Y-59222571D01*
X94254923Y-58460666D02*
X94254923Y-58399714D01*
X94285400Y-58338761D01*
X94315876Y-58308285D01*
X94376828Y-58277809D01*
X94498733Y-58247333D01*
X94651114Y-58247333D01*
X94773019Y-58277809D01*
X94833971Y-58308285D01*
X94864447Y-58338761D01*
X94894923Y-58399714D01*
X94894923Y-58460666D01*
X94864447Y-58521619D01*
X94833971Y-58552095D01*
X94773019Y-58582571D01*
X94651114Y-58613047D01*
X94498733Y-58613047D01*
X94376828Y-58582571D01*
X94315876Y-58552095D01*
X94285400Y-58521619D01*
X94254923Y-58460666D01*
X94254923Y-57668285D02*
X94254923Y-57973047D01*
X94559685Y-58003523D01*
X94529209Y-57973047D01*
X94498733Y-57912095D01*
X94498733Y-57759714D01*
X94529209Y-57698761D01*
X94559685Y-57668285D01*
X94620638Y-57637809D01*
X94773019Y-57637809D01*
X94833971Y-57668285D01*
X94864447Y-57698761D01*
X94894923Y-57759714D01*
X94894923Y-57912095D01*
X94864447Y-57973047D01*
X94833971Y-58003523D01*
D10*
X90882914Y-87106428D02*
X90882914Y-86506428D01*
X91025771Y-86506428D01*
X91111485Y-86535000D01*
X91168628Y-86592142D01*
X91197200Y-86649285D01*
X91225771Y-86763571D01*
X91225771Y-86849285D01*
X91197200Y-86963571D01*
X91168628Y-87020714D01*
X91111485Y-87077857D01*
X91025771Y-87106428D01*
X90882914Y-87106428D01*
X91454342Y-86563571D02*
X91482914Y-86535000D01*
X91540057Y-86506428D01*
X91682914Y-86506428D01*
X91740057Y-86535000D01*
X91768628Y-86563571D01*
X91797200Y-86620714D01*
X91797200Y-86677857D01*
X91768628Y-86763571D01*
X91425771Y-87106428D01*
X91797200Y-87106428D01*
X92168628Y-86506428D02*
X92225771Y-86506428D01*
X92282914Y-86535000D01*
X92311485Y-86563571D01*
X92340057Y-86620714D01*
X92368628Y-86735000D01*
X92368628Y-86877857D01*
X92340057Y-86992142D01*
X92311485Y-87049285D01*
X92282914Y-87077857D01*
X92225771Y-87106428D01*
X92168628Y-87106428D01*
X92111485Y-87077857D01*
X92082914Y-87049285D01*
X92054342Y-86992142D01*
X92025771Y-86877857D01*
X92025771Y-86735000D01*
X92054342Y-86620714D01*
X92082914Y-86563571D01*
X92111485Y-86535000D01*
X92168628Y-86506428D01*
X92597200Y-86563571D02*
X92625771Y-86535000D01*
X92682914Y-86506428D01*
X92825771Y-86506428D01*
X92882914Y-86535000D01*
X92911485Y-86563571D01*
X92940057Y-86620714D01*
X92940057Y-86677857D01*
X92911485Y-86763571D01*
X92568628Y-87106428D01*
X92940057Y-87106428D01*
X80564285Y-66446428D02*
X80592857Y-66475000D01*
X80621428Y-66560714D01*
X80621428Y-66617857D01*
X80592857Y-66703571D01*
X80535714Y-66760714D01*
X80478571Y-66789285D01*
X80364285Y-66817857D01*
X80278571Y-66817857D01*
X80164285Y-66789285D01*
X80107142Y-66760714D01*
X80050000Y-66703571D01*
X80021428Y-66617857D01*
X80021428Y-66560714D01*
X80050000Y-66475000D01*
X80078571Y-66446428D01*
X80021428Y-66246428D02*
X80021428Y-65875000D01*
X80250000Y-66075000D01*
X80250000Y-65989285D01*
X80278571Y-65932142D01*
X80307142Y-65903571D01*
X80364285Y-65875000D01*
X80507142Y-65875000D01*
X80564285Y-65903571D01*
X80592857Y-65932142D01*
X80621428Y-65989285D01*
X80621428Y-66160714D01*
X80592857Y-66217857D01*
X80564285Y-66246428D01*
X80078571Y-65646428D02*
X80050000Y-65617857D01*
X80021428Y-65560714D01*
X80021428Y-65417857D01*
X80050000Y-65360714D01*
X80078571Y-65332142D01*
X80135714Y-65303571D01*
X80192857Y-65303571D01*
X80278571Y-65332142D01*
X80621428Y-65675000D01*
X80621428Y-65303571D01*
X80021428Y-64789285D02*
X80021428Y-64903571D01*
X80050000Y-64960714D01*
X80078571Y-64989285D01*
X80164285Y-65046428D01*
X80278571Y-65075000D01*
X80507142Y-65075000D01*
X80564285Y-65046428D01*
X80592857Y-65017857D01*
X80621428Y-64960714D01*
X80621428Y-64846428D01*
X80592857Y-64789285D01*
X80564285Y-64760714D01*
X80507142Y-64732142D01*
X80364285Y-64732142D01*
X80307142Y-64760714D01*
X80278571Y-64789285D01*
X80250000Y-64846428D01*
X80250000Y-64960714D01*
X80278571Y-65017857D01*
X80307142Y-65046428D01*
X80364285Y-65075000D01*
X80138571Y-79631428D02*
X79938571Y-79345714D01*
X79795714Y-79631428D02*
X79795714Y-79031428D01*
X80024285Y-79031428D01*
X80081428Y-79060000D01*
X80110000Y-79088571D01*
X80138571Y-79145714D01*
X80138571Y-79231428D01*
X80110000Y-79288571D01*
X80081428Y-79317142D01*
X80024285Y-79345714D01*
X79795714Y-79345714D01*
X80338571Y-79031428D02*
X80710000Y-79031428D01*
X80510000Y-79260000D01*
X80595714Y-79260000D01*
X80652857Y-79288571D01*
X80681428Y-79317142D01*
X80710000Y-79374285D01*
X80710000Y-79517142D01*
X80681428Y-79574285D01*
X80652857Y-79602857D01*
X80595714Y-79631428D01*
X80424285Y-79631428D01*
X80367142Y-79602857D01*
X80338571Y-79574285D01*
X81081428Y-79031428D02*
X81138571Y-79031428D01*
X81195714Y-79060000D01*
X81224285Y-79088571D01*
X81252857Y-79145714D01*
X81281428Y-79260000D01*
X81281428Y-79402857D01*
X81252857Y-79517142D01*
X81224285Y-79574285D01*
X81195714Y-79602857D01*
X81138571Y-79631428D01*
X81081428Y-79631428D01*
X81024285Y-79602857D01*
X80995714Y-79574285D01*
X80967142Y-79517142D01*
X80938571Y-79402857D01*
X80938571Y-79260000D01*
X80967142Y-79145714D01*
X80995714Y-79088571D01*
X81024285Y-79060000D01*
X81081428Y-79031428D01*
X81852857Y-79631428D02*
X81510000Y-79631428D01*
X81681428Y-79631428D02*
X81681428Y-79031428D01*
X81624285Y-79117142D01*
X81567142Y-79174285D01*
X81510000Y-79202857D01*
X93079800Y-112000000D02*
G75*
G03*
X93079800Y-112000000I-700000J0D01*
G01*
X80300000Y-59760000D02*
X80950000Y-59760000D01*
X80300000Y-56640000D02*
X78625000Y-56640000D01*
X80300000Y-59760000D02*
X79650000Y-59760000D01*
X80300000Y-56640000D02*
X80950000Y-56640000D01*
X71790000Y-50050000D02*
X71790000Y-46190000D01*
X68270000Y-48930000D02*
X68670000Y-48930000D01*
X68960000Y-50050000D02*
X68960000Y-52720000D01*
X71500000Y-50050000D02*
X71500000Y-52720000D01*
X68960000Y-52720000D02*
X68960000Y-52720000D01*
X68670000Y-50050000D02*
X68670000Y-46190000D01*
X71500000Y-50050000D02*
X71500000Y-50050000D01*
X68670000Y-50050000D02*
X68270000Y-50050000D01*
X71500000Y-52720000D02*
X71500000Y-52720000D01*
X68960000Y-52720000D02*
X68960000Y-50050000D01*
X68270000Y-50050000D02*
X68270000Y-48930000D01*
X68670000Y-48930000D02*
X68670000Y-50050000D01*
X68960000Y-50050000D02*
X68960000Y-50050000D01*
X71790000Y-50050000D02*
X68670000Y-50050000D01*
X71500000Y-52720000D02*
X71500000Y-50050000D01*
X71790000Y-46190000D02*
G75*
G03*
X68670000Y-46190000I-1560000J0D01*
G01*
X78766400Y-70864759D02*
X78766400Y-71172041D01*
X79526400Y-70864759D02*
X79526400Y-71172041D01*
X72871359Y-89280000D02*
X73178641Y-89280000D01*
X72871359Y-88520000D02*
X73178641Y-88520000D01*
X76462221Y-61960000D02*
X76787779Y-61960000D01*
X76462221Y-60940000D02*
X76787779Y-60940000D01*
X75307836Y-74410000D02*
X75092164Y-74410000D01*
X75307836Y-73690000D02*
X75092164Y-73690000D01*
X77298436Y-65490000D02*
X77082764Y-65490000D01*
X77298436Y-66210000D02*
X77082764Y-66210000D01*
X66692164Y-69940000D02*
X66907836Y-69940000D01*
X66692164Y-70660000D02*
X66907836Y-70660000D01*
X77209764Y-94839200D02*
X77425436Y-94839200D01*
X77209764Y-95559200D02*
X77425436Y-95559200D01*
X66095200Y-74669764D02*
X66095200Y-74885436D01*
X65375200Y-74669764D02*
X65375200Y-74885436D01*
X59466359Y-101830000D02*
X59773641Y-101830000D01*
X59466359Y-102590000D02*
X59773641Y-102590000D01*
X69772800Y-75609200D02*
X69772800Y-71609200D01*
X66472800Y-75609200D02*
X69772800Y-75609200D01*
X70221359Y-55395000D02*
X70528641Y-55395000D01*
X70221359Y-56155000D02*
X70528641Y-56155000D01*
X77307836Y-64340000D02*
X77092164Y-64340000D01*
X77307836Y-65060000D02*
X77092164Y-65060000D01*
X67117000Y-106324400D02*
G75*
G03*
X67117000Y-106324400I-950000J0D01*
G01*
X65380841Y-77850000D02*
X65073559Y-77850000D01*
X65380841Y-77090000D02*
X65073559Y-77090000D01*
X80198000Y-91338400D02*
G75*
G03*
X80198000Y-91338400I-950000J0D01*
G01*
X82153641Y-107920000D02*
X81846359Y-107920000D01*
X82153641Y-108680000D02*
X81846359Y-108680000D01*
X68309258Y-77967100D02*
X67834742Y-77967100D01*
X68309258Y-76922100D02*
X67834742Y-76922100D01*
X64400000Y-110014600D02*
X69800000Y-110014600D01*
X64400000Y-113314600D02*
X69800000Y-113314600D01*
X64400000Y-110014600D02*
X64400000Y-113314600D01*
X70719836Y-69896400D02*
X70504164Y-69896400D01*
X70719836Y-70616400D02*
X70504164Y-70616400D01*
X74500000Y-119783641D02*
X74500000Y-119476359D01*
X73740000Y-119783641D02*
X73740000Y-119476359D01*
X55795000Y-84540000D02*
X56925000Y-84540000D01*
X58502530Y-84605000D02*
X59325000Y-84605000D01*
X57488471Y-86060000D02*
X57631529Y-86060000D01*
X57232530Y-91075000D02*
X57887470Y-91075000D01*
X58502530Y-91075000D02*
X59325000Y-91075000D01*
X59325000Y-84605000D02*
X59325000Y-91075000D01*
X55795000Y-86060000D02*
X55795000Y-91075000D01*
X55795000Y-86060000D02*
X56361529Y-86060000D01*
X57685000Y-86006529D02*
X57685000Y-85863471D01*
X55795000Y-91075000D02*
X56617470Y-91075000D01*
X55795000Y-85300000D02*
X55795000Y-84540000D01*
X57685000Y-84605000D02*
X57887470Y-84605000D01*
X57685000Y-84736529D02*
X57685000Y-84605000D01*
X57236400Y-70916800D02*
G75*
G03*
X57236400Y-70916800I-950000J0D01*
G01*
X87400000Y-89825000D02*
X88050000Y-89825000D01*
X87400000Y-89825000D02*
X86750000Y-89825000D01*
X87400000Y-86705000D02*
X88050000Y-86705000D01*
X87400000Y-86705000D02*
X85725000Y-86705000D01*
X81036200Y-111099600D02*
G75*
G03*
X81036200Y-111099600I-950000J0D01*
G01*
X79526400Y-69089241D02*
X79526400Y-68781959D01*
X78766400Y-69089241D02*
X78766400Y-68781959D01*
X92533441Y-84659200D02*
X92226159Y-84659200D01*
X92533441Y-85419200D02*
X92226159Y-85419200D01*
X92621000Y-82856400D02*
X90336000Y-82856400D01*
X90336000Y-82856400D02*
X90336000Y-84326400D01*
X90336000Y-84326400D02*
X92621000Y-84326400D01*
X78540000Y-74757836D02*
X78540000Y-74542164D01*
X77820000Y-74757836D02*
X77820000Y-74542164D01*
X55610800Y-78486000D02*
G75*
G03*
X55610800Y-78486000I-950000J0D01*
G01*
X79476600Y-78736800D02*
X79476600Y-77936800D01*
X76356600Y-78736800D02*
X76356600Y-77936800D01*
X79476600Y-78736800D02*
X79476600Y-79536800D01*
X76356600Y-78736800D02*
X76356600Y-80536800D01*
X61900000Y-127150400D02*
X54100000Y-127150400D01*
X61900000Y-114950400D02*
X61900000Y-127150400D01*
X54100000Y-114950400D02*
X61900000Y-114950400D01*
X54100000Y-127150400D02*
X54100000Y-114950400D01*
X65487436Y-94839200D02*
X65271764Y-94839200D01*
X65487436Y-95559200D02*
X65271764Y-95559200D01*
X81863200Y-72188041D02*
X81863200Y-71880759D01*
X81103200Y-72188041D02*
X81103200Y-71880759D01*
X63320000Y-111680000D02*
G75*
G03*
X63320000Y-111680000I-950000J0D01*
G01*
X92609641Y-89282000D02*
X92302359Y-89282000D01*
X92609641Y-90042000D02*
X92302359Y-90042000D01*
X74625000Y-57875000D02*
G75*
G03*
X74625000Y-57875000I-950000J0D01*
G01*
X87974400Y-112000000D02*
G75*
G03*
X87974400Y-112000000I-700000J0D01*
G01*
X58950000Y-112000000D02*
G75*
G03*
X58950000Y-112000000I-950000J0D01*
G01*
X67510000Y-120553641D02*
X67510000Y-120246359D01*
X66750000Y-120553641D02*
X66750000Y-120246359D01*
X74466564Y-107940000D02*
X74682236Y-107940000D01*
X74466564Y-108660000D02*
X74682236Y-108660000D01*
X84065000Y-94561252D02*
X84065000Y-94038748D01*
X85535000Y-94561252D02*
X85535000Y-94038748D01*
D13*
X89825000Y-104563500D02*
X89825000Y-107436500D01*
X93175000Y-107436500D02*
X93175000Y-104563500D01*
X91113500Y-108100000D02*
X91886500Y-108100000D01*
X91886500Y-103900000D02*
X91113500Y-103900000D01*
D14*
X92675000Y-109225000D02*
G75*
G03*
X92675000Y-109225000I-100000J0D01*
G01*
D10*
X72394400Y-101365164D02*
X72394400Y-101580836D01*
X71674400Y-101365164D02*
X71674400Y-101580836D01*
X71683200Y-65309636D02*
X71683200Y-65093964D01*
X70963200Y-65309636D02*
X70963200Y-65093964D01*
X75219800Y-79962236D02*
X75219800Y-79746564D01*
X75939800Y-79962236D02*
X75939800Y-79746564D01*
X73791400Y-65335036D02*
X73791400Y-65119364D01*
X73071400Y-65335036D02*
X73071400Y-65119364D01*
X80714964Y-69803600D02*
X80930636Y-69803600D01*
X80714964Y-69083600D02*
X80930636Y-69083600D01*
X77093400Y-85858236D02*
X77093400Y-85642564D01*
X76373400Y-85858236D02*
X76373400Y-85642564D01*
X77209764Y-98446000D02*
X77425436Y-98446000D01*
X77209764Y-99166000D02*
X77425436Y-99166000D01*
X69520800Y-101626641D02*
X69520800Y-101319359D01*
X70280800Y-101626641D02*
X70280800Y-101319359D01*
X73260000Y-106707836D02*
X73260000Y-106492164D01*
X72540000Y-106707836D02*
X72540000Y-106492164D01*
X70616400Y-65309636D02*
X70616400Y-65093964D01*
X69896400Y-65309636D02*
X69896400Y-65093964D01*
X94400000Y-114150000D02*
G75*
G03*
X94400000Y-114150000I-700000J0D01*
G01*
X72010000Y-65380841D02*
X72010000Y-65073559D01*
X72770000Y-65380841D02*
X72770000Y-65073559D01*
D14*
X76890000Y-124515000D02*
X76890000Y-125765000D01*
X67310000Y-129765000D02*
X76890000Y-129765000D01*
X76890000Y-129765000D02*
X76890000Y-128485000D01*
X67310000Y-128485000D02*
X67310000Y-129765000D01*
X67310000Y-124515000D02*
X67310000Y-125765000D01*
D10*
X74584000Y-92595200D02*
X75234000Y-92595200D01*
X75234000Y-92595200D02*
X75234000Y-93245200D01*
X74584000Y-99815200D02*
X75234000Y-99815200D01*
X68014000Y-92595200D02*
X68014000Y-93245200D01*
X68664000Y-99815200D02*
X68014000Y-99815200D01*
X68014000Y-99815200D02*
X68014000Y-99165200D01*
X68664000Y-92595200D02*
X68014000Y-92595200D01*
X85510000Y-98040580D02*
X85510000Y-97759420D01*
X84490000Y-98040580D02*
X84490000Y-97759420D01*
X85220000Y-120757929D02*
X85220000Y-121155000D01*
X89540000Y-118217929D02*
X89540000Y-118672071D01*
X85220000Y-123815000D02*
X85220000Y-129815000D01*
X92080000Y-129815000D02*
X92080000Y-123815000D01*
X96330000Y-121155000D02*
X80970000Y-121155000D01*
X92840000Y-123815000D02*
X92840000Y-129815000D01*
X94840000Y-123815000D02*
X94840000Y-129815000D01*
X85220000Y-118217929D02*
X85220000Y-118672071D01*
X96330000Y-123815000D02*
X96330000Y-121155000D01*
X95380000Y-123815000D02*
X95380000Y-129815000D01*
X89540000Y-129815000D02*
X89540000Y-123815000D01*
X90300000Y-120757929D02*
X90300000Y-121155000D01*
X82680000Y-120757929D02*
X82680000Y-121155000D01*
X81920000Y-118217929D02*
X81920000Y-118672071D01*
X87760000Y-120757929D02*
X87760000Y-121155000D01*
X95080000Y-123815000D02*
X95080000Y-129815000D01*
X81920000Y-129815000D02*
X81920000Y-123815000D01*
X92840000Y-129815000D02*
X92080000Y-129815000D01*
X92080000Y-118217929D02*
X92080000Y-118672071D01*
X82680000Y-118217929D02*
X82680000Y-118672071D01*
X80970000Y-121155000D02*
X80970000Y-123815000D01*
X93730000Y-121155000D02*
X93730000Y-123815000D01*
X94620000Y-118285000D02*
X94620000Y-118672071D01*
X87760000Y-129815000D02*
X87000000Y-129815000D01*
X82680000Y-123815000D02*
X82680000Y-129815000D01*
X87000000Y-118217929D02*
X87000000Y-118672071D01*
X95320000Y-123815000D02*
X95320000Y-129815000D01*
X95380000Y-118285000D02*
X95380000Y-118672071D01*
X83570000Y-121155000D02*
X83570000Y-123815000D01*
X82680000Y-129815000D02*
X81920000Y-129815000D01*
X96270000Y-115905000D02*
X96270000Y-117175000D01*
X95000000Y-115905000D02*
X96270000Y-115905000D01*
X95380000Y-129815000D02*
X94620000Y-129815000D01*
X87000000Y-120757929D02*
X87000000Y-121155000D01*
X87000000Y-129815000D02*
X87000000Y-123815000D01*
X86110000Y-121155000D02*
X86110000Y-123815000D01*
X90300000Y-123815000D02*
X90300000Y-129815000D01*
X92840000Y-120757929D02*
X92840000Y-121155000D01*
X85220000Y-129815000D02*
X84460000Y-129815000D01*
X94620000Y-129815000D02*
X94620000Y-123815000D01*
X81920000Y-120757929D02*
X81920000Y-121155000D01*
X87760000Y-123815000D02*
X87760000Y-129815000D01*
X84460000Y-120757929D02*
X84460000Y-121155000D01*
X80970000Y-123815000D02*
X96330000Y-123815000D01*
X95200000Y-123815000D02*
X95200000Y-129815000D01*
X91190000Y-121155000D02*
X91190000Y-123815000D01*
X92840000Y-118217929D02*
X92840000Y-118672071D01*
X84460000Y-118217929D02*
X84460000Y-118672071D01*
X90300000Y-129815000D02*
X89540000Y-129815000D01*
X88650000Y-121155000D02*
X88650000Y-123815000D01*
X84460000Y-129815000D02*
X84460000Y-123815000D01*
X90300000Y-118217929D02*
X90300000Y-118672071D01*
X92080000Y-120757929D02*
X92080000Y-121155000D01*
X87760000Y-118217929D02*
X87760000Y-118672071D01*
X94620000Y-120757929D02*
X94620000Y-121155000D01*
X94720000Y-123815000D02*
X94720000Y-129815000D01*
X94960000Y-123815000D02*
X94960000Y-129815000D01*
X95380000Y-120757929D02*
X95380000Y-121155000D01*
X89540000Y-120757929D02*
X89540000Y-121155000D01*
X71990200Y-84913200D02*
X71990200Y-88213200D01*
X71990200Y-88213200D02*
X75990200Y-88213200D01*
X73887359Y-89586800D02*
X74194641Y-89586800D01*
X73887359Y-90346800D02*
X74194641Y-90346800D01*
X78490000Y-66407836D02*
X78490000Y-66192164D01*
X79210000Y-66407836D02*
X79210000Y-66192164D01*
X69340580Y-119010000D02*
X69059420Y-119010000D01*
X69340580Y-117990000D02*
X69059420Y-117990000D01*
X74940000Y-119783641D02*
X74940000Y-119476359D01*
X75700000Y-119783641D02*
X75700000Y-119476359D01*
X78308200Y-107347600D02*
X81033200Y-107347600D01*
X78308200Y-101897600D02*
X81033200Y-101897600D01*
X75583200Y-101897600D02*
X75583200Y-102157600D01*
X78308200Y-107347600D02*
X75583200Y-107347600D01*
X78308200Y-101897600D02*
X75583200Y-101897600D01*
X81033200Y-101897600D02*
X81033200Y-102157600D01*
X81033200Y-107347600D02*
X81033200Y-107087600D01*
X75583200Y-107347600D02*
X75583200Y-107087600D01*
X81033200Y-107087600D02*
X82708200Y-107087600D01*
X64400000Y-113850000D02*
X69800000Y-113850000D01*
X64400000Y-113850000D02*
X64400000Y-117150000D01*
X64400000Y-117150000D02*
X69800000Y-117150000D01*
X92283200Y-99193400D02*
X92283200Y-97933400D01*
X92283200Y-92373400D02*
X92283200Y-93633400D01*
X88523200Y-99193400D02*
X92283200Y-99193400D01*
X86273200Y-92373400D02*
X92283200Y-92373400D01*
D13*
X72500000Y-72500000D02*
X72795000Y-72500000D01*
X77500000Y-67500000D02*
X77500000Y-67795000D01*
X72500000Y-67500000D02*
X72795000Y-67500000D01*
X72500000Y-72500000D02*
X72500000Y-72205000D01*
X72500000Y-67500000D02*
X72500000Y-67795000D01*
X77500000Y-67500000D02*
X77205000Y-67500000D01*
X77500000Y-72500000D02*
X77500000Y-72205000D01*
X77500000Y-72500000D02*
X77205000Y-72500000D01*
D14*
X73350000Y-73475000D02*
G75*
G03*
X73350000Y-73475000I-100000J0D01*
G01*
D10*
X70887000Y-87217364D02*
X70887000Y-87433036D01*
X71607000Y-87217364D02*
X71607000Y-87433036D01*
X71347600Y-101626641D02*
X71347600Y-101319359D01*
X70587600Y-101626641D02*
X70587600Y-101319359D01*
X78411041Y-108680000D02*
X78103759Y-108680000D01*
X78411041Y-107920000D02*
X78103759Y-107920000D01*
D13*
X63500000Y-57100000D02*
X63500000Y-54900000D01*
X61100000Y-59500000D02*
X58900000Y-59500000D01*
X61100000Y-52500000D02*
X58900000Y-52500000D01*
X56500000Y-57100000D02*
X56500000Y-54900000D01*
D10*
X80714964Y-70870400D02*
X80930636Y-70870400D01*
X80714964Y-70150400D02*
X80930636Y-70150400D01*
X68448600Y-101365164D02*
X68448600Y-101580836D01*
X69168600Y-101365164D02*
X69168600Y-101580836D01*
X78960000Y-52620000D02*
X78960000Y-52620000D01*
X78960000Y-49950000D02*
X78960000Y-49950000D01*
X81500000Y-49950000D02*
X81500000Y-49950000D01*
X81500000Y-52620000D02*
X81500000Y-49950000D01*
X81500000Y-52620000D02*
X81500000Y-52620000D01*
X78270000Y-48830000D02*
X78670000Y-48830000D01*
X78670000Y-48830000D02*
X78670000Y-49950000D01*
X81790000Y-49950000D02*
X81790000Y-46090000D01*
X78670000Y-49950000D02*
X78270000Y-49950000D01*
X78270000Y-49950000D02*
X78270000Y-48830000D01*
X81790000Y-49950000D02*
X78670000Y-49950000D01*
X78960000Y-52620000D02*
X78960000Y-49950000D01*
X78670000Y-49950000D02*
X78670000Y-46090000D01*
X81500000Y-49950000D02*
X81500000Y-52620000D01*
X78960000Y-49950000D02*
X78960000Y-52620000D01*
X81790000Y-46090000D02*
G75*
G03*
X78670000Y-46090000I-1560000J0D01*
G01*
X80725600Y-71926564D02*
X80725600Y-72142236D01*
X80005600Y-71926564D02*
X80005600Y-72142236D01*
D13*
X60675000Y-107436500D02*
X60675000Y-104563500D01*
X57325000Y-104563500D02*
X57325000Y-107436500D01*
X59386500Y-103900000D02*
X58613500Y-103900000D01*
X58613500Y-108100000D02*
X59386500Y-108100000D01*
D14*
X60175000Y-109225000D02*
G75*
G03*
X60175000Y-109225000I-100000J0D01*
G01*
D10*
X77307836Y-62690000D02*
X77092164Y-62690000D01*
X77307836Y-63410000D02*
X77092164Y-63410000D01*
X80980000Y-76082779D02*
X80980000Y-75757221D01*
X82000000Y-76082779D02*
X82000000Y-75757221D01*
X64946800Y-74623959D02*
X64946800Y-74931241D01*
X64186800Y-74623959D02*
X64186800Y-74931241D01*
X79146359Y-55270000D02*
X79453641Y-55270000D01*
X79146359Y-56030000D02*
X79453641Y-56030000D01*
X75307836Y-75485000D02*
X75092164Y-75485000D01*
X75307836Y-74765000D02*
X75092164Y-74765000D01*
X61980000Y-108853641D02*
X61980000Y-108546359D01*
X61220000Y-108853641D02*
X61220000Y-108546359D01*
X90514400Y-113750000D02*
G75*
G03*
X90514400Y-113750000I-700000J0D01*
G01*
X85450000Y-75350000D02*
G75*
G03*
X85450000Y-75350000I-950000J0D01*
G01*
X87400000Y-85151400D02*
X88050000Y-85151400D01*
X87400000Y-82031400D02*
X88050000Y-82031400D01*
X87400000Y-82031400D02*
X85725000Y-82031400D01*
X87400000Y-85151400D02*
X86750000Y-85151400D01*
X71293400Y-90709636D02*
X71293400Y-90493964D01*
X72013400Y-90709636D02*
X72013400Y-90493964D01*
X75939800Y-77485964D02*
X75939800Y-77701636D01*
X75219800Y-77485964D02*
X75219800Y-77701636D01*
X70099600Y-90709636D02*
X70099600Y-90493964D01*
X70819600Y-90709636D02*
X70819600Y-90493964D01*
X67850000Y-120563641D02*
X67850000Y-120256359D01*
X68610000Y-120563641D02*
X68610000Y-120256359D01*
D13*
X91100000Y-59500000D02*
X88900000Y-59500000D01*
X86500000Y-57100000D02*
X86500000Y-54900000D01*
X93500000Y-57100000D02*
X93500000Y-54900000D01*
X91100000Y-52500000D02*
X88900000Y-52500000D01*
D10*
X90412200Y-89000000D02*
X92697200Y-89000000D01*
X90412200Y-87530000D02*
X90412200Y-89000000D01*
X92697200Y-87530000D02*
X90412200Y-87530000D01*
X80005600Y-68027436D02*
X80005600Y-67811764D01*
X80725600Y-68027436D02*
X80725600Y-67811764D01*
X80963641Y-80690000D02*
X80656359Y-80690000D01*
X80963641Y-79930000D02*
X80656359Y-79930000D01*
%LPC*%
D15*
X50000000Y-50000000D02*
X52000000Y-50000000D01*
X52000000Y-50000000D02*
X52000000Y-130000000D01*
X52000000Y-130000000D02*
X50000000Y-130000000D01*
X50000000Y-130000000D02*
X50000000Y-50000000D01*
G36*
X50000000Y-50000000D02*
G01*
X52000000Y-50000000D01*
X52000000Y-130000000D01*
X50000000Y-130000000D01*
X50000000Y-50000000D01*
G37*
X98000000Y-50000000D02*
X100000000Y-50000000D01*
X100000000Y-50000000D02*
X100000000Y-130000000D01*
X100000000Y-130000000D02*
X98000000Y-130000000D01*
X98000000Y-130000000D02*
X98000000Y-50000000D01*
G36*
X98000000Y-50000000D02*
G01*
X100000000Y-50000000D01*
X100000000Y-130000000D01*
X98000000Y-130000000D01*
X98000000Y-50000000D01*
G37*
X50000000Y-130000000D02*
X100000000Y-130000000D01*
X100000000Y-130000000D02*
X100000000Y-128000000D01*
X100000000Y-128000000D02*
X50000000Y-128000000D01*
X50000000Y-128000000D02*
X50000000Y-130000000D01*
G36*
X50000000Y-130000000D02*
G01*
X100000000Y-130000000D01*
X100000000Y-128000000D01*
X50000000Y-128000000D01*
X50000000Y-130000000D01*
G37*
X50000000Y-50000000D02*
X100000000Y-50000000D01*
X100000000Y-50000000D02*
X100000000Y-52000000D01*
X100000000Y-52000000D02*
X50000000Y-52000000D01*
X50000000Y-52000000D02*
X50000000Y-50000000D01*
G36*
X50000000Y-50000000D02*
G01*
X100000000Y-50000000D01*
X100000000Y-52000000D01*
X50000000Y-52000000D01*
X50000000Y-50000000D01*
G37*
D16*
X92379800Y-112000000D03*
D17*
X79362500Y-57250000D03*
X79362500Y-59150000D03*
X81237500Y-58200000D03*
D18*
X71500000Y-53800000D03*
D19*
X68960000Y-53800000D03*
D20*
X79146400Y-70508400D03*
X79146400Y-71528400D03*
D21*
X72515000Y-88900000D03*
X73535000Y-88900000D03*
D22*
X75837500Y-61450000D03*
X77412500Y-61450000D03*
D23*
X75680000Y-74050000D03*
X74720000Y-74050000D03*
X77670600Y-65850000D03*
X76710600Y-65850000D03*
D24*
X66320000Y-70300000D03*
X67280000Y-70300000D03*
X76837600Y-95199200D03*
X77797600Y-95199200D03*
D25*
X65735200Y-74297600D03*
X65735200Y-75257600D03*
D21*
X59110000Y-102210000D03*
X60130000Y-102210000D03*
D26*
X96000000Y-65000000D03*
D27*
X68972800Y-74709200D03*
X68972800Y-72509200D03*
X67272800Y-72509200D03*
X67272800Y-74709200D03*
D21*
X69865000Y-55775000D03*
X70885000Y-55775000D03*
D23*
X77680000Y-64700000D03*
X76720000Y-64700000D03*
D28*
X66167000Y-106324400D03*
D29*
X65737200Y-77470000D03*
X64717200Y-77470000D03*
D28*
X79248000Y-91338400D03*
D29*
X82510000Y-108300000D03*
X81490000Y-108300000D03*
D30*
X68897000Y-77444600D03*
X67247000Y-77444600D03*
D31*
X65800000Y-111664600D03*
X69800000Y-111664600D03*
D23*
X71092000Y-70256400D03*
X70132000Y-70256400D03*
D32*
X74120000Y-120140000D03*
X74120000Y-119120000D03*
D33*
X56925000Y-85300000D03*
D34*
X58195000Y-85300000D03*
X56925000Y-86570000D03*
X58195000Y-86570000D03*
X56925000Y-87840000D03*
X58195000Y-87840000D03*
X56925000Y-89110000D03*
X58195000Y-89110000D03*
X56925000Y-90380000D03*
X58195000Y-90380000D03*
D28*
X56286400Y-70916800D03*
D17*
X86462500Y-87315000D03*
X86462500Y-89215000D03*
X88337500Y-88265000D03*
D28*
X80086200Y-111099600D03*
D32*
X79146400Y-69445600D03*
X79146400Y-68425600D03*
D29*
X92889800Y-85039200D03*
X91869800Y-85039200D03*
D22*
X91033500Y-83591400D03*
X92608500Y-83591400D03*
D35*
X78180000Y-75130000D03*
X78180000Y-74170000D03*
D28*
X54660800Y-78486000D03*
D36*
X76966600Y-79874300D03*
X77916600Y-79874300D03*
X78866600Y-79874300D03*
X78866600Y-77599300D03*
X76966600Y-77599300D03*
D37*
X59500000Y-117850400D03*
X59500000Y-121050400D03*
X59500000Y-124250400D03*
X56500000Y-117850400D03*
X56500000Y-121050400D03*
X56500000Y-124250400D03*
D38*
X61300000Y-126900400D03*
X54700000Y-115200400D03*
D23*
X65859600Y-95199200D03*
X64899600Y-95199200D03*
D32*
X81483200Y-72544400D03*
X81483200Y-71524400D03*
D28*
X62370000Y-111680000D03*
D29*
X92966000Y-89662000D03*
X91946000Y-89662000D03*
D28*
X73675000Y-57875000D03*
D26*
X54000000Y-110000000D03*
D16*
X87274400Y-112000000D03*
D28*
X58000000Y-112000000D03*
D32*
X67130000Y-120910000D03*
X67130000Y-119890000D03*
D24*
X74094400Y-108300000D03*
X75054400Y-108300000D03*
D39*
X84800000Y-95250000D03*
X84800000Y-93350000D03*
D40*
X92575000Y-108175000D03*
X92575000Y-103825000D03*
X90425000Y-108175000D03*
X90425000Y-103825000D03*
D25*
X72034400Y-100993000D03*
X72034400Y-101953000D03*
D35*
X71323200Y-65681800D03*
X71323200Y-64721800D03*
X75579800Y-80334400D03*
X75579800Y-79374400D03*
D26*
X96000000Y-110000000D03*
D35*
X73431400Y-65707200D03*
X73431400Y-64747200D03*
D24*
X80342800Y-69443600D03*
X81302800Y-69443600D03*
D35*
X76733400Y-86230400D03*
X76733400Y-85270400D03*
D24*
X76837600Y-98806000D03*
X77797600Y-98806000D03*
D32*
X69900800Y-101983000D03*
X69900800Y-100963000D03*
D26*
X54000000Y-65000000D03*
D35*
X72900000Y-107080000D03*
X72900000Y-106120000D03*
X70256400Y-65681800D03*
X70256400Y-64721800D03*
D16*
X93700000Y-114150000D03*
D32*
X72390000Y-65737200D03*
X72390000Y-64717200D03*
D41*
X74990000Y-123485000D03*
X69210000Y-123485000D03*
D42*
X68900000Y-122410000D03*
X69700000Y-122410000D03*
D43*
X70850000Y-122410000D03*
X71850000Y-122410000D03*
X72350000Y-122410000D03*
X73350000Y-122410000D03*
D42*
X75300000Y-122410000D03*
X74500000Y-122410000D03*
D43*
X73850000Y-122410000D03*
X72850000Y-122410000D03*
X71350000Y-122410000D03*
X70350000Y-122410000D03*
D44*
X76420000Y-127165000D03*
D45*
X76420000Y-122985000D03*
D44*
X67780000Y-127165000D03*
D45*
X67780000Y-122985000D03*
D46*
X75061500Y-98805200D03*
X75061500Y-98405200D03*
X75061500Y-98005200D03*
X75061500Y-97605200D03*
X75061500Y-97205200D03*
X75061500Y-96805200D03*
X75061500Y-96405200D03*
X75061500Y-96005200D03*
X75061500Y-95605200D03*
X75061500Y-95205200D03*
X75061500Y-94805200D03*
X75061500Y-94405200D03*
X75061500Y-94005200D03*
X75061500Y-93605200D03*
D47*
X74224000Y-92767700D03*
X73824000Y-92767700D03*
X73424000Y-92767700D03*
X73024000Y-92767700D03*
X72624000Y-92767700D03*
X72224000Y-92767700D03*
X71824000Y-92767700D03*
X71424000Y-92767700D03*
X71024000Y-92767700D03*
X70624000Y-92767700D03*
X70224000Y-92767700D03*
X69824000Y-92767700D03*
X69424000Y-92767700D03*
X69024000Y-92767700D03*
D46*
X68186500Y-93605200D03*
X68186500Y-94005200D03*
X68186500Y-94405200D03*
X68186500Y-94805200D03*
X68186500Y-95205200D03*
X68186500Y-95605200D03*
X68186500Y-96005200D03*
X68186500Y-96405200D03*
X68186500Y-96805200D03*
X68186500Y-97205200D03*
X68186500Y-97605200D03*
X68186500Y-98005200D03*
X68186500Y-98405200D03*
X68186500Y-98805200D03*
D47*
X69024000Y-99642700D03*
X69424000Y-99642700D03*
X69824000Y-99642700D03*
X70224000Y-99642700D03*
X70624000Y-99642700D03*
X71024000Y-99642700D03*
X71424000Y-99642700D03*
X71824000Y-99642700D03*
X72224000Y-99642700D03*
X72624000Y-99642700D03*
X73024000Y-99642700D03*
X73424000Y-99642700D03*
X73824000Y-99642700D03*
X74224000Y-99642700D03*
D48*
X71624000Y-96205200D03*
D49*
X85000000Y-98675000D03*
X85000000Y-97125000D03*
D50*
X95000000Y-117175000D03*
D51*
X95000000Y-119715000D03*
X92460000Y-117175000D03*
X92460000Y-119715000D03*
X89920000Y-117175000D03*
X89920000Y-119715000D03*
X87380000Y-117175000D03*
X87380000Y-119715000D03*
X84840000Y-117175000D03*
X84840000Y-119715000D03*
X82300000Y-117175000D03*
X82300000Y-119715000D03*
D52*
X72890200Y-87413200D03*
X75090200Y-87413200D03*
X75090200Y-85713200D03*
X72890200Y-85713200D03*
D21*
X73531000Y-89966800D03*
X74551000Y-89966800D03*
D35*
X78850000Y-66780000D03*
X78850000Y-65820000D03*
D53*
X69975000Y-118500000D03*
X68425000Y-118500000D03*
D32*
X75320000Y-120140000D03*
X75320000Y-119120000D03*
D54*
X81908200Y-106527600D03*
X81908200Y-105257600D03*
X81908200Y-103987600D03*
X81908200Y-102717600D03*
X74708200Y-102717600D03*
X74708200Y-103987600D03*
X74708200Y-105257600D03*
X74708200Y-106527600D03*
D31*
X65800000Y-115500000D03*
X69800000Y-115500000D03*
D55*
X87223200Y-93483400D03*
X87223200Y-95783400D03*
D56*
X93523200Y-95783400D03*
D55*
X87223200Y-98083400D03*
D57*
X73250000Y-72435000D03*
X73750000Y-72435000D03*
X74250000Y-72435000D03*
X74750000Y-72435000D03*
X75250000Y-72435000D03*
X75750000Y-72435000D03*
X76250000Y-72435000D03*
X76750000Y-72435000D03*
D58*
X77435000Y-71750000D03*
X77435000Y-71250000D03*
X77435000Y-70750000D03*
X77435000Y-70250000D03*
X77435000Y-69750000D03*
X77435000Y-69250000D03*
X77435000Y-68750000D03*
X77435000Y-68250000D03*
D57*
X76750000Y-67565000D03*
X76250000Y-67565000D03*
X75750000Y-67565000D03*
X75250000Y-67565000D03*
X74750000Y-67565000D03*
X74250000Y-67565000D03*
X73750000Y-67565000D03*
X73250000Y-67565000D03*
D58*
X72565000Y-68250000D03*
X72565000Y-68750000D03*
X72565000Y-69250000D03*
X72565000Y-69750000D03*
X72565000Y-70250000D03*
X72565000Y-70750000D03*
X72565000Y-71250000D03*
X72565000Y-71750000D03*
D59*
X75000000Y-70000000D03*
D25*
X71247000Y-86845200D03*
X71247000Y-87805200D03*
D32*
X70967600Y-101983000D03*
X70967600Y-100963000D03*
D29*
X78767400Y-108300000D03*
X77747400Y-108300000D03*
D60*
X60000000Y-56000000D03*
D61*
X57450000Y-53450000D03*
X62550000Y-58550000D03*
X62550000Y-53450000D03*
X57450000Y-58550000D03*
D24*
X80342800Y-70510400D03*
X81302800Y-70510400D03*
D25*
X68808600Y-100993000D03*
X68808600Y-101953000D03*
D18*
X81500000Y-53700000D03*
D19*
X78960000Y-53700000D03*
D25*
X80365600Y-71554400D03*
X80365600Y-72514400D03*
D40*
X60075000Y-103825000D03*
X60075000Y-108175000D03*
X57925000Y-103825000D03*
X57925000Y-108175000D03*
D23*
X77680000Y-63050000D03*
X76720000Y-63050000D03*
D62*
X81490000Y-76707500D03*
X81490000Y-75132500D03*
D20*
X64566800Y-74267600D03*
X64566800Y-75287600D03*
D21*
X78790000Y-55650000D03*
X79810000Y-55650000D03*
D23*
X75680000Y-75125000D03*
X74720000Y-75125000D03*
D32*
X61600000Y-109210000D03*
X61600000Y-108190000D03*
D16*
X89814400Y-113750000D03*
D28*
X84500000Y-75350000D03*
D17*
X86462500Y-82641400D03*
X86462500Y-84541400D03*
X88337500Y-83591400D03*
D35*
X71653400Y-91081800D03*
X71653400Y-90121800D03*
D25*
X75579800Y-77113800D03*
X75579800Y-78073800D03*
D35*
X70459600Y-91081800D03*
X70459600Y-90121800D03*
D32*
X68230000Y-120920000D03*
X68230000Y-119900000D03*
D60*
X90000000Y-56000000D03*
D61*
X92550000Y-53450000D03*
X87450000Y-53450000D03*
X87450000Y-58550000D03*
X92550000Y-58550000D03*
D22*
X91109700Y-88265000D03*
X92684700Y-88265000D03*
D35*
X80365600Y-68399600D03*
X80365600Y-67439600D03*
D29*
X81320000Y-80310000D03*
X80300000Y-80310000D03*
M02*
