%FSLAX45Y45*%
G04 Gerber Fmt 4.5, Leading zero omitted, Abs format (unit mm)*
G04 Created by KiCad (PCBNEW (6.0.6-0)) date 2023-01-17 18:34:35*
%MOMM*%
%LPD*%
G01*
G04 APERTURE LIST*
%TA.AperFunction,Profile*%
%ADD10C,0.200000*%
%TD*%
%ADD11C,0.200000*%
%ADD12C,0.020000*%
%ADD13C,0.030000*%
%ADD14C,0.040000*%
%ADD15C,0.060000*%
%ADD16C,0.065000*%
%ADD17C,0.090000*%
%ADD18C,0.100000*%
%ADD19C,0.110000*%
%ADD20C,0.125000*%
%ADD21C,0.140000*%
%ADD22C,0.150000*%
G04 APERTURE END LIST*
D10*
X5000000Y-5000000D02*
X10000000Y-5000000D01*
X10000000Y-5000000D02*
X10000000Y-13000000D01*
X10000000Y-13000000D02*
X5000000Y-13000000D01*
X5000000Y-13000000D02*
X5000000Y-5000000D01*
D11*
D12*
X5090000Y-9498695D02*
X5110000Y-9518695D01*
X5110000Y-9498695D02*
X5090000Y-9518695D01*
X5475000Y-9300000D02*
X5495000Y-9320000D01*
X5495000Y-9300000D02*
X5475000Y-9320000D01*
X5617500Y-7477500D02*
X5637500Y-7497500D01*
X5637500Y-7477500D02*
X5617500Y-7497500D01*
X5625000Y-9445000D02*
X5645000Y-9465000D01*
X5645000Y-9445000D02*
X5625000Y-9465000D01*
X5670000Y-10595000D02*
X5690000Y-10615000D01*
X5690000Y-10595000D02*
X5670000Y-10615000D01*
X5790000Y-9905000D02*
X5810000Y-9925000D01*
X5810000Y-9905000D02*
X5790000Y-9925000D01*
X5790000Y-9997500D02*
X5810000Y-10017500D01*
X5810000Y-9997500D02*
X5790000Y-10017500D01*
X5790000Y-10100000D02*
X5810000Y-10120000D01*
X5810000Y-10100000D02*
X5790000Y-10120000D01*
X5809000Y-8245000D02*
X5829000Y-8265000D01*
X5829000Y-8245000D02*
X5809000Y-8265000D01*
X5820000Y-7477500D02*
X5840000Y-7497500D01*
X5840000Y-7477500D02*
X5820000Y-7497500D01*
X5858000Y-6024000D02*
X5878000Y-6044000D01*
X5878000Y-6024000D02*
X5858000Y-6044000D01*
X5858000Y-6178000D02*
X5878000Y-6198000D01*
X5878000Y-6178000D02*
X5858000Y-6198000D01*
X5858000Y-6332000D02*
X5878000Y-6352000D01*
X5878000Y-6332000D02*
X5858000Y-6352000D01*
X5858000Y-6486000D02*
X5878000Y-6506000D01*
X5878000Y-6486000D02*
X5858000Y-6506000D01*
X5858000Y-6640000D02*
X5878000Y-6660000D01*
X5878000Y-6640000D02*
X5858000Y-6660000D01*
X5890000Y-10590000D02*
X5910000Y-10610000D01*
X5910000Y-10590000D02*
X5890000Y-10610000D01*
X5917000Y-6826000D02*
X5937000Y-6846000D01*
X5937000Y-6826000D02*
X5917000Y-6846000D01*
X5920000Y-7115000D02*
X5940000Y-7135000D01*
X5940000Y-7115000D02*
X5920000Y-7135000D01*
X5965000Y-8122500D02*
X5985000Y-8142500D01*
X5985000Y-8122500D02*
X5965000Y-8142500D01*
X5975000Y-8010000D02*
X5995000Y-8030000D01*
X5995000Y-8010000D02*
X5975000Y-8030000D01*
X5977500Y-7682500D02*
X5997500Y-7702500D01*
X5997500Y-7682500D02*
X5977500Y-7702500D01*
X6005000Y-9805000D02*
X6025000Y-9825000D01*
X6025000Y-9805000D02*
X6005000Y-9825000D01*
X6010000Y-9990000D02*
X6030000Y-10010000D01*
X6030000Y-9990000D02*
X6010000Y-10010000D01*
X6027000Y-6970000D02*
X6047000Y-6990000D01*
X6047000Y-6970000D02*
X6027000Y-6990000D01*
X6054000Y-7200000D02*
X6074000Y-7220000D01*
X6074000Y-7200000D02*
X6054000Y-7220000D01*
X6082500Y-7920000D02*
X6102500Y-7940000D01*
X6102500Y-7920000D02*
X6082500Y-7940000D01*
X6090000Y-8005000D02*
X6110000Y-8025000D01*
X6110000Y-8005000D02*
X6090000Y-8025000D01*
X6112000Y-6024000D02*
X6132000Y-6044000D01*
X6132000Y-6024000D02*
X6112000Y-6044000D01*
X6112000Y-6178000D02*
X6132000Y-6198000D01*
X6132000Y-6178000D02*
X6112000Y-6198000D01*
X6112000Y-6332000D02*
X6132000Y-6352000D01*
X6132000Y-6332000D02*
X6112000Y-6352000D01*
X6112000Y-6486000D02*
X6132000Y-6506000D01*
X6132000Y-6486000D02*
X6112000Y-6506000D01*
X6112000Y-6640000D02*
X6132000Y-6660000D01*
X6132000Y-6640000D02*
X6112000Y-6660000D01*
X6115000Y-8730000D02*
X6135000Y-8750000D01*
X6135000Y-8730000D02*
X6115000Y-8750000D01*
X6165000Y-8240000D02*
X6185000Y-8260000D01*
X6185000Y-8240000D02*
X6165000Y-8260000D01*
X6179980Y-7543960D02*
X6199980Y-7563960D01*
X6199980Y-7543960D02*
X6179980Y-7563960D01*
X6180000Y-7917500D02*
X6200000Y-7937500D01*
X6200000Y-7917500D02*
X6180000Y-7937500D01*
X6184000Y-7071000D02*
X6204000Y-7091000D01*
X6204000Y-7071000D02*
X6184000Y-7091000D01*
X6187500Y-8460000D02*
X6207500Y-8480000D01*
X6207500Y-8460000D02*
X6187500Y-8480000D01*
X6187500Y-8522500D02*
X6207500Y-8542500D01*
X6207500Y-8522500D02*
X6187500Y-8542500D01*
X6190000Y-6841000D02*
X6210000Y-6861000D01*
X6210000Y-6841000D02*
X6190000Y-6861000D01*
X6195000Y-8817500D02*
X6215000Y-8837500D01*
X6215000Y-8817500D02*
X6195000Y-8837500D01*
X6245000Y-10985000D02*
X6265000Y-11005000D01*
X6265000Y-10985000D02*
X6245000Y-11005000D01*
X6257500Y-8147500D02*
X6277500Y-8167500D01*
X6277500Y-8147500D02*
X6257500Y-8167500D01*
X6257500Y-8240000D02*
X6277500Y-8260000D01*
X6277500Y-8240000D02*
X6257500Y-8260000D01*
X6262500Y-8460000D02*
X6282500Y-8480000D01*
X6282500Y-8460000D02*
X6262500Y-8480000D01*
X6262500Y-8522500D02*
X6282500Y-8542500D01*
X6282500Y-8522500D02*
X6262500Y-8542500D01*
X6267500Y-8817500D02*
X6287500Y-8837500D01*
X6287500Y-8817500D02*
X6267500Y-8837500D01*
X6267500Y-8887500D02*
X6287500Y-8907500D01*
X6287500Y-8887500D02*
X6267500Y-8907500D01*
X6303000Y-7652000D02*
X6323000Y-7672000D01*
X6323000Y-7652000D02*
X6303000Y-7672000D01*
X6357000Y-7412000D02*
X6377000Y-7432000D01*
X6377000Y-7412000D02*
X6357000Y-7432000D01*
X6375560Y-10213500D02*
X6395560Y-10233500D01*
X6395560Y-10213500D02*
X6375560Y-10233500D01*
X6380000Y-6932000D02*
X6400000Y-6952000D01*
X6400000Y-6932000D02*
X6380000Y-6952000D01*
X6380640Y-10464960D02*
X6400640Y-10484960D01*
X6400640Y-10464960D02*
X6380640Y-10484960D01*
X6381000Y-10527000D02*
X6401000Y-10547000D01*
X6401000Y-10527000D02*
X6381000Y-10547000D01*
X6389000Y-7094000D02*
X6409000Y-7114000D01*
X6409000Y-7094000D02*
X6389000Y-7114000D01*
X6425000Y-5590000D02*
X6445000Y-5610000D01*
X6445000Y-5590000D02*
X6425000Y-5610000D01*
X6425000Y-8492500D02*
X6445000Y-8512500D01*
X6445000Y-8492500D02*
X6425000Y-8512500D01*
X6430000Y-8822500D02*
X6450000Y-8842500D01*
X6450000Y-8822500D02*
X6430000Y-8842500D01*
X6518000Y-6937000D02*
X6538000Y-6957000D01*
X6538000Y-6937000D02*
X6518000Y-6957000D01*
X6554000Y-7105000D02*
X6574000Y-7125000D01*
X6574000Y-7105000D02*
X6554000Y-7125000D01*
X6617500Y-5590000D02*
X6637500Y-5610000D01*
X6637500Y-5590000D02*
X6617500Y-5610000D01*
X6619400Y-9161940D02*
X6639400Y-9181940D01*
X6639400Y-9161940D02*
X6619400Y-9181940D01*
X6655000Y-5357500D02*
X6675000Y-5377500D01*
X6675000Y-5357500D02*
X6655000Y-5377500D01*
X6658000Y-6935000D02*
X6678000Y-6955000D01*
X6678000Y-6935000D02*
X6658000Y-6955000D01*
X6661000Y-12172000D02*
X6681000Y-12192000D01*
X6681000Y-12172000D02*
X6661000Y-12192000D01*
X6672740Y-10152540D02*
X6692740Y-10172540D01*
X6692740Y-10152540D02*
X6672740Y-10172540D01*
X6730000Y-11840000D02*
X6750000Y-11860000D01*
X6750000Y-11840000D02*
X6730000Y-11860000D01*
X6733700Y-9263540D02*
X6753700Y-9283540D01*
X6753700Y-9263540D02*
X6733700Y-9283540D01*
X6754020Y-9088280D02*
X6774020Y-9108280D01*
X6774020Y-9088280D02*
X6754020Y-9108280D01*
X6769260Y-10614820D02*
X6789260Y-10634820D01*
X6789260Y-10614820D02*
X6769260Y-10634820D01*
X6769260Y-10678320D02*
X6789260Y-10698320D01*
X6789260Y-10678320D02*
X6769260Y-10698320D01*
X6815000Y-8425000D02*
X6835000Y-8445000D01*
X6835000Y-8425000D02*
X6815000Y-8445000D01*
X6815000Y-8545000D02*
X6835000Y-8565000D01*
X6835000Y-8545000D02*
X6815000Y-8565000D01*
X6817500Y-5665000D02*
X6837500Y-5685000D01*
X6837500Y-5665000D02*
X6817500Y-5685000D01*
X6832760Y-10670700D02*
X6852760Y-10690700D01*
X6852760Y-10670700D02*
X6832760Y-10690700D01*
X6840380Y-7348380D02*
X6860380Y-7368380D01*
X6860380Y-7348380D02*
X6840380Y-7368380D01*
X6855000Y-8827500D02*
X6875000Y-8847500D01*
X6875000Y-8827500D02*
X6855000Y-8847500D01*
X6880000Y-10355740D02*
X6900000Y-10375740D01*
X6900000Y-10355740D02*
X6880000Y-10375740D01*
X6896000Y-12082000D02*
X6916000Y-12102000D01*
X6916000Y-12082000D02*
X6896000Y-12102000D01*
X6896260Y-8224680D02*
X6916260Y-8244680D01*
X6916260Y-8224680D02*
X6896260Y-8244680D01*
X6898800Y-6299360D02*
X6918800Y-6319360D01*
X6918800Y-6299360D02*
X6898800Y-6319360D01*
X6931820Y-9780000D02*
X6951820Y-9800000D01*
X6951820Y-9780000D02*
X6931820Y-9800000D01*
X6934360Y-9650000D02*
X6954360Y-9670000D01*
X6954360Y-9650000D02*
X6934360Y-9670000D01*
X6935000Y-9530000D02*
X6955000Y-9550000D01*
X6955000Y-9530000D02*
X6935000Y-9550000D01*
X6936900Y-9390540D02*
X6956900Y-9410540D01*
X6956900Y-9390540D02*
X6936900Y-9410540D01*
X6954680Y-6223160D02*
X6974680Y-6243160D01*
X6974680Y-6223160D02*
X6954680Y-6243160D01*
X6988000Y-6931000D02*
X7008000Y-6951000D01*
X7008000Y-6931000D02*
X6988000Y-6951000D01*
X7012500Y-7410000D02*
X7032500Y-7430000D01*
X7032500Y-7410000D02*
X7012500Y-7430000D01*
X7018180Y-7333140D02*
X7038180Y-7353140D01*
X7038180Y-7333140D02*
X7018180Y-7353140D01*
X7040000Y-6352500D02*
X7060000Y-6372500D01*
X7060000Y-6352500D02*
X7040000Y-6372500D01*
X7040000Y-9510000D02*
X7060000Y-9530000D01*
X7060000Y-9510000D02*
X7040000Y-9530000D01*
X7040000Y-9615000D02*
X7060000Y-9635000D01*
X7060000Y-9615000D02*
X7040000Y-9635000D01*
X7040000Y-9715000D02*
X7060000Y-9735000D01*
X7060000Y-9715000D02*
X7040000Y-9735000D01*
X7046000Y-12367000D02*
X7066000Y-12387000D01*
X7066000Y-12367000D02*
X7046000Y-12387000D01*
X7046120Y-6736240D02*
X7066120Y-6756240D01*
X7066120Y-6736240D02*
X7046120Y-6756240D01*
X7066440Y-7988460D02*
X7086440Y-8008460D01*
X7086440Y-7988460D02*
X7066440Y-8008460D01*
X7066440Y-8062120D02*
X7086440Y-8082120D01*
X7086440Y-8062120D02*
X7066440Y-8082120D01*
X7066440Y-8130700D02*
X7086440Y-8150700D01*
X7086440Y-8130700D02*
X7066440Y-8150700D01*
X7066440Y-8209440D02*
X7086440Y-8229440D01*
X7086440Y-8209440D02*
X7066440Y-8229440D01*
X7112160Y-9835040D02*
X7132160Y-9855040D01*
X7132160Y-9835040D02*
X7112160Y-9855040D01*
X7112160Y-9885840D02*
X7132160Y-9905840D01*
X7132160Y-9885840D02*
X7112160Y-9905840D01*
X7120917Y-6380000D02*
X7140917Y-6400000D01*
X7140917Y-6380000D02*
X7120917Y-6400000D01*
X7152800Y-6896260D02*
X7172800Y-6916260D01*
X7172800Y-6896260D02*
X7152800Y-6916260D01*
X7155000Y-9510000D02*
X7175000Y-9530000D01*
X7175000Y-9510000D02*
X7155000Y-9530000D01*
X7160000Y-9610520D02*
X7180000Y-9630520D01*
X7180000Y-9610520D02*
X7160000Y-9630520D01*
X7160000Y-9715000D02*
X7180000Y-9735000D01*
X7180000Y-9715000D02*
X7160000Y-9735000D01*
X7174000Y-12330000D02*
X7194000Y-12350000D01*
X7194000Y-12330000D02*
X7174000Y-12350000D01*
X7185820Y-10282080D02*
X7205820Y-10302080D01*
X7205820Y-10282080D02*
X7185820Y-10302080D01*
X7185820Y-10355740D02*
X7205820Y-10375740D01*
X7205820Y-10355740D02*
X7185820Y-10375740D01*
X7218840Y-6741320D02*
X7238840Y-6761320D01*
X7238840Y-6741320D02*
X7218840Y-6761320D01*
X7218840Y-7234080D02*
X7238840Y-7254080D01*
X7238840Y-7234080D02*
X7218840Y-7254080D01*
X7228733Y-6380000D02*
X7248733Y-6400000D01*
X7248733Y-6380000D02*
X7228733Y-6400000D01*
X7275000Y-12365000D02*
X7295000Y-12385000D01*
X7295000Y-12365000D02*
X7275000Y-12385000D01*
X7311161Y-11954908D02*
X7331161Y-11974908D01*
X7331161Y-11954908D02*
X7311161Y-11974908D01*
X7330000Y-12124000D02*
X7350000Y-12144000D01*
X7350000Y-12124000D02*
X7330000Y-12144000D01*
X7333140Y-9354980D02*
X7353140Y-9374980D01*
X7353140Y-9354980D02*
X7333140Y-9374980D01*
X7336550Y-6380000D02*
X7356550Y-6400000D01*
X7356550Y-6380000D02*
X7336550Y-6400000D01*
X7352500Y-5352500D02*
X7372500Y-5372500D01*
X7372500Y-5352500D02*
X7352500Y-5372500D01*
X7375000Y-7786000D02*
X7395000Y-7806000D01*
X7395000Y-7786000D02*
X7375000Y-7806000D01*
X7381400Y-7043580D02*
X7401400Y-7063580D01*
X7401400Y-7043580D02*
X7381400Y-7063580D01*
X7383940Y-6878480D02*
X7403940Y-6898480D01*
X7403940Y-6878480D02*
X7383940Y-6898480D01*
X7383940Y-6957220D02*
X7403940Y-6977220D01*
X7403940Y-6957220D02*
X7383940Y-6977220D01*
X7385000Y-7675000D02*
X7405000Y-7695000D01*
X7405000Y-7675000D02*
X7385000Y-7695000D01*
X7390000Y-7565000D02*
X7410000Y-7585000D01*
X7410000Y-7565000D02*
X7390000Y-7585000D01*
X7447440Y-6654960D02*
X7467440Y-6674960D01*
X7467440Y-6654960D02*
X7447440Y-6674960D01*
X7465000Y-6878480D02*
X7485000Y-6898480D01*
X7485000Y-6878480D02*
X7465000Y-6898480D01*
X7465000Y-6957220D02*
X7485000Y-6977220D01*
X7485000Y-6957220D02*
X7465000Y-6977220D01*
X7465000Y-7043580D02*
X7485000Y-7063580D01*
X7485000Y-7043580D02*
X7465000Y-7063580D01*
X7470000Y-7310000D02*
X7490000Y-7330000D01*
X7490000Y-7310000D02*
X7470000Y-7330000D01*
X7505000Y-5350000D02*
X7525000Y-5370000D01*
X7525000Y-5350000D02*
X7505000Y-5370000D01*
X7530000Y-7312820D02*
X7550000Y-7332820D01*
X7550000Y-7312820D02*
X7530000Y-7332820D01*
X7535000Y-9975000D02*
X7555000Y-9995000D01*
X7555000Y-9975000D02*
X7535000Y-9995000D01*
X7550000Y-8874920D02*
X7570000Y-8894920D01*
X7570000Y-8874920D02*
X7550000Y-8894920D01*
X7550000Y-8953660D02*
X7570000Y-8973660D01*
X7570000Y-8953660D02*
X7550000Y-8973660D01*
X7550000Y-9035000D02*
X7570000Y-9055000D01*
X7570000Y-9035000D02*
X7550000Y-9055000D01*
X7551390Y-6878480D02*
X7571390Y-6898480D01*
X7571390Y-6878480D02*
X7551390Y-6898480D01*
X7551390Y-6957220D02*
X7571390Y-6977220D01*
X7571390Y-6957220D02*
X7551390Y-6977220D01*
X7551390Y-7043580D02*
X7571390Y-7063580D01*
X7571390Y-7043580D02*
X7551390Y-7063580D01*
X7552183Y-6380000D02*
X7572183Y-6400000D01*
X7572183Y-6380000D02*
X7552183Y-6400000D01*
X7556660Y-11404760D02*
X7576660Y-11424760D01*
X7576660Y-11404760D02*
X7556660Y-11424760D01*
X7622700Y-10279540D02*
X7642700Y-10299540D01*
X7642700Y-10279540D02*
X7622700Y-10299540D01*
X7622700Y-10373520D02*
X7642700Y-10393520D01*
X7642700Y-10373520D02*
X7622700Y-10393520D01*
X7622700Y-10467500D02*
X7642700Y-10487500D01*
X7642700Y-10467500D02*
X7622700Y-10487500D01*
X7625240Y-11480960D02*
X7645240Y-11500960D01*
X7645240Y-11480960D02*
X7625240Y-11500960D01*
X7627780Y-10790080D02*
X7647780Y-10810080D01*
X7647780Y-10790080D02*
X7627780Y-10810080D01*
X7627780Y-10861200D02*
X7647780Y-10881200D01*
X7647780Y-10861200D02*
X7627780Y-10881200D01*
X7627780Y-10942480D02*
X7647780Y-10962480D01*
X7647780Y-10942480D02*
X7627780Y-10962480D01*
X7630320Y-7315160D02*
X7650320Y-7335160D01*
X7650320Y-7315160D02*
X7630320Y-7335160D01*
X7632860Y-8704740D02*
X7652860Y-8724740D01*
X7652860Y-8704740D02*
X7632860Y-8724740D01*
X7660000Y-6380000D02*
X7680000Y-6400000D01*
X7680000Y-6380000D02*
X7660000Y-6400000D01*
X7667500Y-5352500D02*
X7687500Y-5372500D01*
X7687500Y-5352500D02*
X7667500Y-5372500D01*
X7703980Y-11564780D02*
X7723980Y-11584780D01*
X7723980Y-11564780D02*
X7703980Y-11584780D01*
X7714140Y-8778400D02*
X7734140Y-8798400D01*
X7734140Y-8778400D02*
X7714140Y-8798400D01*
X7724300Y-10373520D02*
X7744300Y-10393520D01*
X7744300Y-10373520D02*
X7724300Y-10393520D01*
X7724300Y-10467500D02*
X7744300Y-10487500D01*
X7744300Y-10467500D02*
X7724300Y-10487500D01*
X7725000Y-7215000D02*
X7745000Y-7235000D01*
X7745000Y-7215000D02*
X7725000Y-7235000D01*
X7725000Y-7272500D02*
X7745000Y-7292500D01*
X7745000Y-7272500D02*
X7725000Y-7292500D01*
X7737000Y-6731160D02*
X7757000Y-6751160D01*
X7757000Y-6731160D02*
X7737000Y-6751160D01*
X7737000Y-9598820D02*
X7757000Y-9618820D01*
X7757000Y-9598820D02*
X7737000Y-9618820D01*
X7739540Y-9329580D02*
X7759540Y-9349580D01*
X7759540Y-9329580D02*
X7739540Y-9349580D01*
X7742500Y-7862500D02*
X7762500Y-7882500D01*
X7762500Y-7862500D02*
X7742500Y-7882500D01*
X7745000Y-5789000D02*
X7765000Y-5809000D01*
X7765000Y-5789000D02*
X7745000Y-5809000D01*
X7755000Y-7579000D02*
X7775000Y-7599000D01*
X7775000Y-7579000D02*
X7755000Y-7599000D01*
X7780180Y-6761640D02*
X7800180Y-6781640D01*
X7800180Y-6761640D02*
X7780180Y-6781640D01*
X7783000Y-7820000D02*
X7803000Y-7840000D01*
X7803000Y-7820000D02*
X7783000Y-7840000D01*
X7785000Y-7292500D02*
X7805000Y-7312500D01*
X7805000Y-7292500D02*
X7785000Y-7312500D01*
X7785260Y-11643520D02*
X7805260Y-11663520D01*
X7805260Y-11643520D02*
X7785260Y-11663520D01*
X7792500Y-12707500D02*
X7812500Y-12727500D01*
X7812500Y-12707500D02*
X7792500Y-12727500D01*
X7797500Y-12290000D02*
X7817500Y-12310000D01*
X7817500Y-12290000D02*
X7797500Y-12310000D01*
X7813200Y-8783480D02*
X7833200Y-8803480D01*
X7833200Y-8783480D02*
X7813200Y-8803480D01*
X7815740Y-8679340D02*
X7835740Y-8699340D01*
X7835740Y-8679340D02*
X7815740Y-8699340D01*
X7818280Y-6893720D02*
X7838280Y-6913720D01*
X7838280Y-6893720D02*
X7818280Y-6913720D01*
X7823360Y-6835300D02*
X7843360Y-6855300D01*
X7843360Y-6835300D02*
X7823360Y-6855300D01*
X7823360Y-9670520D02*
X7843360Y-9690520D01*
X7843360Y-9670520D02*
X7823360Y-9690520D01*
X7825900Y-10467500D02*
X7845900Y-10487500D01*
X7845900Y-10467500D02*
X7825900Y-10487500D01*
X7827500Y-7864000D02*
X7847500Y-7884000D01*
X7847500Y-7864000D02*
X7827500Y-7884000D01*
X7830980Y-7129940D02*
X7850980Y-7149940D01*
X7850980Y-7129940D02*
X7830980Y-7149940D01*
X7880000Y-10215000D02*
X7900000Y-10235000D01*
X7900000Y-10215000D02*
X7880000Y-10235000D01*
X7892500Y-8232500D02*
X7912500Y-8252500D01*
X7912500Y-8232500D02*
X7892500Y-8252500D01*
X7907180Y-10637680D02*
X7927180Y-10657680D01*
X7927180Y-10637680D02*
X7907180Y-10657680D01*
X7940000Y-10280000D02*
X7960000Y-10300000D01*
X7960000Y-10280000D02*
X7940000Y-10300000D01*
X7945280Y-8852060D02*
X7965280Y-8872060D01*
X7965280Y-8852060D02*
X7945280Y-8872060D01*
X7952900Y-9763920D02*
X7972900Y-9783920D01*
X7972900Y-9763920D02*
X7952900Y-9783920D01*
X7955440Y-10703720D02*
X7975440Y-10723720D01*
X7975440Y-10703720D02*
X7955440Y-10723720D01*
X7956720Y-11330040D02*
X7976720Y-11350040D01*
X7976720Y-11330040D02*
X7956720Y-11350040D01*
X7973000Y-6623000D02*
X7993000Y-6643000D01*
X7993000Y-6623000D02*
X7973000Y-6643000D01*
X7978300Y-10917080D02*
X7998300Y-10937080D01*
X7998300Y-10917080D02*
X7978300Y-10937080D01*
X8008780Y-10640220D02*
X8028780Y-10660220D01*
X8028780Y-10640220D02*
X8008780Y-10660220D01*
X8041800Y-9860440D02*
X8061800Y-9880440D01*
X8061800Y-9860440D02*
X8041800Y-9880440D01*
X8045000Y-8302500D02*
X8065000Y-8322500D01*
X8065000Y-8302500D02*
X8045000Y-8322500D01*
X8058320Y-11327500D02*
X8078320Y-11347500D01*
X8078320Y-11327500D02*
X8058320Y-11347500D01*
X8059580Y-10914540D02*
X8079580Y-10934540D01*
X8079580Y-10914540D02*
X8059580Y-10934540D01*
X8110380Y-6055520D02*
X8130380Y-6075520D01*
X8130380Y-6055520D02*
X8110380Y-6075520D01*
X8125620Y-9949340D02*
X8145620Y-9969340D01*
X8145620Y-9949340D02*
X8125620Y-9969340D01*
X8140860Y-8425340D02*
X8160860Y-8445340D01*
X8160860Y-8425340D02*
X8140860Y-8445340D01*
X8165000Y-11327500D02*
X8185000Y-11347500D01*
X8185000Y-11327500D02*
X8165000Y-11347500D01*
X8177500Y-8230000D02*
X8197500Y-8250000D01*
X8197500Y-8230000D02*
X8177500Y-8250000D01*
X8216000Y-6852500D02*
X8236000Y-6872500D01*
X8236000Y-6852500D02*
X8216000Y-6872500D01*
X8217500Y-7022500D02*
X8237500Y-7042500D01*
X8237500Y-7022500D02*
X8217500Y-7042500D01*
X8272500Y-8582500D02*
X8292500Y-8602500D01*
X8292500Y-8582500D02*
X8272500Y-8602500D01*
X8290000Y-6240000D02*
X8310000Y-6260000D01*
X8310000Y-6240000D02*
X8290000Y-6260000D01*
X8305000Y-5592500D02*
X8325000Y-5612500D01*
X8325000Y-5592500D02*
X8305000Y-5612500D01*
X8310000Y-8420000D02*
X8330000Y-8440000D01*
X8330000Y-8420000D02*
X8310000Y-8440000D01*
X8315000Y-7355000D02*
X8335000Y-7375000D01*
X8335000Y-7355000D02*
X8315000Y-7375000D01*
X8316120Y-9448960D02*
X8336120Y-9468960D01*
X8336120Y-9448960D02*
X8316120Y-9468960D01*
X8322500Y-7022500D02*
X8342500Y-7042500D01*
X8342500Y-7022500D02*
X8322500Y-7042500D01*
X8325000Y-6852500D02*
X8345000Y-6872500D01*
X8345000Y-6852500D02*
X8325000Y-6872500D01*
X8336440Y-9601360D02*
X8356440Y-9621360D01*
X8356440Y-9601360D02*
X8336440Y-9621360D01*
X8351000Y-8723000D02*
X8371000Y-8743000D01*
X8371000Y-8723000D02*
X8351000Y-8743000D01*
X8495000Y-6430000D02*
X8515000Y-6450000D01*
X8515000Y-6430000D02*
X8495000Y-6450000D01*
X8545700Y-9160000D02*
X8565700Y-9180000D01*
X8565700Y-9160000D02*
X8545700Y-9180000D01*
X8577500Y-5525000D02*
X8597500Y-5545000D01*
X8597500Y-5525000D02*
X8577500Y-5545000D01*
X8577500Y-5657500D02*
X8597500Y-5677500D01*
X8597500Y-5657500D02*
X8577500Y-5677500D01*
X8580000Y-7025000D02*
X8600000Y-7045000D01*
X8600000Y-7025000D02*
X8580000Y-7045000D01*
X8595000Y-6847500D02*
X8615000Y-6867500D01*
X8615000Y-6847500D02*
X8595000Y-6867500D01*
X8604120Y-9112800D02*
X8624120Y-9132800D01*
X8624120Y-9112800D02*
X8604120Y-9132800D01*
X8628540Y-10599580D02*
X8648540Y-10619580D01*
X8648540Y-10599580D02*
X8628540Y-10619580D01*
X8633620Y-8826660D02*
X8653620Y-8846660D01*
X8653620Y-8826660D02*
X8633620Y-8846660D01*
X8636160Y-8359300D02*
X8656160Y-8379300D01*
X8656160Y-8359300D02*
X8636160Y-8379300D01*
X8636160Y-8572500D02*
X8656160Y-8592500D01*
X8656160Y-8572500D02*
X8636160Y-8592500D01*
X8653940Y-10477660D02*
X8673940Y-10497660D01*
X8673940Y-10477660D02*
X8653940Y-10497660D01*
X8660000Y-9160000D02*
X8680000Y-9180000D01*
X8680000Y-9160000D02*
X8660000Y-9180000D01*
X8690000Y-7015000D02*
X8710000Y-7035000D01*
X8710000Y-7015000D02*
X8690000Y-7035000D01*
X8760620Y-8448200D02*
X8780620Y-8468200D01*
X8780620Y-8448200D02*
X8760620Y-8468200D01*
X8768240Y-8918100D02*
X8788240Y-8938100D01*
X8788240Y-8918100D02*
X8768240Y-8938100D01*
X8777500Y-6780000D02*
X8797500Y-6800000D01*
X8797500Y-6780000D02*
X8777500Y-6800000D01*
X8795000Y-6980000D02*
X8815000Y-7000000D01*
X8815000Y-6980000D02*
X8795000Y-7000000D01*
X8822500Y-7240000D02*
X8842500Y-7260000D01*
X8842500Y-7240000D02*
X8822500Y-7260000D01*
X8867500Y-6677500D02*
X8887500Y-6697500D01*
X8887500Y-6677500D02*
X8867500Y-6697500D01*
X8887500Y-6927500D02*
X8907500Y-6947500D01*
X8907500Y-6927500D02*
X8887500Y-6947500D01*
X8900000Y-6014140D02*
X8920000Y-6034140D01*
X8920000Y-6014140D02*
X8900000Y-6034140D01*
X8900000Y-6146855D02*
X8920000Y-6166855D01*
X8920000Y-6146855D02*
X8900000Y-6166855D01*
X8900000Y-6279570D02*
X8920000Y-6299570D01*
X8920000Y-6279570D02*
X8900000Y-6299570D01*
X8900000Y-6412285D02*
X8920000Y-6432285D01*
X8920000Y-6412285D02*
X8900000Y-6432285D01*
X8900000Y-6545000D02*
X8920000Y-6565000D01*
X8920000Y-6545000D02*
X8900000Y-6565000D01*
X8965000Y-8477500D02*
X8985000Y-8497500D01*
X8985000Y-8477500D02*
X8965000Y-8497500D01*
X8975000Y-6850000D02*
X8995000Y-6870000D01*
X8995000Y-6850000D02*
X8975000Y-6870000D01*
X9031360Y-10600360D02*
X9051360Y-10620360D01*
X9051360Y-10600360D02*
X9031360Y-10620360D01*
X9040000Y-6745000D02*
X9060000Y-6765000D01*
X9060000Y-6745000D02*
X9040000Y-6765000D01*
X9075000Y-6011070D02*
X9095000Y-6031070D01*
X9095000Y-6011070D02*
X9075000Y-6031070D01*
X9075000Y-6147500D02*
X9095000Y-6167500D01*
X9095000Y-6147500D02*
X9075000Y-6167500D01*
X9075000Y-6280000D02*
X9095000Y-6300000D01*
X9095000Y-6280000D02*
X9075000Y-6300000D01*
X9075000Y-6397500D02*
X9095000Y-6417500D01*
X9095000Y-6397500D02*
X9075000Y-6417500D01*
X9075000Y-6522500D02*
X9095000Y-6542500D01*
X9095000Y-6522500D02*
X9075000Y-6542500D01*
X9075000Y-6640000D02*
X9095000Y-6660000D01*
X9095000Y-6640000D02*
X9075000Y-6660000D01*
X9152500Y-10600000D02*
X9172500Y-10620000D01*
X9172500Y-10600000D02*
X9152500Y-10620000D01*
X9222500Y-7242500D02*
X9242500Y-7262500D01*
X9242500Y-7242500D02*
X9222500Y-7262500D01*
X9302500Y-6222500D02*
X9322500Y-6242500D01*
X9322500Y-6222500D02*
X9302500Y-6242500D01*
X9375000Y-10600000D02*
X9395000Y-10620000D01*
X9395000Y-10600000D02*
X9375000Y-10620000D01*
X9445000Y-6115000D02*
X9465000Y-6135000D01*
X9465000Y-6115000D02*
X9445000Y-6135000D01*
X9577500Y-6012500D02*
X9597500Y-6032500D01*
X9597500Y-6012500D02*
X9577500Y-6032500D01*
D13*
X5925000Y-11310000D02*
G75*
G03*
X5925000Y-11310000I-15000J0D01*
G01*
X6199900Y-7790180D02*
G75*
G03*
X6199900Y-7790180I-15000J0D01*
G01*
X6435000Y-7272000D02*
G75*
G03*
X6435000Y-7272000I-15000J0D01*
G01*
X6514000Y-7272000D02*
G75*
G03*
X6514000Y-7272000I-15000J0D01*
G01*
X6545340Y-10345420D02*
G75*
G03*
X6545340Y-10345420I-15000J0D01*
G01*
X6591000Y-7272000D02*
G75*
G03*
X6591000Y-7272000I-15000J0D01*
G01*
X6601220Y-9603740D02*
G75*
G03*
X6601220Y-9603740I-15000J0D01*
G01*
X6723000Y-6670000D02*
G75*
G03*
X6723000Y-6670000I-15000J0D01*
G01*
X6740920Y-8234680D02*
G75*
G03*
X6740920Y-8234680I-15000J0D01*
G01*
X6790000Y-10245000D02*
G75*
G03*
X6790000Y-10245000I-15000J0D01*
G01*
X6982000Y-11998000D02*
G75*
G03*
X6982000Y-11998000I-15000J0D01*
G01*
X7105000Y-5715000D02*
G75*
G03*
X7105000Y-5715000I-15000J0D01*
G01*
X7147320Y-9380220D02*
G75*
G03*
X7147320Y-9380220I-15000J0D01*
G01*
X7182880Y-10048240D02*
G75*
G03*
X7182880Y-10048240I-15000J0D01*
G01*
X7261620Y-9085580D02*
G75*
G03*
X7261620Y-9085580I-15000J0D01*
G01*
X7465000Y-12139000D02*
G75*
G03*
X7465000Y-12139000I-15000J0D01*
G01*
X7602000Y-7615000D02*
G75*
G03*
X7602000Y-7615000I-15000J0D01*
G01*
X7677000Y-7615000D02*
G75*
G03*
X7677000Y-7615000I-15000J0D01*
G01*
X7698500Y-9796780D02*
G75*
G03*
X7698500Y-9796780I-15000J0D01*
G01*
X7779780Y-9436100D02*
G75*
G03*
X7779780Y-9436100I-15000J0D01*
G01*
X7982980Y-7340600D02*
G75*
G03*
X7982980Y-7340600I-15000J0D01*
G01*
X8760000Y-7795000D02*
G75*
G03*
X8760000Y-7795000I-15000J0D01*
G01*
X8760000Y-7947500D02*
G75*
G03*
X8760000Y-7947500I-15000J0D01*
G01*
X8922500Y-7795000D02*
G75*
G03*
X8922500Y-7795000I-15000J0D01*
G01*
X8922500Y-7947500D02*
G75*
G03*
X8922500Y-7947500I-15000J0D01*
G01*
X9105000Y-7795000D02*
G75*
G03*
X9105000Y-7795000I-15000J0D01*
G01*
X9105000Y-7950000D02*
G75*
G03*
X9105000Y-7950000I-15000J0D01*
G01*
D14*
X5100000Y-5080000D02*
X5100000Y-5120000D01*
X5080000Y-5100000D02*
X5120000Y-5100000D01*
X5100000Y-5419130D02*
X5100000Y-5459130D01*
X5080000Y-5439130D02*
X5120000Y-5439130D01*
X5100000Y-5758261D02*
X5100000Y-5798261D01*
X5080000Y-5778261D02*
X5120000Y-5778261D01*
X5100000Y-6097391D02*
X5100000Y-6137391D01*
X5080000Y-6117391D02*
X5120000Y-6117391D01*
X5100000Y-6436522D02*
X5100000Y-6476522D01*
X5080000Y-6456522D02*
X5120000Y-6456522D01*
X5100000Y-6775652D02*
X5100000Y-6815652D01*
X5080000Y-6795652D02*
X5120000Y-6795652D01*
X5100000Y-7114782D02*
X5100000Y-7154782D01*
X5080000Y-7134782D02*
X5120000Y-7134782D01*
X5100000Y-7453913D02*
X5100000Y-7493913D01*
X5080000Y-7473913D02*
X5120000Y-7473913D01*
X5100000Y-7793043D02*
X5100000Y-7833043D01*
X5080000Y-7813043D02*
X5120000Y-7813043D01*
X5100000Y-8132174D02*
X5100000Y-8172174D01*
X5080000Y-8152174D02*
X5120000Y-8152174D01*
X5100000Y-8471304D02*
X5100000Y-8511304D01*
X5080000Y-8491304D02*
X5120000Y-8491304D01*
X5100000Y-8810434D02*
X5100000Y-8850434D01*
X5080000Y-8830434D02*
X5120000Y-8830434D01*
X5100000Y-9149565D02*
X5100000Y-9189565D01*
X5080000Y-9169565D02*
X5120000Y-9169565D01*
X5100000Y-9827826D02*
X5100000Y-9867826D01*
X5080000Y-9847826D02*
X5120000Y-9847826D01*
X5100000Y-10166956D02*
X5100000Y-10206956D01*
X5080000Y-10186956D02*
X5120000Y-10186956D01*
X5100000Y-10506086D02*
X5100000Y-10546086D01*
X5080000Y-10526086D02*
X5120000Y-10526086D01*
X5100000Y-10845217D02*
X5100000Y-10885217D01*
X5080000Y-10865217D02*
X5120000Y-10865217D01*
X5100000Y-11184347D02*
X5100000Y-11224347D01*
X5080000Y-11204347D02*
X5120000Y-11204347D01*
X5100000Y-11523478D02*
X5100000Y-11563478D01*
X5080000Y-11543478D02*
X5120000Y-11543478D01*
X5100000Y-11862608D02*
X5100000Y-11902608D01*
X5080000Y-11882608D02*
X5120000Y-11882608D01*
X5100000Y-12201738D02*
X5100000Y-12241738D01*
X5080000Y-12221738D02*
X5120000Y-12221738D01*
X5100000Y-12540869D02*
X5100000Y-12580869D01*
X5080000Y-12560869D02*
X5120000Y-12560869D01*
X5100000Y-12880000D02*
X5100000Y-12920000D01*
X5080000Y-12900000D02*
X5120000Y-12900000D01*
X5325000Y-6872500D02*
X5325000Y-6912500D01*
X5305000Y-6892500D02*
X5345000Y-6892500D01*
X5327500Y-7055000D02*
X5327500Y-7095000D01*
X5307500Y-7075000D02*
X5347500Y-7075000D01*
X5328571Y-5080000D02*
X5328571Y-5120000D01*
X5308571Y-5100000D02*
X5348571Y-5100000D01*
X5340930Y-12880660D02*
X5340930Y-12920660D01*
X5320930Y-12900660D02*
X5360930Y-12900660D01*
X5557143Y-5080000D02*
X5557143Y-5120000D01*
X5537143Y-5100000D02*
X5577143Y-5100000D01*
X5581860Y-12880660D02*
X5581860Y-12920660D01*
X5561860Y-12900660D02*
X5601860Y-12900660D01*
X5785714Y-5080000D02*
X5785714Y-5120000D01*
X5765714Y-5100000D02*
X5805714Y-5100000D01*
X5822790Y-12880660D02*
X5822790Y-12920660D01*
X5802790Y-12900660D02*
X5842790Y-12900660D01*
X6014286Y-5080000D02*
X6014286Y-5120000D01*
X5994286Y-5100000D02*
X6034286Y-5100000D01*
X6063720Y-12880660D02*
X6063720Y-12920660D01*
X6043720Y-12900660D02*
X6083720Y-12900660D01*
X6242857Y-5080000D02*
X6242857Y-5120000D01*
X6222857Y-5100000D02*
X6262857Y-5100000D01*
X6304650Y-12880660D02*
X6304650Y-12920660D01*
X6284650Y-12900660D02*
X6324650Y-12900660D01*
X6471428Y-5080000D02*
X6471428Y-5120000D01*
X6451428Y-5100000D02*
X6491428Y-5100000D01*
X6545580Y-12880660D02*
X6545580Y-12920660D01*
X6525580Y-12900660D02*
X6565580Y-12900660D01*
X6642100Y-10051100D02*
X6642100Y-10091100D01*
X6622100Y-10071100D02*
X6662100Y-10071100D01*
X6700000Y-5080000D02*
X6700000Y-5120000D01*
X6680000Y-5100000D02*
X6720000Y-5100000D01*
X6728460Y-10051100D02*
X6728460Y-10091100D01*
X6708460Y-10071100D02*
X6748460Y-10071100D01*
X6822440Y-9931720D02*
X6822440Y-9971720D01*
X6802440Y-9951720D02*
X6842440Y-9951720D01*
X6837500Y-10867500D02*
X6837500Y-10907500D01*
X6817500Y-10887500D02*
X6857500Y-10887500D01*
X6928571Y-5080000D02*
X6928571Y-5120000D01*
X6908571Y-5100000D02*
X6948571Y-5100000D01*
X7017500Y-12862500D02*
X7017500Y-12902500D01*
X6997500Y-12882500D02*
X7037500Y-12882500D01*
X7157143Y-5080000D02*
X7157143Y-5120000D01*
X7137143Y-5100000D02*
X7177143Y-5100000D01*
X7330000Y-6124000D02*
X7330000Y-6164000D01*
X7310000Y-6144000D02*
X7350000Y-6144000D01*
X7385714Y-5080000D02*
X7385714Y-5120000D01*
X7365714Y-5100000D02*
X7405714Y-5100000D01*
X7385800Y-12862500D02*
X7385800Y-12902500D01*
X7365800Y-12882500D02*
X7405800Y-12882500D01*
X7432000Y-6124000D02*
X7432000Y-6164000D01*
X7412000Y-6144000D02*
X7452000Y-6144000D01*
X7614285Y-5080000D02*
X7614285Y-5120000D01*
X7594285Y-5100000D02*
X7634285Y-5100000D01*
X7668260Y-10632760D02*
X7668260Y-10672760D01*
X7648260Y-10652760D02*
X7688260Y-10652760D01*
X7774940Y-10632760D02*
X7774940Y-10672760D01*
X7754940Y-10652760D02*
X7794940Y-10652760D01*
X7833045Y-12880660D02*
X7833045Y-12920660D01*
X7813045Y-12900660D02*
X7853045Y-12900660D01*
X7842857Y-5080000D02*
X7842857Y-5120000D01*
X7822857Y-5100000D02*
X7862857Y-5100000D01*
X8061617Y-12880660D02*
X8061617Y-12920660D01*
X8041617Y-12900660D02*
X8081617Y-12900660D01*
X8071428Y-5080000D02*
X8071428Y-5120000D01*
X8051428Y-5100000D02*
X8091428Y-5100000D01*
X8290188Y-12880660D02*
X8290188Y-12920660D01*
X8270188Y-12900660D02*
X8310188Y-12900660D01*
X8300000Y-5080000D02*
X8300000Y-5120000D01*
X8280000Y-5100000D02*
X8320000Y-5100000D01*
X8518760Y-12880660D02*
X8518760Y-12920660D01*
X8498760Y-12900660D02*
X8538760Y-12900660D01*
X8528571Y-5080000D02*
X8528571Y-5120000D01*
X8508571Y-5100000D02*
X8548571Y-5100000D01*
X8747331Y-12880660D02*
X8747331Y-12920660D01*
X8727331Y-12900660D02*
X8767331Y-12900660D01*
X8757142Y-5080000D02*
X8757142Y-5120000D01*
X8737142Y-5100000D02*
X8777142Y-5100000D01*
X8884920Y-9558340D02*
X8884920Y-9598340D01*
X8864920Y-9578340D02*
X8904920Y-9578340D01*
X8933180Y-9474520D02*
X8933180Y-9514520D01*
X8913180Y-9494520D02*
X8953180Y-9494520D01*
X8933180Y-9639620D02*
X8933180Y-9679620D01*
X8913180Y-9659620D02*
X8953180Y-9659620D01*
X8975902Y-12880660D02*
X8975902Y-12920660D01*
X8955902Y-12900660D02*
X8995902Y-12900660D01*
X8985714Y-5080000D02*
X8985714Y-5120000D01*
X8965714Y-5100000D02*
X9005714Y-5100000D01*
X8986520Y-9558340D02*
X8986520Y-9598340D01*
X8966520Y-9578340D02*
X9006520Y-9578340D01*
X9027000Y-9881000D02*
X9027000Y-9921000D01*
X9007000Y-9901000D02*
X9047000Y-9901000D01*
X9088120Y-9558340D02*
X9088120Y-9598340D01*
X9068120Y-9578340D02*
X9108120Y-9578340D01*
X9114000Y-9987000D02*
X9114000Y-10027000D01*
X9094000Y-10007000D02*
X9134000Y-10007000D01*
X9138920Y-9474520D02*
X9138920Y-9514520D01*
X9118920Y-9494520D02*
X9158920Y-9494520D01*
X9138920Y-9637080D02*
X9138920Y-9677080D01*
X9118920Y-9657080D02*
X9158920Y-9657080D01*
X9189720Y-9558340D02*
X9189720Y-9598340D01*
X9169720Y-9578340D02*
X9209720Y-9578340D01*
X9191000Y-9878000D02*
X9191000Y-9918000D01*
X9171000Y-9898000D02*
X9211000Y-9898000D01*
X9195000Y-9090000D02*
X9195000Y-9130000D01*
X9175000Y-9110000D02*
X9215000Y-9110000D01*
X9204474Y-12880660D02*
X9204474Y-12920660D01*
X9184474Y-12900660D02*
X9224474Y-12900660D01*
X9214285Y-5080000D02*
X9214285Y-5120000D01*
X9194285Y-5100000D02*
X9234285Y-5100000D01*
X9266000Y-9987000D02*
X9266000Y-10027000D01*
X9246000Y-10007000D02*
X9286000Y-10007000D01*
X9433045Y-12880660D02*
X9433045Y-12920660D01*
X9413045Y-12900660D02*
X9453045Y-12900660D01*
X9442857Y-5080000D02*
X9442857Y-5120000D01*
X9422857Y-5100000D02*
X9462857Y-5100000D01*
X9661617Y-12880660D02*
X9661617Y-12920660D01*
X9641617Y-12900660D02*
X9681617Y-12900660D01*
X9671428Y-5080000D02*
X9671428Y-5120000D01*
X9651428Y-5100000D02*
X9691428Y-5100000D01*
X9900000Y-5080000D02*
X9900000Y-5120000D01*
X9880000Y-5100000D02*
X9920000Y-5100000D01*
X9900920Y-5419790D02*
X9900920Y-5459790D01*
X9880920Y-5439790D02*
X9920920Y-5439790D01*
X9900920Y-5758921D02*
X9900920Y-5798921D01*
X9880920Y-5778921D02*
X9920920Y-5778921D01*
X9900920Y-6098051D02*
X9900920Y-6138051D01*
X9880920Y-6118051D02*
X9920920Y-6118051D01*
X9900920Y-6437182D02*
X9900920Y-6477182D01*
X9880920Y-6457182D02*
X9920920Y-6457182D01*
X9900920Y-6776312D02*
X9900920Y-6816312D01*
X9880920Y-6796312D02*
X9920920Y-6796312D01*
X9900920Y-7115442D02*
X9900920Y-7155442D01*
X9880920Y-7135442D02*
X9920920Y-7135442D01*
X9900920Y-7454573D02*
X9900920Y-7494573D01*
X9880920Y-7474573D02*
X9920920Y-7474573D01*
X9900920Y-7793703D02*
X9900920Y-7833703D01*
X9880920Y-7813703D02*
X9920920Y-7813703D01*
X9900920Y-8132834D02*
X9900920Y-8172834D01*
X9880920Y-8152834D02*
X9920920Y-8152834D01*
X9900920Y-8471964D02*
X9900920Y-8511964D01*
X9880920Y-8491964D02*
X9920920Y-8491964D01*
X9900920Y-8811094D02*
X9900920Y-8851094D01*
X9880920Y-8831094D02*
X9920920Y-8831094D01*
X9900920Y-9150225D02*
X9900920Y-9190225D01*
X9880920Y-9170225D02*
X9920920Y-9170225D01*
X9900920Y-9489355D02*
X9900920Y-9529355D01*
X9880920Y-9509355D02*
X9920920Y-9509355D01*
X9900920Y-9828486D02*
X9900920Y-9868486D01*
X9880920Y-9848486D02*
X9920920Y-9848486D01*
X9900920Y-10167616D02*
X9900920Y-10207616D01*
X9880920Y-10187616D02*
X9920920Y-10187616D01*
X9900920Y-10506746D02*
X9900920Y-10546746D01*
X9880920Y-10526746D02*
X9920920Y-10526746D01*
X9900920Y-10845877D02*
X9900920Y-10885877D01*
X9880920Y-10865877D02*
X9920920Y-10865877D01*
X9900920Y-11185007D02*
X9900920Y-11225007D01*
X9880920Y-11205007D02*
X9920920Y-11205007D01*
X9900920Y-11524138D02*
X9900920Y-11564138D01*
X9880920Y-11544138D02*
X9920920Y-11544138D01*
X9900920Y-11863268D02*
X9900920Y-11903268D01*
X9880920Y-11883268D02*
X9920920Y-11883268D01*
X9900920Y-12202398D02*
X9900920Y-12242398D01*
X9880920Y-12222398D02*
X9920920Y-12222398D01*
X9900920Y-12541529D02*
X9900920Y-12581529D01*
X9880920Y-12561529D02*
X9920920Y-12561529D01*
X9900920Y-12880660D02*
X9900920Y-12920660D01*
X9880920Y-12900660D02*
X9920920Y-12900660D01*
D15*
X6799213Y-12319713D02*
X6799213Y-12277287D01*
X6756787Y-12277287D01*
X6756787Y-12319713D01*
X6799213Y-12319713D01*
D11*
X6748000Y-12243500D02*
X6748000Y-12353500D01*
X6808000Y-12243500D02*
X6808000Y-12353500D01*
X6748000Y-12353500D02*
G75*
G03*
X6808000Y-12353500I30000J0D01*
G01*
X6808000Y-12243500D02*
G75*
G03*
X6748000Y-12243500I-30000J0D01*
G01*
D15*
X6799213Y-12737713D02*
X6799213Y-12695287D01*
X6756787Y-12695287D01*
X6756787Y-12737713D01*
X6799213Y-12737713D01*
D11*
X6748000Y-12676500D02*
X6748000Y-12756500D01*
X6808000Y-12676500D02*
X6808000Y-12756500D01*
X6748000Y-12756500D02*
G75*
G03*
X6808000Y-12756500I30000J0D01*
G01*
X6808000Y-12676500D02*
G75*
G03*
X6748000Y-12676500I-30000J0D01*
G01*
D15*
X7663213Y-12319713D02*
X7663213Y-12277287D01*
X7620787Y-12277287D01*
X7620787Y-12319713D01*
X7663213Y-12319713D01*
D11*
X7612000Y-12243500D02*
X7612000Y-12353500D01*
X7672000Y-12243500D02*
X7672000Y-12353500D01*
X7612000Y-12353500D02*
G75*
G03*
X7672000Y-12353500I30000J0D01*
G01*
X7672000Y-12243500D02*
G75*
G03*
X7612000Y-12243500I-30000J0D01*
G01*
D15*
X7663213Y-12737713D02*
X7663213Y-12695287D01*
X7620787Y-12695287D01*
X7620787Y-12737713D01*
X7663213Y-12737713D01*
D11*
X7612000Y-12676500D02*
X7612000Y-12756500D01*
X7672000Y-12676500D02*
X7672000Y-12756500D01*
X7612000Y-12756500D02*
G75*
G03*
X7672000Y-12756500I30000J0D01*
G01*
X7672000Y-12676500D02*
G75*
G03*
X7612000Y-12676500I-30000J0D01*
G01*
D16*
X5692500Y-8562500D02*
X5725000Y-8530000D01*
X5692500Y-8497500D01*
X5660000Y-8530000D01*
X5692500Y-8562500D01*
X5692500Y-8689500D02*
X5725000Y-8657000D01*
X5692500Y-8624500D01*
X5660000Y-8657000D01*
X5692500Y-8689500D01*
X5692500Y-8816500D02*
X5725000Y-8784000D01*
X5692500Y-8751500D01*
X5660000Y-8784000D01*
X5692500Y-8816500D01*
X5692500Y-8943500D02*
X5725000Y-8911000D01*
X5692500Y-8878500D01*
X5660000Y-8911000D01*
X5692500Y-8943500D01*
X5692500Y-9070500D02*
X5725000Y-9038000D01*
X5692500Y-9005500D01*
X5660000Y-9038000D01*
X5692500Y-9070500D01*
X5819500Y-8562500D02*
X5852000Y-8530000D01*
X5819500Y-8497500D01*
X5787000Y-8530000D01*
X5819500Y-8562500D01*
X5819500Y-8689500D02*
X5852000Y-8657000D01*
X5819500Y-8624500D01*
X5787000Y-8657000D01*
X5819500Y-8689500D01*
X5819500Y-8816500D02*
X5852000Y-8784000D01*
X5819500Y-8751500D01*
X5787000Y-8784000D01*
X5819500Y-8816500D01*
X5819500Y-8943500D02*
X5852000Y-8911000D01*
X5819500Y-8878500D01*
X5787000Y-8911000D01*
X5819500Y-8943500D01*
X5819500Y-9070500D02*
X5852000Y-9038000D01*
X5819500Y-9005500D01*
X5787000Y-9038000D01*
X5819500Y-9070500D01*
D17*
X6851000Y-5335000D02*
X6941000Y-5425000D01*
X6941000Y-5335000D02*
X6851000Y-5425000D01*
X6941000Y-5380000D02*
G75*
G03*
X6941000Y-5380000I-45000J0D01*
G01*
X7105000Y-5335000D02*
X7195000Y-5425000D01*
X7195000Y-5335000D02*
X7105000Y-5425000D01*
X7195000Y-5380000D02*
G75*
G03*
X7195000Y-5380000I-45000J0D01*
G01*
X7851000Y-5325000D02*
X7941000Y-5415000D01*
X7941000Y-5325000D02*
X7851000Y-5415000D01*
X7941000Y-5370000D02*
G75*
G03*
X7941000Y-5370000I-45000J0D01*
G01*
X8105000Y-5325000D02*
X8195000Y-5415000D01*
X8195000Y-5325000D02*
X8105000Y-5415000D01*
X8195000Y-5370000D02*
G75*
G03*
X8195000Y-5370000I-45000J0D01*
G01*
D18*
X8180000Y-11667500D02*
X8280000Y-11767500D01*
X8280000Y-11667500D02*
X8180000Y-11767500D01*
X8230000Y-11667500D02*
X8230000Y-11767500D01*
X8180000Y-11717500D02*
X8280000Y-11717500D01*
X8180000Y-11921500D02*
X8280000Y-12021500D01*
X8280000Y-11921500D02*
X8180000Y-12021500D01*
X8230000Y-11921500D02*
X8230000Y-12021500D01*
X8180000Y-11971500D02*
X8280000Y-11971500D01*
X8434000Y-11667500D02*
X8534000Y-11767500D01*
X8534000Y-11667500D02*
X8434000Y-11767500D01*
X8484000Y-11667500D02*
X8484000Y-11767500D01*
X8434000Y-11717500D02*
X8534000Y-11717500D01*
X8434000Y-11921500D02*
X8534000Y-12021500D01*
X8534000Y-11921500D02*
X8434000Y-12021500D01*
X8484000Y-11921500D02*
X8484000Y-12021500D01*
X8434000Y-11971500D02*
X8534000Y-11971500D01*
X8688000Y-11667500D02*
X8788000Y-11767500D01*
X8788000Y-11667500D02*
X8688000Y-11767500D01*
X8738000Y-11667500D02*
X8738000Y-11767500D01*
X8688000Y-11717500D02*
X8788000Y-11717500D01*
X8688000Y-11921500D02*
X8788000Y-12021500D01*
X8788000Y-11921500D02*
X8688000Y-12021500D01*
X8738000Y-11921500D02*
X8738000Y-12021500D01*
X8688000Y-11971500D02*
X8788000Y-11971500D01*
X8942000Y-11667500D02*
X9042000Y-11767500D01*
X9042000Y-11667500D02*
X8942000Y-11767500D01*
X8992000Y-11667500D02*
X8992000Y-11767500D01*
X8942000Y-11717500D02*
X9042000Y-11717500D01*
X8942000Y-11921500D02*
X9042000Y-12021500D01*
X9042000Y-11921500D02*
X8942000Y-12021500D01*
X8992000Y-11921500D02*
X8992000Y-12021500D01*
X8942000Y-11971500D02*
X9042000Y-11971500D01*
X9196000Y-11667500D02*
X9296000Y-11767500D01*
X9296000Y-11667500D02*
X9196000Y-11767500D01*
X9246000Y-11667500D02*
X9246000Y-11767500D01*
X9196000Y-11717500D02*
X9296000Y-11717500D01*
X9196000Y-11921500D02*
X9296000Y-12021500D01*
X9296000Y-11921500D02*
X9196000Y-12021500D01*
X9246000Y-11921500D02*
X9246000Y-12021500D01*
X9196000Y-11971500D02*
X9296000Y-11971500D01*
X9450000Y-11667500D02*
X9550000Y-11767500D01*
X9550000Y-11667500D02*
X9450000Y-11767500D01*
X9500000Y-11667500D02*
X9500000Y-11767500D01*
X9450000Y-11717500D02*
X9550000Y-11717500D01*
X9450000Y-11921500D02*
X9550000Y-12021500D01*
X9550000Y-11921500D02*
X9450000Y-12021500D01*
X9500000Y-11921500D02*
X9500000Y-12021500D01*
X9450000Y-11971500D02*
X9550000Y-11971500D01*
D19*
X5595000Y-11730040D02*
X5705000Y-11840040D01*
X5705000Y-11730040D02*
X5595000Y-11840040D01*
X5688891Y-11823931D02*
X5688891Y-11746149D01*
X5611109Y-11746149D01*
X5611109Y-11823931D01*
X5688891Y-11823931D01*
X5595000Y-12050040D02*
X5705000Y-12160040D01*
X5705000Y-12050040D02*
X5595000Y-12160040D01*
X5688891Y-12143931D02*
X5688891Y-12066149D01*
X5611109Y-12066149D01*
X5611109Y-12143931D01*
X5688891Y-12143931D01*
X5595000Y-12370040D02*
X5705000Y-12480040D01*
X5705000Y-12370040D02*
X5595000Y-12480040D01*
X5688891Y-12463931D02*
X5688891Y-12386149D01*
X5611109Y-12386149D01*
X5611109Y-12463931D01*
X5688891Y-12463931D01*
X5895000Y-11730040D02*
X6005000Y-11840040D01*
X6005000Y-11730040D02*
X5895000Y-11840040D01*
X5988891Y-11823931D02*
X5988891Y-11746149D01*
X5911109Y-11746149D01*
X5911109Y-11823931D01*
X5988891Y-11823931D01*
X5895000Y-12050040D02*
X6005000Y-12160040D01*
X6005000Y-12050040D02*
X5895000Y-12160040D01*
X5988891Y-12143931D02*
X5988891Y-12066149D01*
X5911109Y-12066149D01*
X5911109Y-12143931D01*
X5988891Y-12143931D01*
X5895000Y-12370040D02*
X6005000Y-12480040D01*
X6005000Y-12370040D02*
X5895000Y-12480040D01*
X5988891Y-12463931D02*
X5988891Y-12386149D01*
X5911109Y-12386149D01*
X5911109Y-12463931D01*
X5988891Y-12463931D01*
D20*
X5407500Y-11457540D02*
X5532500Y-11582540D01*
X5532500Y-11457540D02*
X5407500Y-11582540D01*
X5470000Y-11582540D02*
X5532500Y-11520040D01*
X5470000Y-11457540D01*
X5407500Y-11520040D01*
X5470000Y-11582540D01*
X6067500Y-12627540D02*
X6192500Y-12752540D01*
X6192500Y-12627540D02*
X6067500Y-12752540D01*
X6130000Y-12752540D02*
X6192500Y-12690040D01*
X6130000Y-12627540D01*
X6067500Y-12690040D01*
X6130000Y-12752540D01*
D21*
X6000000Y-5530000D02*
X6000000Y-5670000D01*
X5930000Y-5600000D02*
X6070000Y-5600000D01*
X6070000Y-5600000D02*
G75*
G03*
X6070000Y-5600000I-70000J0D01*
G01*
X9000000Y-5530000D02*
X9000000Y-5670000D01*
X8930000Y-5600000D02*
X9070000Y-5600000D01*
X9070000Y-5600000D02*
G75*
G03*
X9070000Y-5600000I-70000J0D01*
G01*
D22*
X5798033Y-5398034D02*
X5798033Y-5291967D01*
X5691966Y-5291967D01*
X5691966Y-5398034D01*
X5798033Y-5398034D01*
X5820000Y-5345000D02*
G75*
G03*
X5820000Y-5345000I-75000J0D01*
G01*
X5798033Y-5908033D02*
X5798033Y-5801966D01*
X5691966Y-5801966D01*
X5691966Y-5908033D01*
X5798033Y-5908033D01*
X5820000Y-5855000D02*
G75*
G03*
X5820000Y-5855000I-75000J0D01*
G01*
X6308033Y-5398034D02*
X6308033Y-5291967D01*
X6201966Y-5291967D01*
X6201966Y-5398034D01*
X6308033Y-5398034D01*
X6330000Y-5345000D02*
G75*
G03*
X6330000Y-5345000I-75000J0D01*
G01*
X6308033Y-5908033D02*
X6308033Y-5801966D01*
X6201966Y-5801966D01*
X6201966Y-5908033D01*
X6308033Y-5908033D01*
X6330000Y-5855000D02*
G75*
G03*
X6330000Y-5855000I-75000J0D01*
G01*
X8798034Y-5398034D02*
X8798034Y-5291967D01*
X8691967Y-5291967D01*
X8691967Y-5398034D01*
X8798034Y-5398034D01*
X8820000Y-5345000D02*
G75*
G03*
X8820000Y-5345000I-75000J0D01*
G01*
X8798034Y-5908033D02*
X8798034Y-5801966D01*
X8691967Y-5801966D01*
X8691967Y-5908033D01*
X8798034Y-5908033D01*
X8820000Y-5855000D02*
G75*
G03*
X8820000Y-5855000I-75000J0D01*
G01*
X9308034Y-5398034D02*
X9308034Y-5291967D01*
X9201967Y-5291967D01*
X9201967Y-5398034D01*
X9308034Y-5398034D01*
X9330000Y-5345000D02*
G75*
G03*
X9330000Y-5345000I-75000J0D01*
G01*
X9308034Y-5908033D02*
X9308034Y-5801966D01*
X9201967Y-5801966D01*
X9201967Y-5908033D01*
X9308034Y-5908033D01*
X9330000Y-5855000D02*
G75*
G03*
X9330000Y-5855000I-75000J0D01*
G01*
D11*
X5247619Y-13320476D02*
X5247619Y-13120476D01*
X5295238Y-13120476D01*
X5323810Y-13130000D01*
X5342857Y-13149048D01*
X5352381Y-13168095D01*
X5361905Y-13206190D01*
X5361905Y-13234762D01*
X5352381Y-13272857D01*
X5342857Y-13291905D01*
X5323810Y-13310952D01*
X5295238Y-13320476D01*
X5247619Y-13320476D01*
X5447619Y-13320476D02*
X5447619Y-13187143D01*
X5447619Y-13225238D02*
X5457143Y-13206190D01*
X5466667Y-13196667D01*
X5485714Y-13187143D01*
X5504762Y-13187143D01*
X5571429Y-13320476D02*
X5571429Y-13187143D01*
X5571429Y-13120476D02*
X5561905Y-13130000D01*
X5571429Y-13139524D01*
X5580952Y-13130000D01*
X5571429Y-13120476D01*
X5571429Y-13139524D01*
X5695238Y-13320476D02*
X5676190Y-13310952D01*
X5666667Y-13291905D01*
X5666667Y-13120476D01*
X5800000Y-13320476D02*
X5780952Y-13310952D01*
X5771428Y-13291905D01*
X5771428Y-13120476D01*
X6028571Y-13320476D02*
X6028571Y-13120476D01*
X6095238Y-13263333D01*
X6161905Y-13120476D01*
X6161905Y-13320476D01*
X6342857Y-13320476D02*
X6342857Y-13215714D01*
X6333333Y-13196667D01*
X6314286Y-13187143D01*
X6276190Y-13187143D01*
X6257143Y-13196667D01*
X6342857Y-13310952D02*
X6323809Y-13320476D01*
X6276190Y-13320476D01*
X6257143Y-13310952D01*
X6247619Y-13291905D01*
X6247619Y-13272857D01*
X6257143Y-13253809D01*
X6276190Y-13244286D01*
X6323809Y-13244286D01*
X6342857Y-13234762D01*
X6438095Y-13187143D02*
X6438095Y-13387143D01*
X6438095Y-13196667D02*
X6457143Y-13187143D01*
X6495238Y-13187143D01*
X6514286Y-13196667D01*
X6523809Y-13206190D01*
X6533333Y-13225238D01*
X6533333Y-13282381D01*
X6523809Y-13301428D01*
X6514286Y-13310952D01*
X6495238Y-13320476D01*
X6457143Y-13320476D01*
X6438095Y-13310952D01*
X6619048Y-13301428D02*
X6628571Y-13310952D01*
X6619048Y-13320476D01*
X6609524Y-13310952D01*
X6619048Y-13301428D01*
X6619048Y-13320476D01*
X6619048Y-13196667D02*
X6628571Y-13206190D01*
X6619048Y-13215714D01*
X6609524Y-13206190D01*
X6619048Y-13196667D01*
X6619048Y-13215714D01*
D12*
X4970000Y-13640000D02*
X4990000Y-13660000D01*
X4990000Y-13640000D02*
X4970000Y-13660000D01*
D11*
X5285714Y-13540476D02*
X5304762Y-13540476D01*
X5323810Y-13550000D01*
X5333333Y-13559524D01*
X5342857Y-13578571D01*
X5352381Y-13616667D01*
X5352381Y-13664286D01*
X5342857Y-13702381D01*
X5333333Y-13721428D01*
X5323810Y-13730952D01*
X5304762Y-13740476D01*
X5285714Y-13740476D01*
X5266667Y-13730952D01*
X5257143Y-13721428D01*
X5247619Y-13702381D01*
X5238095Y-13664286D01*
X5238095Y-13616667D01*
X5247619Y-13578571D01*
X5257143Y-13559524D01*
X5266667Y-13550000D01*
X5285714Y-13540476D01*
X5438095Y-13721428D02*
X5447619Y-13730952D01*
X5438095Y-13740476D01*
X5428571Y-13730952D01*
X5438095Y-13721428D01*
X5438095Y-13740476D01*
X5523810Y-13559524D02*
X5533333Y-13550000D01*
X5552381Y-13540476D01*
X5600000Y-13540476D01*
X5619048Y-13550000D01*
X5628571Y-13559524D01*
X5638095Y-13578571D01*
X5638095Y-13597619D01*
X5628571Y-13626190D01*
X5514286Y-13740476D01*
X5638095Y-13740476D01*
X5761905Y-13540476D02*
X5780952Y-13540476D01*
X5800000Y-13550000D01*
X5809524Y-13559524D01*
X5819048Y-13578571D01*
X5828571Y-13616667D01*
X5828571Y-13664286D01*
X5819048Y-13702381D01*
X5809524Y-13721428D01*
X5800000Y-13730952D01*
X5780952Y-13740476D01*
X5761905Y-13740476D01*
X5742857Y-13730952D01*
X5733333Y-13721428D01*
X5723809Y-13702381D01*
X5714286Y-13664286D01*
X5714286Y-13616667D01*
X5723809Y-13578571D01*
X5733333Y-13559524D01*
X5742857Y-13550000D01*
X5761905Y-13540476D01*
X5952381Y-13540476D02*
X5971428Y-13540476D01*
X5990476Y-13550000D01*
X6000000Y-13559524D01*
X6009524Y-13578571D01*
X6019048Y-13616667D01*
X6019048Y-13664286D01*
X6009524Y-13702381D01*
X6000000Y-13721428D01*
X5990476Y-13730952D01*
X5971428Y-13740476D01*
X5952381Y-13740476D01*
X5933333Y-13730952D01*
X5923809Y-13721428D01*
X5914286Y-13702381D01*
X5904762Y-13664286D01*
X5904762Y-13616667D01*
X5914286Y-13578571D01*
X5923809Y-13559524D01*
X5933333Y-13550000D01*
X5952381Y-13540476D01*
X6104762Y-13740476D02*
X6104762Y-13607143D01*
X6104762Y-13626190D02*
X6114286Y-13616667D01*
X6133333Y-13607143D01*
X6161905Y-13607143D01*
X6180952Y-13616667D01*
X6190476Y-13635714D01*
X6190476Y-13740476D01*
X6190476Y-13635714D02*
X6200000Y-13616667D01*
X6219048Y-13607143D01*
X6247619Y-13607143D01*
X6266667Y-13616667D01*
X6276190Y-13635714D01*
X6276190Y-13740476D01*
X6371428Y-13740476D02*
X6371428Y-13607143D01*
X6371428Y-13626190D02*
X6380952Y-13616667D01*
X6400000Y-13607143D01*
X6428571Y-13607143D01*
X6447619Y-13616667D01*
X6457143Y-13635714D01*
X6457143Y-13740476D01*
X6457143Y-13635714D02*
X6466667Y-13616667D01*
X6485714Y-13607143D01*
X6514286Y-13607143D01*
X6533333Y-13616667D01*
X6542857Y-13635714D01*
X6542857Y-13740476D01*
X6933333Y-13530952D02*
X6761905Y-13788095D01*
X7190476Y-13540476D02*
X7209524Y-13540476D01*
X7228571Y-13550000D01*
X7238095Y-13559524D01*
X7247619Y-13578571D01*
X7257143Y-13616667D01*
X7257143Y-13664286D01*
X7247619Y-13702381D01*
X7238095Y-13721428D01*
X7228571Y-13730952D01*
X7209524Y-13740476D01*
X7190476Y-13740476D01*
X7171428Y-13730952D01*
X7161905Y-13721428D01*
X7152381Y-13702381D01*
X7142857Y-13664286D01*
X7142857Y-13616667D01*
X7152381Y-13578571D01*
X7161905Y-13559524D01*
X7171428Y-13550000D01*
X7190476Y-13540476D01*
X7342857Y-13721428D02*
X7352381Y-13730952D01*
X7342857Y-13740476D01*
X7333333Y-13730952D01*
X7342857Y-13721428D01*
X7342857Y-13740476D01*
X7476190Y-13540476D02*
X7495238Y-13540476D01*
X7514286Y-13550000D01*
X7523809Y-13559524D01*
X7533333Y-13578571D01*
X7542857Y-13616667D01*
X7542857Y-13664286D01*
X7533333Y-13702381D01*
X7523809Y-13721428D01*
X7514286Y-13730952D01*
X7495238Y-13740476D01*
X7476190Y-13740476D01*
X7457143Y-13730952D01*
X7447619Y-13721428D01*
X7438095Y-13702381D01*
X7428571Y-13664286D01*
X7428571Y-13616667D01*
X7438095Y-13578571D01*
X7447619Y-13559524D01*
X7457143Y-13550000D01*
X7476190Y-13540476D01*
X7666667Y-13540476D02*
X7685714Y-13540476D01*
X7704762Y-13550000D01*
X7714286Y-13559524D01*
X7723809Y-13578571D01*
X7733333Y-13616667D01*
X7733333Y-13664286D01*
X7723809Y-13702381D01*
X7714286Y-13721428D01*
X7704762Y-13730952D01*
X7685714Y-13740476D01*
X7666667Y-13740476D01*
X7647619Y-13730952D01*
X7638095Y-13721428D01*
X7628571Y-13702381D01*
X7619048Y-13664286D01*
X7619048Y-13616667D01*
X7628571Y-13578571D01*
X7638095Y-13559524D01*
X7647619Y-13550000D01*
X7666667Y-13540476D01*
X7800000Y-13540476D02*
X7933333Y-13540476D01*
X7847619Y-13740476D01*
X8019048Y-13740476D02*
X8057143Y-13740476D01*
X8076190Y-13730952D01*
X8085714Y-13721428D01*
X8104762Y-13692857D01*
X8114286Y-13654762D01*
X8114286Y-13578571D01*
X8104762Y-13559524D01*
X8095238Y-13550000D01*
X8076190Y-13540476D01*
X8038095Y-13540476D01*
X8019048Y-13550000D01*
X8009524Y-13559524D01*
X8000000Y-13578571D01*
X8000000Y-13626190D01*
X8009524Y-13645238D01*
X8019048Y-13654762D01*
X8038095Y-13664286D01*
X8076190Y-13664286D01*
X8095238Y-13654762D01*
X8104762Y-13645238D01*
X8114286Y-13626190D01*
X8190476Y-13540476D02*
X8190476Y-13578571D01*
X8266667Y-13540476D02*
X8266667Y-13578571D01*
X8561905Y-13816667D02*
X8552381Y-13807143D01*
X8533333Y-13778571D01*
X8523810Y-13759524D01*
X8514286Y-13730952D01*
X8504762Y-13683333D01*
X8504762Y-13645238D01*
X8514286Y-13597619D01*
X8523810Y-13569048D01*
X8533333Y-13550000D01*
X8552381Y-13521428D01*
X8561905Y-13511905D01*
X8628571Y-13559524D02*
X8638095Y-13550000D01*
X8657143Y-13540476D01*
X8704762Y-13540476D01*
X8723810Y-13550000D01*
X8733333Y-13559524D01*
X8742857Y-13578571D01*
X8742857Y-13597619D01*
X8733333Y-13626190D01*
X8619048Y-13740476D01*
X8742857Y-13740476D01*
X8923810Y-13540476D02*
X8828571Y-13540476D01*
X8819048Y-13635714D01*
X8828571Y-13626190D01*
X8847619Y-13616667D01*
X8895238Y-13616667D01*
X8914286Y-13626190D01*
X8923810Y-13635714D01*
X8933333Y-13654762D01*
X8933333Y-13702381D01*
X8923810Y-13721428D01*
X8914286Y-13730952D01*
X8895238Y-13740476D01*
X8847619Y-13740476D01*
X8828571Y-13730952D01*
X8819048Y-13721428D01*
X9123810Y-13740476D02*
X9009524Y-13740476D01*
X9066667Y-13740476D02*
X9066667Y-13540476D01*
X9047619Y-13569048D01*
X9028571Y-13588095D01*
X9009524Y-13597619D01*
X9361905Y-13740476D02*
X9361905Y-13540476D01*
X9447619Y-13740476D02*
X9447619Y-13635714D01*
X9438095Y-13616667D01*
X9419048Y-13607143D01*
X9390476Y-13607143D01*
X9371429Y-13616667D01*
X9361905Y-13626190D01*
X9571429Y-13740476D02*
X9552381Y-13730952D01*
X9542857Y-13721428D01*
X9533333Y-13702381D01*
X9533333Y-13645238D01*
X9542857Y-13626190D01*
X9552381Y-13616667D01*
X9571429Y-13607143D01*
X9600000Y-13607143D01*
X9619048Y-13616667D01*
X9628571Y-13626190D01*
X9638095Y-13645238D01*
X9638095Y-13702381D01*
X9628571Y-13721428D01*
X9619048Y-13730952D01*
X9600000Y-13740476D01*
X9571429Y-13740476D01*
X9752381Y-13740476D02*
X9733333Y-13730952D01*
X9723810Y-13711905D01*
X9723810Y-13540476D01*
X9904762Y-13730952D02*
X9885714Y-13740476D01*
X9847619Y-13740476D01*
X9828571Y-13730952D01*
X9819048Y-13711905D01*
X9819048Y-13635714D01*
X9828571Y-13616667D01*
X9847619Y-13607143D01*
X9885714Y-13607143D01*
X9904762Y-13616667D01*
X9914286Y-13635714D01*
X9914286Y-13654762D01*
X9819048Y-13673809D01*
X9990476Y-13730952D02*
X10009524Y-13740476D01*
X10047619Y-13740476D01*
X10066667Y-13730952D01*
X10076190Y-13711905D01*
X10076190Y-13702381D01*
X10066667Y-13683333D01*
X10047619Y-13673809D01*
X10019048Y-13673809D01*
X10000000Y-13664286D01*
X9990476Y-13645238D01*
X9990476Y-13635714D01*
X10000000Y-13616667D01*
X10019048Y-13607143D01*
X10047619Y-13607143D01*
X10066667Y-13616667D01*
X10142857Y-13816667D02*
X10152381Y-13807143D01*
X10171429Y-13778571D01*
X10180952Y-13759524D01*
X10190476Y-13730952D01*
X10200000Y-13683333D01*
X10200000Y-13645238D01*
X10190476Y-13597619D01*
X10180952Y-13569048D01*
X10171429Y-13550000D01*
X10152381Y-13521428D01*
X10142857Y-13511905D01*
D13*
X4990000Y-13914000D02*
G75*
G03*
X4990000Y-13914000I-15000J0D01*
G01*
D11*
X5285714Y-13804476D02*
X5304762Y-13804476D01*
X5323810Y-13814000D01*
X5333333Y-13823524D01*
X5342857Y-13842571D01*
X5352381Y-13880667D01*
X5352381Y-13928286D01*
X5342857Y-13966381D01*
X5333333Y-13985428D01*
X5323810Y-13994952D01*
X5304762Y-14004476D01*
X5285714Y-14004476D01*
X5266667Y-13994952D01*
X5257143Y-13985428D01*
X5247619Y-13966381D01*
X5238095Y-13928286D01*
X5238095Y-13880667D01*
X5247619Y-13842571D01*
X5257143Y-13823524D01*
X5266667Y-13814000D01*
X5285714Y-13804476D01*
X5438095Y-13985428D02*
X5447619Y-13994952D01*
X5438095Y-14004476D01*
X5428571Y-13994952D01*
X5438095Y-13985428D01*
X5438095Y-14004476D01*
X5514286Y-13804476D02*
X5638095Y-13804476D01*
X5571429Y-13880667D01*
X5600000Y-13880667D01*
X5619048Y-13890190D01*
X5628571Y-13899714D01*
X5638095Y-13918762D01*
X5638095Y-13966381D01*
X5628571Y-13985428D01*
X5619048Y-13994952D01*
X5600000Y-14004476D01*
X5542857Y-14004476D01*
X5523810Y-13994952D01*
X5514286Y-13985428D01*
X5761905Y-13804476D02*
X5780952Y-13804476D01*
X5800000Y-13814000D01*
X5809524Y-13823524D01*
X5819048Y-13842571D01*
X5828571Y-13880667D01*
X5828571Y-13928286D01*
X5819048Y-13966381D01*
X5809524Y-13985428D01*
X5800000Y-13994952D01*
X5780952Y-14004476D01*
X5761905Y-14004476D01*
X5742857Y-13994952D01*
X5733333Y-13985428D01*
X5723809Y-13966381D01*
X5714286Y-13928286D01*
X5714286Y-13880667D01*
X5723809Y-13842571D01*
X5733333Y-13823524D01*
X5742857Y-13814000D01*
X5761905Y-13804476D01*
X5952381Y-13804476D02*
X5971428Y-13804476D01*
X5990476Y-13814000D01*
X6000000Y-13823524D01*
X6009524Y-13842571D01*
X6019048Y-13880667D01*
X6019048Y-13928286D01*
X6009524Y-13966381D01*
X6000000Y-13985428D01*
X5990476Y-13994952D01*
X5971428Y-14004476D01*
X5952381Y-14004476D01*
X5933333Y-13994952D01*
X5923809Y-13985428D01*
X5914286Y-13966381D01*
X5904762Y-13928286D01*
X5904762Y-13880667D01*
X5914286Y-13842571D01*
X5923809Y-13823524D01*
X5933333Y-13814000D01*
X5952381Y-13804476D01*
X6104762Y-14004476D02*
X6104762Y-13871143D01*
X6104762Y-13890190D02*
X6114286Y-13880667D01*
X6133333Y-13871143D01*
X6161905Y-13871143D01*
X6180952Y-13880667D01*
X6190476Y-13899714D01*
X6190476Y-14004476D01*
X6190476Y-13899714D02*
X6200000Y-13880667D01*
X6219048Y-13871143D01*
X6247619Y-13871143D01*
X6266667Y-13880667D01*
X6276190Y-13899714D01*
X6276190Y-14004476D01*
X6371428Y-14004476D02*
X6371428Y-13871143D01*
X6371428Y-13890190D02*
X6380952Y-13880667D01*
X6400000Y-13871143D01*
X6428571Y-13871143D01*
X6447619Y-13880667D01*
X6457143Y-13899714D01*
X6457143Y-14004476D01*
X6457143Y-13899714D02*
X6466667Y-13880667D01*
X6485714Y-13871143D01*
X6514286Y-13871143D01*
X6533333Y-13880667D01*
X6542857Y-13899714D01*
X6542857Y-14004476D01*
X6933333Y-13794952D02*
X6761905Y-14052095D01*
X7190476Y-13804476D02*
X7209524Y-13804476D01*
X7228571Y-13814000D01*
X7238095Y-13823524D01*
X7247619Y-13842571D01*
X7257143Y-13880667D01*
X7257143Y-13928286D01*
X7247619Y-13966381D01*
X7238095Y-13985428D01*
X7228571Y-13994952D01*
X7209524Y-14004476D01*
X7190476Y-14004476D01*
X7171428Y-13994952D01*
X7161905Y-13985428D01*
X7152381Y-13966381D01*
X7142857Y-13928286D01*
X7142857Y-13880667D01*
X7152381Y-13842571D01*
X7161905Y-13823524D01*
X7171428Y-13814000D01*
X7190476Y-13804476D01*
X7342857Y-13985428D02*
X7352381Y-13994952D01*
X7342857Y-14004476D01*
X7333333Y-13994952D01*
X7342857Y-13985428D01*
X7342857Y-14004476D01*
X7476190Y-13804476D02*
X7495238Y-13804476D01*
X7514286Y-13814000D01*
X7523809Y-13823524D01*
X7533333Y-13842571D01*
X7542857Y-13880667D01*
X7542857Y-13928286D01*
X7533333Y-13966381D01*
X7523809Y-13985428D01*
X7514286Y-13994952D01*
X7495238Y-14004476D01*
X7476190Y-14004476D01*
X7457143Y-13994952D01*
X7447619Y-13985428D01*
X7438095Y-13966381D01*
X7428571Y-13928286D01*
X7428571Y-13880667D01*
X7438095Y-13842571D01*
X7447619Y-13823524D01*
X7457143Y-13814000D01*
X7476190Y-13804476D01*
X7733333Y-14004476D02*
X7619048Y-14004476D01*
X7676190Y-14004476D02*
X7676190Y-13804476D01*
X7657143Y-13833048D01*
X7638095Y-13852095D01*
X7619048Y-13861619D01*
X7923809Y-14004476D02*
X7809524Y-14004476D01*
X7866667Y-14004476D02*
X7866667Y-13804476D01*
X7847619Y-13833048D01*
X7828571Y-13852095D01*
X7809524Y-13861619D01*
X8038095Y-13890190D02*
X8019048Y-13880667D01*
X8009524Y-13871143D01*
X8000000Y-13852095D01*
X8000000Y-13842571D01*
X8009524Y-13823524D01*
X8019048Y-13814000D01*
X8038095Y-13804476D01*
X8076190Y-13804476D01*
X8095238Y-13814000D01*
X8104762Y-13823524D01*
X8114286Y-13842571D01*
X8114286Y-13852095D01*
X8104762Y-13871143D01*
X8095238Y-13880667D01*
X8076190Y-13890190D01*
X8038095Y-13890190D01*
X8019048Y-13899714D01*
X8009524Y-13909238D01*
X8000000Y-13928286D01*
X8000000Y-13966381D01*
X8009524Y-13985428D01*
X8019048Y-13994952D01*
X8038095Y-14004476D01*
X8076190Y-14004476D01*
X8095238Y-13994952D01*
X8104762Y-13985428D01*
X8114286Y-13966381D01*
X8114286Y-13928286D01*
X8104762Y-13909238D01*
X8095238Y-13899714D01*
X8076190Y-13890190D01*
X8190476Y-13804476D02*
X8190476Y-13842571D01*
X8266667Y-13804476D02*
X8266667Y-13842571D01*
X8561905Y-14080667D02*
X8552381Y-14071143D01*
X8533333Y-14042571D01*
X8523810Y-14023524D01*
X8514286Y-13994952D01*
X8504762Y-13947333D01*
X8504762Y-13909238D01*
X8514286Y-13861619D01*
X8523810Y-13833048D01*
X8533333Y-13814000D01*
X8552381Y-13785428D01*
X8561905Y-13775905D01*
X8628571Y-13823524D02*
X8638095Y-13814000D01*
X8657143Y-13804476D01*
X8704762Y-13804476D01*
X8723810Y-13814000D01*
X8733333Y-13823524D01*
X8742857Y-13842571D01*
X8742857Y-13861619D01*
X8733333Y-13890190D01*
X8619048Y-14004476D01*
X8742857Y-14004476D01*
X8809524Y-13804476D02*
X8942857Y-13804476D01*
X8857143Y-14004476D01*
X9171429Y-14004476D02*
X9171429Y-13804476D01*
X9257143Y-14004476D02*
X9257143Y-13899714D01*
X9247619Y-13880667D01*
X9228571Y-13871143D01*
X9200000Y-13871143D01*
X9180952Y-13880667D01*
X9171429Y-13890190D01*
X9380952Y-14004476D02*
X9361905Y-13994952D01*
X9352381Y-13985428D01*
X9342857Y-13966381D01*
X9342857Y-13909238D01*
X9352381Y-13890190D01*
X9361905Y-13880667D01*
X9380952Y-13871143D01*
X9409524Y-13871143D01*
X9428571Y-13880667D01*
X9438095Y-13890190D01*
X9447619Y-13909238D01*
X9447619Y-13966381D01*
X9438095Y-13985428D01*
X9428571Y-13994952D01*
X9409524Y-14004476D01*
X9380952Y-14004476D01*
X9561905Y-14004476D02*
X9542857Y-13994952D01*
X9533333Y-13975905D01*
X9533333Y-13804476D01*
X9714286Y-13994952D02*
X9695238Y-14004476D01*
X9657143Y-14004476D01*
X9638095Y-13994952D01*
X9628571Y-13975905D01*
X9628571Y-13899714D01*
X9638095Y-13880667D01*
X9657143Y-13871143D01*
X9695238Y-13871143D01*
X9714286Y-13880667D01*
X9723810Y-13899714D01*
X9723810Y-13918762D01*
X9628571Y-13937809D01*
X9800000Y-13994952D02*
X9819048Y-14004476D01*
X9857143Y-14004476D01*
X9876190Y-13994952D01*
X9885714Y-13975905D01*
X9885714Y-13966381D01*
X9876190Y-13947333D01*
X9857143Y-13937809D01*
X9828571Y-13937809D01*
X9809524Y-13928286D01*
X9800000Y-13909238D01*
X9800000Y-13899714D01*
X9809524Y-13880667D01*
X9828571Y-13871143D01*
X9857143Y-13871143D01*
X9876190Y-13880667D01*
X9952381Y-14080667D02*
X9961905Y-14071143D01*
X9980952Y-14042571D01*
X9990476Y-14023524D01*
X10000000Y-13994952D01*
X10009524Y-13947333D01*
X10009524Y-13909238D01*
X10000000Y-13861619D01*
X9990476Y-13833048D01*
X9980952Y-13814000D01*
X9961905Y-13785428D01*
X9952381Y-13775905D01*
D14*
X4970000Y-14158000D02*
X4970000Y-14198000D01*
X4950000Y-14178000D02*
X4990000Y-14178000D01*
D11*
X5285714Y-14068476D02*
X5304762Y-14068476D01*
X5323810Y-14078000D01*
X5333333Y-14087524D01*
X5342857Y-14106571D01*
X5352381Y-14144667D01*
X5352381Y-14192286D01*
X5342857Y-14230381D01*
X5333333Y-14249428D01*
X5323810Y-14258952D01*
X5304762Y-14268476D01*
X5285714Y-14268476D01*
X5266667Y-14258952D01*
X5257143Y-14249428D01*
X5247619Y-14230381D01*
X5238095Y-14192286D01*
X5238095Y-14144667D01*
X5247619Y-14106571D01*
X5257143Y-14087524D01*
X5266667Y-14078000D01*
X5285714Y-14068476D01*
X5438095Y-14249428D02*
X5447619Y-14258952D01*
X5438095Y-14268476D01*
X5428571Y-14258952D01*
X5438095Y-14249428D01*
X5438095Y-14268476D01*
X5619048Y-14135143D02*
X5619048Y-14268476D01*
X5571429Y-14058952D02*
X5523810Y-14201809D01*
X5647619Y-14201809D01*
X5761905Y-14068476D02*
X5780952Y-14068476D01*
X5800000Y-14078000D01*
X5809524Y-14087524D01*
X5819048Y-14106571D01*
X5828571Y-14144667D01*
X5828571Y-14192286D01*
X5819048Y-14230381D01*
X5809524Y-14249428D01*
X5800000Y-14258952D01*
X5780952Y-14268476D01*
X5761905Y-14268476D01*
X5742857Y-14258952D01*
X5733333Y-14249428D01*
X5723809Y-14230381D01*
X5714286Y-14192286D01*
X5714286Y-14144667D01*
X5723809Y-14106571D01*
X5733333Y-14087524D01*
X5742857Y-14078000D01*
X5761905Y-14068476D01*
X5952381Y-14068476D02*
X5971428Y-14068476D01*
X5990476Y-14078000D01*
X6000000Y-14087524D01*
X6009524Y-14106571D01*
X6019048Y-14144667D01*
X6019048Y-14192286D01*
X6009524Y-14230381D01*
X6000000Y-14249428D01*
X5990476Y-14258952D01*
X5971428Y-14268476D01*
X5952381Y-14268476D01*
X5933333Y-14258952D01*
X5923809Y-14249428D01*
X5914286Y-14230381D01*
X5904762Y-14192286D01*
X5904762Y-14144667D01*
X5914286Y-14106571D01*
X5923809Y-14087524D01*
X5933333Y-14078000D01*
X5952381Y-14068476D01*
X6104762Y-14268476D02*
X6104762Y-14135143D01*
X6104762Y-14154190D02*
X6114286Y-14144667D01*
X6133333Y-14135143D01*
X6161905Y-14135143D01*
X6180952Y-14144667D01*
X6190476Y-14163714D01*
X6190476Y-14268476D01*
X6190476Y-14163714D02*
X6200000Y-14144667D01*
X6219048Y-14135143D01*
X6247619Y-14135143D01*
X6266667Y-14144667D01*
X6276190Y-14163714D01*
X6276190Y-14268476D01*
X6371428Y-14268476D02*
X6371428Y-14135143D01*
X6371428Y-14154190D02*
X6380952Y-14144667D01*
X6400000Y-14135143D01*
X6428571Y-14135143D01*
X6447619Y-14144667D01*
X6457143Y-14163714D01*
X6457143Y-14268476D01*
X6457143Y-14163714D02*
X6466667Y-14144667D01*
X6485714Y-14135143D01*
X6514286Y-14135143D01*
X6533333Y-14144667D01*
X6542857Y-14163714D01*
X6542857Y-14268476D01*
X6933333Y-14058952D02*
X6761905Y-14316095D01*
X7190476Y-14068476D02*
X7209524Y-14068476D01*
X7228571Y-14078000D01*
X7238095Y-14087524D01*
X7247619Y-14106571D01*
X7257143Y-14144667D01*
X7257143Y-14192286D01*
X7247619Y-14230381D01*
X7238095Y-14249428D01*
X7228571Y-14258952D01*
X7209524Y-14268476D01*
X7190476Y-14268476D01*
X7171428Y-14258952D01*
X7161905Y-14249428D01*
X7152381Y-14230381D01*
X7142857Y-14192286D01*
X7142857Y-14144667D01*
X7152381Y-14106571D01*
X7161905Y-14087524D01*
X7171428Y-14078000D01*
X7190476Y-14068476D01*
X7342857Y-14249428D02*
X7352381Y-14258952D01*
X7342857Y-14268476D01*
X7333333Y-14258952D01*
X7342857Y-14249428D01*
X7342857Y-14268476D01*
X7476190Y-14068476D02*
X7495238Y-14068476D01*
X7514286Y-14078000D01*
X7523809Y-14087524D01*
X7533333Y-14106571D01*
X7542857Y-14144667D01*
X7542857Y-14192286D01*
X7533333Y-14230381D01*
X7523809Y-14249428D01*
X7514286Y-14258952D01*
X7495238Y-14268476D01*
X7476190Y-14268476D01*
X7457143Y-14258952D01*
X7447619Y-14249428D01*
X7438095Y-14230381D01*
X7428571Y-14192286D01*
X7428571Y-14144667D01*
X7438095Y-14106571D01*
X7447619Y-14087524D01*
X7457143Y-14078000D01*
X7476190Y-14068476D01*
X7733333Y-14268476D02*
X7619048Y-14268476D01*
X7676190Y-14268476D02*
X7676190Y-14068476D01*
X7657143Y-14097048D01*
X7638095Y-14116095D01*
X7619048Y-14125619D01*
X7914286Y-14068476D02*
X7819048Y-14068476D01*
X7809524Y-14163714D01*
X7819048Y-14154190D01*
X7838095Y-14144667D01*
X7885714Y-14144667D01*
X7904762Y-14154190D01*
X7914286Y-14163714D01*
X7923809Y-14182762D01*
X7923809Y-14230381D01*
X7914286Y-14249428D01*
X7904762Y-14258952D01*
X7885714Y-14268476D01*
X7838095Y-14268476D01*
X7819048Y-14258952D01*
X7809524Y-14249428D01*
X7990476Y-14068476D02*
X8123809Y-14068476D01*
X8038095Y-14268476D01*
X8190476Y-14068476D02*
X8190476Y-14106571D01*
X8266667Y-14068476D02*
X8266667Y-14106571D01*
X8561905Y-14344667D02*
X8552381Y-14335143D01*
X8533333Y-14306571D01*
X8523810Y-14287524D01*
X8514286Y-14258952D01*
X8504762Y-14211333D01*
X8504762Y-14173238D01*
X8514286Y-14125619D01*
X8523810Y-14097048D01*
X8533333Y-14078000D01*
X8552381Y-14049428D01*
X8561905Y-14039905D01*
X8742857Y-14268476D02*
X8628571Y-14268476D01*
X8685714Y-14268476D02*
X8685714Y-14068476D01*
X8666667Y-14097048D01*
X8647619Y-14116095D01*
X8628571Y-14125619D01*
X8866667Y-14068476D02*
X8885714Y-14068476D01*
X8904762Y-14078000D01*
X8914286Y-14087524D01*
X8923810Y-14106571D01*
X8933333Y-14144667D01*
X8933333Y-14192286D01*
X8923810Y-14230381D01*
X8914286Y-14249428D01*
X8904762Y-14258952D01*
X8885714Y-14268476D01*
X8866667Y-14268476D01*
X8847619Y-14258952D01*
X8838095Y-14249428D01*
X8828571Y-14230381D01*
X8819048Y-14192286D01*
X8819048Y-14144667D01*
X8828571Y-14106571D01*
X8838095Y-14087524D01*
X8847619Y-14078000D01*
X8866667Y-14068476D01*
X9000000Y-14068476D02*
X9133333Y-14068476D01*
X9047619Y-14268476D01*
X9361905Y-14268476D02*
X9361905Y-14068476D01*
X9447619Y-14268476D02*
X9447619Y-14163714D01*
X9438095Y-14144667D01*
X9419048Y-14135143D01*
X9390476Y-14135143D01*
X9371429Y-14144667D01*
X9361905Y-14154190D01*
X9571429Y-14268476D02*
X9552381Y-14258952D01*
X9542857Y-14249428D01*
X9533333Y-14230381D01*
X9533333Y-14173238D01*
X9542857Y-14154190D01*
X9552381Y-14144667D01*
X9571429Y-14135143D01*
X9600000Y-14135143D01*
X9619048Y-14144667D01*
X9628571Y-14154190D01*
X9638095Y-14173238D01*
X9638095Y-14230381D01*
X9628571Y-14249428D01*
X9619048Y-14258952D01*
X9600000Y-14268476D01*
X9571429Y-14268476D01*
X9752381Y-14268476D02*
X9733333Y-14258952D01*
X9723810Y-14239905D01*
X9723810Y-14068476D01*
X9904762Y-14258952D02*
X9885714Y-14268476D01*
X9847619Y-14268476D01*
X9828571Y-14258952D01*
X9819048Y-14239905D01*
X9819048Y-14163714D01*
X9828571Y-14144667D01*
X9847619Y-14135143D01*
X9885714Y-14135143D01*
X9904762Y-14144667D01*
X9914286Y-14163714D01*
X9914286Y-14182762D01*
X9819048Y-14201809D01*
X9990476Y-14258952D02*
X10009524Y-14268476D01*
X10047619Y-14268476D01*
X10066667Y-14258952D01*
X10076190Y-14239905D01*
X10076190Y-14230381D01*
X10066667Y-14211333D01*
X10047619Y-14201809D01*
X10019048Y-14201809D01*
X10000000Y-14192286D01*
X9990476Y-14173238D01*
X9990476Y-14163714D01*
X10000000Y-14144667D01*
X10019048Y-14135143D01*
X10047619Y-14135143D01*
X10066667Y-14144667D01*
X10142857Y-14344667D02*
X10152381Y-14335143D01*
X10171429Y-14306571D01*
X10180952Y-14287524D01*
X10190476Y-14258952D01*
X10200000Y-14211333D01*
X10200000Y-14173238D01*
X10190476Y-14125619D01*
X10180952Y-14097048D01*
X10171429Y-14078000D01*
X10152381Y-14049428D01*
X10142857Y-14039905D01*
D15*
X4981213Y-14463213D02*
X4981213Y-14420787D01*
X4938787Y-14420787D01*
X4938787Y-14463213D01*
X4981213Y-14463213D01*
D11*
X5285714Y-14332476D02*
X5304762Y-14332476D01*
X5323810Y-14342000D01*
X5333333Y-14351524D01*
X5342857Y-14370571D01*
X5352381Y-14408667D01*
X5352381Y-14456286D01*
X5342857Y-14494381D01*
X5333333Y-14513428D01*
X5323810Y-14522952D01*
X5304762Y-14532476D01*
X5285714Y-14532476D01*
X5266667Y-14522952D01*
X5257143Y-14513428D01*
X5247619Y-14494381D01*
X5238095Y-14456286D01*
X5238095Y-14408667D01*
X5247619Y-14370571D01*
X5257143Y-14351524D01*
X5266667Y-14342000D01*
X5285714Y-14332476D01*
X5438095Y-14513428D02*
X5447619Y-14522952D01*
X5438095Y-14532476D01*
X5428571Y-14522952D01*
X5438095Y-14513428D01*
X5438095Y-14532476D01*
X5619048Y-14332476D02*
X5580952Y-14332476D01*
X5561905Y-14342000D01*
X5552381Y-14351524D01*
X5533333Y-14380095D01*
X5523810Y-14418190D01*
X5523810Y-14494381D01*
X5533333Y-14513428D01*
X5542857Y-14522952D01*
X5561905Y-14532476D01*
X5600000Y-14532476D01*
X5619048Y-14522952D01*
X5628571Y-14513428D01*
X5638095Y-14494381D01*
X5638095Y-14446762D01*
X5628571Y-14427714D01*
X5619048Y-14418190D01*
X5600000Y-14408667D01*
X5561905Y-14408667D01*
X5542857Y-14418190D01*
X5533333Y-14427714D01*
X5523810Y-14446762D01*
X5761905Y-14332476D02*
X5780952Y-14332476D01*
X5800000Y-14342000D01*
X5809524Y-14351524D01*
X5819048Y-14370571D01*
X5828571Y-14408667D01*
X5828571Y-14456286D01*
X5819048Y-14494381D01*
X5809524Y-14513428D01*
X5800000Y-14522952D01*
X5780952Y-14532476D01*
X5761905Y-14532476D01*
X5742857Y-14522952D01*
X5733333Y-14513428D01*
X5723809Y-14494381D01*
X5714286Y-14456286D01*
X5714286Y-14408667D01*
X5723809Y-14370571D01*
X5733333Y-14351524D01*
X5742857Y-14342000D01*
X5761905Y-14332476D01*
X5952381Y-14332476D02*
X5971428Y-14332476D01*
X5990476Y-14342000D01*
X6000000Y-14351524D01*
X6009524Y-14370571D01*
X6019048Y-14408667D01*
X6019048Y-14456286D01*
X6009524Y-14494381D01*
X6000000Y-14513428D01*
X5990476Y-14522952D01*
X5971428Y-14532476D01*
X5952381Y-14532476D01*
X5933333Y-14522952D01*
X5923809Y-14513428D01*
X5914286Y-14494381D01*
X5904762Y-14456286D01*
X5904762Y-14408667D01*
X5914286Y-14370571D01*
X5923809Y-14351524D01*
X5933333Y-14342000D01*
X5952381Y-14332476D01*
X6104762Y-14532476D02*
X6104762Y-14399143D01*
X6104762Y-14418190D02*
X6114286Y-14408667D01*
X6133333Y-14399143D01*
X6161905Y-14399143D01*
X6180952Y-14408667D01*
X6190476Y-14427714D01*
X6190476Y-14532476D01*
X6190476Y-14427714D02*
X6200000Y-14408667D01*
X6219048Y-14399143D01*
X6247619Y-14399143D01*
X6266667Y-14408667D01*
X6276190Y-14427714D01*
X6276190Y-14532476D01*
X6371428Y-14532476D02*
X6371428Y-14399143D01*
X6371428Y-14418190D02*
X6380952Y-14408667D01*
X6400000Y-14399143D01*
X6428571Y-14399143D01*
X6447619Y-14408667D01*
X6457143Y-14427714D01*
X6457143Y-14532476D01*
X6457143Y-14427714D02*
X6466667Y-14408667D01*
X6485714Y-14399143D01*
X6514286Y-14399143D01*
X6533333Y-14408667D01*
X6542857Y-14427714D01*
X6542857Y-14532476D01*
X6933333Y-14322952D02*
X6761905Y-14580095D01*
X7190476Y-14332476D02*
X7209524Y-14332476D01*
X7228571Y-14342000D01*
X7238095Y-14351524D01*
X7247619Y-14370571D01*
X7257143Y-14408667D01*
X7257143Y-14456286D01*
X7247619Y-14494381D01*
X7238095Y-14513428D01*
X7228571Y-14522952D01*
X7209524Y-14532476D01*
X7190476Y-14532476D01*
X7171428Y-14522952D01*
X7161905Y-14513428D01*
X7152381Y-14494381D01*
X7142857Y-14456286D01*
X7142857Y-14408667D01*
X7152381Y-14370571D01*
X7161905Y-14351524D01*
X7171428Y-14342000D01*
X7190476Y-14332476D01*
X7342857Y-14513428D02*
X7352381Y-14522952D01*
X7342857Y-14532476D01*
X7333333Y-14522952D01*
X7342857Y-14513428D01*
X7342857Y-14532476D01*
X7476190Y-14332476D02*
X7495238Y-14332476D01*
X7514286Y-14342000D01*
X7523809Y-14351524D01*
X7533333Y-14370571D01*
X7542857Y-14408667D01*
X7542857Y-14456286D01*
X7533333Y-14494381D01*
X7523809Y-14513428D01*
X7514286Y-14522952D01*
X7495238Y-14532476D01*
X7476190Y-14532476D01*
X7457143Y-14522952D01*
X7447619Y-14513428D01*
X7438095Y-14494381D01*
X7428571Y-14456286D01*
X7428571Y-14408667D01*
X7438095Y-14370571D01*
X7447619Y-14351524D01*
X7457143Y-14342000D01*
X7476190Y-14332476D01*
X7619048Y-14351524D02*
X7628571Y-14342000D01*
X7647619Y-14332476D01*
X7695238Y-14332476D01*
X7714286Y-14342000D01*
X7723809Y-14351524D01*
X7733333Y-14370571D01*
X7733333Y-14389619D01*
X7723809Y-14418190D01*
X7609524Y-14532476D01*
X7733333Y-14532476D01*
X7800000Y-14332476D02*
X7923809Y-14332476D01*
X7857143Y-14408667D01*
X7885714Y-14408667D01*
X7904762Y-14418190D01*
X7914286Y-14427714D01*
X7923809Y-14446762D01*
X7923809Y-14494381D01*
X7914286Y-14513428D01*
X7904762Y-14522952D01*
X7885714Y-14532476D01*
X7828571Y-14532476D01*
X7809524Y-14522952D01*
X7800000Y-14513428D01*
X8095238Y-14332476D02*
X8057143Y-14332476D01*
X8038095Y-14342000D01*
X8028571Y-14351524D01*
X8009524Y-14380095D01*
X8000000Y-14418190D01*
X8000000Y-14494381D01*
X8009524Y-14513428D01*
X8019048Y-14522952D01*
X8038095Y-14532476D01*
X8076190Y-14532476D01*
X8095238Y-14522952D01*
X8104762Y-14513428D01*
X8114286Y-14494381D01*
X8114286Y-14446762D01*
X8104762Y-14427714D01*
X8095238Y-14418190D01*
X8076190Y-14408667D01*
X8038095Y-14408667D01*
X8019048Y-14418190D01*
X8009524Y-14427714D01*
X8000000Y-14446762D01*
X8190476Y-14332476D02*
X8190476Y-14370571D01*
X8266667Y-14332476D02*
X8266667Y-14370571D01*
X8561905Y-14608667D02*
X8552381Y-14599143D01*
X8533333Y-14570571D01*
X8523810Y-14551524D01*
X8514286Y-14522952D01*
X8504762Y-14475333D01*
X8504762Y-14437238D01*
X8514286Y-14389619D01*
X8523810Y-14361048D01*
X8533333Y-14342000D01*
X8552381Y-14313428D01*
X8561905Y-14303905D01*
X8676190Y-14332476D02*
X8695238Y-14332476D01*
X8714286Y-14342000D01*
X8723810Y-14351524D01*
X8733333Y-14370571D01*
X8742857Y-14408667D01*
X8742857Y-14456286D01*
X8733333Y-14494381D01*
X8723810Y-14513428D01*
X8714286Y-14522952D01*
X8695238Y-14532476D01*
X8676190Y-14532476D01*
X8657143Y-14522952D01*
X8647619Y-14513428D01*
X8638095Y-14494381D01*
X8628571Y-14456286D01*
X8628571Y-14408667D01*
X8638095Y-14370571D01*
X8647619Y-14351524D01*
X8657143Y-14342000D01*
X8676190Y-14332476D01*
X8980952Y-14532476D02*
X8980952Y-14332476D01*
X9066667Y-14532476D02*
X9066667Y-14427714D01*
X9057143Y-14408667D01*
X9038095Y-14399143D01*
X9009524Y-14399143D01*
X8990476Y-14408667D01*
X8980952Y-14418190D01*
X9190476Y-14532476D02*
X9171429Y-14522952D01*
X9161905Y-14513428D01*
X9152381Y-14494381D01*
X9152381Y-14437238D01*
X9161905Y-14418190D01*
X9171429Y-14408667D01*
X9190476Y-14399143D01*
X9219048Y-14399143D01*
X9238095Y-14408667D01*
X9247619Y-14418190D01*
X9257143Y-14437238D01*
X9257143Y-14494381D01*
X9247619Y-14513428D01*
X9238095Y-14522952D01*
X9219048Y-14532476D01*
X9190476Y-14532476D01*
X9371429Y-14532476D02*
X9352381Y-14522952D01*
X9342857Y-14503905D01*
X9342857Y-14332476D01*
X9523810Y-14522952D02*
X9504762Y-14532476D01*
X9466667Y-14532476D01*
X9447619Y-14522952D01*
X9438095Y-14503905D01*
X9438095Y-14427714D01*
X9447619Y-14408667D01*
X9466667Y-14399143D01*
X9504762Y-14399143D01*
X9523810Y-14408667D01*
X9533333Y-14427714D01*
X9533333Y-14446762D01*
X9438095Y-14465809D01*
X9609524Y-14522952D02*
X9628571Y-14532476D01*
X9666667Y-14532476D01*
X9685714Y-14522952D01*
X9695238Y-14503905D01*
X9695238Y-14494381D01*
X9685714Y-14475333D01*
X9666667Y-14465809D01*
X9638095Y-14465809D01*
X9619048Y-14456286D01*
X9609524Y-14437238D01*
X9609524Y-14427714D01*
X9619048Y-14408667D01*
X9638095Y-14399143D01*
X9666667Y-14399143D01*
X9685714Y-14408667D01*
X9933333Y-14456286D02*
X10085714Y-14456286D01*
X10009524Y-14532476D02*
X10009524Y-14380095D01*
X10419048Y-14399143D02*
X10419048Y-14532476D01*
X10371429Y-14322952D02*
X10323810Y-14465809D01*
X10447619Y-14465809D01*
X10666667Y-14522952D02*
X10685714Y-14532476D01*
X10723810Y-14532476D01*
X10742857Y-14522952D01*
X10752381Y-14503905D01*
X10752381Y-14494381D01*
X10742857Y-14475333D01*
X10723810Y-14465809D01*
X10695238Y-14465809D01*
X10676190Y-14456286D01*
X10666667Y-14437238D01*
X10666667Y-14427714D01*
X10676190Y-14408667D01*
X10695238Y-14399143D01*
X10723810Y-14399143D01*
X10742857Y-14408667D01*
X10866667Y-14532476D02*
X10847619Y-14522952D01*
X10838095Y-14503905D01*
X10838095Y-14332476D01*
X10971429Y-14532476D02*
X10952381Y-14522952D01*
X10942857Y-14513428D01*
X10933333Y-14494381D01*
X10933333Y-14437238D01*
X10942857Y-14418190D01*
X10952381Y-14408667D01*
X10971429Y-14399143D01*
X11000000Y-14399143D01*
X11019048Y-14408667D01*
X11028571Y-14418190D01*
X11038095Y-14437238D01*
X11038095Y-14494381D01*
X11028571Y-14513428D01*
X11019048Y-14522952D01*
X11000000Y-14532476D01*
X10971429Y-14532476D01*
X11095238Y-14399143D02*
X11171429Y-14399143D01*
X11123810Y-14332476D02*
X11123810Y-14503905D01*
X11133333Y-14522952D01*
X11152381Y-14532476D01*
X11171429Y-14532476D01*
X11228571Y-14522952D02*
X11247619Y-14532476D01*
X11285714Y-14532476D01*
X11304762Y-14522952D01*
X11314286Y-14503905D01*
X11314286Y-14494381D01*
X11304762Y-14475333D01*
X11285714Y-14465809D01*
X11257143Y-14465809D01*
X11238095Y-14456286D01*
X11228571Y-14437238D01*
X11228571Y-14427714D01*
X11238095Y-14408667D01*
X11257143Y-14399143D01*
X11285714Y-14399143D01*
X11304762Y-14408667D01*
X11380952Y-14608667D02*
X11390476Y-14599143D01*
X11409524Y-14570571D01*
X11419048Y-14551524D01*
X11428571Y-14522952D01*
X11438095Y-14475333D01*
X11438095Y-14437238D01*
X11428571Y-14389619D01*
X11419048Y-14361048D01*
X11409524Y-14342000D01*
X11390476Y-14313428D01*
X11380952Y-14303905D01*
D16*
X4957500Y-14738500D02*
X4990000Y-14706000D01*
X4957500Y-14673500D01*
X4925000Y-14706000D01*
X4957500Y-14738500D01*
D11*
X5285714Y-14596476D02*
X5304762Y-14596476D01*
X5323810Y-14606000D01*
X5333333Y-14615524D01*
X5342857Y-14634571D01*
X5352381Y-14672667D01*
X5352381Y-14720286D01*
X5342857Y-14758381D01*
X5333333Y-14777428D01*
X5323810Y-14786952D01*
X5304762Y-14796476D01*
X5285714Y-14796476D01*
X5266667Y-14786952D01*
X5257143Y-14777428D01*
X5247619Y-14758381D01*
X5238095Y-14720286D01*
X5238095Y-14672667D01*
X5247619Y-14634571D01*
X5257143Y-14615524D01*
X5266667Y-14606000D01*
X5285714Y-14596476D01*
X5438095Y-14777428D02*
X5447619Y-14786952D01*
X5438095Y-14796476D01*
X5428571Y-14786952D01*
X5438095Y-14777428D01*
X5438095Y-14796476D01*
X5619048Y-14596476D02*
X5580952Y-14596476D01*
X5561905Y-14606000D01*
X5552381Y-14615524D01*
X5533333Y-14644095D01*
X5523810Y-14682190D01*
X5523810Y-14758381D01*
X5533333Y-14777428D01*
X5542857Y-14786952D01*
X5561905Y-14796476D01*
X5600000Y-14796476D01*
X5619048Y-14786952D01*
X5628571Y-14777428D01*
X5638095Y-14758381D01*
X5638095Y-14710762D01*
X5628571Y-14691714D01*
X5619048Y-14682190D01*
X5600000Y-14672667D01*
X5561905Y-14672667D01*
X5542857Y-14682190D01*
X5533333Y-14691714D01*
X5523810Y-14710762D01*
X5819048Y-14596476D02*
X5723809Y-14596476D01*
X5714286Y-14691714D01*
X5723809Y-14682190D01*
X5742857Y-14672667D01*
X5790476Y-14672667D01*
X5809524Y-14682190D01*
X5819048Y-14691714D01*
X5828571Y-14710762D01*
X5828571Y-14758381D01*
X5819048Y-14777428D01*
X5809524Y-14786952D01*
X5790476Y-14796476D01*
X5742857Y-14796476D01*
X5723809Y-14786952D01*
X5714286Y-14777428D01*
X5952381Y-14596476D02*
X5971428Y-14596476D01*
X5990476Y-14606000D01*
X6000000Y-14615524D01*
X6009524Y-14634571D01*
X6019048Y-14672667D01*
X6019048Y-14720286D01*
X6009524Y-14758381D01*
X6000000Y-14777428D01*
X5990476Y-14786952D01*
X5971428Y-14796476D01*
X5952381Y-14796476D01*
X5933333Y-14786952D01*
X5923809Y-14777428D01*
X5914286Y-14758381D01*
X5904762Y-14720286D01*
X5904762Y-14672667D01*
X5914286Y-14634571D01*
X5923809Y-14615524D01*
X5933333Y-14606000D01*
X5952381Y-14596476D01*
X6104762Y-14796476D02*
X6104762Y-14663143D01*
X6104762Y-14682190D02*
X6114286Y-14672667D01*
X6133333Y-14663143D01*
X6161905Y-14663143D01*
X6180952Y-14672667D01*
X6190476Y-14691714D01*
X6190476Y-14796476D01*
X6190476Y-14691714D02*
X6200000Y-14672667D01*
X6219048Y-14663143D01*
X6247619Y-14663143D01*
X6266667Y-14672667D01*
X6276190Y-14691714D01*
X6276190Y-14796476D01*
X6371428Y-14796476D02*
X6371428Y-14663143D01*
X6371428Y-14682190D02*
X6380952Y-14672667D01*
X6400000Y-14663143D01*
X6428571Y-14663143D01*
X6447619Y-14672667D01*
X6457143Y-14691714D01*
X6457143Y-14796476D01*
X6457143Y-14691714D02*
X6466667Y-14672667D01*
X6485714Y-14663143D01*
X6514286Y-14663143D01*
X6533333Y-14672667D01*
X6542857Y-14691714D01*
X6542857Y-14796476D01*
X6933333Y-14586952D02*
X6761905Y-14844095D01*
X7190476Y-14596476D02*
X7209524Y-14596476D01*
X7228571Y-14606000D01*
X7238095Y-14615524D01*
X7247619Y-14634571D01*
X7257143Y-14672667D01*
X7257143Y-14720286D01*
X7247619Y-14758381D01*
X7238095Y-14777428D01*
X7228571Y-14786952D01*
X7209524Y-14796476D01*
X7190476Y-14796476D01*
X7171428Y-14786952D01*
X7161905Y-14777428D01*
X7152381Y-14758381D01*
X7142857Y-14720286D01*
X7142857Y-14672667D01*
X7152381Y-14634571D01*
X7161905Y-14615524D01*
X7171428Y-14606000D01*
X7190476Y-14596476D01*
X7342857Y-14777428D02*
X7352381Y-14786952D01*
X7342857Y-14796476D01*
X7333333Y-14786952D01*
X7342857Y-14777428D01*
X7342857Y-14796476D01*
X7476190Y-14596476D02*
X7495238Y-14596476D01*
X7514286Y-14606000D01*
X7523809Y-14615524D01*
X7533333Y-14634571D01*
X7542857Y-14672667D01*
X7542857Y-14720286D01*
X7533333Y-14758381D01*
X7523809Y-14777428D01*
X7514286Y-14786952D01*
X7495238Y-14796476D01*
X7476190Y-14796476D01*
X7457143Y-14786952D01*
X7447619Y-14777428D01*
X7438095Y-14758381D01*
X7428571Y-14720286D01*
X7428571Y-14672667D01*
X7438095Y-14634571D01*
X7447619Y-14615524D01*
X7457143Y-14606000D01*
X7476190Y-14596476D01*
X7619048Y-14615524D02*
X7628571Y-14606000D01*
X7647619Y-14596476D01*
X7695238Y-14596476D01*
X7714286Y-14606000D01*
X7723809Y-14615524D01*
X7733333Y-14634571D01*
X7733333Y-14653619D01*
X7723809Y-14682190D01*
X7609524Y-14796476D01*
X7733333Y-14796476D01*
X7914286Y-14596476D02*
X7819048Y-14596476D01*
X7809524Y-14691714D01*
X7819048Y-14682190D01*
X7838095Y-14672667D01*
X7885714Y-14672667D01*
X7904762Y-14682190D01*
X7914286Y-14691714D01*
X7923809Y-14710762D01*
X7923809Y-14758381D01*
X7914286Y-14777428D01*
X7904762Y-14786952D01*
X7885714Y-14796476D01*
X7838095Y-14796476D01*
X7819048Y-14786952D01*
X7809524Y-14777428D01*
X8095238Y-14596476D02*
X8057143Y-14596476D01*
X8038095Y-14606000D01*
X8028571Y-14615524D01*
X8009524Y-14644095D01*
X8000000Y-14682190D01*
X8000000Y-14758381D01*
X8009524Y-14777428D01*
X8019048Y-14786952D01*
X8038095Y-14796476D01*
X8076190Y-14796476D01*
X8095238Y-14786952D01*
X8104762Y-14777428D01*
X8114286Y-14758381D01*
X8114286Y-14710762D01*
X8104762Y-14691714D01*
X8095238Y-14682190D01*
X8076190Y-14672667D01*
X8038095Y-14672667D01*
X8019048Y-14682190D01*
X8009524Y-14691714D01*
X8000000Y-14710762D01*
X8190476Y-14596476D02*
X8190476Y-14634571D01*
X8266667Y-14596476D02*
X8266667Y-14634571D01*
X8561905Y-14872667D02*
X8552381Y-14863143D01*
X8533333Y-14834571D01*
X8523810Y-14815524D01*
X8514286Y-14786952D01*
X8504762Y-14739333D01*
X8504762Y-14701238D01*
X8514286Y-14653619D01*
X8523810Y-14625048D01*
X8533333Y-14606000D01*
X8552381Y-14577428D01*
X8561905Y-14567905D01*
X8742857Y-14796476D02*
X8628571Y-14796476D01*
X8685714Y-14796476D02*
X8685714Y-14596476D01*
X8666667Y-14625048D01*
X8647619Y-14644095D01*
X8628571Y-14653619D01*
X8866667Y-14596476D02*
X8885714Y-14596476D01*
X8904762Y-14606000D01*
X8914286Y-14615524D01*
X8923810Y-14634571D01*
X8933333Y-14672667D01*
X8933333Y-14720286D01*
X8923810Y-14758381D01*
X8914286Y-14777428D01*
X8904762Y-14786952D01*
X8885714Y-14796476D01*
X8866667Y-14796476D01*
X8847619Y-14786952D01*
X8838095Y-14777428D01*
X8828571Y-14758381D01*
X8819048Y-14720286D01*
X8819048Y-14672667D01*
X8828571Y-14634571D01*
X8838095Y-14615524D01*
X8847619Y-14606000D01*
X8866667Y-14596476D01*
X9171429Y-14796476D02*
X9171429Y-14596476D01*
X9257143Y-14796476D02*
X9257143Y-14691714D01*
X9247619Y-14672667D01*
X9228571Y-14663143D01*
X9200000Y-14663143D01*
X9180952Y-14672667D01*
X9171429Y-14682190D01*
X9380952Y-14796476D02*
X9361905Y-14786952D01*
X9352381Y-14777428D01*
X9342857Y-14758381D01*
X9342857Y-14701238D01*
X9352381Y-14682190D01*
X9361905Y-14672667D01*
X9380952Y-14663143D01*
X9409524Y-14663143D01*
X9428571Y-14672667D01*
X9438095Y-14682190D01*
X9447619Y-14701238D01*
X9447619Y-14758381D01*
X9438095Y-14777428D01*
X9428571Y-14786952D01*
X9409524Y-14796476D01*
X9380952Y-14796476D01*
X9561905Y-14796476D02*
X9542857Y-14786952D01*
X9533333Y-14767905D01*
X9533333Y-14596476D01*
X9714286Y-14786952D02*
X9695238Y-14796476D01*
X9657143Y-14796476D01*
X9638095Y-14786952D01*
X9628571Y-14767905D01*
X9628571Y-14691714D01*
X9638095Y-14672667D01*
X9657143Y-14663143D01*
X9695238Y-14663143D01*
X9714286Y-14672667D01*
X9723810Y-14691714D01*
X9723810Y-14710762D01*
X9628571Y-14729809D01*
X9800000Y-14786952D02*
X9819048Y-14796476D01*
X9857143Y-14796476D01*
X9876190Y-14786952D01*
X9885714Y-14767905D01*
X9885714Y-14758381D01*
X9876190Y-14739333D01*
X9857143Y-14729809D01*
X9828571Y-14729809D01*
X9809524Y-14720286D01*
X9800000Y-14701238D01*
X9800000Y-14691714D01*
X9809524Y-14672667D01*
X9828571Y-14663143D01*
X9857143Y-14663143D01*
X9876190Y-14672667D01*
X9952381Y-14872667D02*
X9961905Y-14863143D01*
X9980952Y-14834571D01*
X9990476Y-14815524D01*
X10000000Y-14786952D01*
X10009524Y-14739333D01*
X10009524Y-14701238D01*
X10000000Y-14653619D01*
X9990476Y-14625048D01*
X9980952Y-14606000D01*
X9961905Y-14577428D01*
X9952381Y-14567905D01*
D17*
X4900000Y-14925000D02*
X4990000Y-15015000D01*
X4990000Y-14925000D02*
X4900000Y-15015000D01*
X4990000Y-14970000D02*
G75*
G03*
X4990000Y-14970000I-45000J0D01*
G01*
D11*
X5285714Y-14860476D02*
X5304762Y-14860476D01*
X5323810Y-14870000D01*
X5333333Y-14879524D01*
X5342857Y-14898571D01*
X5352381Y-14936667D01*
X5352381Y-14984286D01*
X5342857Y-15022381D01*
X5333333Y-15041428D01*
X5323810Y-15050952D01*
X5304762Y-15060476D01*
X5285714Y-15060476D01*
X5266667Y-15050952D01*
X5257143Y-15041428D01*
X5247619Y-15022381D01*
X5238095Y-14984286D01*
X5238095Y-14936667D01*
X5247619Y-14898571D01*
X5257143Y-14879524D01*
X5266667Y-14870000D01*
X5285714Y-14860476D01*
X5438095Y-15041428D02*
X5447619Y-15050952D01*
X5438095Y-15060476D01*
X5428571Y-15050952D01*
X5438095Y-15041428D01*
X5438095Y-15060476D01*
X5542857Y-15060476D02*
X5580952Y-15060476D01*
X5600000Y-15050952D01*
X5609524Y-15041428D01*
X5628571Y-15012857D01*
X5638095Y-14974762D01*
X5638095Y-14898571D01*
X5628571Y-14879524D01*
X5619048Y-14870000D01*
X5600000Y-14860476D01*
X5561905Y-14860476D01*
X5542857Y-14870000D01*
X5533333Y-14879524D01*
X5523810Y-14898571D01*
X5523810Y-14946190D01*
X5533333Y-14965238D01*
X5542857Y-14974762D01*
X5561905Y-14984286D01*
X5600000Y-14984286D01*
X5619048Y-14974762D01*
X5628571Y-14965238D01*
X5638095Y-14946190D01*
X5761905Y-14860476D02*
X5780952Y-14860476D01*
X5800000Y-14870000D01*
X5809524Y-14879524D01*
X5819048Y-14898571D01*
X5828571Y-14936667D01*
X5828571Y-14984286D01*
X5819048Y-15022381D01*
X5809524Y-15041428D01*
X5800000Y-15050952D01*
X5780952Y-15060476D01*
X5761905Y-15060476D01*
X5742857Y-15050952D01*
X5733333Y-15041428D01*
X5723809Y-15022381D01*
X5714286Y-14984286D01*
X5714286Y-14936667D01*
X5723809Y-14898571D01*
X5733333Y-14879524D01*
X5742857Y-14870000D01*
X5761905Y-14860476D01*
X5952381Y-14860476D02*
X5971428Y-14860476D01*
X5990476Y-14870000D01*
X6000000Y-14879524D01*
X6009524Y-14898571D01*
X6019048Y-14936667D01*
X6019048Y-14984286D01*
X6009524Y-15022381D01*
X6000000Y-15041428D01*
X5990476Y-15050952D01*
X5971428Y-15060476D01*
X5952381Y-15060476D01*
X5933333Y-15050952D01*
X5923809Y-15041428D01*
X5914286Y-15022381D01*
X5904762Y-14984286D01*
X5904762Y-14936667D01*
X5914286Y-14898571D01*
X5923809Y-14879524D01*
X5933333Y-14870000D01*
X5952381Y-14860476D01*
X6104762Y-15060476D02*
X6104762Y-14927143D01*
X6104762Y-14946190D02*
X6114286Y-14936667D01*
X6133333Y-14927143D01*
X6161905Y-14927143D01*
X6180952Y-14936667D01*
X6190476Y-14955714D01*
X6190476Y-15060476D01*
X6190476Y-14955714D02*
X6200000Y-14936667D01*
X6219048Y-14927143D01*
X6247619Y-14927143D01*
X6266667Y-14936667D01*
X6276190Y-14955714D01*
X6276190Y-15060476D01*
X6371428Y-15060476D02*
X6371428Y-14927143D01*
X6371428Y-14946190D02*
X6380952Y-14936667D01*
X6400000Y-14927143D01*
X6428571Y-14927143D01*
X6447619Y-14936667D01*
X6457143Y-14955714D01*
X6457143Y-15060476D01*
X6457143Y-14955714D02*
X6466667Y-14936667D01*
X6485714Y-14927143D01*
X6514286Y-14927143D01*
X6533333Y-14936667D01*
X6542857Y-14955714D01*
X6542857Y-15060476D01*
X6933333Y-14850952D02*
X6761905Y-15108095D01*
X7190476Y-14860476D02*
X7209524Y-14860476D01*
X7228571Y-14870000D01*
X7238095Y-14879524D01*
X7247619Y-14898571D01*
X7257143Y-14936667D01*
X7257143Y-14984286D01*
X7247619Y-15022381D01*
X7238095Y-15041428D01*
X7228571Y-15050952D01*
X7209524Y-15060476D01*
X7190476Y-15060476D01*
X7171428Y-15050952D01*
X7161905Y-15041428D01*
X7152381Y-15022381D01*
X7142857Y-14984286D01*
X7142857Y-14936667D01*
X7152381Y-14898571D01*
X7161905Y-14879524D01*
X7171428Y-14870000D01*
X7190476Y-14860476D01*
X7342857Y-15041428D02*
X7352381Y-15050952D01*
X7342857Y-15060476D01*
X7333333Y-15050952D01*
X7342857Y-15041428D01*
X7342857Y-15060476D01*
X7476190Y-14860476D02*
X7495238Y-14860476D01*
X7514286Y-14870000D01*
X7523809Y-14879524D01*
X7533333Y-14898571D01*
X7542857Y-14936667D01*
X7542857Y-14984286D01*
X7533333Y-15022381D01*
X7523809Y-15041428D01*
X7514286Y-15050952D01*
X7495238Y-15060476D01*
X7476190Y-15060476D01*
X7457143Y-15050952D01*
X7447619Y-15041428D01*
X7438095Y-15022381D01*
X7428571Y-14984286D01*
X7428571Y-14936667D01*
X7438095Y-14898571D01*
X7447619Y-14879524D01*
X7457143Y-14870000D01*
X7476190Y-14860476D01*
X7609524Y-14860476D02*
X7733333Y-14860476D01*
X7666667Y-14936667D01*
X7695238Y-14936667D01*
X7714286Y-14946190D01*
X7723809Y-14955714D01*
X7733333Y-14974762D01*
X7733333Y-15022381D01*
X7723809Y-15041428D01*
X7714286Y-15050952D01*
X7695238Y-15060476D01*
X7638095Y-15060476D01*
X7619048Y-15050952D01*
X7609524Y-15041428D01*
X7914286Y-14860476D02*
X7819048Y-14860476D01*
X7809524Y-14955714D01*
X7819048Y-14946190D01*
X7838095Y-14936667D01*
X7885714Y-14936667D01*
X7904762Y-14946190D01*
X7914286Y-14955714D01*
X7923809Y-14974762D01*
X7923809Y-15022381D01*
X7914286Y-15041428D01*
X7904762Y-15050952D01*
X7885714Y-15060476D01*
X7838095Y-15060476D01*
X7819048Y-15050952D01*
X7809524Y-15041428D01*
X8095238Y-14927143D02*
X8095238Y-15060476D01*
X8047619Y-14850952D02*
X8000000Y-14993809D01*
X8123809Y-14993809D01*
X8190476Y-14860476D02*
X8190476Y-14898571D01*
X8266667Y-14860476D02*
X8266667Y-14898571D01*
X8561905Y-15136667D02*
X8552381Y-15127143D01*
X8533333Y-15098571D01*
X8523810Y-15079524D01*
X8514286Y-15050952D01*
X8504762Y-15003333D01*
X8504762Y-14965238D01*
X8514286Y-14917619D01*
X8523810Y-14889048D01*
X8533333Y-14870000D01*
X8552381Y-14841428D01*
X8561905Y-14831905D01*
X8723810Y-14927143D02*
X8723810Y-15060476D01*
X8676190Y-14850952D02*
X8628571Y-14993809D01*
X8752381Y-14993809D01*
X8980952Y-15060476D02*
X8980952Y-14860476D01*
X9066667Y-15060476D02*
X9066667Y-14955714D01*
X9057143Y-14936667D01*
X9038095Y-14927143D01*
X9009524Y-14927143D01*
X8990476Y-14936667D01*
X8980952Y-14946190D01*
X9190476Y-15060476D02*
X9171429Y-15050952D01*
X9161905Y-15041428D01*
X9152381Y-15022381D01*
X9152381Y-14965238D01*
X9161905Y-14946190D01*
X9171429Y-14936667D01*
X9190476Y-14927143D01*
X9219048Y-14927143D01*
X9238095Y-14936667D01*
X9247619Y-14946190D01*
X9257143Y-14965238D01*
X9257143Y-15022381D01*
X9247619Y-15041428D01*
X9238095Y-15050952D01*
X9219048Y-15060476D01*
X9190476Y-15060476D01*
X9371429Y-15060476D02*
X9352381Y-15050952D01*
X9342857Y-15031905D01*
X9342857Y-14860476D01*
X9523810Y-15050952D02*
X9504762Y-15060476D01*
X9466667Y-15060476D01*
X9447619Y-15050952D01*
X9438095Y-15031905D01*
X9438095Y-14955714D01*
X9447619Y-14936667D01*
X9466667Y-14927143D01*
X9504762Y-14927143D01*
X9523810Y-14936667D01*
X9533333Y-14955714D01*
X9533333Y-14974762D01*
X9438095Y-14993809D01*
X9609524Y-15050952D02*
X9628571Y-15060476D01*
X9666667Y-15060476D01*
X9685714Y-15050952D01*
X9695238Y-15031905D01*
X9695238Y-15022381D01*
X9685714Y-15003333D01*
X9666667Y-14993809D01*
X9638095Y-14993809D01*
X9619048Y-14984286D01*
X9609524Y-14965238D01*
X9609524Y-14955714D01*
X9619048Y-14936667D01*
X9638095Y-14927143D01*
X9666667Y-14927143D01*
X9685714Y-14936667D01*
X9761905Y-15136667D02*
X9771429Y-15127143D01*
X9790476Y-15098571D01*
X9800000Y-15079524D01*
X9809524Y-15050952D01*
X9819048Y-15003333D01*
X9819048Y-14965238D01*
X9809524Y-14917619D01*
X9800000Y-14889048D01*
X9790476Y-14870000D01*
X9771429Y-14841428D01*
X9761905Y-14831905D01*
D18*
X4890000Y-15184000D02*
X4990000Y-15284000D01*
X4990000Y-15184000D02*
X4890000Y-15284000D01*
X4940000Y-15184000D02*
X4940000Y-15284000D01*
X4890000Y-15234000D02*
X4990000Y-15234000D01*
D11*
X5352381Y-15324476D02*
X5238095Y-15324476D01*
X5295238Y-15324476D02*
X5295238Y-15124476D01*
X5276190Y-15153048D01*
X5257143Y-15172095D01*
X5238095Y-15181619D01*
X5438095Y-15305428D02*
X5447619Y-15314952D01*
X5438095Y-15324476D01*
X5428571Y-15314952D01*
X5438095Y-15305428D01*
X5438095Y-15324476D01*
X5571429Y-15124476D02*
X5590476Y-15124476D01*
X5609524Y-15134000D01*
X5619048Y-15143524D01*
X5628571Y-15162571D01*
X5638095Y-15200667D01*
X5638095Y-15248286D01*
X5628571Y-15286381D01*
X5619048Y-15305428D01*
X5609524Y-15314952D01*
X5590476Y-15324476D01*
X5571429Y-15324476D01*
X5552381Y-15314952D01*
X5542857Y-15305428D01*
X5533333Y-15286381D01*
X5523810Y-15248286D01*
X5523810Y-15200667D01*
X5533333Y-15162571D01*
X5542857Y-15143524D01*
X5552381Y-15134000D01*
X5571429Y-15124476D01*
X5761905Y-15124476D02*
X5780952Y-15124476D01*
X5800000Y-15134000D01*
X5809524Y-15143524D01*
X5819048Y-15162571D01*
X5828571Y-15200667D01*
X5828571Y-15248286D01*
X5819048Y-15286381D01*
X5809524Y-15305428D01*
X5800000Y-15314952D01*
X5780952Y-15324476D01*
X5761905Y-15324476D01*
X5742857Y-15314952D01*
X5733333Y-15305428D01*
X5723809Y-15286381D01*
X5714286Y-15248286D01*
X5714286Y-15200667D01*
X5723809Y-15162571D01*
X5733333Y-15143524D01*
X5742857Y-15134000D01*
X5761905Y-15124476D01*
X5952381Y-15124476D02*
X5971428Y-15124476D01*
X5990476Y-15134000D01*
X6000000Y-15143524D01*
X6009524Y-15162571D01*
X6019048Y-15200667D01*
X6019048Y-15248286D01*
X6009524Y-15286381D01*
X6000000Y-15305428D01*
X5990476Y-15314952D01*
X5971428Y-15324476D01*
X5952381Y-15324476D01*
X5933333Y-15314952D01*
X5923809Y-15305428D01*
X5914286Y-15286381D01*
X5904762Y-15248286D01*
X5904762Y-15200667D01*
X5914286Y-15162571D01*
X5923809Y-15143524D01*
X5933333Y-15134000D01*
X5952381Y-15124476D01*
X6104762Y-15324476D02*
X6104762Y-15191143D01*
X6104762Y-15210190D02*
X6114286Y-15200667D01*
X6133333Y-15191143D01*
X6161905Y-15191143D01*
X6180952Y-15200667D01*
X6190476Y-15219714D01*
X6190476Y-15324476D01*
X6190476Y-15219714D02*
X6200000Y-15200667D01*
X6219048Y-15191143D01*
X6247619Y-15191143D01*
X6266667Y-15200667D01*
X6276190Y-15219714D01*
X6276190Y-15324476D01*
X6371428Y-15324476D02*
X6371428Y-15191143D01*
X6371428Y-15210190D02*
X6380952Y-15200667D01*
X6400000Y-15191143D01*
X6428571Y-15191143D01*
X6447619Y-15200667D01*
X6457143Y-15219714D01*
X6457143Y-15324476D01*
X6457143Y-15219714D02*
X6466667Y-15200667D01*
X6485714Y-15191143D01*
X6514286Y-15191143D01*
X6533333Y-15200667D01*
X6542857Y-15219714D01*
X6542857Y-15324476D01*
X6933333Y-15114952D02*
X6761905Y-15372095D01*
X7190476Y-15124476D02*
X7209524Y-15124476D01*
X7228571Y-15134000D01*
X7238095Y-15143524D01*
X7247619Y-15162571D01*
X7257143Y-15200667D01*
X7257143Y-15248286D01*
X7247619Y-15286381D01*
X7238095Y-15305428D01*
X7228571Y-15314952D01*
X7209524Y-15324476D01*
X7190476Y-15324476D01*
X7171428Y-15314952D01*
X7161905Y-15305428D01*
X7152381Y-15286381D01*
X7142857Y-15248286D01*
X7142857Y-15200667D01*
X7152381Y-15162571D01*
X7161905Y-15143524D01*
X7171428Y-15134000D01*
X7190476Y-15124476D01*
X7342857Y-15305428D02*
X7352381Y-15314952D01*
X7342857Y-15324476D01*
X7333333Y-15314952D01*
X7342857Y-15305428D01*
X7342857Y-15324476D01*
X7476190Y-15124476D02*
X7495238Y-15124476D01*
X7514286Y-15134000D01*
X7523809Y-15143524D01*
X7533333Y-15162571D01*
X7542857Y-15200667D01*
X7542857Y-15248286D01*
X7533333Y-15286381D01*
X7523809Y-15305428D01*
X7514286Y-15314952D01*
X7495238Y-15324476D01*
X7476190Y-15324476D01*
X7457143Y-15314952D01*
X7447619Y-15305428D01*
X7438095Y-15286381D01*
X7428571Y-15248286D01*
X7428571Y-15200667D01*
X7438095Y-15162571D01*
X7447619Y-15143524D01*
X7457143Y-15134000D01*
X7476190Y-15124476D01*
X7609524Y-15124476D02*
X7733333Y-15124476D01*
X7666667Y-15200667D01*
X7695238Y-15200667D01*
X7714286Y-15210190D01*
X7723809Y-15219714D01*
X7733333Y-15238762D01*
X7733333Y-15286381D01*
X7723809Y-15305428D01*
X7714286Y-15314952D01*
X7695238Y-15324476D01*
X7638095Y-15324476D01*
X7619048Y-15314952D01*
X7609524Y-15305428D01*
X7828571Y-15324476D02*
X7866667Y-15324476D01*
X7885714Y-15314952D01*
X7895238Y-15305428D01*
X7914286Y-15276857D01*
X7923809Y-15238762D01*
X7923809Y-15162571D01*
X7914286Y-15143524D01*
X7904762Y-15134000D01*
X7885714Y-15124476D01*
X7847619Y-15124476D01*
X7828571Y-15134000D01*
X7819048Y-15143524D01*
X7809524Y-15162571D01*
X7809524Y-15210190D01*
X7819048Y-15229238D01*
X7828571Y-15238762D01*
X7847619Y-15248286D01*
X7885714Y-15248286D01*
X7904762Y-15238762D01*
X7914286Y-15229238D01*
X7923809Y-15210190D01*
X8095238Y-15191143D02*
X8095238Y-15324476D01*
X8047619Y-15114952D02*
X8000000Y-15257809D01*
X8123809Y-15257809D01*
X8190476Y-15124476D02*
X8190476Y-15162571D01*
X8266667Y-15124476D02*
X8266667Y-15162571D01*
X8561905Y-15400667D02*
X8552381Y-15391143D01*
X8533333Y-15362571D01*
X8523810Y-15343524D01*
X8514286Y-15314952D01*
X8504762Y-15267333D01*
X8504762Y-15229238D01*
X8514286Y-15181619D01*
X8523810Y-15153048D01*
X8533333Y-15134000D01*
X8552381Y-15105428D01*
X8561905Y-15095905D01*
X8742857Y-15324476D02*
X8628571Y-15324476D01*
X8685714Y-15324476D02*
X8685714Y-15124476D01*
X8666667Y-15153048D01*
X8647619Y-15172095D01*
X8628571Y-15181619D01*
X8819048Y-15143524D02*
X8828571Y-15134000D01*
X8847619Y-15124476D01*
X8895238Y-15124476D01*
X8914286Y-15134000D01*
X8923810Y-15143524D01*
X8933333Y-15162571D01*
X8933333Y-15181619D01*
X8923810Y-15210190D01*
X8809524Y-15324476D01*
X8933333Y-15324476D01*
X9171429Y-15324476D02*
X9171429Y-15124476D01*
X9257143Y-15324476D02*
X9257143Y-15219714D01*
X9247619Y-15200667D01*
X9228571Y-15191143D01*
X9200000Y-15191143D01*
X9180952Y-15200667D01*
X9171429Y-15210190D01*
X9380952Y-15324476D02*
X9361905Y-15314952D01*
X9352381Y-15305428D01*
X9342857Y-15286381D01*
X9342857Y-15229238D01*
X9352381Y-15210190D01*
X9361905Y-15200667D01*
X9380952Y-15191143D01*
X9409524Y-15191143D01*
X9428571Y-15200667D01*
X9438095Y-15210190D01*
X9447619Y-15229238D01*
X9447619Y-15286381D01*
X9438095Y-15305428D01*
X9428571Y-15314952D01*
X9409524Y-15324476D01*
X9380952Y-15324476D01*
X9561905Y-15324476D02*
X9542857Y-15314952D01*
X9533333Y-15295905D01*
X9533333Y-15124476D01*
X9714286Y-15314952D02*
X9695238Y-15324476D01*
X9657143Y-15324476D01*
X9638095Y-15314952D01*
X9628571Y-15295905D01*
X9628571Y-15219714D01*
X9638095Y-15200667D01*
X9657143Y-15191143D01*
X9695238Y-15191143D01*
X9714286Y-15200667D01*
X9723810Y-15219714D01*
X9723810Y-15238762D01*
X9628571Y-15257809D01*
X9800000Y-15314952D02*
X9819048Y-15324476D01*
X9857143Y-15324476D01*
X9876190Y-15314952D01*
X9885714Y-15295905D01*
X9885714Y-15286381D01*
X9876190Y-15267333D01*
X9857143Y-15257809D01*
X9828571Y-15257809D01*
X9809524Y-15248286D01*
X9800000Y-15229238D01*
X9800000Y-15219714D01*
X9809524Y-15200667D01*
X9828571Y-15191143D01*
X9857143Y-15191143D01*
X9876190Y-15200667D01*
X9952381Y-15400667D02*
X9961905Y-15391143D01*
X9980952Y-15362571D01*
X9990476Y-15343524D01*
X10000000Y-15314952D01*
X10009524Y-15267333D01*
X10009524Y-15229238D01*
X10000000Y-15181619D01*
X9990476Y-15153048D01*
X9980952Y-15134000D01*
X9961905Y-15105428D01*
X9952381Y-15095905D01*
D19*
X4880000Y-15443000D02*
X4990000Y-15553000D01*
X4990000Y-15443000D02*
X4880000Y-15553000D01*
X4973891Y-15536891D02*
X4973891Y-15459109D01*
X4896109Y-15459109D01*
X4896109Y-15536891D01*
X4973891Y-15536891D01*
D11*
X5352381Y-15588476D02*
X5238095Y-15588476D01*
X5295238Y-15588476D02*
X5295238Y-15388476D01*
X5276190Y-15417048D01*
X5257143Y-15436095D01*
X5238095Y-15445619D01*
X5438095Y-15569428D02*
X5447619Y-15578952D01*
X5438095Y-15588476D01*
X5428571Y-15578952D01*
X5438095Y-15569428D01*
X5438095Y-15588476D01*
X5638095Y-15588476D02*
X5523810Y-15588476D01*
X5580952Y-15588476D02*
X5580952Y-15388476D01*
X5561905Y-15417048D01*
X5542857Y-15436095D01*
X5523810Y-15445619D01*
X5761905Y-15388476D02*
X5780952Y-15388476D01*
X5800000Y-15398000D01*
X5809524Y-15407524D01*
X5819048Y-15426571D01*
X5828571Y-15464667D01*
X5828571Y-15512286D01*
X5819048Y-15550381D01*
X5809524Y-15569428D01*
X5800000Y-15578952D01*
X5780952Y-15588476D01*
X5761905Y-15588476D01*
X5742857Y-15578952D01*
X5733333Y-15569428D01*
X5723809Y-15550381D01*
X5714286Y-15512286D01*
X5714286Y-15464667D01*
X5723809Y-15426571D01*
X5733333Y-15407524D01*
X5742857Y-15398000D01*
X5761905Y-15388476D01*
X5952381Y-15388476D02*
X5971428Y-15388476D01*
X5990476Y-15398000D01*
X6000000Y-15407524D01*
X6009524Y-15426571D01*
X6019048Y-15464667D01*
X6019048Y-15512286D01*
X6009524Y-15550381D01*
X6000000Y-15569428D01*
X5990476Y-15578952D01*
X5971428Y-15588476D01*
X5952381Y-15588476D01*
X5933333Y-15578952D01*
X5923809Y-15569428D01*
X5914286Y-15550381D01*
X5904762Y-15512286D01*
X5904762Y-15464667D01*
X5914286Y-15426571D01*
X5923809Y-15407524D01*
X5933333Y-15398000D01*
X5952381Y-15388476D01*
X6104762Y-15588476D02*
X6104762Y-15455143D01*
X6104762Y-15474190D02*
X6114286Y-15464667D01*
X6133333Y-15455143D01*
X6161905Y-15455143D01*
X6180952Y-15464667D01*
X6190476Y-15483714D01*
X6190476Y-15588476D01*
X6190476Y-15483714D02*
X6200000Y-15464667D01*
X6219048Y-15455143D01*
X6247619Y-15455143D01*
X6266667Y-15464667D01*
X6276190Y-15483714D01*
X6276190Y-15588476D01*
X6371428Y-15588476D02*
X6371428Y-15455143D01*
X6371428Y-15474190D02*
X6380952Y-15464667D01*
X6400000Y-15455143D01*
X6428571Y-15455143D01*
X6447619Y-15464667D01*
X6457143Y-15483714D01*
X6457143Y-15588476D01*
X6457143Y-15483714D02*
X6466667Y-15464667D01*
X6485714Y-15455143D01*
X6514286Y-15455143D01*
X6533333Y-15464667D01*
X6542857Y-15483714D01*
X6542857Y-15588476D01*
X6933333Y-15378952D02*
X6761905Y-15636095D01*
X7190476Y-15388476D02*
X7209524Y-15388476D01*
X7228571Y-15398000D01*
X7238095Y-15407524D01*
X7247619Y-15426571D01*
X7257143Y-15464667D01*
X7257143Y-15512286D01*
X7247619Y-15550381D01*
X7238095Y-15569428D01*
X7228571Y-15578952D01*
X7209524Y-15588476D01*
X7190476Y-15588476D01*
X7171428Y-15578952D01*
X7161905Y-15569428D01*
X7152381Y-15550381D01*
X7142857Y-15512286D01*
X7142857Y-15464667D01*
X7152381Y-15426571D01*
X7161905Y-15407524D01*
X7171428Y-15398000D01*
X7190476Y-15388476D01*
X7342857Y-15569428D02*
X7352381Y-15578952D01*
X7342857Y-15588476D01*
X7333333Y-15578952D01*
X7342857Y-15569428D01*
X7342857Y-15588476D01*
X7476190Y-15388476D02*
X7495238Y-15388476D01*
X7514286Y-15398000D01*
X7523809Y-15407524D01*
X7533333Y-15426571D01*
X7542857Y-15464667D01*
X7542857Y-15512286D01*
X7533333Y-15550381D01*
X7523809Y-15569428D01*
X7514286Y-15578952D01*
X7495238Y-15588476D01*
X7476190Y-15588476D01*
X7457143Y-15578952D01*
X7447619Y-15569428D01*
X7438095Y-15550381D01*
X7428571Y-15512286D01*
X7428571Y-15464667D01*
X7438095Y-15426571D01*
X7447619Y-15407524D01*
X7457143Y-15398000D01*
X7476190Y-15388476D01*
X7714286Y-15455143D02*
X7714286Y-15588476D01*
X7666667Y-15378952D02*
X7619048Y-15521809D01*
X7742857Y-15521809D01*
X7800000Y-15388476D02*
X7923809Y-15388476D01*
X7857143Y-15464667D01*
X7885714Y-15464667D01*
X7904762Y-15474190D01*
X7914286Y-15483714D01*
X7923809Y-15502762D01*
X7923809Y-15550381D01*
X7914286Y-15569428D01*
X7904762Y-15578952D01*
X7885714Y-15588476D01*
X7828571Y-15588476D01*
X7809524Y-15578952D01*
X7800000Y-15569428D01*
X7990476Y-15388476D02*
X8114286Y-15388476D01*
X8047619Y-15464667D01*
X8076190Y-15464667D01*
X8095238Y-15474190D01*
X8104762Y-15483714D01*
X8114286Y-15502762D01*
X8114286Y-15550381D01*
X8104762Y-15569428D01*
X8095238Y-15578952D01*
X8076190Y-15588476D01*
X8019048Y-15588476D01*
X8000000Y-15578952D01*
X7990476Y-15569428D01*
X8190476Y-15388476D02*
X8190476Y-15426571D01*
X8266667Y-15388476D02*
X8266667Y-15426571D01*
X8561905Y-15664667D02*
X8552381Y-15655143D01*
X8533333Y-15626571D01*
X8523810Y-15607524D01*
X8514286Y-15578952D01*
X8504762Y-15531333D01*
X8504762Y-15493238D01*
X8514286Y-15445619D01*
X8523810Y-15417048D01*
X8533333Y-15398000D01*
X8552381Y-15369428D01*
X8561905Y-15359905D01*
X8723810Y-15388476D02*
X8685714Y-15388476D01*
X8666667Y-15398000D01*
X8657143Y-15407524D01*
X8638095Y-15436095D01*
X8628571Y-15474190D01*
X8628571Y-15550381D01*
X8638095Y-15569428D01*
X8647619Y-15578952D01*
X8666667Y-15588476D01*
X8704762Y-15588476D01*
X8723810Y-15578952D01*
X8733333Y-15569428D01*
X8742857Y-15550381D01*
X8742857Y-15502762D01*
X8733333Y-15483714D01*
X8723810Y-15474190D01*
X8704762Y-15464667D01*
X8666667Y-15464667D01*
X8647619Y-15474190D01*
X8638095Y-15483714D01*
X8628571Y-15502762D01*
X8980952Y-15588476D02*
X8980952Y-15388476D01*
X9066667Y-15588476D02*
X9066667Y-15483714D01*
X9057143Y-15464667D01*
X9038095Y-15455143D01*
X9009524Y-15455143D01*
X8990476Y-15464667D01*
X8980952Y-15474190D01*
X9190476Y-15588476D02*
X9171429Y-15578952D01*
X9161905Y-15569428D01*
X9152381Y-15550381D01*
X9152381Y-15493238D01*
X9161905Y-15474190D01*
X9171429Y-15464667D01*
X9190476Y-15455143D01*
X9219048Y-15455143D01*
X9238095Y-15464667D01*
X9247619Y-15474190D01*
X9257143Y-15493238D01*
X9257143Y-15550381D01*
X9247619Y-15569428D01*
X9238095Y-15578952D01*
X9219048Y-15588476D01*
X9190476Y-15588476D01*
X9371429Y-15588476D02*
X9352381Y-15578952D01*
X9342857Y-15559905D01*
X9342857Y-15388476D01*
X9523810Y-15578952D02*
X9504762Y-15588476D01*
X9466667Y-15588476D01*
X9447619Y-15578952D01*
X9438095Y-15559905D01*
X9438095Y-15483714D01*
X9447619Y-15464667D01*
X9466667Y-15455143D01*
X9504762Y-15455143D01*
X9523810Y-15464667D01*
X9533333Y-15483714D01*
X9533333Y-15502762D01*
X9438095Y-15521809D01*
X9609524Y-15578952D02*
X9628571Y-15588476D01*
X9666667Y-15588476D01*
X9685714Y-15578952D01*
X9695238Y-15559905D01*
X9695238Y-15550381D01*
X9685714Y-15531333D01*
X9666667Y-15521809D01*
X9638095Y-15521809D01*
X9619048Y-15512286D01*
X9609524Y-15493238D01*
X9609524Y-15483714D01*
X9619048Y-15464667D01*
X9638095Y-15455143D01*
X9666667Y-15455143D01*
X9685714Y-15464667D01*
X9761905Y-15664667D02*
X9771429Y-15655143D01*
X9790476Y-15626571D01*
X9800000Y-15607524D01*
X9809524Y-15578952D01*
X9819048Y-15531333D01*
X9819048Y-15493238D01*
X9809524Y-15445619D01*
X9800000Y-15417048D01*
X9790476Y-15398000D01*
X9771429Y-15369428D01*
X9761905Y-15359905D01*
D20*
X4865000Y-15699500D02*
X4990000Y-15824500D01*
X4990000Y-15699500D02*
X4865000Y-15824500D01*
X4927500Y-15824500D02*
X4990000Y-15762000D01*
X4927500Y-15699500D01*
X4865000Y-15762000D01*
X4927500Y-15824500D01*
D11*
X5352381Y-15852476D02*
X5238095Y-15852476D01*
X5295238Y-15852476D02*
X5295238Y-15652476D01*
X5276190Y-15681048D01*
X5257143Y-15700095D01*
X5238095Y-15709619D01*
X5438095Y-15833428D02*
X5447619Y-15842952D01*
X5438095Y-15852476D01*
X5428571Y-15842952D01*
X5438095Y-15833428D01*
X5438095Y-15852476D01*
X5523810Y-15671524D02*
X5533333Y-15662000D01*
X5552381Y-15652476D01*
X5600000Y-15652476D01*
X5619048Y-15662000D01*
X5628571Y-15671524D01*
X5638095Y-15690571D01*
X5638095Y-15709619D01*
X5628571Y-15738190D01*
X5514286Y-15852476D01*
X5638095Y-15852476D01*
X5819048Y-15652476D02*
X5723809Y-15652476D01*
X5714286Y-15747714D01*
X5723809Y-15738190D01*
X5742857Y-15728667D01*
X5790476Y-15728667D01*
X5809524Y-15738190D01*
X5819048Y-15747714D01*
X5828571Y-15766762D01*
X5828571Y-15814381D01*
X5819048Y-15833428D01*
X5809524Y-15842952D01*
X5790476Y-15852476D01*
X5742857Y-15852476D01*
X5723809Y-15842952D01*
X5714286Y-15833428D01*
X5952381Y-15652476D02*
X5971428Y-15652476D01*
X5990476Y-15662000D01*
X6000000Y-15671524D01*
X6009524Y-15690571D01*
X6019048Y-15728667D01*
X6019048Y-15776286D01*
X6009524Y-15814381D01*
X6000000Y-15833428D01*
X5990476Y-15842952D01*
X5971428Y-15852476D01*
X5952381Y-15852476D01*
X5933333Y-15842952D01*
X5923809Y-15833428D01*
X5914286Y-15814381D01*
X5904762Y-15776286D01*
X5904762Y-15728667D01*
X5914286Y-15690571D01*
X5923809Y-15671524D01*
X5933333Y-15662000D01*
X5952381Y-15652476D01*
X6104762Y-15852476D02*
X6104762Y-15719143D01*
X6104762Y-15738190D02*
X6114286Y-15728667D01*
X6133333Y-15719143D01*
X6161905Y-15719143D01*
X6180952Y-15728667D01*
X6190476Y-15747714D01*
X6190476Y-15852476D01*
X6190476Y-15747714D02*
X6200000Y-15728667D01*
X6219048Y-15719143D01*
X6247619Y-15719143D01*
X6266667Y-15728667D01*
X6276190Y-15747714D01*
X6276190Y-15852476D01*
X6371428Y-15852476D02*
X6371428Y-15719143D01*
X6371428Y-15738190D02*
X6380952Y-15728667D01*
X6400000Y-15719143D01*
X6428571Y-15719143D01*
X6447619Y-15728667D01*
X6457143Y-15747714D01*
X6457143Y-15852476D01*
X6457143Y-15747714D02*
X6466667Y-15728667D01*
X6485714Y-15719143D01*
X6514286Y-15719143D01*
X6533333Y-15728667D01*
X6542857Y-15747714D01*
X6542857Y-15852476D01*
X6933333Y-15642952D02*
X6761905Y-15900095D01*
X7190476Y-15652476D02*
X7209524Y-15652476D01*
X7228571Y-15662000D01*
X7238095Y-15671524D01*
X7247619Y-15690571D01*
X7257143Y-15728667D01*
X7257143Y-15776286D01*
X7247619Y-15814381D01*
X7238095Y-15833428D01*
X7228571Y-15842952D01*
X7209524Y-15852476D01*
X7190476Y-15852476D01*
X7171428Y-15842952D01*
X7161905Y-15833428D01*
X7152381Y-15814381D01*
X7142857Y-15776286D01*
X7142857Y-15728667D01*
X7152381Y-15690571D01*
X7161905Y-15671524D01*
X7171428Y-15662000D01*
X7190476Y-15652476D01*
X7342857Y-15833428D02*
X7352381Y-15842952D01*
X7342857Y-15852476D01*
X7333333Y-15842952D01*
X7342857Y-15833428D01*
X7342857Y-15852476D01*
X7476190Y-15652476D02*
X7495238Y-15652476D01*
X7514286Y-15662000D01*
X7523809Y-15671524D01*
X7533333Y-15690571D01*
X7542857Y-15728667D01*
X7542857Y-15776286D01*
X7533333Y-15814381D01*
X7523809Y-15833428D01*
X7514286Y-15842952D01*
X7495238Y-15852476D01*
X7476190Y-15852476D01*
X7457143Y-15842952D01*
X7447619Y-15833428D01*
X7438095Y-15814381D01*
X7428571Y-15776286D01*
X7428571Y-15728667D01*
X7438095Y-15690571D01*
X7447619Y-15671524D01*
X7457143Y-15662000D01*
X7476190Y-15652476D01*
X7714286Y-15719143D02*
X7714286Y-15852476D01*
X7666667Y-15642952D02*
X7619048Y-15785809D01*
X7742857Y-15785809D01*
X7828571Y-15852476D02*
X7866667Y-15852476D01*
X7885714Y-15842952D01*
X7895238Y-15833428D01*
X7914286Y-15804857D01*
X7923809Y-15766762D01*
X7923809Y-15690571D01*
X7914286Y-15671524D01*
X7904762Y-15662000D01*
X7885714Y-15652476D01*
X7847619Y-15652476D01*
X7828571Y-15662000D01*
X7819048Y-15671524D01*
X7809524Y-15690571D01*
X7809524Y-15738190D01*
X7819048Y-15757238D01*
X7828571Y-15766762D01*
X7847619Y-15776286D01*
X7885714Y-15776286D01*
X7904762Y-15766762D01*
X7914286Y-15757238D01*
X7923809Y-15738190D01*
X8000000Y-15671524D02*
X8009524Y-15662000D01*
X8028571Y-15652476D01*
X8076190Y-15652476D01*
X8095238Y-15662000D01*
X8104762Y-15671524D01*
X8114286Y-15690571D01*
X8114286Y-15709619D01*
X8104762Y-15738190D01*
X7990476Y-15852476D01*
X8114286Y-15852476D01*
X8190476Y-15652476D02*
X8190476Y-15690571D01*
X8266667Y-15652476D02*
X8266667Y-15690571D01*
X8561905Y-15928667D02*
X8552381Y-15919143D01*
X8533333Y-15890571D01*
X8523810Y-15871524D01*
X8514286Y-15842952D01*
X8504762Y-15795333D01*
X8504762Y-15757238D01*
X8514286Y-15709619D01*
X8523810Y-15681048D01*
X8533333Y-15662000D01*
X8552381Y-15633428D01*
X8561905Y-15623905D01*
X8628571Y-15671524D02*
X8638095Y-15662000D01*
X8657143Y-15652476D01*
X8704762Y-15652476D01*
X8723810Y-15662000D01*
X8733333Y-15671524D01*
X8742857Y-15690571D01*
X8742857Y-15709619D01*
X8733333Y-15738190D01*
X8619048Y-15852476D01*
X8742857Y-15852476D01*
X8980952Y-15852476D02*
X8980952Y-15652476D01*
X9066667Y-15852476D02*
X9066667Y-15747714D01*
X9057143Y-15728667D01*
X9038095Y-15719143D01*
X9009524Y-15719143D01*
X8990476Y-15728667D01*
X8980952Y-15738190D01*
X9190476Y-15852476D02*
X9171429Y-15842952D01*
X9161905Y-15833428D01*
X9152381Y-15814381D01*
X9152381Y-15757238D01*
X9161905Y-15738190D01*
X9171429Y-15728667D01*
X9190476Y-15719143D01*
X9219048Y-15719143D01*
X9238095Y-15728667D01*
X9247619Y-15738190D01*
X9257143Y-15757238D01*
X9257143Y-15814381D01*
X9247619Y-15833428D01*
X9238095Y-15842952D01*
X9219048Y-15852476D01*
X9190476Y-15852476D01*
X9371429Y-15852476D02*
X9352381Y-15842952D01*
X9342857Y-15823905D01*
X9342857Y-15652476D01*
X9523810Y-15842952D02*
X9504762Y-15852476D01*
X9466667Y-15852476D01*
X9447619Y-15842952D01*
X9438095Y-15823905D01*
X9438095Y-15747714D01*
X9447619Y-15728667D01*
X9466667Y-15719143D01*
X9504762Y-15719143D01*
X9523810Y-15728667D01*
X9533333Y-15747714D01*
X9533333Y-15766762D01*
X9438095Y-15785809D01*
X9609524Y-15842952D02*
X9628571Y-15852476D01*
X9666667Y-15852476D01*
X9685714Y-15842952D01*
X9695238Y-15823905D01*
X9695238Y-15814381D01*
X9685714Y-15795333D01*
X9666667Y-15785809D01*
X9638095Y-15785809D01*
X9619048Y-15776286D01*
X9609524Y-15757238D01*
X9609524Y-15747714D01*
X9619048Y-15728667D01*
X9638095Y-15719143D01*
X9666667Y-15719143D01*
X9685714Y-15728667D01*
X9761905Y-15928667D02*
X9771429Y-15919143D01*
X9790476Y-15890571D01*
X9800000Y-15871524D01*
X9809524Y-15842952D01*
X9819048Y-15795333D01*
X9819048Y-15757238D01*
X9809524Y-15709619D01*
X9800000Y-15681048D01*
X9790476Y-15662000D01*
X9771429Y-15633428D01*
X9761905Y-15623905D01*
D21*
X4920000Y-15956000D02*
X4920000Y-16096000D01*
X4850000Y-16026000D02*
X4990000Y-16026000D01*
X4990000Y-16026000D02*
G75*
G03*
X4990000Y-16026000I-70000J0D01*
G01*
D11*
X5352381Y-16116476D02*
X5238095Y-16116476D01*
X5295238Y-16116476D02*
X5295238Y-15916476D01*
X5276190Y-15945048D01*
X5257143Y-15964095D01*
X5238095Y-15973619D01*
X5438095Y-16097428D02*
X5447619Y-16106952D01*
X5438095Y-16116476D01*
X5428571Y-16106952D01*
X5438095Y-16097428D01*
X5438095Y-16116476D01*
X5619048Y-15983143D02*
X5619048Y-16116476D01*
X5571429Y-15906952D02*
X5523810Y-16049809D01*
X5647619Y-16049809D01*
X5761905Y-15916476D02*
X5780952Y-15916476D01*
X5800000Y-15926000D01*
X5809524Y-15935524D01*
X5819048Y-15954571D01*
X5828571Y-15992667D01*
X5828571Y-16040286D01*
X5819048Y-16078381D01*
X5809524Y-16097428D01*
X5800000Y-16106952D01*
X5780952Y-16116476D01*
X5761905Y-16116476D01*
X5742857Y-16106952D01*
X5733333Y-16097428D01*
X5723809Y-16078381D01*
X5714286Y-16040286D01*
X5714286Y-15992667D01*
X5723809Y-15954571D01*
X5733333Y-15935524D01*
X5742857Y-15926000D01*
X5761905Y-15916476D01*
X5952381Y-15916476D02*
X5971428Y-15916476D01*
X5990476Y-15926000D01*
X6000000Y-15935524D01*
X6009524Y-15954571D01*
X6019048Y-15992667D01*
X6019048Y-16040286D01*
X6009524Y-16078381D01*
X6000000Y-16097428D01*
X5990476Y-16106952D01*
X5971428Y-16116476D01*
X5952381Y-16116476D01*
X5933333Y-16106952D01*
X5923809Y-16097428D01*
X5914286Y-16078381D01*
X5904762Y-16040286D01*
X5904762Y-15992667D01*
X5914286Y-15954571D01*
X5923809Y-15935524D01*
X5933333Y-15926000D01*
X5952381Y-15916476D01*
X6104762Y-16116476D02*
X6104762Y-15983143D01*
X6104762Y-16002190D02*
X6114286Y-15992667D01*
X6133333Y-15983143D01*
X6161905Y-15983143D01*
X6180952Y-15992667D01*
X6190476Y-16011714D01*
X6190476Y-16116476D01*
X6190476Y-16011714D02*
X6200000Y-15992667D01*
X6219048Y-15983143D01*
X6247619Y-15983143D01*
X6266667Y-15992667D01*
X6276190Y-16011714D01*
X6276190Y-16116476D01*
X6371428Y-16116476D02*
X6371428Y-15983143D01*
X6371428Y-16002190D02*
X6380952Y-15992667D01*
X6400000Y-15983143D01*
X6428571Y-15983143D01*
X6447619Y-15992667D01*
X6457143Y-16011714D01*
X6457143Y-16116476D01*
X6457143Y-16011714D02*
X6466667Y-15992667D01*
X6485714Y-15983143D01*
X6514286Y-15983143D01*
X6533333Y-15992667D01*
X6542857Y-16011714D01*
X6542857Y-16116476D01*
X6933333Y-15906952D02*
X6761905Y-16164095D01*
X7190476Y-15916476D02*
X7209524Y-15916476D01*
X7228571Y-15926000D01*
X7238095Y-15935524D01*
X7247619Y-15954571D01*
X7257143Y-15992667D01*
X7257143Y-16040286D01*
X7247619Y-16078381D01*
X7238095Y-16097428D01*
X7228571Y-16106952D01*
X7209524Y-16116476D01*
X7190476Y-16116476D01*
X7171428Y-16106952D01*
X7161905Y-16097428D01*
X7152381Y-16078381D01*
X7142857Y-16040286D01*
X7142857Y-15992667D01*
X7152381Y-15954571D01*
X7161905Y-15935524D01*
X7171428Y-15926000D01*
X7190476Y-15916476D01*
X7342857Y-16097428D02*
X7352381Y-16106952D01*
X7342857Y-16116476D01*
X7333333Y-16106952D01*
X7342857Y-16097428D01*
X7342857Y-16116476D01*
X7476190Y-15916476D02*
X7495238Y-15916476D01*
X7514286Y-15926000D01*
X7523809Y-15935524D01*
X7533333Y-15954571D01*
X7542857Y-15992667D01*
X7542857Y-16040286D01*
X7533333Y-16078381D01*
X7523809Y-16097428D01*
X7514286Y-16106952D01*
X7495238Y-16116476D01*
X7476190Y-16116476D01*
X7457143Y-16106952D01*
X7447619Y-16097428D01*
X7438095Y-16078381D01*
X7428571Y-16040286D01*
X7428571Y-15992667D01*
X7438095Y-15954571D01*
X7447619Y-15935524D01*
X7457143Y-15926000D01*
X7476190Y-15916476D01*
X7723809Y-15916476D02*
X7628571Y-15916476D01*
X7619048Y-16011714D01*
X7628571Y-16002190D01*
X7647619Y-15992667D01*
X7695238Y-15992667D01*
X7714286Y-16002190D01*
X7723809Y-16011714D01*
X7733333Y-16030762D01*
X7733333Y-16078381D01*
X7723809Y-16097428D01*
X7714286Y-16106952D01*
X7695238Y-16116476D01*
X7647619Y-16116476D01*
X7628571Y-16106952D01*
X7619048Y-16097428D01*
X7914286Y-15916476D02*
X7819048Y-15916476D01*
X7809524Y-16011714D01*
X7819048Y-16002190D01*
X7838095Y-15992667D01*
X7885714Y-15992667D01*
X7904762Y-16002190D01*
X7914286Y-16011714D01*
X7923809Y-16030762D01*
X7923809Y-16078381D01*
X7914286Y-16097428D01*
X7904762Y-16106952D01*
X7885714Y-16116476D01*
X7838095Y-16116476D01*
X7819048Y-16106952D01*
X7809524Y-16097428D01*
X8114286Y-16116476D02*
X8000000Y-16116476D01*
X8057143Y-16116476D02*
X8057143Y-15916476D01*
X8038095Y-15945048D01*
X8019048Y-15964095D01*
X8000000Y-15973619D01*
X8190476Y-15916476D02*
X8190476Y-15954571D01*
X8266667Y-15916476D02*
X8266667Y-15954571D01*
X8561905Y-16192667D02*
X8552381Y-16183143D01*
X8533333Y-16154571D01*
X8523810Y-16135524D01*
X8514286Y-16106952D01*
X8504762Y-16059333D01*
X8504762Y-16021238D01*
X8514286Y-15973619D01*
X8523810Y-15945048D01*
X8533333Y-15926000D01*
X8552381Y-15897428D01*
X8561905Y-15887905D01*
X8628571Y-15935524D02*
X8638095Y-15926000D01*
X8657143Y-15916476D01*
X8704762Y-15916476D01*
X8723810Y-15926000D01*
X8733333Y-15935524D01*
X8742857Y-15954571D01*
X8742857Y-15973619D01*
X8733333Y-16002190D01*
X8619048Y-16116476D01*
X8742857Y-16116476D01*
X8980952Y-16116476D02*
X8980952Y-15916476D01*
X9066667Y-16116476D02*
X9066667Y-16011714D01*
X9057143Y-15992667D01*
X9038095Y-15983143D01*
X9009524Y-15983143D01*
X8990476Y-15992667D01*
X8980952Y-16002190D01*
X9190476Y-16116476D02*
X9171429Y-16106952D01*
X9161905Y-16097428D01*
X9152381Y-16078381D01*
X9152381Y-16021238D01*
X9161905Y-16002190D01*
X9171429Y-15992667D01*
X9190476Y-15983143D01*
X9219048Y-15983143D01*
X9238095Y-15992667D01*
X9247619Y-16002190D01*
X9257143Y-16021238D01*
X9257143Y-16078381D01*
X9247619Y-16097428D01*
X9238095Y-16106952D01*
X9219048Y-16116476D01*
X9190476Y-16116476D01*
X9371429Y-16116476D02*
X9352381Y-16106952D01*
X9342857Y-16087905D01*
X9342857Y-15916476D01*
X9523810Y-16106952D02*
X9504762Y-16116476D01*
X9466667Y-16116476D01*
X9447619Y-16106952D01*
X9438095Y-16087905D01*
X9438095Y-16011714D01*
X9447619Y-15992667D01*
X9466667Y-15983143D01*
X9504762Y-15983143D01*
X9523810Y-15992667D01*
X9533333Y-16011714D01*
X9533333Y-16030762D01*
X9438095Y-16049809D01*
X9609524Y-16106952D02*
X9628571Y-16116476D01*
X9666667Y-16116476D01*
X9685714Y-16106952D01*
X9695238Y-16087905D01*
X9695238Y-16078381D01*
X9685714Y-16059333D01*
X9666667Y-16049809D01*
X9638095Y-16049809D01*
X9619048Y-16040286D01*
X9609524Y-16021238D01*
X9609524Y-16011714D01*
X9619048Y-15992667D01*
X9638095Y-15983143D01*
X9666667Y-15983143D01*
X9685714Y-15992667D01*
X9761905Y-16192667D02*
X9771429Y-16183143D01*
X9790476Y-16154571D01*
X9800000Y-16135524D01*
X9809524Y-16106952D01*
X9819048Y-16059333D01*
X9819048Y-16021238D01*
X9809524Y-15973619D01*
X9800000Y-15945048D01*
X9790476Y-15926000D01*
X9771429Y-15897428D01*
X9761905Y-15887905D01*
D22*
X4968034Y-16343033D02*
X4968034Y-16236966D01*
X4861967Y-16236966D01*
X4861967Y-16343033D01*
X4968034Y-16343033D01*
X4990000Y-16290000D02*
G75*
G03*
X4990000Y-16290000I-75000J0D01*
G01*
D11*
X5352381Y-16380476D02*
X5238095Y-16380476D01*
X5295238Y-16380476D02*
X5295238Y-16180476D01*
X5276190Y-16209048D01*
X5257143Y-16228095D01*
X5238095Y-16237619D01*
X5438095Y-16361428D02*
X5447619Y-16370952D01*
X5438095Y-16380476D01*
X5428571Y-16370952D01*
X5438095Y-16361428D01*
X5438095Y-16380476D01*
X5628571Y-16180476D02*
X5533333Y-16180476D01*
X5523810Y-16275714D01*
X5533333Y-16266190D01*
X5552381Y-16256667D01*
X5600000Y-16256667D01*
X5619048Y-16266190D01*
X5628571Y-16275714D01*
X5638095Y-16294762D01*
X5638095Y-16342381D01*
X5628571Y-16361428D01*
X5619048Y-16370952D01*
X5600000Y-16380476D01*
X5552381Y-16380476D01*
X5533333Y-16370952D01*
X5523810Y-16361428D01*
X5761905Y-16180476D02*
X5780952Y-16180476D01*
X5800000Y-16190000D01*
X5809524Y-16199524D01*
X5819048Y-16218571D01*
X5828571Y-16256667D01*
X5828571Y-16304286D01*
X5819048Y-16342381D01*
X5809524Y-16361428D01*
X5800000Y-16370952D01*
X5780952Y-16380476D01*
X5761905Y-16380476D01*
X5742857Y-16370952D01*
X5733333Y-16361428D01*
X5723809Y-16342381D01*
X5714286Y-16304286D01*
X5714286Y-16256667D01*
X5723809Y-16218571D01*
X5733333Y-16199524D01*
X5742857Y-16190000D01*
X5761905Y-16180476D01*
X5952381Y-16180476D02*
X5971428Y-16180476D01*
X5990476Y-16190000D01*
X6000000Y-16199524D01*
X6009524Y-16218571D01*
X6019048Y-16256667D01*
X6019048Y-16304286D01*
X6009524Y-16342381D01*
X6000000Y-16361428D01*
X5990476Y-16370952D01*
X5971428Y-16380476D01*
X5952381Y-16380476D01*
X5933333Y-16370952D01*
X5923809Y-16361428D01*
X5914286Y-16342381D01*
X5904762Y-16304286D01*
X5904762Y-16256667D01*
X5914286Y-16218571D01*
X5923809Y-16199524D01*
X5933333Y-16190000D01*
X5952381Y-16180476D01*
X6104762Y-16380476D02*
X6104762Y-16247143D01*
X6104762Y-16266190D02*
X6114286Y-16256667D01*
X6133333Y-16247143D01*
X6161905Y-16247143D01*
X6180952Y-16256667D01*
X6190476Y-16275714D01*
X6190476Y-16380476D01*
X6190476Y-16275714D02*
X6200000Y-16256667D01*
X6219048Y-16247143D01*
X6247619Y-16247143D01*
X6266667Y-16256667D01*
X6276190Y-16275714D01*
X6276190Y-16380476D01*
X6371428Y-16380476D02*
X6371428Y-16247143D01*
X6371428Y-16266190D02*
X6380952Y-16256667D01*
X6400000Y-16247143D01*
X6428571Y-16247143D01*
X6447619Y-16256667D01*
X6457143Y-16275714D01*
X6457143Y-16380476D01*
X6457143Y-16275714D02*
X6466667Y-16256667D01*
X6485714Y-16247143D01*
X6514286Y-16247143D01*
X6533333Y-16256667D01*
X6542857Y-16275714D01*
X6542857Y-16380476D01*
X6933333Y-16170952D02*
X6761905Y-16428095D01*
X7190476Y-16180476D02*
X7209524Y-16180476D01*
X7228571Y-16190000D01*
X7238095Y-16199524D01*
X7247619Y-16218571D01*
X7257143Y-16256667D01*
X7257143Y-16304286D01*
X7247619Y-16342381D01*
X7238095Y-16361428D01*
X7228571Y-16370952D01*
X7209524Y-16380476D01*
X7190476Y-16380476D01*
X7171428Y-16370952D01*
X7161905Y-16361428D01*
X7152381Y-16342381D01*
X7142857Y-16304286D01*
X7142857Y-16256667D01*
X7152381Y-16218571D01*
X7161905Y-16199524D01*
X7171428Y-16190000D01*
X7190476Y-16180476D01*
X7342857Y-16361428D02*
X7352381Y-16370952D01*
X7342857Y-16380476D01*
X7333333Y-16370952D01*
X7342857Y-16361428D01*
X7342857Y-16380476D01*
X7476190Y-16180476D02*
X7495238Y-16180476D01*
X7514286Y-16190000D01*
X7523809Y-16199524D01*
X7533333Y-16218571D01*
X7542857Y-16256667D01*
X7542857Y-16304286D01*
X7533333Y-16342381D01*
X7523809Y-16361428D01*
X7514286Y-16370952D01*
X7495238Y-16380476D01*
X7476190Y-16380476D01*
X7457143Y-16370952D01*
X7447619Y-16361428D01*
X7438095Y-16342381D01*
X7428571Y-16304286D01*
X7428571Y-16256667D01*
X7438095Y-16218571D01*
X7447619Y-16199524D01*
X7457143Y-16190000D01*
X7476190Y-16180476D01*
X7723809Y-16180476D02*
X7628571Y-16180476D01*
X7619048Y-16275714D01*
X7628571Y-16266190D01*
X7647619Y-16256667D01*
X7695238Y-16256667D01*
X7714286Y-16266190D01*
X7723809Y-16275714D01*
X7733333Y-16294762D01*
X7733333Y-16342381D01*
X7723809Y-16361428D01*
X7714286Y-16370952D01*
X7695238Y-16380476D01*
X7647619Y-16380476D01*
X7628571Y-16370952D01*
X7619048Y-16361428D01*
X7828571Y-16380476D02*
X7866667Y-16380476D01*
X7885714Y-16370952D01*
X7895238Y-16361428D01*
X7914286Y-16332857D01*
X7923809Y-16294762D01*
X7923809Y-16218571D01*
X7914286Y-16199524D01*
X7904762Y-16190000D01*
X7885714Y-16180476D01*
X7847619Y-16180476D01*
X7828571Y-16190000D01*
X7819048Y-16199524D01*
X7809524Y-16218571D01*
X7809524Y-16266190D01*
X7819048Y-16285238D01*
X7828571Y-16294762D01*
X7847619Y-16304286D01*
X7885714Y-16304286D01*
X7904762Y-16294762D01*
X7914286Y-16285238D01*
X7923809Y-16266190D01*
X8114286Y-16380476D02*
X8000000Y-16380476D01*
X8057143Y-16380476D02*
X8057143Y-16180476D01*
X8038095Y-16209048D01*
X8019048Y-16228095D01*
X8000000Y-16237619D01*
X8190476Y-16180476D02*
X8190476Y-16218571D01*
X8266667Y-16180476D02*
X8266667Y-16218571D01*
X8561905Y-16456667D02*
X8552381Y-16447143D01*
X8533333Y-16418571D01*
X8523810Y-16399524D01*
X8514286Y-16370952D01*
X8504762Y-16323333D01*
X8504762Y-16285238D01*
X8514286Y-16237619D01*
X8523810Y-16209048D01*
X8533333Y-16190000D01*
X8552381Y-16161428D01*
X8561905Y-16151905D01*
X8666667Y-16266190D02*
X8647619Y-16256667D01*
X8638095Y-16247143D01*
X8628571Y-16228095D01*
X8628571Y-16218571D01*
X8638095Y-16199524D01*
X8647619Y-16190000D01*
X8666667Y-16180476D01*
X8704762Y-16180476D01*
X8723810Y-16190000D01*
X8733333Y-16199524D01*
X8742857Y-16218571D01*
X8742857Y-16228095D01*
X8733333Y-16247143D01*
X8723810Y-16256667D01*
X8704762Y-16266190D01*
X8666667Y-16266190D01*
X8647619Y-16275714D01*
X8638095Y-16285238D01*
X8628571Y-16304286D01*
X8628571Y-16342381D01*
X8638095Y-16361428D01*
X8647619Y-16370952D01*
X8666667Y-16380476D01*
X8704762Y-16380476D01*
X8723810Y-16370952D01*
X8733333Y-16361428D01*
X8742857Y-16342381D01*
X8742857Y-16304286D01*
X8733333Y-16285238D01*
X8723810Y-16275714D01*
X8704762Y-16266190D01*
X8980952Y-16380476D02*
X8980952Y-16180476D01*
X9066667Y-16380476D02*
X9066667Y-16275714D01*
X9057143Y-16256667D01*
X9038095Y-16247143D01*
X9009524Y-16247143D01*
X8990476Y-16256667D01*
X8980952Y-16266190D01*
X9190476Y-16380476D02*
X9171429Y-16370952D01*
X9161905Y-16361428D01*
X9152381Y-16342381D01*
X9152381Y-16285238D01*
X9161905Y-16266190D01*
X9171429Y-16256667D01*
X9190476Y-16247143D01*
X9219048Y-16247143D01*
X9238095Y-16256667D01*
X9247619Y-16266190D01*
X9257143Y-16285238D01*
X9257143Y-16342381D01*
X9247619Y-16361428D01*
X9238095Y-16370952D01*
X9219048Y-16380476D01*
X9190476Y-16380476D01*
X9371429Y-16380476D02*
X9352381Y-16370952D01*
X9342857Y-16351905D01*
X9342857Y-16180476D01*
X9523810Y-16370952D02*
X9504762Y-16380476D01*
X9466667Y-16380476D01*
X9447619Y-16370952D01*
X9438095Y-16351905D01*
X9438095Y-16275714D01*
X9447619Y-16256667D01*
X9466667Y-16247143D01*
X9504762Y-16247143D01*
X9523810Y-16256667D01*
X9533333Y-16275714D01*
X9533333Y-16294762D01*
X9438095Y-16313809D01*
X9609524Y-16370952D02*
X9628571Y-16380476D01*
X9666667Y-16380476D01*
X9685714Y-16370952D01*
X9695238Y-16351905D01*
X9695238Y-16342381D01*
X9685714Y-16323333D01*
X9666667Y-16313809D01*
X9638095Y-16313809D01*
X9619048Y-16304286D01*
X9609524Y-16285238D01*
X9609524Y-16275714D01*
X9619048Y-16256667D01*
X9638095Y-16247143D01*
X9666667Y-16247143D01*
X9685714Y-16256667D01*
X9761905Y-16456667D02*
X9771429Y-16447143D01*
X9790476Y-16418571D01*
X9800000Y-16399524D01*
X9809524Y-16370952D01*
X9819048Y-16323333D01*
X9819048Y-16285238D01*
X9809524Y-16237619D01*
X9800000Y-16209048D01*
X9790476Y-16190000D01*
X9771429Y-16161428D01*
X9761905Y-16151905D01*
M02*
