%TF.GenerationSoftware,KiCad,Pcbnew,(6.0.6-0)*%
%TF.CreationDate,2023-01-17T18:34:31+00:00*%
%TF.ProjectId,max2871-evalboard,6d617832-3837-4312-9d65-76616c626f61,1.0*%
%TF.SameCoordinates,Original*%
%TF.FileFunction,Legend,Bot*%
%TF.FilePolarity,Positive*%
%FSLAX46Y46*%
G04 Gerber Fmt 4.6, Leading zero omitted, Abs format (unit mm)*
G04 Created by KiCad (PCBNEW (6.0.6-0)) date 2023-01-17 18:34:31*
%MOMM*%
%LPD*%
G01*
G04 APERTURE LIST*
G04 Aperture macros list*
%AMRoundRect*
0 Rectangle with rounded corners*
0 $1 Rounding radius*
0 $2 $3 $4 $5 $6 $7 $8 $9 X,Y pos of 4 corners*
0 Add a 4 corners polygon primitive as box body*
4,1,4,$2,$3,$4,$5,$6,$7,$8,$9,$2,$3,0*
0 Add four circle primitives for the rounded corners*
1,1,$1+$1,$2,$3*
1,1,$1+$1,$4,$5*
1,1,$1+$1,$6,$7*
1,1,$1+$1,$8,$9*
0 Add four rect primitives between the rounded corners*
20,1,$1+$1,$2,$3,$4,$5,0*
20,1,$1+$1,$4,$5,$6,$7,0*
20,1,$1+$1,$6,$7,$8,$9,0*
20,1,$1+$1,$8,$9,$2,$3,0*%
G04 Aperture macros list end*
%ADD10C,0.130000*%
%ADD11C,0.250000*%
%ADD12C,0.200000*%
%ADD13C,0.120000*%
%ADD14C,0.010000*%
%ADD15C,0.100000*%
%ADD16R,1.800000X1.800000*%
%ADD17C,1.800000*%
%ADD18C,2.700000*%
%ADD19R,1.000000X1.000000*%
%ADD20O,1.000000X1.000000*%
%ADD21C,2.000000*%
%ADD22C,2.200000*%
%ADD23C,0.650000*%
%ADD24O,1.000000X2.000000*%
%ADD25O,1.050000X2.100000*%
%ADD26R,1.700000X1.700000*%
%ADD27O,1.700000X1.700000*%
%ADD28C,2.100000*%
%ADD29C,2.250000*%
%ADD30RoundRect,0.140000X-0.170000X0.140000X-0.170000X-0.140000X0.170000X-0.140000X0.170000X0.140000X0*%
%ADD31RoundRect,0.140000X0.170000X-0.140000X0.170000X0.140000X-0.170000X0.140000X-0.170000X-0.140000X0*%
%ADD32RoundRect,0.140000X0.140000X0.170000X-0.140000X0.170000X-0.140000X-0.170000X0.140000X-0.170000X0*%
%ADD33RoundRect,0.135000X0.135000X0.185000X-0.135000X0.185000X-0.135000X-0.185000X0.135000X-0.185000X0*%
%ADD34RoundRect,0.140000X-0.140000X-0.170000X0.140000X-0.170000X0.140000X0.170000X-0.140000X0.170000X0*%
%ADD35RoundRect,0.135000X-0.185000X0.135000X-0.185000X-0.135000X0.185000X-0.135000X0.185000X0.135000X0*%
%ADD36RoundRect,0.135000X-0.135000X-0.185000X0.135000X-0.185000X0.135000X0.185000X-0.135000X0.185000X0*%
%ADD37RoundRect,0.150000X0.150000X-0.587500X0.150000X0.587500X-0.150000X0.587500X-0.150000X-0.587500X0*%
%ADD38RoundRect,0.218750X-0.218750X-0.256250X0.218750X-0.256250X0.218750X0.256250X-0.218750X0.256250X0*%
%ADD39RoundRect,0.135000X0.185000X-0.135000X0.185000X0.135000X-0.185000X0.135000X-0.185000X-0.135000X0*%
G04 APERTURE END LIST*
D10*
X96477404Y-122647380D02*
X96477404Y-121647380D01*
X96144071Y-122361666D01*
X95810738Y-121647380D01*
X95810738Y-122647380D01*
X95382166Y-122361666D02*
X94905976Y-122361666D01*
X95477404Y-122647380D02*
X95144071Y-121647380D01*
X94810738Y-122647380D01*
X94572642Y-121647380D02*
X93905976Y-122647380D01*
X93905976Y-121647380D02*
X94572642Y-122647380D01*
X93572642Y-121742619D02*
X93525023Y-121695000D01*
X93429785Y-121647380D01*
X93191690Y-121647380D01*
X93096452Y-121695000D01*
X93048833Y-121742619D01*
X93001214Y-121837857D01*
X93001214Y-121933095D01*
X93048833Y-122075952D01*
X93620261Y-122647380D01*
X93001214Y-122647380D01*
X92429785Y-122075952D02*
X92525023Y-122028333D01*
X92572642Y-121980714D01*
X92620261Y-121885476D01*
X92620261Y-121837857D01*
X92572642Y-121742619D01*
X92525023Y-121695000D01*
X92429785Y-121647380D01*
X92239309Y-121647380D01*
X92144071Y-121695000D01*
X92096452Y-121742619D01*
X92048833Y-121837857D01*
X92048833Y-121885476D01*
X92096452Y-121980714D01*
X92144071Y-122028333D01*
X92239309Y-122075952D01*
X92429785Y-122075952D01*
X92525023Y-122123571D01*
X92572642Y-122171190D01*
X92620261Y-122266428D01*
X92620261Y-122456904D01*
X92572642Y-122552142D01*
X92525023Y-122599761D01*
X92429785Y-122647380D01*
X92239309Y-122647380D01*
X92144071Y-122599761D01*
X92096452Y-122552142D01*
X92048833Y-122456904D01*
X92048833Y-122266428D01*
X92096452Y-122171190D01*
X92144071Y-122123571D01*
X92239309Y-122075952D01*
X91715500Y-121647380D02*
X91048833Y-121647380D01*
X91477404Y-122647380D01*
X90144071Y-122647380D02*
X90715500Y-122647380D01*
X90429785Y-122647380D02*
X90429785Y-121647380D01*
X90525023Y-121790238D01*
X90620261Y-121885476D01*
X90715500Y-121933095D01*
X89001214Y-122599761D02*
X88858357Y-122647380D01*
X88620261Y-122647380D01*
X88525023Y-122599761D01*
X88477404Y-122552142D01*
X88429785Y-122456904D01*
X88429785Y-122361666D01*
X88477404Y-122266428D01*
X88525023Y-122218809D01*
X88620261Y-122171190D01*
X88810738Y-122123571D01*
X88905976Y-122075952D01*
X88953595Y-122028333D01*
X89001214Y-121933095D01*
X89001214Y-121837857D01*
X88953595Y-121742619D01*
X88905976Y-121695000D01*
X88810738Y-121647380D01*
X88572642Y-121647380D01*
X88429785Y-121695000D01*
X88096452Y-121980714D02*
X87858357Y-122647380D01*
X87620261Y-121980714D02*
X87858357Y-122647380D01*
X87953595Y-122885476D01*
X88001214Y-122933095D01*
X88096452Y-122980714D01*
X87239309Y-121980714D02*
X87239309Y-122647380D01*
X87239309Y-122075952D02*
X87191690Y-122028333D01*
X87096452Y-121980714D01*
X86953595Y-121980714D01*
X86858357Y-122028333D01*
X86810738Y-122123571D01*
X86810738Y-122647380D01*
X86477404Y-121980714D02*
X86096452Y-121980714D01*
X86334547Y-121647380D02*
X86334547Y-122504523D01*
X86286928Y-122599761D01*
X86191690Y-122647380D01*
X86096452Y-122647380D01*
X85763119Y-122647380D02*
X85763119Y-121647380D01*
X85334547Y-122647380D02*
X85334547Y-122123571D01*
X85382166Y-122028333D01*
X85477404Y-121980714D01*
X85620261Y-121980714D01*
X85715500Y-122028333D01*
X85763119Y-122075952D01*
X84477404Y-122599761D02*
X84572642Y-122647380D01*
X84763119Y-122647380D01*
X84858357Y-122599761D01*
X84905976Y-122504523D01*
X84905976Y-122123571D01*
X84858357Y-122028333D01*
X84763119Y-121980714D01*
X84572642Y-121980714D01*
X84477404Y-122028333D01*
X84429785Y-122123571D01*
X84429785Y-122218809D01*
X84905976Y-122314047D01*
X84144071Y-121980714D02*
X83763119Y-121980714D01*
X84001214Y-121647380D02*
X84001214Y-122504523D01*
X83953595Y-122599761D01*
X83858357Y-122647380D01*
X83763119Y-122647380D01*
X83429785Y-122647380D02*
X83429785Y-121980714D01*
X83429785Y-121647380D02*
X83477404Y-121695000D01*
X83429785Y-121742619D01*
X83382166Y-121695000D01*
X83429785Y-121647380D01*
X83429785Y-121742619D01*
X83048833Y-121980714D02*
X82525023Y-121980714D01*
X83048833Y-122647380D01*
X82525023Y-122647380D01*
X81763119Y-122599761D02*
X81858357Y-122647380D01*
X82048833Y-122647380D01*
X82144071Y-122599761D01*
X82191690Y-122504523D01*
X82191690Y-122123571D01*
X82144071Y-122028333D01*
X82048833Y-121980714D01*
X81858357Y-121980714D01*
X81763119Y-122028333D01*
X81715500Y-122123571D01*
X81715500Y-122218809D01*
X82191690Y-122314047D01*
X81286928Y-122647380D02*
X81286928Y-121980714D01*
X81286928Y-122171190D02*
X81239309Y-122075952D01*
X81191690Y-122028333D01*
X81096452Y-121980714D01*
X81001214Y-121980714D01*
X96477404Y-123733571D02*
X96144071Y-123733571D01*
X96001214Y-124257380D02*
X96477404Y-124257380D01*
X96477404Y-123257380D01*
X96001214Y-123257380D01*
X95667880Y-123590714D02*
X95429785Y-124257380D01*
X95191690Y-123590714D01*
X94382166Y-124257380D02*
X94382166Y-123733571D01*
X94429785Y-123638333D01*
X94525023Y-123590714D01*
X94715500Y-123590714D01*
X94810738Y-123638333D01*
X94382166Y-124209761D02*
X94477404Y-124257380D01*
X94715500Y-124257380D01*
X94810738Y-124209761D01*
X94858357Y-124114523D01*
X94858357Y-124019285D01*
X94810738Y-123924047D01*
X94715500Y-123876428D01*
X94477404Y-123876428D01*
X94382166Y-123828809D01*
X93763119Y-124257380D02*
X93858357Y-124209761D01*
X93905976Y-124114523D01*
X93905976Y-123257380D01*
X92953595Y-123590714D02*
X92953595Y-124257380D01*
X93382166Y-123590714D02*
X93382166Y-124114523D01*
X93334547Y-124209761D01*
X93239309Y-124257380D01*
X93096452Y-124257380D01*
X93001214Y-124209761D01*
X92953595Y-124162142D01*
X92048833Y-124257380D02*
X92048833Y-123733571D01*
X92096452Y-123638333D01*
X92191690Y-123590714D01*
X92382166Y-123590714D01*
X92477404Y-123638333D01*
X92048833Y-124209761D02*
X92144071Y-124257380D01*
X92382166Y-124257380D01*
X92477404Y-124209761D01*
X92525023Y-124114523D01*
X92525023Y-124019285D01*
X92477404Y-123924047D01*
X92382166Y-123876428D01*
X92144071Y-123876428D01*
X92048833Y-123828809D01*
X91715500Y-123590714D02*
X91334547Y-123590714D01*
X91572642Y-123257380D02*
X91572642Y-124114523D01*
X91525023Y-124209761D01*
X91429785Y-124257380D01*
X91334547Y-124257380D01*
X91001214Y-124257380D02*
X91001214Y-123590714D01*
X91001214Y-123257380D02*
X91048833Y-123305000D01*
X91001214Y-123352619D01*
X90953595Y-123305000D01*
X91001214Y-123257380D01*
X91001214Y-123352619D01*
X90382166Y-124257380D02*
X90477404Y-124209761D01*
X90525023Y-124162142D01*
X90572642Y-124066904D01*
X90572642Y-123781190D01*
X90525023Y-123685952D01*
X90477404Y-123638333D01*
X90382166Y-123590714D01*
X90239309Y-123590714D01*
X90144071Y-123638333D01*
X90096452Y-123685952D01*
X90048833Y-123781190D01*
X90048833Y-124066904D01*
X90096452Y-124162142D01*
X90144071Y-124209761D01*
X90239309Y-124257380D01*
X90382166Y-124257380D01*
X89620261Y-123590714D02*
X89620261Y-124257380D01*
X89620261Y-123685952D02*
X89572642Y-123638333D01*
X89477404Y-123590714D01*
X89334547Y-123590714D01*
X89239309Y-123638333D01*
X89191690Y-123733571D01*
X89191690Y-124257380D01*
X87620261Y-123733571D02*
X87477404Y-123781190D01*
X87429785Y-123828809D01*
X87382166Y-123924047D01*
X87382166Y-124066904D01*
X87429785Y-124162142D01*
X87477404Y-124209761D01*
X87572642Y-124257380D01*
X87953595Y-124257380D01*
X87953595Y-123257380D01*
X87620261Y-123257380D01*
X87525023Y-123305000D01*
X87477404Y-123352619D01*
X87429785Y-123447857D01*
X87429785Y-123543095D01*
X87477404Y-123638333D01*
X87525023Y-123685952D01*
X87620261Y-123733571D01*
X87953595Y-123733571D01*
X86810738Y-124257380D02*
X86905976Y-124209761D01*
X86953595Y-124162142D01*
X87001214Y-124066904D01*
X87001214Y-123781190D01*
X86953595Y-123685952D01*
X86905976Y-123638333D01*
X86810738Y-123590714D01*
X86667880Y-123590714D01*
X86572642Y-123638333D01*
X86525023Y-123685952D01*
X86477404Y-123781190D01*
X86477404Y-124066904D01*
X86525023Y-124162142D01*
X86572642Y-124209761D01*
X86667880Y-124257380D01*
X86810738Y-124257380D01*
X85620261Y-124257380D02*
X85620261Y-123733571D01*
X85667880Y-123638333D01*
X85763119Y-123590714D01*
X85953595Y-123590714D01*
X86048833Y-123638333D01*
X85620261Y-124209761D02*
X85715500Y-124257380D01*
X85953595Y-124257380D01*
X86048833Y-124209761D01*
X86096452Y-124114523D01*
X86096452Y-124019285D01*
X86048833Y-123924047D01*
X85953595Y-123876428D01*
X85715500Y-123876428D01*
X85620261Y-123828809D01*
X85144071Y-124257380D02*
X85144071Y-123590714D01*
X85144071Y-123781190D02*
X85096452Y-123685952D01*
X85048833Y-123638333D01*
X84953595Y-123590714D01*
X84858357Y-123590714D01*
X84096452Y-124257380D02*
X84096452Y-123257380D01*
X84096452Y-124209761D02*
X84191690Y-124257380D01*
X84382166Y-124257380D01*
X84477404Y-124209761D01*
X84525023Y-124162142D01*
X84572642Y-124066904D01*
X84572642Y-123781190D01*
X84525023Y-123685952D01*
X84477404Y-123638333D01*
X84382166Y-123590714D01*
X84191690Y-123590714D01*
X84096452Y-123638333D01*
D11*
X96408928Y-125792857D02*
X96408928Y-126650000D01*
X96466071Y-126821428D01*
X96580357Y-126935714D01*
X96751785Y-126992857D01*
X96866071Y-126992857D01*
X95266071Y-126992857D02*
X95837500Y-126992857D01*
X95837500Y-125792857D01*
X94180357Y-126878571D02*
X94237500Y-126935714D01*
X94408928Y-126992857D01*
X94523214Y-126992857D01*
X94694642Y-126935714D01*
X94808928Y-126821428D01*
X94866071Y-126707142D01*
X94923214Y-126478571D01*
X94923214Y-126307142D01*
X94866071Y-126078571D01*
X94808928Y-125964285D01*
X94694642Y-125850000D01*
X94523214Y-125792857D01*
X94408928Y-125792857D01*
X94237500Y-125850000D01*
X94180357Y-125907142D01*
X93323214Y-125792857D02*
X93323214Y-126650000D01*
X93380357Y-126821428D01*
X93494642Y-126935714D01*
X93666071Y-126992857D01*
X93780357Y-126992857D01*
X92180357Y-126992857D02*
X92751785Y-126992857D01*
X92751785Y-125792857D01*
X91094642Y-126878571D02*
X91151785Y-126935714D01*
X91323214Y-126992857D01*
X91437500Y-126992857D01*
X91608928Y-126935714D01*
X91723214Y-126821428D01*
X91780357Y-126707142D01*
X91837500Y-126478571D01*
X91837500Y-126307142D01*
X91780357Y-126078571D01*
X91723214Y-125964285D01*
X91608928Y-125850000D01*
X91437500Y-125792857D01*
X91323214Y-125792857D01*
X91151785Y-125850000D01*
X91094642Y-125907142D01*
X90237500Y-125792857D02*
X90237500Y-126650000D01*
X90294642Y-126821428D01*
X90408928Y-126935714D01*
X90580357Y-126992857D01*
X90694642Y-126992857D01*
X89094642Y-126992857D02*
X89666071Y-126992857D01*
X89666071Y-125792857D01*
X88008928Y-126878571D02*
X88066071Y-126935714D01*
X88237500Y-126992857D01*
X88351785Y-126992857D01*
X88523214Y-126935714D01*
X88637500Y-126821428D01*
X88694642Y-126707142D01*
X88751785Y-126478571D01*
X88751785Y-126307142D01*
X88694642Y-126078571D01*
X88637500Y-125964285D01*
X88523214Y-125850000D01*
X88351785Y-125792857D01*
X88237500Y-125792857D01*
X88066071Y-125850000D01*
X88008928Y-125907142D01*
X87151785Y-125792857D02*
X87151785Y-126650000D01*
X87208928Y-126821428D01*
X87323214Y-126935714D01*
X87494642Y-126992857D01*
X87608928Y-126992857D01*
X86008928Y-126992857D02*
X86580357Y-126992857D01*
X86580357Y-125792857D01*
X84923214Y-126878571D02*
X84980357Y-126935714D01*
X85151785Y-126992857D01*
X85266071Y-126992857D01*
X85437500Y-126935714D01*
X85551785Y-126821428D01*
X85608928Y-126707142D01*
X85666071Y-126478571D01*
X85666071Y-126307142D01*
X85608928Y-126078571D01*
X85551785Y-125964285D01*
X85437500Y-125850000D01*
X85266071Y-125792857D01*
X85151785Y-125792857D01*
X84980357Y-125850000D01*
X84923214Y-125907142D01*
D12*
X93147619Y-112027142D02*
X93195238Y-112074761D01*
X93338095Y-112122380D01*
X93433333Y-112122380D01*
X93576190Y-112074761D01*
X93671428Y-111979523D01*
X93719047Y-111884285D01*
X93766666Y-111693809D01*
X93766666Y-111550952D01*
X93719047Y-111360476D01*
X93671428Y-111265238D01*
X93576190Y-111170000D01*
X93433333Y-111122380D01*
X93338095Y-111122380D01*
X93195238Y-111170000D01*
X93147619Y-111217619D01*
X92576190Y-112122380D02*
X92671428Y-112074761D01*
X92719047Y-112027142D01*
X92766666Y-111931904D01*
X92766666Y-111646190D01*
X92719047Y-111550952D01*
X92671428Y-111503333D01*
X92576190Y-111455714D01*
X92433333Y-111455714D01*
X92338095Y-111503333D01*
X92290476Y-111550952D01*
X92242857Y-111646190D01*
X92242857Y-111931904D01*
X92290476Y-112027142D01*
X92338095Y-112074761D01*
X92433333Y-112122380D01*
X92576190Y-112122380D01*
X91814285Y-111455714D02*
X91814285Y-112455714D01*
X91814285Y-111503333D02*
X91719047Y-111455714D01*
X91528571Y-111455714D01*
X91433333Y-111503333D01*
X91385714Y-111550952D01*
X91338095Y-111646190D01*
X91338095Y-111931904D01*
X91385714Y-112027142D01*
X91433333Y-112074761D01*
X91528571Y-112122380D01*
X91719047Y-112122380D01*
X91814285Y-112074761D01*
X91004761Y-111455714D02*
X90766666Y-112122380D01*
X90528571Y-111455714D02*
X90766666Y-112122380D01*
X90861904Y-112360476D01*
X90909523Y-112408095D01*
X91004761Y-112455714D01*
X90147619Y-112122380D02*
X90147619Y-111455714D01*
X90147619Y-111646190D02*
X90100000Y-111550952D01*
X90052380Y-111503333D01*
X89957142Y-111455714D01*
X89861904Y-111455714D01*
X89528571Y-112122380D02*
X89528571Y-111455714D01*
X89528571Y-111122380D02*
X89576190Y-111170000D01*
X89528571Y-111217619D01*
X89480952Y-111170000D01*
X89528571Y-111122380D01*
X89528571Y-111217619D01*
X88623809Y-111455714D02*
X88623809Y-112265238D01*
X88671428Y-112360476D01*
X88719047Y-112408095D01*
X88814285Y-112455714D01*
X88957142Y-112455714D01*
X89052380Y-112408095D01*
X88623809Y-112074761D02*
X88719047Y-112122380D01*
X88909523Y-112122380D01*
X89004761Y-112074761D01*
X89052380Y-112027142D01*
X89100000Y-111931904D01*
X89100000Y-111646190D01*
X89052380Y-111550952D01*
X89004761Y-111503333D01*
X88909523Y-111455714D01*
X88719047Y-111455714D01*
X88623809Y-111503333D01*
X88147619Y-112122380D02*
X88147619Y-111122380D01*
X87719047Y-112122380D02*
X87719047Y-111598571D01*
X87766666Y-111503333D01*
X87861904Y-111455714D01*
X88004761Y-111455714D01*
X88100000Y-111503333D01*
X88147619Y-111550952D01*
X87385714Y-111455714D02*
X87004761Y-111455714D01*
X87242857Y-111122380D02*
X87242857Y-111979523D01*
X87195238Y-112074761D01*
X87100000Y-112122380D01*
X87004761Y-112122380D01*
X85623809Y-112503333D02*
X85671428Y-112455714D01*
X85766666Y-112312857D01*
X85814285Y-112217619D01*
X85861904Y-112074761D01*
X85909523Y-111836666D01*
X85909523Y-111646190D01*
X85861904Y-111408095D01*
X85814285Y-111265238D01*
X85766666Y-111170000D01*
X85671428Y-111027142D01*
X85623809Y-110979523D01*
X84671428Y-112027142D02*
X84719047Y-112074761D01*
X84861904Y-112122380D01*
X84957142Y-112122380D01*
X85100000Y-112074761D01*
X85195238Y-111979523D01*
X85242857Y-111884285D01*
X85290476Y-111693809D01*
X85290476Y-111550952D01*
X85242857Y-111360476D01*
X85195238Y-111265238D01*
X85100000Y-111170000D01*
X84957142Y-111122380D01*
X84861904Y-111122380D01*
X84719047Y-111170000D01*
X84671428Y-111217619D01*
X84338095Y-112503333D02*
X84290476Y-112455714D01*
X84195238Y-112312857D01*
X84147619Y-112217619D01*
X84100000Y-112074761D01*
X84052380Y-111836666D01*
X84052380Y-111646190D01*
X84100000Y-111408095D01*
X84147619Y-111265238D01*
X84195238Y-111170000D01*
X84290476Y-111027142D01*
X84338095Y-110979523D01*
X82861904Y-111217619D02*
X82814285Y-111170000D01*
X82719047Y-111122380D01*
X82480952Y-111122380D01*
X82385714Y-111170000D01*
X82338095Y-111217619D01*
X82290476Y-111312857D01*
X82290476Y-111408095D01*
X82338095Y-111550952D01*
X82909523Y-112122380D01*
X82290476Y-112122380D01*
X81671428Y-111122380D02*
X81576190Y-111122380D01*
X81480952Y-111170000D01*
X81433333Y-111217619D01*
X81385714Y-111312857D01*
X81338095Y-111503333D01*
X81338095Y-111741428D01*
X81385714Y-111931904D01*
X81433333Y-112027142D01*
X81480952Y-112074761D01*
X81576190Y-112122380D01*
X81671428Y-112122380D01*
X81766666Y-112074761D01*
X81814285Y-112027142D01*
X81861904Y-111931904D01*
X81909523Y-111741428D01*
X81909523Y-111503333D01*
X81861904Y-111312857D01*
X81814285Y-111217619D01*
X81766666Y-111170000D01*
X81671428Y-111122380D01*
X80957142Y-111217619D02*
X80909523Y-111170000D01*
X80814285Y-111122380D01*
X80576190Y-111122380D01*
X80480952Y-111170000D01*
X80433333Y-111217619D01*
X80385714Y-111312857D01*
X80385714Y-111408095D01*
X80433333Y-111550952D01*
X81004761Y-112122380D01*
X80385714Y-112122380D01*
X80052380Y-111122380D02*
X79433333Y-111122380D01*
X79766666Y-111503333D01*
X79623809Y-111503333D01*
X79528571Y-111550952D01*
X79480952Y-111598571D01*
X79433333Y-111693809D01*
X79433333Y-111931904D01*
X79480952Y-112027142D01*
X79528571Y-112074761D01*
X79623809Y-112122380D01*
X79909523Y-112122380D01*
X80004761Y-112074761D01*
X80052380Y-112027142D01*
X92814285Y-112732380D02*
X92242857Y-112732380D01*
X92528571Y-113732380D02*
X92528571Y-112732380D01*
X91909523Y-113732380D02*
X91909523Y-112732380D01*
X91480952Y-113732380D02*
X91480952Y-113208571D01*
X91528571Y-113113333D01*
X91623809Y-113065714D01*
X91766666Y-113065714D01*
X91861904Y-113113333D01*
X91909523Y-113160952D01*
X90623809Y-113684761D02*
X90719047Y-113732380D01*
X90909523Y-113732380D01*
X91004761Y-113684761D01*
X91052380Y-113589523D01*
X91052380Y-113208571D01*
X91004761Y-113113333D01*
X90909523Y-113065714D01*
X90719047Y-113065714D01*
X90623809Y-113113333D01*
X90576190Y-113208571D01*
X90576190Y-113303809D01*
X91052380Y-113399047D01*
X89433333Y-113446666D02*
X88957142Y-113446666D01*
X89528571Y-113732380D02*
X89195238Y-112732380D01*
X88861904Y-113732380D01*
X88528571Y-113065714D02*
X88528571Y-113732380D01*
X88528571Y-113160952D02*
X88480952Y-113113333D01*
X88385714Y-113065714D01*
X88242857Y-113065714D01*
X88147619Y-113113333D01*
X88100000Y-113208571D01*
X88100000Y-113732380D01*
X87766666Y-113065714D02*
X87385714Y-113065714D01*
X87623809Y-112732380D02*
X87623809Y-113589523D01*
X87576190Y-113684761D01*
X87480952Y-113732380D01*
X87385714Y-113732380D01*
X86671428Y-113684761D02*
X86766666Y-113732380D01*
X86957142Y-113732380D01*
X87052380Y-113684761D01*
X87100000Y-113589523D01*
X87100000Y-113208571D01*
X87052380Y-113113333D01*
X86957142Y-113065714D01*
X86766666Y-113065714D01*
X86671428Y-113113333D01*
X86623809Y-113208571D01*
X86623809Y-113303809D01*
X87100000Y-113399047D01*
X86195238Y-113065714D02*
X86195238Y-113732380D01*
X86195238Y-113160952D02*
X86147619Y-113113333D01*
X86052380Y-113065714D01*
X85909523Y-113065714D01*
X85814285Y-113113333D01*
X85766666Y-113208571D01*
X85766666Y-113732380D01*
X85290476Y-113065714D02*
X85290476Y-113732380D01*
X85290476Y-113160952D02*
X85242857Y-113113333D01*
X85147619Y-113065714D01*
X85004761Y-113065714D01*
X84909523Y-113113333D01*
X84861904Y-113208571D01*
X84861904Y-113732380D01*
X83957142Y-113732380D02*
X83957142Y-113208571D01*
X84004761Y-113113333D01*
X84100000Y-113065714D01*
X84290476Y-113065714D01*
X84385714Y-113113333D01*
X83957142Y-113684761D02*
X84052380Y-113732380D01*
X84290476Y-113732380D01*
X84385714Y-113684761D01*
X84433333Y-113589523D01*
X84433333Y-113494285D01*
X84385714Y-113399047D01*
X84290476Y-113351428D01*
X84052380Y-113351428D01*
X83957142Y-113303809D01*
X82195238Y-112780000D02*
X82290476Y-112732380D01*
X82433333Y-112732380D01*
X82576190Y-112780000D01*
X82671428Y-112875238D01*
X82719047Y-112970476D01*
X82766666Y-113160952D01*
X82766666Y-113303809D01*
X82719047Y-113494285D01*
X82671428Y-113589523D01*
X82576190Y-113684761D01*
X82433333Y-113732380D01*
X82338095Y-113732380D01*
X82195238Y-113684761D01*
X82147619Y-113637142D01*
X82147619Y-113303809D01*
X82338095Y-113303809D01*
X81290476Y-113065714D02*
X81290476Y-113732380D01*
X81719047Y-113065714D02*
X81719047Y-113589523D01*
X81671428Y-113684761D01*
X81576190Y-113732380D01*
X81433333Y-113732380D01*
X81338095Y-113684761D01*
X81290476Y-113637142D01*
X80909523Y-113065714D02*
X80671428Y-113732380D01*
X80433333Y-113065714D02*
X80671428Y-113732380D01*
X80766666Y-113970476D01*
X80814285Y-114018095D01*
X80909523Y-114065714D01*
D13*
X69339285Y-100103571D02*
X69367857Y-100075000D01*
X69396428Y-99989285D01*
X69396428Y-99932142D01*
X69367857Y-99846428D01*
X69310714Y-99789285D01*
X69253571Y-99760714D01*
X69139285Y-99732142D01*
X69053571Y-99732142D01*
X68939285Y-99760714D01*
X68882142Y-99789285D01*
X68825000Y-99846428D01*
X68796428Y-99932142D01*
X68796428Y-99989285D01*
X68825000Y-100075000D01*
X68853571Y-100103571D01*
X68853571Y-100332142D02*
X68825000Y-100360714D01*
X68796428Y-100417857D01*
X68796428Y-100560714D01*
X68825000Y-100617857D01*
X68853571Y-100646428D01*
X68910714Y-100675000D01*
X68967857Y-100675000D01*
X69053571Y-100646428D01*
X69396428Y-100303571D01*
X69396428Y-100675000D01*
X69396428Y-101246428D02*
X69396428Y-100903571D01*
X69396428Y-101075000D02*
X68796428Y-101075000D01*
X68882142Y-101017857D01*
X68939285Y-100960714D01*
X68967857Y-100903571D01*
X69053571Y-101589285D02*
X69025000Y-101532142D01*
X68996428Y-101503571D01*
X68939285Y-101475000D01*
X68910714Y-101475000D01*
X68853571Y-101503571D01*
X68825000Y-101532142D01*
X68796428Y-101589285D01*
X68796428Y-101703571D01*
X68825000Y-101760714D01*
X68853571Y-101789285D01*
X68910714Y-101817857D01*
X68939285Y-101817857D01*
X68996428Y-101789285D01*
X69025000Y-101760714D01*
X69053571Y-101703571D01*
X69053571Y-101589285D01*
X69082142Y-101532142D01*
X69110714Y-101503571D01*
X69167857Y-101475000D01*
X69282142Y-101475000D01*
X69339285Y-101503571D01*
X69367857Y-101532142D01*
X69396428Y-101589285D01*
X69396428Y-101703571D01*
X69367857Y-101760714D01*
X69339285Y-101789285D01*
X69282142Y-101817857D01*
X69167857Y-101817857D01*
X69110714Y-101789285D01*
X69082142Y-101760714D01*
X69053571Y-101703571D01*
X66089285Y-96403571D02*
X66117857Y-96375000D01*
X66146428Y-96289285D01*
X66146428Y-96232142D01*
X66117857Y-96146428D01*
X66060714Y-96089285D01*
X66003571Y-96060714D01*
X65889285Y-96032142D01*
X65803571Y-96032142D01*
X65689285Y-96060714D01*
X65632142Y-96089285D01*
X65575000Y-96146428D01*
X65546428Y-96232142D01*
X65546428Y-96289285D01*
X65575000Y-96375000D01*
X65603571Y-96403571D01*
X65603571Y-96632142D02*
X65575000Y-96660714D01*
X65546428Y-96717857D01*
X65546428Y-96860714D01*
X65575000Y-96917857D01*
X65603571Y-96946428D01*
X65660714Y-96975000D01*
X65717857Y-96975000D01*
X65803571Y-96946428D01*
X66146428Y-96603571D01*
X66146428Y-96975000D01*
X66146428Y-97546428D02*
X66146428Y-97203571D01*
X66146428Y-97375000D02*
X65546428Y-97375000D01*
X65632142Y-97317857D01*
X65689285Y-97260714D01*
X65717857Y-97203571D01*
X65546428Y-98060714D02*
X65546428Y-97946428D01*
X65575000Y-97889285D01*
X65603571Y-97860714D01*
X65689285Y-97803571D01*
X65803571Y-97775000D01*
X66032142Y-97775000D01*
X66089285Y-97803571D01*
X66117857Y-97832142D01*
X66146428Y-97889285D01*
X66146428Y-98003571D01*
X66117857Y-98060714D01*
X66089285Y-98089285D01*
X66032142Y-98117857D01*
X65889285Y-98117857D01*
X65832142Y-98089285D01*
X65803571Y-98060714D01*
X65775000Y-98003571D01*
X65775000Y-97889285D01*
X65803571Y-97832142D01*
X65832142Y-97803571D01*
X65889285Y-97775000D01*
X70621428Y-97939285D02*
X70650000Y-97967857D01*
X70735714Y-97996428D01*
X70792857Y-97996428D01*
X70878571Y-97967857D01*
X70935714Y-97910714D01*
X70964285Y-97853571D01*
X70992857Y-97739285D01*
X70992857Y-97653571D01*
X70964285Y-97539285D01*
X70935714Y-97482142D01*
X70878571Y-97425000D01*
X70792857Y-97396428D01*
X70735714Y-97396428D01*
X70650000Y-97425000D01*
X70621428Y-97453571D01*
X70392857Y-97453571D02*
X70364285Y-97425000D01*
X70307142Y-97396428D01*
X70164285Y-97396428D01*
X70107142Y-97425000D01*
X70078571Y-97453571D01*
X70050000Y-97510714D01*
X70050000Y-97567857D01*
X70078571Y-97653571D01*
X70421428Y-97996428D01*
X70050000Y-97996428D01*
X69478571Y-97996428D02*
X69821428Y-97996428D01*
X69650000Y-97996428D02*
X69650000Y-97396428D01*
X69707142Y-97482142D01*
X69764285Y-97539285D01*
X69821428Y-97567857D01*
X68907142Y-97996428D02*
X69250000Y-97996428D01*
X69078571Y-97996428D02*
X69078571Y-97396428D01*
X69135714Y-97482142D01*
X69192857Y-97539285D01*
X69250000Y-97567857D01*
X67575028Y-66914685D02*
X67603600Y-66943257D01*
X67689314Y-66971828D01*
X67746457Y-66971828D01*
X67832171Y-66943257D01*
X67889314Y-66886114D01*
X67917885Y-66828971D01*
X67946457Y-66714685D01*
X67946457Y-66628971D01*
X67917885Y-66514685D01*
X67889314Y-66457542D01*
X67832171Y-66400400D01*
X67746457Y-66371828D01*
X67689314Y-66371828D01*
X67603600Y-66400400D01*
X67575028Y-66428971D01*
X67375028Y-66371828D02*
X67003600Y-66371828D01*
X67203600Y-66600400D01*
X67117885Y-66600400D01*
X67060742Y-66628971D01*
X67032171Y-66657542D01*
X67003600Y-66714685D01*
X67003600Y-66857542D01*
X67032171Y-66914685D01*
X67060742Y-66943257D01*
X67117885Y-66971828D01*
X67289314Y-66971828D01*
X67346457Y-66943257D01*
X67375028Y-66914685D01*
X66432171Y-66971828D02*
X66775028Y-66971828D01*
X66603600Y-66971828D02*
X66603600Y-66371828D01*
X66660742Y-66457542D01*
X66717885Y-66514685D01*
X66775028Y-66543257D01*
X65860742Y-66971828D02*
X66203600Y-66971828D01*
X66032171Y-66971828D02*
X66032171Y-66371828D01*
X66089314Y-66457542D01*
X66146457Y-66514685D01*
X66203600Y-66543257D01*
X71486628Y-70883428D02*
X71686628Y-70597714D01*
X71829485Y-70883428D02*
X71829485Y-70283428D01*
X71600914Y-70283428D01*
X71543771Y-70312000D01*
X71515200Y-70340571D01*
X71486628Y-70397714D01*
X71486628Y-70483428D01*
X71515200Y-70540571D01*
X71543771Y-70569142D01*
X71600914Y-70597714D01*
X71829485Y-70597714D01*
X71286628Y-70283428D02*
X70915200Y-70283428D01*
X71115200Y-70512000D01*
X71029485Y-70512000D01*
X70972342Y-70540571D01*
X70943771Y-70569142D01*
X70915200Y-70626285D01*
X70915200Y-70769142D01*
X70943771Y-70826285D01*
X70972342Y-70854857D01*
X71029485Y-70883428D01*
X71200914Y-70883428D01*
X71258057Y-70854857D01*
X71286628Y-70826285D01*
X70343771Y-70883428D02*
X70686628Y-70883428D01*
X70515200Y-70883428D02*
X70515200Y-70283428D01*
X70572342Y-70369142D01*
X70629485Y-70426285D01*
X70686628Y-70454857D01*
X70143771Y-70283428D02*
X69772342Y-70283428D01*
X69972342Y-70512000D01*
X69886628Y-70512000D01*
X69829485Y-70540571D01*
X69800914Y-70569142D01*
X69772342Y-70626285D01*
X69772342Y-70769142D01*
X69800914Y-70826285D01*
X69829485Y-70854857D01*
X69886628Y-70883428D01*
X70058057Y-70883428D01*
X70115200Y-70854857D01*
X70143771Y-70826285D01*
X73221428Y-97964285D02*
X73250000Y-97992857D01*
X73335714Y-98021428D01*
X73392857Y-98021428D01*
X73478571Y-97992857D01*
X73535714Y-97935714D01*
X73564285Y-97878571D01*
X73592857Y-97764285D01*
X73592857Y-97678571D01*
X73564285Y-97564285D01*
X73535714Y-97507142D01*
X73478571Y-97450000D01*
X73392857Y-97421428D01*
X73335714Y-97421428D01*
X73250000Y-97450000D01*
X73221428Y-97478571D01*
X72992857Y-97478571D02*
X72964285Y-97450000D01*
X72907142Y-97421428D01*
X72764285Y-97421428D01*
X72707142Y-97450000D01*
X72678571Y-97478571D01*
X72650000Y-97535714D01*
X72650000Y-97592857D01*
X72678571Y-97678571D01*
X73021428Y-98021428D01*
X72650000Y-98021428D01*
X72078571Y-98021428D02*
X72421428Y-98021428D01*
X72250000Y-98021428D02*
X72250000Y-97421428D01*
X72307142Y-97507142D01*
X72364285Y-97564285D01*
X72421428Y-97592857D01*
X71564285Y-97621428D02*
X71564285Y-98021428D01*
X71707142Y-97392857D02*
X71850000Y-97821428D01*
X71478571Y-97821428D01*
X75455428Y-75833371D02*
X75169714Y-75633371D01*
X75455428Y-75490514D02*
X74855428Y-75490514D01*
X74855428Y-75719085D01*
X74884000Y-75776228D01*
X74912571Y-75804800D01*
X74969714Y-75833371D01*
X75055428Y-75833371D01*
X75112571Y-75804800D01*
X75141142Y-75776228D01*
X75169714Y-75719085D01*
X75169714Y-75490514D01*
X74855428Y-76033371D02*
X74855428Y-76404800D01*
X75084000Y-76204800D01*
X75084000Y-76290514D01*
X75112571Y-76347657D01*
X75141142Y-76376228D01*
X75198285Y-76404800D01*
X75341142Y-76404800D01*
X75398285Y-76376228D01*
X75426857Y-76347657D01*
X75455428Y-76290514D01*
X75455428Y-76119085D01*
X75426857Y-76061942D01*
X75398285Y-76033371D01*
X74855428Y-76776228D02*
X74855428Y-76833371D01*
X74884000Y-76890514D01*
X74912571Y-76919085D01*
X74969714Y-76947657D01*
X75084000Y-76976228D01*
X75226857Y-76976228D01*
X75341142Y-76947657D01*
X75398285Y-76919085D01*
X75426857Y-76890514D01*
X75455428Y-76833371D01*
X75455428Y-76776228D01*
X75426857Y-76719085D01*
X75398285Y-76690514D01*
X75341142Y-76661942D01*
X75226857Y-76633371D01*
X75084000Y-76633371D01*
X74969714Y-76661942D01*
X74912571Y-76690514D01*
X74884000Y-76719085D01*
X74855428Y-76776228D01*
X75055428Y-77490514D02*
X75455428Y-77490514D01*
X74826857Y-77347657D02*
X75255428Y-77204800D01*
X75255428Y-77576228D01*
X74280628Y-65136685D02*
X74309200Y-65165257D01*
X74394914Y-65193828D01*
X74452057Y-65193828D01*
X74537771Y-65165257D01*
X74594914Y-65108114D01*
X74623485Y-65050971D01*
X74652057Y-64936685D01*
X74652057Y-64850971D01*
X74623485Y-64736685D01*
X74594914Y-64679542D01*
X74537771Y-64622400D01*
X74452057Y-64593828D01*
X74394914Y-64593828D01*
X74309200Y-64622400D01*
X74280628Y-64650971D01*
X74080628Y-64593828D02*
X73709200Y-64593828D01*
X73909200Y-64822400D01*
X73823485Y-64822400D01*
X73766342Y-64850971D01*
X73737771Y-64879542D01*
X73709200Y-64936685D01*
X73709200Y-65079542D01*
X73737771Y-65136685D01*
X73766342Y-65165257D01*
X73823485Y-65193828D01*
X73994914Y-65193828D01*
X74052057Y-65165257D01*
X74080628Y-65136685D01*
X73137771Y-65193828D02*
X73480628Y-65193828D01*
X73309200Y-65193828D02*
X73309200Y-64593828D01*
X73366342Y-64679542D01*
X73423485Y-64736685D01*
X73480628Y-64765257D01*
X72766342Y-64593828D02*
X72709200Y-64593828D01*
X72652057Y-64622400D01*
X72623485Y-64650971D01*
X72594914Y-64708114D01*
X72566342Y-64822400D01*
X72566342Y-64965257D01*
X72594914Y-65079542D01*
X72623485Y-65136685D01*
X72652057Y-65165257D01*
X72709200Y-65193828D01*
X72766342Y-65193828D01*
X72823485Y-65165257D01*
X72852057Y-65136685D01*
X72880628Y-65079542D01*
X72909200Y-64965257D01*
X72909200Y-64822400D01*
X72880628Y-64708114D01*
X72852057Y-64650971D01*
X72823485Y-64622400D01*
X72766342Y-64593828D01*
X74280628Y-66362228D02*
X74480628Y-66076514D01*
X74623485Y-66362228D02*
X74623485Y-65762228D01*
X74394914Y-65762228D01*
X74337771Y-65790800D01*
X74309200Y-65819371D01*
X74280628Y-65876514D01*
X74280628Y-65962228D01*
X74309200Y-66019371D01*
X74337771Y-66047942D01*
X74394914Y-66076514D01*
X74623485Y-66076514D01*
X74080628Y-65762228D02*
X73709200Y-65762228D01*
X73909200Y-65990800D01*
X73823485Y-65990800D01*
X73766342Y-66019371D01*
X73737771Y-66047942D01*
X73709200Y-66105085D01*
X73709200Y-66247942D01*
X73737771Y-66305085D01*
X73766342Y-66333657D01*
X73823485Y-66362228D01*
X73994914Y-66362228D01*
X74052057Y-66333657D01*
X74080628Y-66305085D01*
X73337771Y-65762228D02*
X73280628Y-65762228D01*
X73223485Y-65790800D01*
X73194914Y-65819371D01*
X73166342Y-65876514D01*
X73137771Y-65990800D01*
X73137771Y-66133657D01*
X73166342Y-66247942D01*
X73194914Y-66305085D01*
X73223485Y-66333657D01*
X73280628Y-66362228D01*
X73337771Y-66362228D01*
X73394914Y-66333657D01*
X73423485Y-66305085D01*
X73452057Y-66247942D01*
X73480628Y-66133657D01*
X73480628Y-65990800D01*
X73452057Y-65876514D01*
X73423485Y-65819371D01*
X73394914Y-65790800D01*
X73337771Y-65762228D01*
X72594914Y-65762228D02*
X72880628Y-65762228D01*
X72909200Y-66047942D01*
X72880628Y-66019371D01*
X72823485Y-65990800D01*
X72680628Y-65990800D01*
X72623485Y-66019371D01*
X72594914Y-66047942D01*
X72566342Y-66105085D01*
X72566342Y-66247942D01*
X72594914Y-66305085D01*
X72623485Y-66333657D01*
X72680628Y-66362228D01*
X72823485Y-66362228D01*
X72880628Y-66333657D01*
X72909200Y-66305085D01*
X71943828Y-66006628D02*
X72143828Y-65720914D01*
X72286685Y-66006628D02*
X72286685Y-65406628D01*
X72058114Y-65406628D01*
X72000971Y-65435200D01*
X71972400Y-65463771D01*
X71943828Y-65520914D01*
X71943828Y-65606628D01*
X71972400Y-65663771D01*
X72000971Y-65692342D01*
X72058114Y-65720914D01*
X72286685Y-65720914D01*
X71743828Y-65406628D02*
X71372400Y-65406628D01*
X71572400Y-65635200D01*
X71486685Y-65635200D01*
X71429542Y-65663771D01*
X71400971Y-65692342D01*
X71372400Y-65749485D01*
X71372400Y-65892342D01*
X71400971Y-65949485D01*
X71429542Y-65978057D01*
X71486685Y-66006628D01*
X71658114Y-66006628D01*
X71715257Y-65978057D01*
X71743828Y-65949485D01*
X70800971Y-66006628D02*
X71143828Y-66006628D01*
X70972400Y-66006628D02*
X70972400Y-65406628D01*
X71029542Y-65492342D01*
X71086685Y-65549485D01*
X71143828Y-65578057D01*
X70429542Y-65406628D02*
X70372400Y-65406628D01*
X70315257Y-65435200D01*
X70286685Y-65463771D01*
X70258114Y-65520914D01*
X70229542Y-65635200D01*
X70229542Y-65778057D01*
X70258114Y-65892342D01*
X70286685Y-65949485D01*
X70315257Y-65978057D01*
X70372400Y-66006628D01*
X70429542Y-66006628D01*
X70486685Y-65978057D01*
X70515257Y-65949485D01*
X70543828Y-65892342D01*
X70572400Y-65778057D01*
X70572400Y-65635200D01*
X70543828Y-65520914D01*
X70515257Y-65463771D01*
X70486685Y-65435200D01*
X70429542Y-65406628D01*
X73163085Y-71515371D02*
X73191657Y-71486800D01*
X73220228Y-71401085D01*
X73220228Y-71343942D01*
X73191657Y-71258228D01*
X73134514Y-71201085D01*
X73077371Y-71172514D01*
X72963085Y-71143942D01*
X72877371Y-71143942D01*
X72763085Y-71172514D01*
X72705942Y-71201085D01*
X72648800Y-71258228D01*
X72620228Y-71343942D01*
X72620228Y-71401085D01*
X72648800Y-71486800D01*
X72677371Y-71515371D01*
X72620228Y-71715371D02*
X72620228Y-72086800D01*
X72848800Y-71886800D01*
X72848800Y-71972514D01*
X72877371Y-72029657D01*
X72905942Y-72058228D01*
X72963085Y-72086800D01*
X73105942Y-72086800D01*
X73163085Y-72058228D01*
X73191657Y-72029657D01*
X73220228Y-71972514D01*
X73220228Y-71801085D01*
X73191657Y-71743942D01*
X73163085Y-71715371D01*
X73220228Y-72658228D02*
X73220228Y-72315371D01*
X73220228Y-72486800D02*
X72620228Y-72486800D01*
X72705942Y-72429657D01*
X72763085Y-72372514D01*
X72791657Y-72315371D01*
X73220228Y-72943942D02*
X73220228Y-73058228D01*
X73191657Y-73115371D01*
X73163085Y-73143942D01*
X73077371Y-73201085D01*
X72963085Y-73229657D01*
X72734514Y-73229657D01*
X72677371Y-73201085D01*
X72648800Y-73172514D01*
X72620228Y-73115371D01*
X72620228Y-73001085D01*
X72648800Y-72943942D01*
X72677371Y-72915371D01*
X72734514Y-72886800D01*
X72877371Y-72886800D01*
X72934514Y-72915371D01*
X72963085Y-72943942D01*
X72991657Y-73001085D01*
X72991657Y-73115371D01*
X72963085Y-73172514D01*
X72934514Y-73201085D01*
X72877371Y-73229657D01*
X67189285Y-96403571D02*
X67217857Y-96375000D01*
X67246428Y-96289285D01*
X67246428Y-96232142D01*
X67217857Y-96146428D01*
X67160714Y-96089285D01*
X67103571Y-96060714D01*
X66989285Y-96032142D01*
X66903571Y-96032142D01*
X66789285Y-96060714D01*
X66732142Y-96089285D01*
X66675000Y-96146428D01*
X66646428Y-96232142D01*
X66646428Y-96289285D01*
X66675000Y-96375000D01*
X66703571Y-96403571D01*
X66703571Y-96632142D02*
X66675000Y-96660714D01*
X66646428Y-96717857D01*
X66646428Y-96860714D01*
X66675000Y-96917857D01*
X66703571Y-96946428D01*
X66760714Y-96975000D01*
X66817857Y-96975000D01*
X66903571Y-96946428D01*
X67246428Y-96603571D01*
X67246428Y-96975000D01*
X67246428Y-97546428D02*
X67246428Y-97203571D01*
X67246428Y-97375000D02*
X66646428Y-97375000D01*
X66732142Y-97317857D01*
X66789285Y-97260714D01*
X66817857Y-97203571D01*
X66646428Y-98089285D02*
X66646428Y-97803571D01*
X66932142Y-97775000D01*
X66903571Y-97803571D01*
X66875000Y-97860714D01*
X66875000Y-98003571D01*
X66903571Y-98060714D01*
X66932142Y-98089285D01*
X66989285Y-98117857D01*
X67132142Y-98117857D01*
X67189285Y-98089285D01*
X67217857Y-98060714D01*
X67246428Y-98003571D01*
X67246428Y-97860714D01*
X67217857Y-97803571D01*
X67189285Y-97775000D01*
X82525828Y-69918228D02*
X82725828Y-69632514D01*
X82868685Y-69918228D02*
X82868685Y-69318228D01*
X82640114Y-69318228D01*
X82582971Y-69346800D01*
X82554400Y-69375371D01*
X82525828Y-69432514D01*
X82525828Y-69518228D01*
X82554400Y-69575371D01*
X82582971Y-69603942D01*
X82640114Y-69632514D01*
X82868685Y-69632514D01*
X82325828Y-69318228D02*
X81954400Y-69318228D01*
X82154400Y-69546800D01*
X82068685Y-69546800D01*
X82011542Y-69575371D01*
X81982971Y-69603942D01*
X81954400Y-69661085D01*
X81954400Y-69803942D01*
X81982971Y-69861085D01*
X82011542Y-69889657D01*
X82068685Y-69918228D01*
X82240114Y-69918228D01*
X82297257Y-69889657D01*
X82325828Y-69861085D01*
X81382971Y-69918228D02*
X81725828Y-69918228D01*
X81554400Y-69918228D02*
X81554400Y-69318228D01*
X81611542Y-69403942D01*
X81668685Y-69461085D01*
X81725828Y-69489657D01*
X81154400Y-69375371D02*
X81125828Y-69346800D01*
X81068685Y-69318228D01*
X80925828Y-69318228D01*
X80868685Y-69346800D01*
X80840114Y-69375371D01*
X80811542Y-69432514D01*
X80811542Y-69489657D01*
X80840114Y-69575371D01*
X81182971Y-69918228D01*
X80811542Y-69918228D01*
X72967771Y-80287771D02*
X73024914Y-80259200D01*
X73082057Y-80202057D01*
X73167771Y-80116342D01*
X73224914Y-80087771D01*
X73282057Y-80087771D01*
X73253485Y-80230628D02*
X73310628Y-80202057D01*
X73367771Y-80144914D01*
X73396342Y-80030628D01*
X73396342Y-79830628D01*
X73367771Y-79716342D01*
X73310628Y-79659200D01*
X73253485Y-79630628D01*
X73139200Y-79630628D01*
X73082057Y-79659200D01*
X73024914Y-79716342D01*
X72996342Y-79830628D01*
X72996342Y-80030628D01*
X73024914Y-80144914D01*
X73082057Y-80202057D01*
X73139200Y-80230628D01*
X73253485Y-80230628D01*
X72796342Y-79630628D02*
X72424914Y-79630628D01*
X72624914Y-79859200D01*
X72539200Y-79859200D01*
X72482057Y-79887771D01*
X72453485Y-79916342D01*
X72424914Y-79973485D01*
X72424914Y-80116342D01*
X72453485Y-80173485D01*
X72482057Y-80202057D01*
X72539200Y-80230628D01*
X72710628Y-80230628D01*
X72767771Y-80202057D01*
X72796342Y-80173485D01*
X72053485Y-79630628D02*
X71996342Y-79630628D01*
X71939200Y-79659200D01*
X71910628Y-79687771D01*
X71882057Y-79744914D01*
X71853485Y-79859200D01*
X71853485Y-80002057D01*
X71882057Y-80116342D01*
X71910628Y-80173485D01*
X71939200Y-80202057D01*
X71996342Y-80230628D01*
X72053485Y-80230628D01*
X72110628Y-80202057D01*
X72139200Y-80173485D01*
X72167771Y-80116342D01*
X72196342Y-80002057D01*
X72196342Y-79859200D01*
X72167771Y-79744914D01*
X72139200Y-79687771D01*
X72110628Y-79659200D01*
X72053485Y-79630628D01*
X71282057Y-80230628D02*
X71624914Y-80230628D01*
X71453485Y-80230628D02*
X71453485Y-79630628D01*
X71510628Y-79716342D01*
X71567771Y-79773485D01*
X71624914Y-79802057D01*
X66660628Y-68495828D02*
X66946342Y-68495828D01*
X66946342Y-67895828D01*
X66517771Y-67895828D02*
X66146342Y-67895828D01*
X66346342Y-68124400D01*
X66260628Y-68124400D01*
X66203485Y-68152971D01*
X66174914Y-68181542D01*
X66146342Y-68238685D01*
X66146342Y-68381542D01*
X66174914Y-68438685D01*
X66203485Y-68467257D01*
X66260628Y-68495828D01*
X66432057Y-68495828D01*
X66489200Y-68467257D01*
X66517771Y-68438685D01*
X65774914Y-67895828D02*
X65717771Y-67895828D01*
X65660628Y-67924400D01*
X65632057Y-67952971D01*
X65603485Y-68010114D01*
X65574914Y-68124400D01*
X65574914Y-68267257D01*
X65603485Y-68381542D01*
X65632057Y-68438685D01*
X65660628Y-68467257D01*
X65717771Y-68495828D01*
X65774914Y-68495828D01*
X65832057Y-68467257D01*
X65860628Y-68438685D01*
X65889200Y-68381542D01*
X65917771Y-68267257D01*
X65917771Y-68124400D01*
X65889200Y-68010114D01*
X65860628Y-67952971D01*
X65832057Y-67924400D01*
X65774914Y-67895828D01*
X65374914Y-67895828D02*
X65003485Y-67895828D01*
X65203485Y-68124400D01*
X65117771Y-68124400D01*
X65060628Y-68152971D01*
X65032057Y-68181542D01*
X65003485Y-68238685D01*
X65003485Y-68381542D01*
X65032057Y-68438685D01*
X65060628Y-68467257D01*
X65117771Y-68495828D01*
X65289200Y-68495828D01*
X65346342Y-68467257D01*
X65374914Y-68438685D01*
X82525828Y-68851428D02*
X82725828Y-68565714D01*
X82868685Y-68851428D02*
X82868685Y-68251428D01*
X82640114Y-68251428D01*
X82582971Y-68280000D01*
X82554400Y-68308571D01*
X82525828Y-68365714D01*
X82525828Y-68451428D01*
X82554400Y-68508571D01*
X82582971Y-68537142D01*
X82640114Y-68565714D01*
X82868685Y-68565714D01*
X82325828Y-68251428D02*
X81954400Y-68251428D01*
X82154400Y-68480000D01*
X82068685Y-68480000D01*
X82011542Y-68508571D01*
X81982971Y-68537142D01*
X81954400Y-68594285D01*
X81954400Y-68737142D01*
X81982971Y-68794285D01*
X82011542Y-68822857D01*
X82068685Y-68851428D01*
X82240114Y-68851428D01*
X82297257Y-68822857D01*
X82325828Y-68794285D01*
X81382971Y-68851428D02*
X81725828Y-68851428D01*
X81554400Y-68851428D02*
X81554400Y-68251428D01*
X81611542Y-68337142D01*
X81668685Y-68394285D01*
X81725828Y-68422857D01*
X80811542Y-68851428D02*
X81154400Y-68851428D01*
X80982971Y-68851428D02*
X80982971Y-68251428D01*
X81040114Y-68337142D01*
X81097257Y-68394285D01*
X81154400Y-68422857D01*
X71035828Y-73699771D02*
X70750114Y-73499771D01*
X71035828Y-73356914D02*
X70435828Y-73356914D01*
X70435828Y-73585485D01*
X70464400Y-73642628D01*
X70492971Y-73671200D01*
X70550114Y-73699771D01*
X70635828Y-73699771D01*
X70692971Y-73671200D01*
X70721542Y-73642628D01*
X70750114Y-73585485D01*
X70750114Y-73356914D01*
X70435828Y-73899771D02*
X70435828Y-74271200D01*
X70664400Y-74071200D01*
X70664400Y-74156914D01*
X70692971Y-74214057D01*
X70721542Y-74242628D01*
X70778685Y-74271200D01*
X70921542Y-74271200D01*
X70978685Y-74242628D01*
X71007257Y-74214057D01*
X71035828Y-74156914D01*
X71035828Y-73985485D01*
X71007257Y-73928342D01*
X70978685Y-73899771D01*
X70435828Y-74642628D02*
X70435828Y-74699771D01*
X70464400Y-74756914D01*
X70492971Y-74785485D01*
X70550114Y-74814057D01*
X70664400Y-74842628D01*
X70807257Y-74842628D01*
X70921542Y-74814057D01*
X70978685Y-74785485D01*
X71007257Y-74756914D01*
X71035828Y-74699771D01*
X71035828Y-74642628D01*
X71007257Y-74585485D01*
X70978685Y-74556914D01*
X70921542Y-74528342D01*
X70807257Y-74499771D01*
X70664400Y-74499771D01*
X70550114Y-74528342D01*
X70492971Y-74556914D01*
X70464400Y-74585485D01*
X70435828Y-74642628D01*
X70435828Y-75042628D02*
X70435828Y-75442628D01*
X71035828Y-75185485D01*
X76515885Y-75833371D02*
X76544457Y-75804800D01*
X76573028Y-75719085D01*
X76573028Y-75661942D01*
X76544457Y-75576228D01*
X76487314Y-75519085D01*
X76430171Y-75490514D01*
X76315885Y-75461942D01*
X76230171Y-75461942D01*
X76115885Y-75490514D01*
X76058742Y-75519085D01*
X76001600Y-75576228D01*
X75973028Y-75661942D01*
X75973028Y-75719085D01*
X76001600Y-75804800D01*
X76030171Y-75833371D01*
X75973028Y-76033371D02*
X75973028Y-76404800D01*
X76201600Y-76204800D01*
X76201600Y-76290514D01*
X76230171Y-76347657D01*
X76258742Y-76376228D01*
X76315885Y-76404800D01*
X76458742Y-76404800D01*
X76515885Y-76376228D01*
X76544457Y-76347657D01*
X76573028Y-76290514D01*
X76573028Y-76119085D01*
X76544457Y-76061942D01*
X76515885Y-76033371D01*
X75973028Y-76776228D02*
X75973028Y-76833371D01*
X76001600Y-76890514D01*
X76030171Y-76919085D01*
X76087314Y-76947657D01*
X76201600Y-76976228D01*
X76344457Y-76976228D01*
X76458742Y-76947657D01*
X76515885Y-76919085D01*
X76544457Y-76890514D01*
X76573028Y-76833371D01*
X76573028Y-76776228D01*
X76544457Y-76719085D01*
X76515885Y-76690514D01*
X76458742Y-76661942D01*
X76344457Y-76633371D01*
X76201600Y-76633371D01*
X76087314Y-76661942D01*
X76030171Y-76690514D01*
X76001600Y-76719085D01*
X75973028Y-76776228D01*
X76230171Y-77319085D02*
X76201600Y-77261942D01*
X76173028Y-77233371D01*
X76115885Y-77204800D01*
X76087314Y-77204800D01*
X76030171Y-77233371D01*
X76001600Y-77261942D01*
X75973028Y-77319085D01*
X75973028Y-77433371D01*
X76001600Y-77490514D01*
X76030171Y-77519085D01*
X76087314Y-77547657D01*
X76115885Y-77547657D01*
X76173028Y-77519085D01*
X76201600Y-77490514D01*
X76230171Y-77433371D01*
X76230171Y-77319085D01*
X76258742Y-77261942D01*
X76287314Y-77233371D01*
X76344457Y-77204800D01*
X76458742Y-77204800D01*
X76515885Y-77233371D01*
X76544457Y-77261942D01*
X76573028Y-77319085D01*
X76573028Y-77433371D01*
X76544457Y-77490514D01*
X76515885Y-77519085D01*
X76458742Y-77547657D01*
X76344457Y-77547657D01*
X76287314Y-77519085D01*
X76258742Y-77490514D01*
X76230171Y-77433371D01*
X67270228Y-70216685D02*
X67298800Y-70245257D01*
X67384514Y-70273828D01*
X67441657Y-70273828D01*
X67527371Y-70245257D01*
X67584514Y-70188114D01*
X67613085Y-70130971D01*
X67641657Y-70016685D01*
X67641657Y-69930971D01*
X67613085Y-69816685D01*
X67584514Y-69759542D01*
X67527371Y-69702400D01*
X67441657Y-69673828D01*
X67384514Y-69673828D01*
X67298800Y-69702400D01*
X67270228Y-69730971D01*
X67070228Y-69673828D02*
X66698800Y-69673828D01*
X66898800Y-69902400D01*
X66813085Y-69902400D01*
X66755942Y-69930971D01*
X66727371Y-69959542D01*
X66698800Y-70016685D01*
X66698800Y-70159542D01*
X66727371Y-70216685D01*
X66755942Y-70245257D01*
X66813085Y-70273828D01*
X66984514Y-70273828D01*
X67041657Y-70245257D01*
X67070228Y-70216685D01*
X66327371Y-69673828D02*
X66270228Y-69673828D01*
X66213085Y-69702400D01*
X66184514Y-69730971D01*
X66155942Y-69788114D01*
X66127371Y-69902400D01*
X66127371Y-70045257D01*
X66155942Y-70159542D01*
X66184514Y-70216685D01*
X66213085Y-70245257D01*
X66270228Y-70273828D01*
X66327371Y-70273828D01*
X66384514Y-70245257D01*
X66413085Y-70216685D01*
X66441657Y-70159542D01*
X66470228Y-70045257D01*
X66470228Y-69902400D01*
X66441657Y-69788114D01*
X66413085Y-69730971D01*
X66384514Y-69702400D01*
X66327371Y-69673828D01*
X65927371Y-69673828D02*
X65555942Y-69673828D01*
X65755942Y-69902400D01*
X65670228Y-69902400D01*
X65613085Y-69930971D01*
X65584514Y-69959542D01*
X65555942Y-70016685D01*
X65555942Y-70159542D01*
X65584514Y-70216685D01*
X65613085Y-70245257D01*
X65670228Y-70273828D01*
X65841657Y-70273828D01*
X65898800Y-70245257D01*
X65927371Y-70216685D01*
X69302228Y-72909085D02*
X69330800Y-72937657D01*
X69416514Y-72966228D01*
X69473657Y-72966228D01*
X69559371Y-72937657D01*
X69616514Y-72880514D01*
X69645085Y-72823371D01*
X69673657Y-72709085D01*
X69673657Y-72623371D01*
X69645085Y-72509085D01*
X69616514Y-72451942D01*
X69559371Y-72394800D01*
X69473657Y-72366228D01*
X69416514Y-72366228D01*
X69330800Y-72394800D01*
X69302228Y-72423371D01*
X69102228Y-72366228D02*
X68730800Y-72366228D01*
X68930800Y-72594800D01*
X68845085Y-72594800D01*
X68787942Y-72623371D01*
X68759371Y-72651942D01*
X68730800Y-72709085D01*
X68730800Y-72851942D01*
X68759371Y-72909085D01*
X68787942Y-72937657D01*
X68845085Y-72966228D01*
X69016514Y-72966228D01*
X69073657Y-72937657D01*
X69102228Y-72909085D01*
X68159371Y-72966228D02*
X68502228Y-72966228D01*
X68330800Y-72966228D02*
X68330800Y-72366228D01*
X68387942Y-72451942D01*
X68445085Y-72509085D01*
X68502228Y-72537657D01*
X67816514Y-72623371D02*
X67873657Y-72594800D01*
X67902228Y-72566228D01*
X67930800Y-72509085D01*
X67930800Y-72480514D01*
X67902228Y-72423371D01*
X67873657Y-72394800D01*
X67816514Y-72366228D01*
X67702228Y-72366228D01*
X67645085Y-72394800D01*
X67616514Y-72423371D01*
X67587942Y-72480514D01*
X67587942Y-72509085D01*
X67616514Y-72566228D01*
X67645085Y-72594800D01*
X67702228Y-72623371D01*
X67816514Y-72623371D01*
X67873657Y-72651942D01*
X67902228Y-72680514D01*
X67930800Y-72737657D01*
X67930800Y-72851942D01*
X67902228Y-72909085D01*
X67873657Y-72937657D01*
X67816514Y-72966228D01*
X67702228Y-72966228D01*
X67645085Y-72937657D01*
X67616514Y-72909085D01*
X67587942Y-72851942D01*
X67587942Y-72737657D01*
X67616514Y-72680514D01*
X67645085Y-72651942D01*
X67702228Y-72623371D01*
X72299485Y-67959371D02*
X72328057Y-67930800D01*
X72356628Y-67845085D01*
X72356628Y-67787942D01*
X72328057Y-67702228D01*
X72270914Y-67645085D01*
X72213771Y-67616514D01*
X72099485Y-67587942D01*
X72013771Y-67587942D01*
X71899485Y-67616514D01*
X71842342Y-67645085D01*
X71785200Y-67702228D01*
X71756628Y-67787942D01*
X71756628Y-67845085D01*
X71785200Y-67930800D01*
X71813771Y-67959371D01*
X71756628Y-68159371D02*
X71756628Y-68530800D01*
X71985200Y-68330800D01*
X71985200Y-68416514D01*
X72013771Y-68473657D01*
X72042342Y-68502228D01*
X72099485Y-68530800D01*
X72242342Y-68530800D01*
X72299485Y-68502228D01*
X72328057Y-68473657D01*
X72356628Y-68416514D01*
X72356628Y-68245085D01*
X72328057Y-68187942D01*
X72299485Y-68159371D01*
X72356628Y-69102228D02*
X72356628Y-68759371D01*
X72356628Y-68930800D02*
X71756628Y-68930800D01*
X71842342Y-68873657D01*
X71899485Y-68816514D01*
X71928057Y-68759371D01*
X71956628Y-69616514D02*
X72356628Y-69616514D01*
X71728057Y-69473657D02*
X72156628Y-69330800D01*
X72156628Y-69702228D01*
X74337828Y-75833371D02*
X74052114Y-75633371D01*
X74337828Y-75490514D02*
X73737828Y-75490514D01*
X73737828Y-75719085D01*
X73766400Y-75776228D01*
X73794971Y-75804800D01*
X73852114Y-75833371D01*
X73937828Y-75833371D01*
X73994971Y-75804800D01*
X74023542Y-75776228D01*
X74052114Y-75719085D01*
X74052114Y-75490514D01*
X73737828Y-76033371D02*
X73737828Y-76404800D01*
X73966400Y-76204800D01*
X73966400Y-76290514D01*
X73994971Y-76347657D01*
X74023542Y-76376228D01*
X74080685Y-76404800D01*
X74223542Y-76404800D01*
X74280685Y-76376228D01*
X74309257Y-76347657D01*
X74337828Y-76290514D01*
X74337828Y-76119085D01*
X74309257Y-76061942D01*
X74280685Y-76033371D01*
X73737828Y-76776228D02*
X73737828Y-76833371D01*
X73766400Y-76890514D01*
X73794971Y-76919085D01*
X73852114Y-76947657D01*
X73966400Y-76976228D01*
X74109257Y-76976228D01*
X74223542Y-76947657D01*
X74280685Y-76919085D01*
X74309257Y-76890514D01*
X74337828Y-76833371D01*
X74337828Y-76776228D01*
X74309257Y-76719085D01*
X74280685Y-76690514D01*
X74223542Y-76661942D01*
X74109257Y-76633371D01*
X73966400Y-76633371D01*
X73852114Y-76661942D01*
X73794971Y-76690514D01*
X73766400Y-76719085D01*
X73737828Y-76776228D01*
X73794971Y-77204800D02*
X73766400Y-77233371D01*
X73737828Y-77290514D01*
X73737828Y-77433371D01*
X73766400Y-77490514D01*
X73794971Y-77519085D01*
X73852114Y-77547657D01*
X73909257Y-77547657D01*
X73994971Y-77519085D01*
X74337828Y-77176228D01*
X74337828Y-77547657D01*
X77633485Y-75833371D02*
X77662057Y-75804800D01*
X77690628Y-75719085D01*
X77690628Y-75661942D01*
X77662057Y-75576228D01*
X77604914Y-75519085D01*
X77547771Y-75490514D01*
X77433485Y-75461942D01*
X77347771Y-75461942D01*
X77233485Y-75490514D01*
X77176342Y-75519085D01*
X77119200Y-75576228D01*
X77090628Y-75661942D01*
X77090628Y-75719085D01*
X77119200Y-75804800D01*
X77147771Y-75833371D01*
X77090628Y-76033371D02*
X77090628Y-76404800D01*
X77319200Y-76204800D01*
X77319200Y-76290514D01*
X77347771Y-76347657D01*
X77376342Y-76376228D01*
X77433485Y-76404800D01*
X77576342Y-76404800D01*
X77633485Y-76376228D01*
X77662057Y-76347657D01*
X77690628Y-76290514D01*
X77690628Y-76119085D01*
X77662057Y-76061942D01*
X77633485Y-76033371D01*
X77090628Y-76776228D02*
X77090628Y-76833371D01*
X77119200Y-76890514D01*
X77147771Y-76919085D01*
X77204914Y-76947657D01*
X77319200Y-76976228D01*
X77462057Y-76976228D01*
X77576342Y-76947657D01*
X77633485Y-76919085D01*
X77662057Y-76890514D01*
X77690628Y-76833371D01*
X77690628Y-76776228D01*
X77662057Y-76719085D01*
X77633485Y-76690514D01*
X77576342Y-76661942D01*
X77462057Y-76633371D01*
X77319200Y-76633371D01*
X77204914Y-76661942D01*
X77147771Y-76690514D01*
X77119200Y-76719085D01*
X77090628Y-76776228D01*
X77690628Y-77261942D02*
X77690628Y-77376228D01*
X77662057Y-77433371D01*
X77633485Y-77461942D01*
X77547771Y-77519085D01*
X77433485Y-77547657D01*
X77204914Y-77547657D01*
X77147771Y-77519085D01*
X77119200Y-77490514D01*
X77090628Y-77433371D01*
X77090628Y-77319085D01*
X77119200Y-77261942D01*
X77147771Y-77233371D01*
X77204914Y-77204800D01*
X77347771Y-77204800D01*
X77404914Y-77233371D01*
X77433485Y-77261942D01*
X77462057Y-77319085D01*
X77462057Y-77433371D01*
X77433485Y-77490514D01*
X77404914Y-77519085D01*
X77347771Y-77547657D01*
X67270228Y-71791485D02*
X67298800Y-71820057D01*
X67384514Y-71848628D01*
X67441657Y-71848628D01*
X67527371Y-71820057D01*
X67584514Y-71762914D01*
X67613085Y-71705771D01*
X67641657Y-71591485D01*
X67641657Y-71505771D01*
X67613085Y-71391485D01*
X67584514Y-71334342D01*
X67527371Y-71277200D01*
X67441657Y-71248628D01*
X67384514Y-71248628D01*
X67298800Y-71277200D01*
X67270228Y-71305771D01*
X67070228Y-71248628D02*
X66698800Y-71248628D01*
X66898800Y-71477200D01*
X66813085Y-71477200D01*
X66755942Y-71505771D01*
X66727371Y-71534342D01*
X66698800Y-71591485D01*
X66698800Y-71734342D01*
X66727371Y-71791485D01*
X66755942Y-71820057D01*
X66813085Y-71848628D01*
X66984514Y-71848628D01*
X67041657Y-71820057D01*
X67070228Y-71791485D01*
X66327371Y-71248628D02*
X66270228Y-71248628D01*
X66213085Y-71277200D01*
X66184514Y-71305771D01*
X66155942Y-71362914D01*
X66127371Y-71477200D01*
X66127371Y-71620057D01*
X66155942Y-71734342D01*
X66184514Y-71791485D01*
X66213085Y-71820057D01*
X66270228Y-71848628D01*
X66327371Y-71848628D01*
X66384514Y-71820057D01*
X66413085Y-71791485D01*
X66441657Y-71734342D01*
X66470228Y-71620057D01*
X66470228Y-71477200D01*
X66441657Y-71362914D01*
X66413085Y-71305771D01*
X66384514Y-71277200D01*
X66327371Y-71248628D01*
X65898800Y-71305771D02*
X65870228Y-71277200D01*
X65813085Y-71248628D01*
X65670228Y-71248628D01*
X65613085Y-71277200D01*
X65584514Y-71305771D01*
X65555942Y-71362914D01*
X65555942Y-71420057D01*
X65584514Y-71505771D01*
X65927371Y-71848628D01*
X65555942Y-71848628D01*
X79360685Y-73369571D02*
X79389257Y-73341000D01*
X79417828Y-73255285D01*
X79417828Y-73198142D01*
X79389257Y-73112428D01*
X79332114Y-73055285D01*
X79274971Y-73026714D01*
X79160685Y-72998142D01*
X79074971Y-72998142D01*
X78960685Y-73026714D01*
X78903542Y-73055285D01*
X78846400Y-73112428D01*
X78817828Y-73198142D01*
X78817828Y-73255285D01*
X78846400Y-73341000D01*
X78874971Y-73369571D01*
X78817828Y-73569571D02*
X78817828Y-73941000D01*
X79046400Y-73741000D01*
X79046400Y-73826714D01*
X79074971Y-73883857D01*
X79103542Y-73912428D01*
X79160685Y-73941000D01*
X79303542Y-73941000D01*
X79360685Y-73912428D01*
X79389257Y-73883857D01*
X79417828Y-73826714D01*
X79417828Y-73655285D01*
X79389257Y-73598142D01*
X79360685Y-73569571D01*
X79417828Y-74512428D02*
X79417828Y-74169571D01*
X79417828Y-74341000D02*
X78817828Y-74341000D01*
X78903542Y-74283857D01*
X78960685Y-74226714D01*
X78989257Y-74169571D01*
X78817828Y-74712428D02*
X78817828Y-75083857D01*
X79046400Y-74883857D01*
X79046400Y-74969571D01*
X79074971Y-75026714D01*
X79103542Y-75055285D01*
X79160685Y-75083857D01*
X79303542Y-75083857D01*
X79360685Y-75055285D01*
X79389257Y-75026714D01*
X79417828Y-74969571D01*
X79417828Y-74798142D01*
X79389257Y-74741000D01*
X79360685Y-74712428D01*
X67864400Y-100679364D02*
X67864400Y-100895036D01*
X68584400Y-100679364D02*
X68584400Y-100895036D01*
X66196800Y-99320236D02*
X66196800Y-99104564D01*
X65476800Y-99320236D02*
X65476800Y-99104564D01*
X70262636Y-98395200D02*
X70046964Y-98395200D01*
X70262636Y-99115200D02*
X70046964Y-99115200D01*
X69145036Y-66340400D02*
X68929364Y-66340400D01*
X69145036Y-67060400D02*
X68929364Y-67060400D01*
X70968841Y-71248000D02*
X70661559Y-71248000D01*
X70968841Y-72008000D02*
X70661559Y-72008000D01*
X72180564Y-99115200D02*
X72396236Y-99115200D01*
X72180564Y-98395200D02*
X72396236Y-98395200D01*
X74804000Y-74217559D02*
X74804000Y-74524841D01*
X75564000Y-74217559D02*
X75564000Y-74524841D01*
X75634964Y-64562400D02*
X75850636Y-64562400D01*
X75634964Y-65282400D02*
X75850636Y-65282400D01*
X75896441Y-65710800D02*
X75589159Y-65710800D01*
X75896441Y-66470800D02*
X75589159Y-66470800D01*
X71118759Y-67080400D02*
X71426041Y-67080400D01*
X71118759Y-66320400D02*
X71426041Y-66320400D01*
G36*
X84900219Y-109689135D02*
G01*
X84883739Y-109844320D01*
X84847883Y-109960612D01*
X84788455Y-110049411D01*
X84701257Y-110122119D01*
X84618195Y-110164150D01*
X84478709Y-110187538D01*
X84339412Y-110161965D01*
X84213510Y-110090694D01*
X84114210Y-109976991D01*
X84102219Y-109956024D01*
X84086384Y-109919291D01*
X84074638Y-109872415D01*
X84066378Y-109807355D01*
X84060998Y-109716070D01*
X84057892Y-109590519D01*
X84057797Y-109579379D01*
X84260345Y-109579379D01*
X84261035Y-109685644D01*
X84265400Y-109781762D01*
X84276192Y-109843811D01*
X84296126Y-109885502D01*
X84327916Y-109920543D01*
X84335364Y-109927279D01*
X84431060Y-109976992D01*
X84532312Y-109971905D01*
X84626614Y-109912362D01*
X84654694Y-109881514D01*
X84678196Y-109840618D01*
X84691322Y-109784080D01*
X84697030Y-109697657D01*
X84698276Y-109567106D01*
X84697661Y-109467487D01*
X84693407Y-109370251D01*
X84682682Y-109307502D01*
X84662707Y-109265382D01*
X84630704Y-109230032D01*
X84611905Y-109214114D01*
X84514492Y-109171235D01*
X84412437Y-109177985D01*
X84323825Y-109234123D01*
X84304749Y-109256382D01*
X84281486Y-109298293D01*
X84268036Y-109356822D01*
X84261841Y-109445880D01*
X84260345Y-109579379D01*
X84057797Y-109579379D01*
X84056457Y-109422661D01*
X84056086Y-109204455D01*
X84055977Y-108527072D01*
X84150862Y-108566819D01*
X84175949Y-108577699D01*
X84215881Y-108602268D01*
X84238739Y-108639475D01*
X84251301Y-108704541D01*
X84260345Y-108812687D01*
X84268605Y-108909788D01*
X84279523Y-108973535D01*
X84295165Y-108997323D01*
X84318736Y-108990943D01*
X84378801Y-108968525D01*
X84486145Y-108962967D01*
X84601624Y-108983728D01*
X84701257Y-109028455D01*
X84756072Y-109069856D01*
X84826452Y-109150632D01*
X84871528Y-109254195D01*
X84895496Y-109391947D01*
X84902239Y-109567106D01*
X84902553Y-109575287D01*
X84900219Y-109689135D01*
G37*
D14*
X84900219Y-109689135D02*
X84883739Y-109844320D01*
X84847883Y-109960612D01*
X84788455Y-110049411D01*
X84701257Y-110122119D01*
X84618195Y-110164150D01*
X84478709Y-110187538D01*
X84339412Y-110161965D01*
X84213510Y-110090694D01*
X84114210Y-109976991D01*
X84102219Y-109956024D01*
X84086384Y-109919291D01*
X84074638Y-109872415D01*
X84066378Y-109807355D01*
X84060998Y-109716070D01*
X84057892Y-109590519D01*
X84057797Y-109579379D01*
X84260345Y-109579379D01*
X84261035Y-109685644D01*
X84265400Y-109781762D01*
X84276192Y-109843811D01*
X84296126Y-109885502D01*
X84327916Y-109920543D01*
X84335364Y-109927279D01*
X84431060Y-109976992D01*
X84532312Y-109971905D01*
X84626614Y-109912362D01*
X84654694Y-109881514D01*
X84678196Y-109840618D01*
X84691322Y-109784080D01*
X84697030Y-109697657D01*
X84698276Y-109567106D01*
X84697661Y-109467487D01*
X84693407Y-109370251D01*
X84682682Y-109307502D01*
X84662707Y-109265382D01*
X84630704Y-109230032D01*
X84611905Y-109214114D01*
X84514492Y-109171235D01*
X84412437Y-109177985D01*
X84323825Y-109234123D01*
X84304749Y-109256382D01*
X84281486Y-109298293D01*
X84268036Y-109356822D01*
X84261841Y-109445880D01*
X84260345Y-109579379D01*
X84057797Y-109579379D01*
X84056457Y-109422661D01*
X84056086Y-109204455D01*
X84055977Y-108527072D01*
X84150862Y-108566819D01*
X84175949Y-108577699D01*
X84215881Y-108602268D01*
X84238739Y-108639475D01*
X84251301Y-108704541D01*
X84260345Y-108812687D01*
X84268605Y-108909788D01*
X84279523Y-108973535D01*
X84295165Y-108997323D01*
X84318736Y-108990943D01*
X84378801Y-108968525D01*
X84486145Y-108962967D01*
X84601624Y-108983728D01*
X84701257Y-109028455D01*
X84756072Y-109069856D01*
X84826452Y-109150632D01*
X84871528Y-109254195D01*
X84895496Y-109391947D01*
X84902239Y-109567106D01*
X84902553Y-109575287D01*
X84900219Y-109689135D01*
G36*
X89328487Y-108907689D02*
G01*
X89464848Y-108971770D01*
X89576598Y-109082584D01*
X89599761Y-109117273D01*
X89618973Y-109156590D01*
X89632598Y-109206145D01*
X89641877Y-109275568D01*
X89648050Y-109374490D01*
X89652357Y-109512539D01*
X89656038Y-109699346D01*
X89665180Y-110217542D01*
X89588383Y-110188344D01*
X89518068Y-110161520D01*
X89465424Y-110135706D01*
X89431060Y-110102431D01*
X89411093Y-110051510D01*
X89401639Y-109972761D01*
X89398814Y-109855999D01*
X89398736Y-109691042D01*
X89398336Y-109559558D01*
X89395951Y-109433394D01*
X89390259Y-109347223D01*
X89379961Y-109290672D01*
X89363755Y-109253370D01*
X89340345Y-109224943D01*
X89282793Y-109184827D01*
X89186112Y-109169706D01*
X89090465Y-109207917D01*
X89084152Y-109212810D01*
X89064477Y-109235413D01*
X89049963Y-109271664D01*
X89039394Y-109330511D01*
X89031555Y-109420901D01*
X89025227Y-109551779D01*
X89019195Y-109732095D01*
X89004598Y-110214907D01*
X88880517Y-110159283D01*
X88756437Y-110103659D01*
X88756437Y-109662851D01*
X88756951Y-109543098D01*
X88761380Y-109376506D01*
X88772594Y-109252468D01*
X88793272Y-109160987D01*
X88826093Y-109092066D01*
X88873736Y-109035707D01*
X88938877Y-108981914D01*
X89032571Y-108927719D01*
X89180175Y-108892339D01*
X89328487Y-108907689D01*
G37*
X89328487Y-108907689D02*
X89464848Y-108971770D01*
X89576598Y-109082584D01*
X89599761Y-109117273D01*
X89618973Y-109156590D01*
X89632598Y-109206145D01*
X89641877Y-109275568D01*
X89648050Y-109374490D01*
X89652357Y-109512539D01*
X89656038Y-109699346D01*
X89665180Y-110217542D01*
X89588383Y-110188344D01*
X89518068Y-110161520D01*
X89465424Y-110135706D01*
X89431060Y-110102431D01*
X89411093Y-110051510D01*
X89401639Y-109972761D01*
X89398814Y-109855999D01*
X89398736Y-109691042D01*
X89398336Y-109559558D01*
X89395951Y-109433394D01*
X89390259Y-109347223D01*
X89379961Y-109290672D01*
X89363755Y-109253370D01*
X89340345Y-109224943D01*
X89282793Y-109184827D01*
X89186112Y-109169706D01*
X89090465Y-109207917D01*
X89084152Y-109212810D01*
X89064477Y-109235413D01*
X89049963Y-109271664D01*
X89039394Y-109330511D01*
X89031555Y-109420901D01*
X89025227Y-109551779D01*
X89019195Y-109732095D01*
X89004598Y-110214907D01*
X88880517Y-110159283D01*
X88756437Y-110103659D01*
X88756437Y-109662851D01*
X88756951Y-109543098D01*
X88761380Y-109376506D01*
X88772594Y-109252468D01*
X88793272Y-109160987D01*
X88826093Y-109092066D01*
X88873736Y-109035707D01*
X88938877Y-108981914D01*
X89032571Y-108927719D01*
X89180175Y-108892339D01*
X89328487Y-108907689D01*
G36*
X81386725Y-108974619D02*
G01*
X81507261Y-109019393D01*
X81557388Y-109053034D01*
X81608152Y-109101236D01*
X81644362Y-109162551D01*
X81668393Y-109246024D01*
X81682618Y-109360697D01*
X81689412Y-109515613D01*
X81691149Y-109719814D01*
X81690809Y-109825341D01*
X81689101Y-109969541D01*
X81686201Y-110084620D01*
X81682384Y-110160822D01*
X81677925Y-110188391D01*
X81648909Y-110179272D01*
X81590339Y-110154509D01*
X81588581Y-110153707D01*
X81558167Y-110137785D01*
X81537712Y-110115938D01*
X81525240Y-110077672D01*
X81518777Y-110012495D01*
X81516348Y-109909913D01*
X81515977Y-109759433D01*
X81515229Y-109663974D01*
X81507256Y-109484571D01*
X81488998Y-109353163D01*
X81458526Y-109262859D01*
X81413912Y-109206767D01*
X81353226Y-109177994D01*
X81344807Y-109175989D01*
X81231139Y-109174423D01*
X81142492Y-109225348D01*
X81081265Y-109327445D01*
X81070346Y-109356961D01*
X81045458Y-109422283D01*
X81032854Y-109452300D01*
X81006969Y-109448164D01*
X80950439Y-109425717D01*
X80897715Y-109388647D01*
X80873678Y-109318587D01*
X80880847Y-109268406D01*
X80924897Y-109166618D01*
X80996123Y-109071235D01*
X81079415Y-109005269D01*
X81114310Y-108990018D01*
X81246443Y-108964521D01*
X81386725Y-108974619D01*
G37*
X81386725Y-108974619D02*
X81507261Y-109019393D01*
X81557388Y-109053034D01*
X81608152Y-109101236D01*
X81644362Y-109162551D01*
X81668393Y-109246024D01*
X81682618Y-109360697D01*
X81689412Y-109515613D01*
X81691149Y-109719814D01*
X81690809Y-109825341D01*
X81689101Y-109969541D01*
X81686201Y-110084620D01*
X81682384Y-110160822D01*
X81677925Y-110188391D01*
X81648909Y-110179272D01*
X81590339Y-110154509D01*
X81588581Y-110153707D01*
X81558167Y-110137785D01*
X81537712Y-110115938D01*
X81525240Y-110077672D01*
X81518777Y-110012495D01*
X81516348Y-109909913D01*
X81515977Y-109759433D01*
X81515229Y-109663974D01*
X81507256Y-109484571D01*
X81488998Y-109353163D01*
X81458526Y-109262859D01*
X81413912Y-109206767D01*
X81353226Y-109177994D01*
X81344807Y-109175989D01*
X81231139Y-109174423D01*
X81142492Y-109225348D01*
X81081265Y-109327445D01*
X81070346Y-109356961D01*
X81045458Y-109422283D01*
X81032854Y-109452300D01*
X81006969Y-109448164D01*
X80950439Y-109425717D01*
X80897715Y-109388647D01*
X80873678Y-109318587D01*
X80880847Y-109268406D01*
X80924897Y-109166618D01*
X80996123Y-109071235D01*
X81079415Y-109005269D01*
X81114310Y-108990018D01*
X81246443Y-108964521D01*
X81386725Y-108974619D01*
G36*
X83742410Y-108970970D02*
G01*
X83806442Y-108996066D01*
X83880805Y-109029947D01*
X83880805Y-110008727D01*
X83788415Y-110101117D01*
X83767310Y-110121835D01*
X83708847Y-110167885D01*
X83649886Y-110182801D01*
X83562150Y-110175934D01*
X83526429Y-110171494D01*
X83434301Y-110162102D01*
X83369885Y-110158361D01*
X83350778Y-110158933D01*
X83272390Y-110165126D01*
X83177620Y-110175934D01*
X83147298Y-110179647D01*
X83070911Y-110181107D01*
X83015022Y-110158047D01*
X82951355Y-110101117D01*
X82858965Y-110008727D01*
X82858965Y-109485455D01*
X82859685Y-109330821D01*
X82861929Y-109183391D01*
X82865421Y-109066653D01*
X82869876Y-108989840D01*
X82875013Y-108962184D01*
X82876090Y-108962258D01*
X82913407Y-108976019D01*
X82976457Y-109006344D01*
X83061854Y-109050505D01*
X83069893Y-109509965D01*
X83077931Y-109969425D01*
X83253103Y-109969425D01*
X83261092Y-109465805D01*
X83263624Y-109328904D01*
X83267249Y-109182579D01*
X83271177Y-109066411D01*
X83275080Y-108989809D01*
X83278632Y-108962184D01*
X83279653Y-108962281D01*
X83315051Y-108972443D01*
X83380126Y-108994235D01*
X83472069Y-109026287D01*
X83472516Y-109468661D01*
X83472964Y-109545507D01*
X83476069Y-109694834D01*
X83481622Y-109819544D01*
X83489033Y-109908379D01*
X83497714Y-109950083D01*
X83528771Y-109972389D01*
X83592152Y-109979278D01*
X83661839Y-109969425D01*
X83669827Y-109465805D01*
X83672686Y-109337828D01*
X83678614Y-109186348D01*
X83686365Y-109067530D01*
X83695343Y-108989950D01*
X83704948Y-108962184D01*
X83742410Y-108970970D01*
G37*
X83742410Y-108970970D02*
X83806442Y-108996066D01*
X83880805Y-109029947D01*
X83880805Y-110008727D01*
X83788415Y-110101117D01*
X83767310Y-110121835D01*
X83708847Y-110167885D01*
X83649886Y-110182801D01*
X83562150Y-110175934D01*
X83526429Y-110171494D01*
X83434301Y-110162102D01*
X83369885Y-110158361D01*
X83350778Y-110158933D01*
X83272390Y-110165126D01*
X83177620Y-110175934D01*
X83147298Y-110179647D01*
X83070911Y-110181107D01*
X83015022Y-110158047D01*
X82951355Y-110101117D01*
X82858965Y-110008727D01*
X82858965Y-109485455D01*
X82859685Y-109330821D01*
X82861929Y-109183391D01*
X82865421Y-109066653D01*
X82869876Y-108989840D01*
X82875013Y-108962184D01*
X82876090Y-108962258D01*
X82913407Y-108976019D01*
X82976457Y-109006344D01*
X83061854Y-109050505D01*
X83069893Y-109509965D01*
X83077931Y-109969425D01*
X83253103Y-109969425D01*
X83261092Y-109465805D01*
X83263624Y-109328904D01*
X83267249Y-109182579D01*
X83271177Y-109066411D01*
X83275080Y-108989809D01*
X83278632Y-108962184D01*
X83279653Y-108962281D01*
X83315051Y-108972443D01*
X83380126Y-108994235D01*
X83472069Y-109026287D01*
X83472516Y-109468661D01*
X83472964Y-109545507D01*
X83476069Y-109694834D01*
X83481622Y-109819544D01*
X83489033Y-109908379D01*
X83497714Y-109950083D01*
X83528771Y-109972389D01*
X83592152Y-109979278D01*
X83661839Y-109969425D01*
X83669827Y-109465805D01*
X83672686Y-109337828D01*
X83678614Y-109186348D01*
X83686365Y-109067530D01*
X83695343Y-108989950D01*
X83704948Y-108962184D01*
X83742410Y-108970970D01*
G36*
X93018938Y-109577744D02*
G01*
X93017355Y-109718918D01*
X93011916Y-109817285D01*
X93000643Y-109885990D01*
X92981561Y-109938181D01*
X92952694Y-109987004D01*
X92945592Y-109997135D01*
X92870444Y-110077012D01*
X92784820Y-110137253D01*
X92740852Y-110156802D01*
X92582861Y-110189408D01*
X92426613Y-110168317D01*
X92282618Y-110096249D01*
X92161385Y-109975922D01*
X92151150Y-109959803D01*
X92117847Y-109866205D01*
X92095405Y-109735879D01*
X92084516Y-109585371D01*
X92085740Y-109446147D01*
X92380384Y-109446147D01*
X92382706Y-109639020D01*
X92383639Y-109651433D01*
X92397242Y-109757857D01*
X92421465Y-109825346D01*
X92462365Y-109871584D01*
X92530941Y-109914895D01*
X92598764Y-109917172D01*
X92668621Y-109867241D01*
X92680771Y-109854102D01*
X92704575Y-109814785D01*
X92718628Y-109757674D01*
X92725313Y-109669256D01*
X92727011Y-109536019D01*
X92724101Y-109411222D01*
X92709582Y-109292326D01*
X92679610Y-109217184D01*
X92630589Y-109177893D01*
X92558924Y-109166552D01*
X92531632Y-109168807D01*
X92455176Y-109210160D01*
X92404650Y-109302900D01*
X92380384Y-109446147D01*
X92085740Y-109446147D01*
X92085871Y-109431227D01*
X92100161Y-109289992D01*
X92128075Y-109178213D01*
X92163949Y-109103766D01*
X92264939Y-108987968D01*
X92401779Y-108916015D01*
X92569283Y-108891281D01*
X92614019Y-108892619D01*
X92745758Y-108920008D01*
X92853968Y-108989007D01*
X92953276Y-109107864D01*
X92959184Y-109116681D01*
X92985921Y-109164108D01*
X93003312Y-109217714D01*
X93013312Y-109290549D01*
X93017878Y-109395659D01*
X93018893Y-109536019D01*
X93018965Y-109546092D01*
X93018938Y-109577744D01*
G37*
X93018938Y-109577744D02*
X93017355Y-109718918D01*
X93011916Y-109817285D01*
X93000643Y-109885990D01*
X92981561Y-109938181D01*
X92952694Y-109987004D01*
X92945592Y-109997135D01*
X92870444Y-110077012D01*
X92784820Y-110137253D01*
X92740852Y-110156802D01*
X92582861Y-110189408D01*
X92426613Y-110168317D01*
X92282618Y-110096249D01*
X92161385Y-109975922D01*
X92151150Y-109959803D01*
X92117847Y-109866205D01*
X92095405Y-109735879D01*
X92084516Y-109585371D01*
X92085740Y-109446147D01*
X92380384Y-109446147D01*
X92382706Y-109639020D01*
X92383639Y-109651433D01*
X92397242Y-109757857D01*
X92421465Y-109825346D01*
X92462365Y-109871584D01*
X92530941Y-109914895D01*
X92598764Y-109917172D01*
X92668621Y-109867241D01*
X92680771Y-109854102D01*
X92704575Y-109814785D01*
X92718628Y-109757674D01*
X92725313Y-109669256D01*
X92727011Y-109536019D01*
X92724101Y-109411222D01*
X92709582Y-109292326D01*
X92679610Y-109217184D01*
X92630589Y-109177893D01*
X92558924Y-109166552D01*
X92531632Y-109168807D01*
X92455176Y-109210160D01*
X92404650Y-109302900D01*
X92380384Y-109446147D01*
X92085740Y-109446147D01*
X92085871Y-109431227D01*
X92100161Y-109289992D01*
X92128075Y-109178213D01*
X92163949Y-109103766D01*
X92264939Y-108987968D01*
X92401779Y-108916015D01*
X92569283Y-108891281D01*
X92614019Y-108892619D01*
X92745758Y-108920008D01*
X92853968Y-108989007D01*
X92953276Y-109107864D01*
X92959184Y-109116681D01*
X92985921Y-109164108D01*
X93003312Y-109217714D01*
X93013312Y-109290549D01*
X93017878Y-109395659D01*
X93018893Y-109536019D01*
X93018965Y-109546092D01*
X93018938Y-109577744D01*
G36*
X80697744Y-109658946D02*
G01*
X80690612Y-109812254D01*
X80671948Y-109924441D01*
X80637537Y-110007554D01*
X80583162Y-110073641D01*
X80504610Y-110134747D01*
X80454630Y-110162535D01*
X80374513Y-110181251D01*
X80261970Y-110179774D01*
X80199050Y-110173845D01*
X80123153Y-110155742D01*
X80062487Y-110116391D01*
X79991912Y-110043066D01*
X79982482Y-110032356D01*
X79919034Y-109949938D01*
X79888762Y-109878156D01*
X79881034Y-109793034D01*
X79881034Y-109667946D01*
X79968447Y-109700940D01*
X80032175Y-109739509D01*
X80087567Y-109830008D01*
X80099131Y-109858983D01*
X80163788Y-109941041D01*
X80251804Y-109982347D01*
X80347637Y-109978633D01*
X80435747Y-109925632D01*
X80466028Y-109892582D01*
X80493489Y-109842720D01*
X80484899Y-109797416D01*
X80435463Y-109750790D01*
X80340389Y-109696958D01*
X80194885Y-109630039D01*
X79895632Y-109499056D01*
X79887691Y-109369298D01*
X79890676Y-109286649D01*
X80085652Y-109286649D01*
X80100453Y-109337815D01*
X80167797Y-109392442D01*
X80290027Y-109454597D01*
X80310253Y-109463601D01*
X80406970Y-109505493D01*
X80479334Y-109534958D01*
X80512961Y-109546092D01*
X80518056Y-109537896D01*
X80520101Y-109487853D01*
X80512812Y-109407414D01*
X80494452Y-109328753D01*
X80437188Y-109229651D01*
X80354524Y-109173808D01*
X80255784Y-109166250D01*
X80150289Y-109212000D01*
X80121053Y-109234876D01*
X80085652Y-109286649D01*
X79890676Y-109286649D01*
X79891196Y-109272255D01*
X79935336Y-109149617D01*
X79991050Y-109082034D01*
X80106561Y-109006540D01*
X80243588Y-108968403D01*
X80385237Y-108971422D01*
X80514617Y-109019393D01*
X80543099Y-109037813D01*
X80608428Y-109094811D01*
X80653106Y-109166916D01*
X80680641Y-109264853D01*
X80694541Y-109399351D01*
X80696378Y-109487853D01*
X80698313Y-109581136D01*
X80697744Y-109658946D01*
G37*
X80697744Y-109658946D02*
X80690612Y-109812254D01*
X80671948Y-109924441D01*
X80637537Y-110007554D01*
X80583162Y-110073641D01*
X80504610Y-110134747D01*
X80454630Y-110162535D01*
X80374513Y-110181251D01*
X80261970Y-110179774D01*
X80199050Y-110173845D01*
X80123153Y-110155742D01*
X80062487Y-110116391D01*
X79991912Y-110043066D01*
X79982482Y-110032356D01*
X79919034Y-109949938D01*
X79888762Y-109878156D01*
X79881034Y-109793034D01*
X79881034Y-109667946D01*
X79968447Y-109700940D01*
X80032175Y-109739509D01*
X80087567Y-109830008D01*
X80099131Y-109858983D01*
X80163788Y-109941041D01*
X80251804Y-109982347D01*
X80347637Y-109978633D01*
X80435747Y-109925632D01*
X80466028Y-109892582D01*
X80493489Y-109842720D01*
X80484899Y-109797416D01*
X80435463Y-109750790D01*
X80340389Y-109696958D01*
X80194885Y-109630039D01*
X79895632Y-109499056D01*
X79887691Y-109369298D01*
X79890676Y-109286649D01*
X80085652Y-109286649D01*
X80100453Y-109337815D01*
X80167797Y-109392442D01*
X80290027Y-109454597D01*
X80310253Y-109463601D01*
X80406970Y-109505493D01*
X80479334Y-109534958D01*
X80512961Y-109546092D01*
X80518056Y-109537896D01*
X80520101Y-109487853D01*
X80512812Y-109407414D01*
X80494452Y-109328753D01*
X80437188Y-109229651D01*
X80354524Y-109173808D01*
X80255784Y-109166250D01*
X80150289Y-109212000D01*
X80121053Y-109234876D01*
X80085652Y-109286649D01*
X79890676Y-109286649D01*
X79891196Y-109272255D01*
X79935336Y-109149617D01*
X79991050Y-109082034D01*
X80106561Y-109006540D01*
X80243588Y-108968403D01*
X80385237Y-108971422D01*
X80514617Y-109019393D01*
X80543099Y-109037813D01*
X80608428Y-109094811D01*
X80653106Y-109166916D01*
X80680641Y-109264853D01*
X80694541Y-109399351D01*
X80696378Y-109487853D01*
X80698313Y-109581136D01*
X80697744Y-109658946D01*
G36*
X86679175Y-99503045D02*
G01*
X86831895Y-99504039D01*
X86941792Y-99506593D01*
X87016235Y-99511445D01*
X87062594Y-99519331D01*
X87088239Y-99530988D01*
X87100539Y-99547153D01*
X87106865Y-99568563D01*
X87107047Y-99569332D01*
X87117441Y-99619663D01*
X87136339Y-99716888D01*
X87161802Y-99850810D01*
X87191890Y-100011235D01*
X87224664Y-100187967D01*
X87227337Y-100202428D01*
X87260010Y-100373959D01*
X87290413Y-100524625D01*
X87316568Y-100645267D01*
X87336496Y-100726729D01*
X87348220Y-100759852D01*
X87348282Y-100759905D01*
X87385229Y-100778229D01*
X87461057Y-100808677D01*
X87559425Y-100844685D01*
X87564965Y-100846640D01*
X87690724Y-100894170D01*
X87837011Y-100953783D01*
X87973293Y-101013056D01*
X88197390Y-101114765D01*
X88693618Y-100775897D01*
X88728570Y-100752063D01*
X88878280Y-100650755D01*
X89011867Y-100561575D01*
X89121343Y-100489773D01*
X89198718Y-100440603D01*
X89236004Y-100419317D01*
X89261552Y-100424196D01*
X89319555Y-100462002D01*
X89409195Y-100536870D01*
X89532957Y-100650903D01*
X89693328Y-100806205D01*
X89707679Y-100820341D01*
X89834933Y-100946999D01*
X89947969Y-101061745D01*
X90039867Y-101157391D01*
X90103707Y-101226746D01*
X90132570Y-101262620D01*
X90132664Y-101262794D01*
X90136331Y-101290106D01*
X90122808Y-101334408D01*
X90088684Y-101401761D01*
X90030548Y-101498226D01*
X89944988Y-101629863D01*
X89828594Y-101802734D01*
X89808759Y-101831912D01*
X89708445Y-101979726D01*
X89619923Y-102110577D01*
X89548465Y-102216643D01*
X89499343Y-102290102D01*
X89477831Y-102323130D01*
X89476208Y-102330126D01*
X89486387Y-102382326D01*
X89516879Y-102467561D01*
X89562712Y-102571291D01*
X89625000Y-102706951D01*
X89694548Y-102867921D01*
X89753609Y-103013621D01*
X89768252Y-103051333D01*
X89806600Y-103147622D01*
X89834770Y-103214704D01*
X89847497Y-103239885D01*
X89861545Y-103241767D01*
X89924681Y-103252651D01*
X90028019Y-103271449D01*
X90160809Y-103296115D01*
X90312297Y-103324604D01*
X90471732Y-103354873D01*
X90628361Y-103384875D01*
X90771433Y-103412566D01*
X90890195Y-103435900D01*
X90973896Y-103452833D01*
X91011782Y-103461320D01*
X91018063Y-103463713D01*
X91033373Y-103476619D01*
X91044763Y-103504096D01*
X91052803Y-103553446D01*
X91058064Y-103631973D01*
X91061116Y-103746980D01*
X91062529Y-103905770D01*
X91062873Y-104115645D01*
X91062873Y-104753906D01*
X90909598Y-104784160D01*
X90891057Y-104787785D01*
X90792596Y-104806569D01*
X90656448Y-104832093D01*
X90498087Y-104861468D01*
X90332988Y-104891806D01*
X90267973Y-104904009D01*
X90122697Y-104933697D01*
X90001626Y-104961770D01*
X89915886Y-104985536D01*
X89876601Y-105002301D01*
X89858799Y-105029694D01*
X89826389Y-105102174D01*
X89793234Y-105195977D01*
X89781564Y-105231103D01*
X89738604Y-105346409D01*
X89683192Y-105482876D01*
X89624353Y-105617954D01*
X89592884Y-105688509D01*
X89548051Y-105793895D01*
X89517240Y-105872818D01*
X89505785Y-105912053D01*
X89506422Y-105915014D01*
X89528150Y-105956639D01*
X89577146Y-106036969D01*
X89648438Y-106148220D01*
X89737054Y-106282605D01*
X89838023Y-106432340D01*
X90170261Y-106919931D01*
X89733771Y-107357149D01*
X89691555Y-107399221D01*
X89562470Y-107525153D01*
X89447107Y-107633754D01*
X89352224Y-107718903D01*
X89284582Y-107774482D01*
X89250938Y-107794368D01*
X89214402Y-107779238D01*
X89137890Y-107735801D01*
X89030196Y-107669270D01*
X88899767Y-107584867D01*
X88755052Y-107487816D01*
X88612910Y-107391964D01*
X88484678Y-107307557D01*
X88380054Y-107240850D01*
X88307171Y-107197024D01*
X88274158Y-107181264D01*
X88272223Y-107181408D01*
X88228369Y-107196945D01*
X88150598Y-107233121D01*
X88054392Y-107282785D01*
X88053381Y-107283329D01*
X87925605Y-107347326D01*
X87838051Y-107378591D01*
X87783726Y-107378677D01*
X87755641Y-107349138D01*
X87743752Y-107320061D01*
X87711668Y-107242188D01*
X87662247Y-107122475D01*
X87598118Y-106967286D01*
X87521911Y-106782984D01*
X87436255Y-106575933D01*
X87343781Y-106352496D01*
X87259962Y-106149226D01*
X87174678Y-105940649D01*
X87099222Y-105754263D01*
X87036126Y-105596407D01*
X86987923Y-105473419D01*
X86957144Y-105391639D01*
X86946322Y-105357406D01*
X86966991Y-105326015D01*
X87024409Y-105273602D01*
X87105688Y-105212704D01*
X87300820Y-105053387D01*
X87475445Y-104849807D01*
X87603235Y-104625808D01*
X87683402Y-104388003D01*
X87715160Y-104143007D01*
X87697722Y-103897433D01*
X87630301Y-103657895D01*
X87512111Y-103431007D01*
X87342364Y-103223383D01*
X87253856Y-103142527D01*
X87041804Y-102999559D01*
X86814905Y-102906352D01*
X86579791Y-102860687D01*
X86343094Y-102860344D01*
X86111446Y-102903105D01*
X85891478Y-102986750D01*
X85689822Y-103109061D01*
X85513111Y-103267817D01*
X85367977Y-103460801D01*
X85261050Y-103685793D01*
X85198964Y-103940575D01*
X85187569Y-104063377D01*
X85203246Y-104329434D01*
X85273846Y-104581856D01*
X85397282Y-104816182D01*
X85571466Y-105027952D01*
X85794311Y-105212704D01*
X85872561Y-105271123D01*
X85931244Y-105324110D01*
X85953678Y-105357356D01*
X85944732Y-105386339D01*
X85915703Y-105463996D01*
X85869026Y-105583451D01*
X85807231Y-105738362D01*
X85732850Y-105922392D01*
X85648412Y-106129200D01*
X85556449Y-106352446D01*
X85472771Y-106554742D01*
X85386366Y-106763686D01*
X85309138Y-106950498D01*
X85243716Y-107108814D01*
X85192731Y-107232269D01*
X85158812Y-107314498D01*
X85144590Y-107349138D01*
X85144425Y-107349548D01*
X85115972Y-107378798D01*
X85061382Y-107378463D01*
X84973609Y-107346980D01*
X84845608Y-107282785D01*
X84835532Y-107277380D01*
X84740481Y-107228750D01*
X84665424Y-107194328D01*
X84625842Y-107181264D01*
X84593400Y-107196702D01*
X84520895Y-107240258D01*
X84416565Y-107306751D01*
X84288539Y-107390998D01*
X84144948Y-107487816D01*
X84003468Y-107582734D01*
X83872611Y-107667490D01*
X83764292Y-107734496D01*
X83686960Y-107778529D01*
X83649062Y-107794368D01*
X83642607Y-107792357D01*
X83597609Y-107760658D01*
X83520727Y-107695181D01*
X83418721Y-107602048D01*
X83298351Y-107487381D01*
X83166379Y-107357300D01*
X82730039Y-106920232D01*
X83409733Y-105920440D01*
X83306402Y-105696886D01*
X83306096Y-105696225D01*
X83244046Y-105553714D01*
X83180640Y-105395018D01*
X83129558Y-105254368D01*
X83121827Y-105231683D01*
X83082852Y-105126370D01*
X83047707Y-105044534D01*
X83023195Y-105002301D01*
X83013212Y-104996337D01*
X82953286Y-104976329D01*
X82851532Y-104950442D01*
X82719068Y-104921370D01*
X82567011Y-104891806D01*
X82521466Y-104883467D01*
X82356685Y-104853107D01*
X82202930Y-104824509D01*
X82075678Y-104800564D01*
X81990402Y-104784160D01*
X81837126Y-104753906D01*
X81837126Y-104115645D01*
X81837160Y-104037165D01*
X81837808Y-103845703D01*
X81839720Y-103702812D01*
X81843469Y-103601189D01*
X81849622Y-103533531D01*
X81858751Y-103492536D01*
X81871427Y-103470900D01*
X81888218Y-103461320D01*
X81904474Y-103457439D01*
X81970748Y-103443710D01*
X82076479Y-103422745D01*
X82210915Y-103396588D01*
X82363302Y-103367283D01*
X82522890Y-103336877D01*
X82678925Y-103307413D01*
X82820657Y-103280937D01*
X82937331Y-103259494D01*
X83018197Y-103245128D01*
X83052503Y-103239885D01*
X83054822Y-103236720D01*
X83073474Y-103195642D01*
X83105753Y-103117044D01*
X83146391Y-103013621D01*
X83202788Y-102874273D01*
X83272214Y-102713226D01*
X83337288Y-102571291D01*
X83352202Y-102539432D01*
X83394047Y-102439669D01*
X83419118Y-102362721D01*
X83422426Y-102323130D01*
X83420720Y-102320325D01*
X83393631Y-102279005D01*
X83339927Y-102198740D01*
X83264877Y-102087350D01*
X83173746Y-101952655D01*
X83071800Y-101802476D01*
X82956930Y-101631851D01*
X82870761Y-101499311D01*
X82812131Y-101402112D01*
X82777650Y-101334234D01*
X82763926Y-101289656D01*
X82767568Y-101262361D01*
X82768794Y-101260313D01*
X82801747Y-101220536D01*
X82868927Y-101148052D01*
X82963419Y-101050046D01*
X83078306Y-100933702D01*
X83206672Y-100806205D01*
X83339831Y-100676821D01*
X83470269Y-100555209D01*
X83566119Y-100473156D01*
X83629866Y-100428560D01*
X83663996Y-100419317D01*
X83668456Y-100421393D01*
X83715421Y-100449385D01*
X83800685Y-100504084D01*
X83916259Y-100580237D01*
X84054154Y-100672592D01*
X84206381Y-100775897D01*
X84702610Y-101114765D01*
X84926707Y-101013056D01*
X84933219Y-101010109D01*
X85070804Y-100950504D01*
X85216767Y-100891222D01*
X85340575Y-100844685D01*
X85341122Y-100844493D01*
X85439414Y-100808497D01*
X85515081Y-100778095D01*
X85551780Y-100759852D01*
X85552374Y-100759190D01*
X85564833Y-100721831D01*
X85585336Y-100636871D01*
X85611907Y-100513469D01*
X85642567Y-100360782D01*
X85675336Y-100187967D01*
X85676478Y-100181774D01*
X85709193Y-100005431D01*
X85739155Y-99845743D01*
X85764425Y-99712905D01*
X85783065Y-99617113D01*
X85793135Y-99568563D01*
X85793779Y-99565873D01*
X85800408Y-99545088D01*
X85813841Y-99529466D01*
X85841446Y-99518270D01*
X85890593Y-99510762D01*
X85968653Y-99506205D01*
X86082994Y-99503863D01*
X86240986Y-99502998D01*
X86450000Y-99502874D01*
X86476262Y-99502874D01*
X86679175Y-99503045D01*
G37*
X86679175Y-99503045D02*
X86831895Y-99504039D01*
X86941792Y-99506593D01*
X87016235Y-99511445D01*
X87062594Y-99519331D01*
X87088239Y-99530988D01*
X87100539Y-99547153D01*
X87106865Y-99568563D01*
X87107047Y-99569332D01*
X87117441Y-99619663D01*
X87136339Y-99716888D01*
X87161802Y-99850810D01*
X87191890Y-100011235D01*
X87224664Y-100187967D01*
X87227337Y-100202428D01*
X87260010Y-100373959D01*
X87290413Y-100524625D01*
X87316568Y-100645267D01*
X87336496Y-100726729D01*
X87348220Y-100759852D01*
X87348282Y-100759905D01*
X87385229Y-100778229D01*
X87461057Y-100808677D01*
X87559425Y-100844685D01*
X87564965Y-100846640D01*
X87690724Y-100894170D01*
X87837011Y-100953783D01*
X87973293Y-101013056D01*
X88197390Y-101114765D01*
X88693618Y-100775897D01*
X88728570Y-100752063D01*
X88878280Y-100650755D01*
X89011867Y-100561575D01*
X89121343Y-100489773D01*
X89198718Y-100440603D01*
X89236004Y-100419317D01*
X89261552Y-100424196D01*
X89319555Y-100462002D01*
X89409195Y-100536870D01*
X89532957Y-100650903D01*
X89693328Y-100806205D01*
X89707679Y-100820341D01*
X89834933Y-100946999D01*
X89947969Y-101061745D01*
X90039867Y-101157391D01*
X90103707Y-101226746D01*
X90132570Y-101262620D01*
X90132664Y-101262794D01*
X90136331Y-101290106D01*
X90122808Y-101334408D01*
X90088684Y-101401761D01*
X90030548Y-101498226D01*
X89944988Y-101629863D01*
X89828594Y-101802734D01*
X89808759Y-101831912D01*
X89708445Y-101979726D01*
X89619923Y-102110577D01*
X89548465Y-102216643D01*
X89499343Y-102290102D01*
X89477831Y-102323130D01*
X89476208Y-102330126D01*
X89486387Y-102382326D01*
X89516879Y-102467561D01*
X89562712Y-102571291D01*
X89625000Y-102706951D01*
X89694548Y-102867921D01*
X89753609Y-103013621D01*
X89768252Y-103051333D01*
X89806600Y-103147622D01*
X89834770Y-103214704D01*
X89847497Y-103239885D01*
X89861545Y-103241767D01*
X89924681Y-103252651D01*
X90028019Y-103271449D01*
X90160809Y-103296115D01*
X90312297Y-103324604D01*
X90471732Y-103354873D01*
X90628361Y-103384875D01*
X90771433Y-103412566D01*
X90890195Y-103435900D01*
X90973896Y-103452833D01*
X91011782Y-103461320D01*
X91018063Y-103463713D01*
X91033373Y-103476619D01*
X91044763Y-103504096D01*
X91052803Y-103553446D01*
X91058064Y-103631973D01*
X91061116Y-103746980D01*
X91062529Y-103905770D01*
X91062873Y-104115645D01*
X91062873Y-104753906D01*
X90909598Y-104784160D01*
X90891057Y-104787785D01*
X90792596Y-104806569D01*
X90656448Y-104832093D01*
X90498087Y-104861468D01*
X90332988Y-104891806D01*
X90267973Y-104904009D01*
X90122697Y-104933697D01*
X90001626Y-104961770D01*
X89915886Y-104985536D01*
X89876601Y-105002301D01*
X89858799Y-105029694D01*
X89826389Y-105102174D01*
X89793234Y-105195977D01*
X89781564Y-105231103D01*
X89738604Y-105346409D01*
X89683192Y-105482876D01*
X89624353Y-105617954D01*
X89592884Y-105688509D01*
X89548051Y-105793895D01*
X89517240Y-105872818D01*
X89505785Y-105912053D01*
X89506422Y-105915014D01*
X89528150Y-105956639D01*
X89577146Y-106036969D01*
X89648438Y-106148220D01*
X89737054Y-106282605D01*
X89838023Y-106432340D01*
X90170261Y-106919931D01*
X89733771Y-107357149D01*
X89691555Y-107399221D01*
X89562470Y-107525153D01*
X89447107Y-107633754D01*
X89352224Y-107718903D01*
X89284582Y-107774482D01*
X89250938Y-107794368D01*
X89214402Y-107779238D01*
X89137890Y-107735801D01*
X89030196Y-107669270D01*
X88899767Y-107584867D01*
X88755052Y-107487816D01*
X88612910Y-107391964D01*
X88484678Y-107307557D01*
X88380054Y-107240850D01*
X88307171Y-107197024D01*
X88274158Y-107181264D01*
X88272223Y-107181408D01*
X88228369Y-107196945D01*
X88150598Y-107233121D01*
X88054392Y-107282785D01*
X88053381Y-107283329D01*
X87925605Y-107347326D01*
X87838051Y-107378591D01*
X87783726Y-107378677D01*
X87755641Y-107349138D01*
X87743752Y-107320061D01*
X87711668Y-107242188D01*
X87662247Y-107122475D01*
X87598118Y-106967286D01*
X87521911Y-106782984D01*
X87436255Y-106575933D01*
X87343781Y-106352496D01*
X87259962Y-106149226D01*
X87174678Y-105940649D01*
X87099222Y-105754263D01*
X87036126Y-105596407D01*
X86987923Y-105473419D01*
X86957144Y-105391639D01*
X86946322Y-105357406D01*
X86966991Y-105326015D01*
X87024409Y-105273602D01*
X87105688Y-105212704D01*
X87300820Y-105053387D01*
X87475445Y-104849807D01*
X87603235Y-104625808D01*
X87683402Y-104388003D01*
X87715160Y-104143007D01*
X87697722Y-103897433D01*
X87630301Y-103657895D01*
X87512111Y-103431007D01*
X87342364Y-103223383D01*
X87253856Y-103142527D01*
X87041804Y-102999559D01*
X86814905Y-102906352D01*
X86579791Y-102860687D01*
X86343094Y-102860344D01*
X86111446Y-102903105D01*
X85891478Y-102986750D01*
X85689822Y-103109061D01*
X85513111Y-103267817D01*
X85367977Y-103460801D01*
X85261050Y-103685793D01*
X85198964Y-103940575D01*
X85187569Y-104063377D01*
X85203246Y-104329434D01*
X85273846Y-104581856D01*
X85397282Y-104816182D01*
X85571466Y-105027952D01*
X85794311Y-105212704D01*
X85872561Y-105271123D01*
X85931244Y-105324110D01*
X85953678Y-105357356D01*
X85944732Y-105386339D01*
X85915703Y-105463996D01*
X85869026Y-105583451D01*
X85807231Y-105738362D01*
X85732850Y-105922392D01*
X85648412Y-106129200D01*
X85556449Y-106352446D01*
X85472771Y-106554742D01*
X85386366Y-106763686D01*
X85309138Y-106950498D01*
X85243716Y-107108814D01*
X85192731Y-107232269D01*
X85158812Y-107314498D01*
X85144590Y-107349138D01*
X85144425Y-107349548D01*
X85115972Y-107378798D01*
X85061382Y-107378463D01*
X84973609Y-107346980D01*
X84845608Y-107282785D01*
X84835532Y-107277380D01*
X84740481Y-107228750D01*
X84665424Y-107194328D01*
X84625842Y-107181264D01*
X84593400Y-107196702D01*
X84520895Y-107240258D01*
X84416565Y-107306751D01*
X84288539Y-107390998D01*
X84144948Y-107487816D01*
X84003468Y-107582734D01*
X83872611Y-107667490D01*
X83764292Y-107734496D01*
X83686960Y-107778529D01*
X83649062Y-107794368D01*
X83642607Y-107792357D01*
X83597609Y-107760658D01*
X83520727Y-107695181D01*
X83418721Y-107602048D01*
X83298351Y-107487381D01*
X83166379Y-107357300D01*
X82730039Y-106920232D01*
X83409733Y-105920440D01*
X83306402Y-105696886D01*
X83306096Y-105696225D01*
X83244046Y-105553714D01*
X83180640Y-105395018D01*
X83129558Y-105254368D01*
X83121827Y-105231683D01*
X83082852Y-105126370D01*
X83047707Y-105044534D01*
X83023195Y-105002301D01*
X83013212Y-104996337D01*
X82953286Y-104976329D01*
X82851532Y-104950442D01*
X82719068Y-104921370D01*
X82567011Y-104891806D01*
X82521466Y-104883467D01*
X82356685Y-104853107D01*
X82202930Y-104824509D01*
X82075678Y-104800564D01*
X81990402Y-104784160D01*
X81837126Y-104753906D01*
X81837126Y-104115645D01*
X81837160Y-104037165D01*
X81837808Y-103845703D01*
X81839720Y-103702812D01*
X81843469Y-103601189D01*
X81849622Y-103533531D01*
X81858751Y-103492536D01*
X81871427Y-103470900D01*
X81888218Y-103461320D01*
X81904474Y-103457439D01*
X81970748Y-103443710D01*
X82076479Y-103422745D01*
X82210915Y-103396588D01*
X82363302Y-103367283D01*
X82522890Y-103336877D01*
X82678925Y-103307413D01*
X82820657Y-103280937D01*
X82937331Y-103259494D01*
X83018197Y-103245128D01*
X83052503Y-103239885D01*
X83054822Y-103236720D01*
X83073474Y-103195642D01*
X83105753Y-103117044D01*
X83146391Y-103013621D01*
X83202788Y-102874273D01*
X83272214Y-102713226D01*
X83337288Y-102571291D01*
X83352202Y-102539432D01*
X83394047Y-102439669D01*
X83419118Y-102362721D01*
X83422426Y-102323130D01*
X83420720Y-102320325D01*
X83393631Y-102279005D01*
X83339927Y-102198740D01*
X83264877Y-102087350D01*
X83173746Y-101952655D01*
X83071800Y-101802476D01*
X82956930Y-101631851D01*
X82870761Y-101499311D01*
X82812131Y-101402112D01*
X82777650Y-101334234D01*
X82763926Y-101289656D01*
X82767568Y-101262361D01*
X82768794Y-101260313D01*
X82801747Y-101220536D01*
X82868927Y-101148052D01*
X82963419Y-101050046D01*
X83078306Y-100933702D01*
X83206672Y-100806205D01*
X83339831Y-100676821D01*
X83470269Y-100555209D01*
X83566119Y-100473156D01*
X83629866Y-100428560D01*
X83663996Y-100419317D01*
X83668456Y-100421393D01*
X83715421Y-100449385D01*
X83800685Y-100504084D01*
X83916259Y-100580237D01*
X84054154Y-100672592D01*
X84206381Y-100775897D01*
X84702610Y-101114765D01*
X84926707Y-101013056D01*
X84933219Y-101010109D01*
X85070804Y-100950504D01*
X85216767Y-100891222D01*
X85340575Y-100844685D01*
X85341122Y-100844493D01*
X85439414Y-100808497D01*
X85515081Y-100778095D01*
X85551780Y-100759852D01*
X85552374Y-100759190D01*
X85564833Y-100721831D01*
X85585336Y-100636871D01*
X85611907Y-100513469D01*
X85642567Y-100360782D01*
X85675336Y-100187967D01*
X85676478Y-100181774D01*
X85709193Y-100005431D01*
X85739155Y-99845743D01*
X85764425Y-99712905D01*
X85783065Y-99617113D01*
X85793135Y-99568563D01*
X85793779Y-99565873D01*
X85800408Y-99545088D01*
X85813841Y-99529466D01*
X85841446Y-99518270D01*
X85890593Y-99510762D01*
X85968653Y-99506205D01*
X86082994Y-99503863D01*
X86240986Y-99502998D01*
X86450000Y-99502874D01*
X86476262Y-99502874D01*
X86679175Y-99503045D01*
G36*
X82361628Y-108964810D02*
G01*
X82424194Y-108980702D01*
X82482446Y-109020322D01*
X82557418Y-109094076D01*
X82605633Y-109146163D01*
X82655858Y-109213786D01*
X82678510Y-109277168D01*
X82683793Y-109357584D01*
X82683793Y-109489201D01*
X82594035Y-109442785D01*
X82522904Y-109386225D01*
X82474183Y-109310040D01*
X82465814Y-109289326D01*
X82402056Y-109209041D01*
X82313470Y-109168784D01*
X82216873Y-109172702D01*
X82129080Y-109224943D01*
X82091936Y-109267370D01*
X82070300Y-109321647D01*
X82093461Y-109369954D01*
X82165479Y-109418545D01*
X82290410Y-109473677D01*
X82309368Y-109481292D01*
X82423105Y-109531125D01*
X82520706Y-109580265D01*
X82582803Y-109619080D01*
X82644999Y-109688411D01*
X82686346Y-109799051D01*
X82681957Y-109917782D01*
X82633037Y-110030148D01*
X82540797Y-110121690D01*
X82466110Y-110160658D01*
X82321832Y-110187944D01*
X82241656Y-110184263D01*
X82167435Y-110164360D01*
X82138960Y-110122598D01*
X82149608Y-110053820D01*
X82152705Y-110044726D01*
X82177268Y-109996498D01*
X82218165Y-109978245D01*
X82296079Y-109979466D01*
X82351091Y-109981126D01*
X82415459Y-109966881D01*
X82459561Y-109924292D01*
X82484680Y-109871857D01*
X82487481Y-109816929D01*
X82487352Y-109816608D01*
X82454785Y-109786928D01*
X82385083Y-109743735D01*
X82294898Y-109695461D01*
X82200883Y-109650539D01*
X82119689Y-109617402D01*
X82067968Y-109604483D01*
X82060274Y-109617134D01*
X82050588Y-109676668D01*
X82043954Y-109773887D01*
X82041494Y-109896437D01*
X82040922Y-109981263D01*
X82038225Y-110088094D01*
X82033821Y-110161257D01*
X82028270Y-110188391D01*
X81999254Y-110179272D01*
X81940684Y-110154509D01*
X81866322Y-110120627D01*
X81866322Y-109685933D01*
X81866797Y-109574508D01*
X81871293Y-109405301D01*
X81882747Y-109279769D01*
X81903828Y-109188363D01*
X81937206Y-109121532D01*
X81985550Y-109069726D01*
X82051531Y-109023393D01*
X82135594Y-108985156D01*
X82290807Y-108962184D01*
X82361628Y-108964810D01*
G37*
X82361628Y-108964810D02*
X82424194Y-108980702D01*
X82482446Y-109020322D01*
X82557418Y-109094076D01*
X82605633Y-109146163D01*
X82655858Y-109213786D01*
X82678510Y-109277168D01*
X82683793Y-109357584D01*
X82683793Y-109489201D01*
X82594035Y-109442785D01*
X82522904Y-109386225D01*
X82474183Y-109310040D01*
X82465814Y-109289326D01*
X82402056Y-109209041D01*
X82313470Y-109168784D01*
X82216873Y-109172702D01*
X82129080Y-109224943D01*
X82091936Y-109267370D01*
X82070300Y-109321647D01*
X82093461Y-109369954D01*
X82165479Y-109418545D01*
X82290410Y-109473677D01*
X82309368Y-109481292D01*
X82423105Y-109531125D01*
X82520706Y-109580265D01*
X82582803Y-109619080D01*
X82644999Y-109688411D01*
X82686346Y-109799051D01*
X82681957Y-109917782D01*
X82633037Y-110030148D01*
X82540797Y-110121690D01*
X82466110Y-110160658D01*
X82321832Y-110187944D01*
X82241656Y-110184263D01*
X82167435Y-110164360D01*
X82138960Y-110122598D01*
X82149608Y-110053820D01*
X82152705Y-110044726D01*
X82177268Y-109996498D01*
X82218165Y-109978245D01*
X82296079Y-109979466D01*
X82351091Y-109981126D01*
X82415459Y-109966881D01*
X82459561Y-109924292D01*
X82484680Y-109871857D01*
X82487481Y-109816929D01*
X82487352Y-109816608D01*
X82454785Y-109786928D01*
X82385083Y-109743735D01*
X82294898Y-109695461D01*
X82200883Y-109650539D01*
X82119689Y-109617402D01*
X82067968Y-109604483D01*
X82060274Y-109617134D01*
X82050588Y-109676668D01*
X82043954Y-109773887D01*
X82041494Y-109896437D01*
X82040922Y-109981263D01*
X82038225Y-110088094D01*
X82033821Y-110161257D01*
X82028270Y-110188391D01*
X81999254Y-110179272D01*
X81940684Y-110154509D01*
X81866322Y-110120627D01*
X81866322Y-109685933D01*
X81866797Y-109574508D01*
X81871293Y-109405301D01*
X81882747Y-109279769D01*
X81903828Y-109188363D01*
X81937206Y-109121532D01*
X81985550Y-109069726D01*
X82051531Y-109023393D01*
X82135594Y-108985156D01*
X82290807Y-108962184D01*
X82361628Y-108964810D01*
G36*
X91903668Y-109903736D02*
G01*
X91904471Y-109968785D01*
X91907040Y-110186260D01*
X91907556Y-110352672D01*
X91904437Y-110473846D01*
X91896100Y-110555607D01*
X91880962Y-110603781D01*
X91857441Y-110624194D01*
X91823956Y-110622672D01*
X91778923Y-110605039D01*
X91720761Y-110577121D01*
X91708332Y-110571164D01*
X91656578Y-110542006D01*
X91629550Y-110507314D01*
X91619207Y-110449470D01*
X91617509Y-110350857D01*
X91617433Y-110173793D01*
X91435038Y-110173793D01*
X91322840Y-110168880D01*
X91234620Y-110148953D01*
X91161358Y-110108678D01*
X91155896Y-110104741D01*
X91081558Y-110038243D01*
X91029823Y-109957908D01*
X90997196Y-109852758D01*
X90980182Y-109711815D01*
X90976030Y-109552588D01*
X91267241Y-109552588D01*
X91267291Y-109579276D01*
X91270064Y-109699738D01*
X91278967Y-109778484D01*
X91296617Y-109829618D01*
X91325632Y-109867241D01*
X91327440Y-109869038D01*
X91398753Y-109917720D01*
X91467865Y-109912921D01*
X91545925Y-109853971D01*
X91565019Y-109833823D01*
X91593142Y-109792515D01*
X91609000Y-109738787D01*
X91616009Y-109657326D01*
X91617586Y-109532821D01*
X91616220Y-109457445D01*
X91601402Y-109320362D01*
X91567579Y-109230548D01*
X91511389Y-109181460D01*
X91429472Y-109166552D01*
X91394956Y-109169729D01*
X91335235Y-109201254D01*
X91295752Y-109271505D01*
X91273942Y-109386583D01*
X91267241Y-109552588D01*
X90976030Y-109552588D01*
X90975287Y-109524101D01*
X90976371Y-109387122D01*
X90981307Y-109283364D01*
X90992272Y-109211412D01*
X91011438Y-109157500D01*
X91040977Y-109107864D01*
X91068092Y-109069931D01*
X91166550Y-108967522D01*
X91278100Y-108911903D01*
X91418246Y-108894297D01*
X91578635Y-108911847D01*
X91717288Y-108974797D01*
X91826951Y-109085824D01*
X91835218Y-109097578D01*
X91854499Y-109128813D01*
X91869269Y-109164507D01*
X91880254Y-109212364D01*
X91888174Y-109280087D01*
X91893753Y-109375382D01*
X91897713Y-109505952D01*
X91898188Y-109532821D01*
X91900778Y-109679502D01*
X91903668Y-109903736D01*
G37*
X91903668Y-109903736D02*
X91904471Y-109968785D01*
X91907040Y-110186260D01*
X91907556Y-110352672D01*
X91904437Y-110473846D01*
X91896100Y-110555607D01*
X91880962Y-110603781D01*
X91857441Y-110624194D01*
X91823956Y-110622672D01*
X91778923Y-110605039D01*
X91720761Y-110577121D01*
X91708332Y-110571164D01*
X91656578Y-110542006D01*
X91629550Y-110507314D01*
X91619207Y-110449470D01*
X91617509Y-110350857D01*
X91617433Y-110173793D01*
X91435038Y-110173793D01*
X91322840Y-110168880D01*
X91234620Y-110148953D01*
X91161358Y-110108678D01*
X91155896Y-110104741D01*
X91081558Y-110038243D01*
X91029823Y-109957908D01*
X90997196Y-109852758D01*
X90980182Y-109711815D01*
X90976030Y-109552588D01*
X91267241Y-109552588D01*
X91267291Y-109579276D01*
X91270064Y-109699738D01*
X91278967Y-109778484D01*
X91296617Y-109829618D01*
X91325632Y-109867241D01*
X91327440Y-109869038D01*
X91398753Y-109917720D01*
X91467865Y-109912921D01*
X91545925Y-109853971D01*
X91565019Y-109833823D01*
X91593142Y-109792515D01*
X91609000Y-109738787D01*
X91616009Y-109657326D01*
X91617586Y-109532821D01*
X91616220Y-109457445D01*
X91601402Y-109320362D01*
X91567579Y-109230548D01*
X91511389Y-109181460D01*
X91429472Y-109166552D01*
X91394956Y-109169729D01*
X91335235Y-109201254D01*
X91295752Y-109271505D01*
X91273942Y-109386583D01*
X91267241Y-109552588D01*
X90976030Y-109552588D01*
X90975287Y-109524101D01*
X90976371Y-109387122D01*
X90981307Y-109283364D01*
X90992272Y-109211412D01*
X91011438Y-109157500D01*
X91040977Y-109107864D01*
X91068092Y-109069931D01*
X91166550Y-108967522D01*
X91278100Y-108911903D01*
X91418246Y-108894297D01*
X91578635Y-108911847D01*
X91717288Y-108974797D01*
X91826951Y-109085824D01*
X91835218Y-109097578D01*
X91854499Y-109128813D01*
X91869269Y-109164507D01*
X91880254Y-109212364D01*
X91888174Y-109280087D01*
X91893753Y-109375382D01*
X91897713Y-109505952D01*
X91898188Y-109532821D01*
X91900778Y-109679502D01*
X91903668Y-109903736D01*
G36*
X86629995Y-108993674D02*
G01*
X86730355Y-109052191D01*
X86774505Y-109097784D01*
X86859347Y-109234072D01*
X86887931Y-109382658D01*
X86887931Y-109484882D01*
X86793963Y-109445372D01*
X86728977Y-109405504D01*
X86677763Y-109322734D01*
X86672504Y-109305669D01*
X86615903Y-109218724D01*
X86530594Y-109171758D01*
X86432641Y-109169741D01*
X86338106Y-109217644D01*
X86323993Y-109229998D01*
X86276797Y-109283683D01*
X86269003Y-109330488D01*
X86304706Y-109376446D01*
X86388003Y-109427588D01*
X86522988Y-109489948D01*
X86532118Y-109493897D01*
X86681969Y-109563772D01*
X86784316Y-109625672D01*
X86847320Y-109687476D01*
X86879138Y-109757062D01*
X86887931Y-109842308D01*
X86876409Y-109936816D01*
X86818228Y-110057785D01*
X86715875Y-110144688D01*
X86641843Y-110170778D01*
X86537367Y-110185055D01*
X86435917Y-110182006D01*
X86363472Y-110160467D01*
X86355777Y-110155104D01*
X86335341Y-110117632D01*
X86349522Y-110051591D01*
X86374161Y-109999753D01*
X86413670Y-109978172D01*
X86488602Y-109979246D01*
X86592630Y-109973055D01*
X86660605Y-109930311D01*
X86683563Y-109851189D01*
X86683542Y-109848916D01*
X86669629Y-109802986D01*
X86622303Y-109760845D01*
X86530287Y-109712272D01*
X86405151Y-109653790D01*
X86322268Y-109621975D01*
X86274420Y-109624025D01*
X86252063Y-109666051D01*
X86245649Y-109754162D01*
X86245632Y-109894469D01*
X86244917Y-109981081D01*
X86241635Y-110088041D01*
X86236300Y-110161250D01*
X86229585Y-110188391D01*
X86227790Y-110188206D01*
X86188982Y-110173498D01*
X86124709Y-110142456D01*
X86035880Y-110096521D01*
X86046436Y-109682628D01*
X86047171Y-109655179D01*
X86055555Y-109462517D01*
X86070366Y-109317309D01*
X86094629Y-109209887D01*
X86131364Y-109130584D01*
X86183597Y-109069730D01*
X86254348Y-109017658D01*
X86255657Y-109016842D01*
X86370056Y-108974360D01*
X86502365Y-108967184D01*
X86629995Y-108993674D01*
G37*
X86629995Y-108993674D02*
X86730355Y-109052191D01*
X86774505Y-109097784D01*
X86859347Y-109234072D01*
X86887931Y-109382658D01*
X86887931Y-109484882D01*
X86793963Y-109445372D01*
X86728977Y-109405504D01*
X86677763Y-109322734D01*
X86672504Y-109305669D01*
X86615903Y-109218724D01*
X86530594Y-109171758D01*
X86432641Y-109169741D01*
X86338106Y-109217644D01*
X86323993Y-109229998D01*
X86276797Y-109283683D01*
X86269003Y-109330488D01*
X86304706Y-109376446D01*
X86388003Y-109427588D01*
X86522988Y-109489948D01*
X86532118Y-109493897D01*
X86681969Y-109563772D01*
X86784316Y-109625672D01*
X86847320Y-109687476D01*
X86879138Y-109757062D01*
X86887931Y-109842308D01*
X86876409Y-109936816D01*
X86818228Y-110057785D01*
X86715875Y-110144688D01*
X86641843Y-110170778D01*
X86537367Y-110185055D01*
X86435917Y-110182006D01*
X86363472Y-110160467D01*
X86355777Y-110155104D01*
X86335341Y-110117632D01*
X86349522Y-110051591D01*
X86374161Y-109999753D01*
X86413670Y-109978172D01*
X86488602Y-109979246D01*
X86592630Y-109973055D01*
X86660605Y-109930311D01*
X86683563Y-109851189D01*
X86683542Y-109848916D01*
X86669629Y-109802986D01*
X86622303Y-109760845D01*
X86530287Y-109712272D01*
X86405151Y-109653790D01*
X86322268Y-109621975D01*
X86274420Y-109624025D01*
X86252063Y-109666051D01*
X86245649Y-109754162D01*
X86245632Y-109894469D01*
X86244917Y-109981081D01*
X86241635Y-110088041D01*
X86236300Y-110161250D01*
X86229585Y-110188391D01*
X86227790Y-110188206D01*
X86188982Y-110173498D01*
X86124709Y-110142456D01*
X86035880Y-110096521D01*
X86046436Y-109682628D01*
X86047171Y-109655179D01*
X86055555Y-109462517D01*
X86070366Y-109317309D01*
X86094629Y-109209887D01*
X86131364Y-109130584D01*
X86183597Y-109069730D01*
X86254348Y-109017658D01*
X86255657Y-109016842D01*
X86370056Y-108974360D01*
X86502365Y-108967184D01*
X86629995Y-108993674D01*
G36*
X85660872Y-109005536D02*
G01*
X85670090Y-109010638D01*
X85745381Y-109069080D01*
X85812698Y-109144215D01*
X85824439Y-109161196D01*
X85846883Y-109200825D01*
X85862918Y-109247858D01*
X85873945Y-109312492D01*
X85881365Y-109404923D01*
X85886579Y-109535349D01*
X85890989Y-109713965D01*
X85891614Y-109744162D01*
X85893620Y-109939941D01*
X85890792Y-110078603D01*
X85883088Y-110161103D01*
X85870466Y-110188391D01*
X85832267Y-110180220D01*
X85767374Y-110155463D01*
X85752094Y-110148223D01*
X85728227Y-110131835D01*
X85711769Y-110104893D01*
X85701005Y-110057833D01*
X85694219Y-109981088D01*
X85689693Y-109865095D01*
X85685713Y-109700287D01*
X85684622Y-109652112D01*
X85680407Y-109499960D01*
X85674936Y-109393476D01*
X85666554Y-109322565D01*
X85653606Y-109277129D01*
X85634439Y-109247072D01*
X85607398Y-109222296D01*
X85527337Y-109178861D01*
X85428846Y-109170498D01*
X85340719Y-109203734D01*
X85277314Y-109272548D01*
X85252988Y-109370920D01*
X85252311Y-109397658D01*
X85239024Y-109446065D01*
X85199796Y-109453450D01*
X85122983Y-109424624D01*
X85105192Y-109415378D01*
X85057109Y-109361006D01*
X85056157Y-109280161D01*
X85101968Y-109168352D01*
X85143990Y-109107419D01*
X85251435Y-109020859D01*
X85384057Y-108971920D01*
X85525867Y-108965260D01*
X85660872Y-109005536D01*
G37*
X85660872Y-109005536D02*
X85670090Y-109010638D01*
X85745381Y-109069080D01*
X85812698Y-109144215D01*
X85824439Y-109161196D01*
X85846883Y-109200825D01*
X85862918Y-109247858D01*
X85873945Y-109312492D01*
X85881365Y-109404923D01*
X85886579Y-109535349D01*
X85890989Y-109713965D01*
X85891614Y-109744162D01*
X85893620Y-109939941D01*
X85890792Y-110078603D01*
X85883088Y-110161103D01*
X85870466Y-110188391D01*
X85832267Y-110180220D01*
X85767374Y-110155463D01*
X85752094Y-110148223D01*
X85728227Y-110131835D01*
X85711769Y-110104893D01*
X85701005Y-110057833D01*
X85694219Y-109981088D01*
X85689693Y-109865095D01*
X85685713Y-109700287D01*
X85684622Y-109652112D01*
X85680407Y-109499960D01*
X85674936Y-109393476D01*
X85666554Y-109322565D01*
X85653606Y-109277129D01*
X85634439Y-109247072D01*
X85607398Y-109222296D01*
X85527337Y-109178861D01*
X85428846Y-109170498D01*
X85340719Y-109203734D01*
X85277314Y-109272548D01*
X85252988Y-109370920D01*
X85252311Y-109397658D01*
X85239024Y-109446065D01*
X85199796Y-109453450D01*
X85122983Y-109424624D01*
X85105192Y-109415378D01*
X85057109Y-109361006D01*
X85056157Y-109280161D01*
X85101968Y-109168352D01*
X85143990Y-109107419D01*
X85251435Y-109020859D01*
X85384057Y-108971920D01*
X85525867Y-108965260D01*
X85660872Y-109005536D01*
G36*
X90790168Y-109684639D02*
G01*
X90784926Y-109731526D01*
X90745868Y-109898409D01*
X90675290Y-110025326D01*
X90567955Y-110122602D01*
X90561888Y-110126616D01*
X90425440Y-110183706D01*
X90282973Y-110188786D01*
X90145696Y-110145311D01*
X90024819Y-110056734D01*
X89931552Y-109926509D01*
X89929986Y-109923369D01*
X89898993Y-109842501D01*
X89876292Y-109750593D01*
X89864250Y-109664311D01*
X89865237Y-109600321D01*
X89881623Y-109575287D01*
X89896179Y-109576809D01*
X89965792Y-109604496D01*
X90044697Y-109655409D01*
X90111820Y-109714343D01*
X90146087Y-109766094D01*
X90181707Y-109836291D01*
X90254711Y-109900138D01*
X90339485Y-109925632D01*
X90370558Y-109918261D01*
X90431891Y-109881154D01*
X90485315Y-109829644D01*
X90508161Y-109782913D01*
X90508154Y-109782740D01*
X90482233Y-109761280D01*
X90413127Y-109722565D01*
X90311249Y-109672037D01*
X90187011Y-109615134D01*
X90186328Y-109614833D01*
X90051355Y-109554738D01*
X89960884Y-109511440D01*
X89906039Y-109478179D01*
X89877944Y-109448194D01*
X89867724Y-109414726D01*
X89866503Y-109371015D01*
X89874996Y-109288244D01*
X90163219Y-109288244D01*
X90192970Y-109314265D01*
X90267101Y-109353256D01*
X90269274Y-109354359D01*
X90356733Y-109396009D01*
X90434974Y-109429235D01*
X90484611Y-109443291D01*
X90504521Y-109424503D01*
X90508161Y-109360124D01*
X90493035Y-109280001D01*
X90440597Y-109207189D01*
X90364677Y-109169439D01*
X90280040Y-109173251D01*
X90201447Y-109225121D01*
X90170555Y-109260965D01*
X90163219Y-109288244D01*
X89874996Y-109288244D01*
X89877251Y-109266265D01*
X89930389Y-109123949D01*
X90019342Y-109012111D01*
X90134448Y-108934676D01*
X90266045Y-108895568D01*
X90404472Y-108898711D01*
X90540065Y-108948030D01*
X90663164Y-109047447D01*
X90731366Y-109145829D01*
X90780356Y-109286261D01*
X90788322Y-109360124D01*
X90799452Y-109463329D01*
X90790168Y-109684639D01*
G37*
X90790168Y-109684639D02*
X90784926Y-109731526D01*
X90745868Y-109898409D01*
X90675290Y-110025326D01*
X90567955Y-110122602D01*
X90561888Y-110126616D01*
X90425440Y-110183706D01*
X90282973Y-110188786D01*
X90145696Y-110145311D01*
X90024819Y-110056734D01*
X89931552Y-109926509D01*
X89929986Y-109923369D01*
X89898993Y-109842501D01*
X89876292Y-109750593D01*
X89864250Y-109664311D01*
X89865237Y-109600321D01*
X89881623Y-109575287D01*
X89896179Y-109576809D01*
X89965792Y-109604496D01*
X90044697Y-109655409D01*
X90111820Y-109714343D01*
X90146087Y-109766094D01*
X90181707Y-109836291D01*
X90254711Y-109900138D01*
X90339485Y-109925632D01*
X90370558Y-109918261D01*
X90431891Y-109881154D01*
X90485315Y-109829644D01*
X90508161Y-109782913D01*
X90508154Y-109782740D01*
X90482233Y-109761280D01*
X90413127Y-109722565D01*
X90311249Y-109672037D01*
X90187011Y-109615134D01*
X90186328Y-109614833D01*
X90051355Y-109554738D01*
X89960884Y-109511440D01*
X89906039Y-109478179D01*
X89877944Y-109448194D01*
X89867724Y-109414726D01*
X89866503Y-109371015D01*
X89874996Y-109288244D01*
X90163219Y-109288244D01*
X90192970Y-109314265D01*
X90267101Y-109353256D01*
X90269274Y-109354359D01*
X90356733Y-109396009D01*
X90434974Y-109429235D01*
X90484611Y-109443291D01*
X90504521Y-109424503D01*
X90508161Y-109360124D01*
X90493035Y-109280001D01*
X90440597Y-109207189D01*
X90364677Y-109169439D01*
X90280040Y-109173251D01*
X90201447Y-109225121D01*
X90170555Y-109260965D01*
X90163219Y-109288244D01*
X89874996Y-109288244D01*
X89877251Y-109266265D01*
X89930389Y-109123949D01*
X90019342Y-109012111D01*
X90134448Y-108934676D01*
X90266045Y-108895568D01*
X90404472Y-108898711D01*
X90540065Y-108948030D01*
X90663164Y-109047447D01*
X90731366Y-109145829D01*
X90780356Y-109286261D01*
X90788322Y-109360124D01*
X90799452Y-109463329D01*
X90790168Y-109684639D01*
G36*
X87814885Y-108568997D02*
G01*
X87909770Y-108609020D01*
X87909770Y-109398706D01*
X87909769Y-109407920D01*
X87909377Y-109615083D01*
X87908329Y-109801432D01*
X87906722Y-109959453D01*
X87904655Y-110081630D01*
X87902225Y-110160448D01*
X87899529Y-110188391D01*
X87898475Y-110188297D01*
X87862647Y-110178144D01*
X87797345Y-110156339D01*
X87705402Y-110124288D01*
X87705402Y-109712991D01*
X87704818Y-109551385D01*
X87702104Y-109434177D01*
X87695858Y-109354415D01*
X87684680Y-109301531D01*
X87667168Y-109264957D01*
X87641922Y-109234123D01*
X87624710Y-109217725D01*
X87531636Y-109172307D01*
X87429051Y-109176328D01*
X87335043Y-109230032D01*
X87321358Y-109243359D01*
X87299439Y-109271032D01*
X87284440Y-109307614D01*
X87275053Y-109363000D01*
X87269968Y-109447088D01*
X87267877Y-109569773D01*
X87267471Y-109740951D01*
X87267276Y-109827769D01*
X87266010Y-109970565D01*
X87263761Y-110084923D01*
X87260758Y-110160860D01*
X87257230Y-110188391D01*
X87256176Y-110188297D01*
X87220348Y-110178144D01*
X87155046Y-110156339D01*
X87063103Y-110124288D01*
X87063149Y-109711109D01*
X87063218Y-109674326D01*
X87067081Y-109482580D01*
X87078950Y-109337586D01*
X87101725Y-109229510D01*
X87138307Y-109148519D01*
X87191595Y-109084778D01*
X87264490Y-109028455D01*
X87335586Y-108993199D01*
X87449255Y-108965946D01*
X87561060Y-108964398D01*
X87647011Y-108990910D01*
X87653473Y-108994571D01*
X87673401Y-108994179D01*
X87687019Y-108963506D01*
X87696846Y-108893188D01*
X87705402Y-108773857D01*
X87720000Y-108528973D01*
X87814885Y-108568997D01*
G37*
X87814885Y-108568997D02*
X87909770Y-108609020D01*
X87909770Y-109398706D01*
X87909769Y-109407920D01*
X87909377Y-109615083D01*
X87908329Y-109801432D01*
X87906722Y-109959453D01*
X87904655Y-110081630D01*
X87902225Y-110160448D01*
X87899529Y-110188391D01*
X87898475Y-110188297D01*
X87862647Y-110178144D01*
X87797345Y-110156339D01*
X87705402Y-110124288D01*
X87705402Y-109712991D01*
X87704818Y-109551385D01*
X87702104Y-109434177D01*
X87695858Y-109354415D01*
X87684680Y-109301531D01*
X87667168Y-109264957D01*
X87641922Y-109234123D01*
X87624710Y-109217725D01*
X87531636Y-109172307D01*
X87429051Y-109176328D01*
X87335043Y-109230032D01*
X87321358Y-109243359D01*
X87299439Y-109271032D01*
X87284440Y-109307614D01*
X87275053Y-109363000D01*
X87269968Y-109447088D01*
X87267877Y-109569773D01*
X87267471Y-109740951D01*
X87267276Y-109827769D01*
X87266010Y-109970565D01*
X87263761Y-110084923D01*
X87260758Y-110160860D01*
X87257230Y-110188391D01*
X87256176Y-110188297D01*
X87220348Y-110178144D01*
X87155046Y-110156339D01*
X87063103Y-110124288D01*
X87063149Y-109711109D01*
X87063218Y-109674326D01*
X87067081Y-109482580D01*
X87078950Y-109337586D01*
X87101725Y-109229510D01*
X87138307Y-109148519D01*
X87191595Y-109084778D01*
X87264490Y-109028455D01*
X87335586Y-108993199D01*
X87449255Y-108965946D01*
X87561060Y-108964398D01*
X87647011Y-108990910D01*
X87653473Y-108994571D01*
X87673401Y-108994179D01*
X87687019Y-108963506D01*
X87696846Y-108893188D01*
X87705402Y-108773857D01*
X87720000Y-108528973D01*
X87814885Y-108568997D01*
D13*
X72588800Y-74263364D02*
X72588800Y-74479036D01*
X73308800Y-74263364D02*
X73308800Y-74479036D01*
X67314400Y-99320236D02*
X67314400Y-99104564D01*
X66594400Y-99320236D02*
X66594400Y-99104564D01*
X79500759Y-70026800D02*
X79808041Y-70026800D01*
X79500759Y-69266800D02*
X79808041Y-69266800D01*
X70169600Y-77520800D02*
X70169600Y-78170800D01*
X73289600Y-77520800D02*
X73289600Y-79195800D01*
X73289600Y-77520800D02*
X73289600Y-76870800D01*
X70169600Y-77520800D02*
X70169600Y-76870800D01*
X68569621Y-68734400D02*
X68895179Y-68734400D01*
X68569621Y-67714400D02*
X68895179Y-67714400D01*
X79500759Y-68200000D02*
X79808041Y-68200000D01*
X79500759Y-68960000D02*
X79808041Y-68960000D01*
X71298800Y-74524841D02*
X71298800Y-74217559D01*
X72058800Y-74524841D02*
X72058800Y-74217559D01*
X76661600Y-74479036D02*
X76661600Y-74263364D01*
X75941600Y-74479036D02*
X75941600Y-74263364D01*
X68624564Y-70362400D02*
X68840236Y-70362400D01*
X68624564Y-69642400D02*
X68840236Y-69642400D01*
X70923036Y-72334800D02*
X70707364Y-72334800D01*
X70923036Y-73054800D02*
X70707364Y-73054800D01*
X70658400Y-68738636D02*
X70658400Y-68522964D01*
X71378400Y-68738636D02*
X71378400Y-68522964D01*
X73686400Y-74217559D02*
X73686400Y-74524841D01*
X74446400Y-74217559D02*
X74446400Y-74524841D01*
X77779200Y-74263364D02*
X77779200Y-74479036D01*
X77059200Y-74263364D02*
X77059200Y-74479036D01*
X68624564Y-71166400D02*
X68840236Y-71166400D01*
X68624564Y-71886400D02*
X68840236Y-71886400D01*
X78786400Y-71799564D02*
X78786400Y-72015236D01*
X79506400Y-71799564D02*
X79506400Y-72015236D01*
%LPC*%
D15*
X50000000Y-50000000D02*
X100000000Y-50000000D01*
X100000000Y-50000000D02*
X100000000Y-52000000D01*
X100000000Y-52000000D02*
X50000000Y-52000000D01*
X50000000Y-52000000D02*
X50000000Y-50000000D01*
G36*
X50000000Y-50000000D02*
G01*
X100000000Y-50000000D01*
X100000000Y-52000000D01*
X50000000Y-52000000D01*
X50000000Y-50000000D01*
G37*
X50000000Y-50000000D02*
X52000000Y-50000000D01*
X52000000Y-50000000D02*
X52000000Y-130000000D01*
X52000000Y-130000000D02*
X50000000Y-130000000D01*
X50000000Y-130000000D02*
X50000000Y-50000000D01*
G36*
X50000000Y-50000000D02*
G01*
X52000000Y-50000000D01*
X52000000Y-130000000D01*
X50000000Y-130000000D01*
X50000000Y-50000000D01*
G37*
X98000000Y-50000000D02*
X100000000Y-50000000D01*
X100000000Y-50000000D02*
X100000000Y-130000000D01*
X100000000Y-130000000D02*
X98000000Y-130000000D01*
X98000000Y-130000000D02*
X98000000Y-50000000D01*
G36*
X98000000Y-50000000D02*
G01*
X100000000Y-50000000D01*
X100000000Y-130000000D01*
X98000000Y-130000000D01*
X98000000Y-50000000D01*
G37*
X50000000Y-130000000D02*
X100000000Y-130000000D01*
X100000000Y-130000000D02*
X100000000Y-128000000D01*
X100000000Y-128000000D02*
X50000000Y-128000000D01*
X50000000Y-128000000D02*
X50000000Y-130000000D01*
G36*
X50000000Y-130000000D02*
G01*
X100000000Y-130000000D01*
X100000000Y-128000000D01*
X50000000Y-128000000D01*
X50000000Y-130000000D01*
G37*
D16*
X71500000Y-53800000D03*
D17*
X68960000Y-53800000D03*
D18*
X96000000Y-65000000D03*
D19*
X56925000Y-85300000D03*
D20*
X58195000Y-85300000D03*
X56925000Y-86570000D03*
X58195000Y-86570000D03*
X56925000Y-87840000D03*
X58195000Y-87840000D03*
X56925000Y-89110000D03*
X58195000Y-89110000D03*
X56925000Y-90380000D03*
X58195000Y-90380000D03*
D21*
X59500000Y-117850400D03*
X59500000Y-121050400D03*
X59500000Y-124250400D03*
X56500000Y-117850400D03*
X56500000Y-121050400D03*
X56500000Y-124250400D03*
D22*
X61300000Y-126900400D03*
X54700000Y-115200400D03*
D18*
X54000000Y-110000000D03*
X96000000Y-110000000D03*
X54000000Y-65000000D03*
D23*
X74990000Y-123485000D03*
X69210000Y-123485000D03*
D24*
X76420000Y-127165000D03*
D25*
X76420000Y-122985000D03*
D24*
X67780000Y-127165000D03*
D25*
X67780000Y-122985000D03*
D26*
X95000000Y-117175000D03*
D27*
X95000000Y-119715000D03*
X92460000Y-117175000D03*
X92460000Y-119715000D03*
X89920000Y-117175000D03*
X89920000Y-119715000D03*
X87380000Y-117175000D03*
X87380000Y-119715000D03*
X84840000Y-117175000D03*
X84840000Y-119715000D03*
X82300000Y-117175000D03*
X82300000Y-119715000D03*
D28*
X60000000Y-56000000D03*
D29*
X57450000Y-53450000D03*
X62550000Y-58550000D03*
X62550000Y-53450000D03*
X57450000Y-58550000D03*
D16*
X81500000Y-53700000D03*
D17*
X78960000Y-53700000D03*
D28*
X90000000Y-56000000D03*
D29*
X92550000Y-53450000D03*
X87450000Y-53450000D03*
X87450000Y-58550000D03*
X92550000Y-58550000D03*
D30*
X68224400Y-100307200D03*
X68224400Y-101267200D03*
D31*
X65836800Y-99692400D03*
X65836800Y-98732400D03*
D32*
X70634800Y-98755200D03*
X69674800Y-98755200D03*
X69517200Y-66700400D03*
X68557200Y-66700400D03*
D33*
X71325200Y-71628000D03*
X70305200Y-71628000D03*
D34*
X71808400Y-98755200D03*
X72768400Y-98755200D03*
D35*
X75184000Y-73861200D03*
X75184000Y-74881200D03*
D34*
X75262800Y-64922400D03*
X76222800Y-64922400D03*
D33*
X76252800Y-66090800D03*
X75232800Y-66090800D03*
D36*
X70762400Y-66700400D03*
X71782400Y-66700400D03*
D30*
X72948800Y-73891200D03*
X72948800Y-74851200D03*
D31*
X66954400Y-99692400D03*
X66954400Y-98732400D03*
D36*
X79144400Y-69646800D03*
X80164400Y-69646800D03*
D37*
X72679600Y-78458300D03*
X70779600Y-78458300D03*
X71729600Y-76583300D03*
D38*
X67944900Y-68224400D03*
X69519900Y-68224400D03*
D36*
X79144400Y-68580000D03*
X80164400Y-68580000D03*
D39*
X71678800Y-74881200D03*
X71678800Y-73861200D03*
D31*
X76301600Y-74851200D03*
X76301600Y-73891200D03*
D34*
X68252400Y-70002400D03*
X69212400Y-70002400D03*
D32*
X71295200Y-72694800D03*
X70335200Y-72694800D03*
D31*
X71018400Y-69110800D03*
X71018400Y-68150800D03*
D35*
X74066400Y-73861200D03*
X74066400Y-74881200D03*
D30*
X77419200Y-73891200D03*
X77419200Y-74851200D03*
D34*
X68252400Y-71526400D03*
X69212400Y-71526400D03*
D30*
X79146400Y-71427400D03*
X79146400Y-72387400D03*
M02*
