%TF.GenerationSoftware,KiCad,Pcbnew,(6.0.6-0)*%
%TF.CreationDate,2023-01-17T18:34:31+00:00*%
%TF.ProjectId,max2871-evalboard,6d617832-3837-4312-9d65-76616c626f61,1.0*%
%TF.SameCoordinates,Original*%
%TF.FileFunction,Paste,Bot*%
%TF.FilePolarity,Positive*%
%FSLAX46Y46*%
G04 Gerber Fmt 4.6, Leading zero omitted, Abs format (unit mm)*
G04 Created by KiCad (PCBNEW (6.0.6-0)) date 2023-01-17 18:34:31*
%MOMM*%
%LPD*%
G01*
G04 APERTURE LIST*
G04 Aperture macros list*
%AMRoundRect*
0 Rectangle with rounded corners*
0 $1 Rounding radius*
0 $2 $3 $4 $5 $6 $7 $8 $9 X,Y pos of 4 corners*
0 Add a 4 corners polygon primitive as box body*
4,1,4,$2,$3,$4,$5,$6,$7,$8,$9,$2,$3,0*
0 Add four circle primitives for the rounded corners*
1,1,$1+$1,$2,$3*
1,1,$1+$1,$4,$5*
1,1,$1+$1,$6,$7*
1,1,$1+$1,$8,$9*
0 Add four rect primitives between the rounded corners*
20,1,$1+$1,$2,$3,$4,$5,0*
20,1,$1+$1,$4,$5,$6,$7,0*
20,1,$1+$1,$6,$7,$8,$9,0*
20,1,$1+$1,$8,$9,$2,$3,0*%
G04 Aperture macros list end*
%ADD10RoundRect,0.140000X-0.170000X0.140000X-0.170000X-0.140000X0.170000X-0.140000X0.170000X0.140000X0*%
%ADD11RoundRect,0.140000X0.170000X-0.140000X0.170000X0.140000X-0.170000X0.140000X-0.170000X-0.140000X0*%
%ADD12RoundRect,0.140000X0.140000X0.170000X-0.140000X0.170000X-0.140000X-0.170000X0.140000X-0.170000X0*%
%ADD13RoundRect,0.135000X0.135000X0.185000X-0.135000X0.185000X-0.135000X-0.185000X0.135000X-0.185000X0*%
%ADD14RoundRect,0.140000X-0.140000X-0.170000X0.140000X-0.170000X0.140000X0.170000X-0.140000X0.170000X0*%
%ADD15RoundRect,0.135000X-0.185000X0.135000X-0.185000X-0.135000X0.185000X-0.135000X0.185000X0.135000X0*%
%ADD16RoundRect,0.135000X-0.135000X-0.185000X0.135000X-0.185000X0.135000X0.185000X-0.135000X0.185000X0*%
%ADD17RoundRect,0.150000X0.150000X-0.587500X0.150000X0.587500X-0.150000X0.587500X-0.150000X-0.587500X0*%
%ADD18RoundRect,0.218750X-0.218750X-0.256250X0.218750X-0.256250X0.218750X0.256250X-0.218750X0.256250X0*%
%ADD19RoundRect,0.135000X0.185000X-0.135000X0.185000X0.135000X-0.185000X0.135000X-0.185000X-0.135000X0*%
G04 APERTURE END LIST*
D10*
X68224400Y-100307200D03*
X68224400Y-101267200D03*
D11*
X65836800Y-99692400D03*
X65836800Y-98732400D03*
D12*
X70634800Y-98755200D03*
X69674800Y-98755200D03*
X69517200Y-66700400D03*
X68557200Y-66700400D03*
D13*
X71325200Y-71628000D03*
X70305200Y-71628000D03*
D14*
X71808400Y-98755200D03*
X72768400Y-98755200D03*
D15*
X75184000Y-73861200D03*
X75184000Y-74881200D03*
D14*
X75262800Y-64922400D03*
X76222800Y-64922400D03*
D13*
X76252800Y-66090800D03*
X75232800Y-66090800D03*
D16*
X70762400Y-66700400D03*
X71782400Y-66700400D03*
D10*
X72948800Y-73891200D03*
X72948800Y-74851200D03*
D11*
X66954400Y-99692400D03*
X66954400Y-98732400D03*
D16*
X79144400Y-69646800D03*
X80164400Y-69646800D03*
D17*
X72679600Y-78458300D03*
X70779600Y-78458300D03*
X71729600Y-76583300D03*
D18*
X67944900Y-68224400D03*
X69519900Y-68224400D03*
D16*
X79144400Y-68580000D03*
X80164400Y-68580000D03*
D19*
X71678800Y-74881200D03*
X71678800Y-73861200D03*
D11*
X76301600Y-74851200D03*
X76301600Y-73891200D03*
D14*
X68252400Y-70002400D03*
X69212400Y-70002400D03*
D12*
X71295200Y-72694800D03*
X70335200Y-72694800D03*
D11*
X71018400Y-69110800D03*
X71018400Y-68150800D03*
D15*
X74066400Y-73861200D03*
X74066400Y-74881200D03*
D10*
X77419200Y-73891200D03*
X77419200Y-74851200D03*
D14*
X68252400Y-71526400D03*
X69212400Y-71526400D03*
D10*
X79146400Y-71427400D03*
X79146400Y-72387400D03*
M02*
