M48
; DRILL file {KiCad (6.0.6-0)} date 2023 January 17, Tuesday 18:34:34
; FORMAT={-:-/ absolute / metric / decimal}
; #@! TF.CreationDate,2023-01-17T18:34:34+00:00
; #@! TF.GenerationSoftware,Kicad,Pcbnew,(6.0.6-0)
; #@! TF.FileFunction,Plated,1,4,PTH
FMAT,2
METRIC
; #@! TA.AperFunction,Plated,PTH,ViaDrill
T1C0.200
; #@! TA.AperFunction,Plated,PTH,ViaDrill
T2C0.300
; #@! TA.AperFunction,Plated,PTH,ViaDrill
T3C0.400
; #@! TA.AperFunction,Plated,PTH,ComponentDrill
T4C0.600
; #@! TA.AperFunction,Plated,PTH,ComponentDrill
T5C0.650
; #@! TA.AperFunction,Plated,PTH,ComponentDrill
T6C0.900
; #@! TA.AperFunction,Plated,PTH,ComponentDrill
T7C1.000
; #@! TA.AperFunction,Plated,PTH,ComponentDrill
T8C1.100
; #@! TA.AperFunction,Plated,PTH,ComponentDrill
T9C1.250
; #@! TA.AperFunction,Plated,PTH,ComponentDrill
T10C1.400
; #@! TA.AperFunction,Plated,PTH,ComponentDrill
T11C1.500
%
G90
G05
T1
X51.0Y-95.087
X54.85Y-93.1
X56.275Y-74.875
X56.35Y-94.55
X56.8Y-106.05
X58.0Y-99.15
X58.0Y-100.075
X58.0Y-101.1
X58.19Y-82.55
X58.3Y-74.875
X58.68Y-60.34
X58.68Y-61.88
X58.68Y-63.42
X58.68Y-64.96
X58.68Y-66.5
X59.0Y-106.0
X59.27Y-68.36
X59.3Y-71.25
X59.75Y-81.325
X59.85Y-80.2
X59.875Y-76.925
X60.15Y-98.15
X60.2Y-100.0
X60.37Y-69.8
X60.64Y-72.1
X60.925Y-79.3
X61.0Y-80.15
X61.22Y-60.34
X61.22Y-61.88
X61.22Y-63.42
X61.22Y-64.96
X61.22Y-66.5
X61.25Y-87.4
X61.75Y-82.5
X61.9Y-75.54
X61.9Y-79.275
X61.94Y-70.81
X61.975Y-84.7
X61.975Y-85.325
X62.0Y-68.51
X62.05Y-88.275
X62.55Y-109.95
X62.675Y-81.575
X62.675Y-82.5
X62.725Y-84.7
X62.725Y-85.325
X62.775Y-88.275
X62.775Y-88.975
X63.13Y-76.62
X63.67Y-74.22
X63.856Y-102.235
X63.9Y-69.42
X63.906Y-104.75
X63.91Y-105.37
X63.99Y-71.04
X64.35Y-56.0
X64.35Y-85.025
X64.4Y-88.325
X65.28Y-69.47
X65.64Y-71.15
X66.275Y-56.0
X66.294Y-91.719
X66.65Y-53.675
X66.68Y-69.45
X66.71Y-121.82
X66.827Y-101.625
X67.4Y-118.5
X67.437Y-92.735
X67.64Y-90.983
X67.793Y-106.248
X67.793Y-106.883
X68.25Y-84.35
X68.25Y-85.55
X68.275Y-56.75
X68.428Y-106.807
X68.504Y-73.584
X68.65Y-88.375
X68.9Y-103.657
X69.06Y-120.92
X69.063Y-82.347
X69.088Y-63.094
X69.418Y-97.9
X69.444Y-96.6
X69.45Y-95.4
X69.469Y-94.005
X69.647Y-62.332
X69.98Y-69.41
X70.225Y-74.2
X70.282Y-73.431
X70.5Y-63.625
X70.5Y-95.2
X70.5Y-96.25
X70.5Y-97.25
X70.56Y-123.77
X70.561Y-67.462
X70.764Y-79.985
X70.764Y-80.721
X70.764Y-81.407
X70.764Y-82.194
X71.222Y-98.45
X71.222Y-98.958
X71.309Y-63.9
X71.628Y-69.063
X71.65Y-95.2
X71.7Y-96.205
X71.7Y-97.25
X71.84Y-123.4
X71.958Y-102.921
X71.958Y-103.657
X72.288Y-67.513
X72.288Y-72.441
X72.387Y-63.9
X72.85Y-123.75
X73.212Y-119.649
X73.4Y-121.34
X73.431Y-93.65
X73.465Y-63.9
X73.625Y-53.625
X73.85Y-77.96
X73.914Y-70.536
X73.939Y-68.885
X73.939Y-69.672
X73.95Y-76.85
X74.0Y-75.75
X74.574Y-66.65
X74.75Y-68.885
X74.75Y-69.672
X74.75Y-70.536
X74.8Y-73.2
X75.15Y-53.6
X75.4Y-73.228
X75.45Y-99.85
X75.6Y-88.849
X75.6Y-89.637
X75.6Y-90.45
X75.614Y-68.885
X75.614Y-69.672
X75.614Y-70.536
X75.622Y-63.9
X75.667Y-114.148
X76.327Y-102.895
X76.327Y-103.835
X76.327Y-104.775
X76.352Y-114.91
X76.378Y-108.001
X76.378Y-108.712
X76.378Y-109.525
X76.403Y-73.252
X76.429Y-87.147
X76.7Y-63.9
X76.775Y-53.625
X77.14Y-115.748
X77.241Y-87.884
X77.343Y-103.835
X77.343Y-104.775
X77.35Y-72.25
X77.35Y-72.825
X77.47Y-67.412
X77.47Y-96.088
X77.495Y-93.396
X77.525Y-78.725
X77.55Y-57.99
X77.65Y-75.89
X77.902Y-67.716
X77.93Y-78.3
X77.95Y-73.025
X77.953Y-116.535
X78.025Y-127.175
X78.075Y-123.0
X78.232Y-87.935
X78.257Y-86.893
X78.283Y-69.037
X78.334Y-68.453
X78.334Y-96.805
X78.359Y-104.775
X78.375Y-78.74
X78.41Y-71.399
X78.9Y-102.25
X79.025Y-82.425
X79.172Y-106.477
X79.5Y-102.9
X79.553Y-88.621
X79.629Y-97.739
X79.654Y-107.137
X79.667Y-113.4
X79.83Y-66.33
X79.883Y-109.271
X80.188Y-106.502
X80.518Y-98.704
X80.55Y-83.125
X80.683Y-113.375
X80.696Y-109.245
X81.204Y-60.655
X81.356Y-99.593
X81.509Y-84.353
X81.75Y-113.375
X81.875Y-82.4
X82.26Y-68.625
X82.275Y-70.325
X82.825Y-85.925
X83.0Y-62.5
X83.15Y-56.025
X83.2Y-84.3
X83.25Y-73.65
X83.261Y-94.59
X83.325Y-70.325
X83.35Y-68.625
X83.464Y-96.114
X83.61Y-87.33
X85.05Y-64.4
X85.557Y-91.7
X85.875Y-55.35
X85.875Y-56.675
X85.9Y-70.35
X86.05Y-68.575
X86.141Y-91.228
X86.385Y-106.096
X86.436Y-88.367
X86.462Y-83.693
X86.462Y-85.825
X86.639Y-104.877
X86.7Y-91.7
X87.0Y-70.25
X87.706Y-84.582
X87.782Y-89.281
X87.875Y-67.9
X88.05Y-69.9
X88.325Y-72.5
X88.775Y-66.875
X88.975Y-69.375
X89.1Y-60.241
X89.1Y-61.569
X89.1Y-62.896
X89.1Y-64.223
X89.1Y-65.55
X89.75Y-84.875
X89.85Y-68.6
X90.414Y-106.104
X90.5Y-67.55
X90.85Y-60.211
X90.85Y-61.575
X90.85Y-62.9
X90.85Y-64.075
X90.85Y-65.325
X90.85Y-66.5
X91.625Y-106.1
X92.325Y-72.525
X93.125Y-62.325
X93.85Y-106.1
X94.55Y-61.25
X95.875Y-60.225
T2
X59.1Y-113.1
X61.849Y-77.902
X64.2Y-72.72
X64.99Y-72.72
X65.303Y-103.454
X65.76Y-72.72
X65.862Y-96.037
X67.08Y-66.7
X67.259Y-82.347
X67.75Y-102.45
X69.67Y-119.98
X70.9Y-57.15
X71.323Y-93.802
X71.679Y-100.482
X72.466Y-90.856
X74.5Y-121.39
X75.87Y-76.15
X76.62Y-76.15
X76.835Y-97.968
X77.648Y-94.361
X79.68Y-73.406
X87.45Y-77.95
X87.45Y-79.475
X89.075Y-77.95
X89.075Y-79.475
X90.9Y-77.95
X90.9Y-79.5
T3
X51.0Y-51.0
X51.0Y-54.391
X51.0Y-57.783
X51.0Y-61.174
X51.0Y-64.565
X51.0Y-67.957
X51.0Y-71.348
X51.0Y-74.739
X51.0Y-78.13
X51.0Y-81.522
X51.0Y-84.913
X51.0Y-88.304
X51.0Y-91.696
X51.0Y-98.478
X51.0Y-101.87
X51.0Y-105.261
X51.0Y-108.652
X51.0Y-112.043
X51.0Y-115.435
X51.0Y-118.826
X51.0Y-122.217
X51.0Y-125.609
X51.0Y-129.0
X53.25Y-68.925
X53.275Y-70.75
X53.286Y-51.0
X53.409Y-129.007
X55.571Y-51.0
X55.819Y-129.007
X57.857Y-51.0
X58.228Y-129.007
X60.143Y-51.0
X60.637Y-129.007
X62.429Y-51.0
X63.046Y-129.007
X64.714Y-51.0
X65.456Y-129.007
X66.421Y-100.711
X67.0Y-51.0
X67.285Y-100.711
X68.224Y-99.517
X68.375Y-108.875
X69.286Y-51.0
X70.175Y-128.825
X71.571Y-51.0
X73.3Y-61.44
X73.857Y-51.0
X73.858Y-128.825
X74.32Y-61.44
X76.143Y-51.0
X76.683Y-106.528
X77.749Y-106.528
X78.33Y-129.007
X78.429Y-51.0
X80.616Y-129.007
X80.714Y-51.0
X82.902Y-129.007
X83.0Y-51.0
X85.188Y-129.007
X85.286Y-51.0
X87.473Y-129.007
X87.571Y-51.0
X88.849Y-95.783
X89.332Y-94.945
X89.332Y-96.596
X89.759Y-129.007
X89.857Y-51.0
X89.865Y-95.783
X90.27Y-99.01
X90.881Y-95.783
X91.14Y-100.07
X91.389Y-94.945
X91.389Y-96.571
X91.897Y-95.783
X91.91Y-98.98
X91.95Y-91.1
X92.045Y-129.007
X92.143Y-51.0
X92.66Y-100.07
X94.33Y-129.007
X94.429Y-51.0
X96.616Y-129.007
X96.714Y-51.0
X99.0Y-51.0
X99.009Y-54.398
X99.009Y-57.789
X99.009Y-61.181
X99.009Y-64.572
X99.009Y-67.963
X99.009Y-71.354
X99.009Y-74.746
X99.009Y-78.137
X99.009Y-81.528
X99.009Y-84.92
X99.009Y-88.311
X99.009Y-91.702
X99.009Y-95.094
X99.009Y-98.485
X99.009Y-101.876
X99.009Y-105.267
X99.009Y-108.659
X99.009Y-112.05
X99.009Y-115.441
X99.009Y-118.833
X99.009Y-122.224
X99.009Y-125.615
X99.009Y-129.007
T5
X56.925Y-85.3
X56.925Y-86.57
X56.925Y-87.84
X56.925Y-89.11
X56.925Y-90.38
X58.195Y-85.3
X58.195Y-86.57
X58.195Y-87.84
X58.195Y-89.11
X58.195Y-90.38
T6
X68.96Y-53.8
X71.5Y-53.8
X78.96Y-53.7
X81.5Y-53.7
T7
X82.3Y-117.175
X82.3Y-119.715
X84.84Y-117.175
X84.84Y-119.715
X87.38Y-117.175
X87.38Y-119.715
X89.92Y-117.175
X89.92Y-119.715
X92.46Y-117.175
X92.46Y-119.715
X95.0Y-117.175
X95.0Y-119.715
T8
X56.5Y-117.85
X56.5Y-121.05
X56.5Y-124.25
X59.5Y-117.85
X59.5Y-121.05
X59.5Y-124.25
T9
X54.7Y-115.2
X61.3Y-126.9
T10
X60.0Y-56.0
X90.0Y-56.0
T11
X57.45Y-53.45
X57.45Y-58.55
X62.55Y-53.45
X62.55Y-58.55
X87.45Y-53.45
X87.45Y-58.55
X92.55Y-53.45
X92.55Y-58.55
T4
X67.78Y-122.435G85X67.78Y-123.535
G05
X67.78Y-126.765G85X67.78Y-127.565
G05
X76.42Y-122.435G85X76.42Y-123.535
G05
X76.42Y-126.765G85X76.42Y-127.565
G05
T0
M30
